<?xml version="1.0" encoding="UTF-8" standalone="no"?>
<!-- Created with Inkscape (http://www.inkscape.org/) -->

<svg
   width="210mm"
   height="297mm"
   viewBox="0 0 210 297"
   version="1.1"
   id="svg5"
   xml:space="preserve"
   sodipodi:docname="NES_Controller_Profile.svg"
   inkscape:version="1.2.2 (732a01da63, 2022-12-09)"
   xmlns:inkscape="http://www.inkscape.org/namespaces/inkscape"
   xmlns:sodipodi="http://sodipodi.sourceforge.net/DTD/sodipodi-0.dtd"
   xmlns="http://www.w3.org/2000/svg"
   xmlns:svg="http://www.w3.org/2000/svg"><sodipodi:namedview
     id="namedview7"
     pagecolor="#ffffff"
     bordercolor="#000000"
     borderopacity="0.25"
     inkscape:showpageshadow="2"
     inkscape:pageopacity="1"
     inkscape:pagecheckerboard="0"
     inkscape:deskcolor="#d1d1d1"
     inkscape:document-units="mm"
     showgrid="false"
     inkscape:zoom="1.2938725"
     inkscape:cx="642.25804"
     inkscape:cy="532.50997"
     inkscape:window-width="2560"
     inkscape:window-height="1377"
     inkscape:window-x="-8"
     inkscape:window-y="-8"
     inkscape:window-maximized="1"
     inkscape:current-layer="layer1" /><defs
     id="defs2" /><g
     inkscape:label="Layer 1"
     inkscape:groupmode="layer"
     id="layer1"><path
       style="fill:none;stroke-width:1;stroke:#000000"
       d="M 44.246347,202.14508 163.82716,174.81645 151.68111,123.91869 32.534079,150.66894 Z"
       id="path356" /><path
       style="fill:none;stroke:#000000;stroke-width:1"
       d="m 44.390944,202.14508 10.700097,1.59056 116.688899,-26.46106 -11.13388,-49.74099 -8.96496,-3.57875"
       id="path520"
       sodipodi:nodetypes="ccccc" /><path
       style="fill:none;stroke:#000000;stroke-width:1"
       d="m 62.062563,144.06285 c 0,0 3.578565,-37.57494 38.495147,-8.63968"
       id="path705"
       sodipodi:nodetypes="cc" /><path
       style="fill:none;stroke:#000000;stroke-width:1"
       d="m 124.96865,129.97863 c 0,0 8.17958,-18.5063 -15.23447,-51.429102"
       id="path707" /><path
       style="fill:none;stroke:#000000;stroke-width:1"
       d="m 48.25952,181.58667 7.361622,-1.73816 1.738161,8.28183 8.997537,-2.55612 -1.53367,-7.56611 7.668355,-2.24939 -1.53367,-8.28182 -7.668356,1.63591 -2.044895,-7.97509 -8.690803,1.84041 1.53367,7.46386 -7.975089,1.84041 z"
       id="path1375" /><path
       style="fill:none;stroke:#000000;stroke-width:1"
       d="m 81.259012,178.57045 13.036206,-2.93954 -0.690152,-3.04178 -12.959522,2.99066 z"
       id="path1379" /><path
       style="fill:none;stroke:#000000;stroke-width:1"
       d="m 97.260316,175.01745 13.291814,-2.88842 -0.76683,-3.19515 -13.29182,3.04179 z"
       id="path1381" /><ellipse
       style="fill:none;stroke:#000000;stroke-width:1"
       id="path1487"
       cx="122.72578"
       cy="166.35759"
       rx="5.3138995"
       ry="5.1331549" /><ellipse
       style="fill:none;stroke:#000000;stroke-width:1"
       id="path1487-8"
       cx="138.37828"
       cy="162.74271"
       rx="5.3138995"
       ry="5.1331549" /><path
       style="fill:none;stroke:#000000;stroke-width:1"
       d="m 171.77994,177.27458 -8.67575,-2.74732"
       id="path1562" /></g></svg>
