%TF.GenerationSoftware,KiCad,Pcbnew,7.0.6*%
%TF.CreationDate,2023-09-20T14:55:28-04:00*%
%TF.ProjectId,32U4_NES_SNES_adapter,33325534-5f4e-4455-935f-534e45535f61,rev?*%
%TF.SameCoordinates,Original*%
%TF.FileFunction,Copper,L2,Inr*%
%TF.FilePolarity,Positive*%
%FSLAX46Y46*%
G04 Gerber Fmt 4.6, Leading zero omitted, Abs format (unit mm)*
G04 Created by KiCad (PCBNEW 7.0.6) date 2023-09-20 14:55:28*
%MOMM*%
%LPD*%
G01*
G04 APERTURE LIST*
%TA.AperFunction,ComponentPad*%
%ADD10C,3.500000*%
%TD*%
%TA.AperFunction,ComponentPad*%
%ADD11C,2.700000*%
%TD*%
%TA.AperFunction,ComponentPad*%
%ADD12C,5.600000*%
%TD*%
%TA.AperFunction,ComponentPad*%
%ADD13O,2.100000X1.050000*%
%TD*%
%TA.AperFunction,ViaPad*%
%ADD14C,0.600000*%
%TD*%
%TA.AperFunction,ViaPad*%
%ADD15C,0.800000*%
%TD*%
G04 APERTURE END LIST*
D10*
%TO.N,VCC*%
%TO.C,J2*%
X97064000Y-120709000D03*
%TO.N,/SNES_1_CLK*%
X101064000Y-120709000D03*
%TO.N,/SNES_1_LATCH*%
X105064000Y-120809000D03*
%TO.N,/SNES_1_DATA*%
X109064000Y-120709000D03*
%TO.N,unconnected-(J2-Pad5)*%
X115564000Y-120709000D03*
%TO.N,unconnected-(J2-Pad6)*%
X119564000Y-120709000D03*
%TO.N,GND*%
X123564000Y-120709000D03*
%TD*%
D11*
%TO.N,VCC*%
%TO.C,J5*%
X147168000Y-86125000D03*
%TO.N,unconnected-(J5-Pad2)*%
X151359000Y-86125000D03*
%TO.N,unconnected-(J5-Pad3)*%
X155550000Y-86125000D03*
%TO.N,/NES_2_DATA*%
X155550000Y-89125000D03*
%TO.N,/NES_2_LATCH*%
X151359000Y-89125000D03*
%TO.N,/NES_2_CLK*%
X147168000Y-89125000D03*
%TO.N,GND*%
X142977000Y-89125000D03*
%TD*%
D12*
%TO.N,GND*%
%TO.C,H3*%
X155550000Y-97917000D03*
%TD*%
D11*
%TO.N,VCC*%
%TO.C,J4*%
X151282000Y-109709000D03*
%TO.N,unconnected-(J4-Pad2)*%
X147091000Y-109709000D03*
%TO.N,unconnected-(J4-Pad3)*%
X142900000Y-109709000D03*
%TO.N,/NES_1_DATA*%
X142900000Y-106709000D03*
%TO.N,/NES_1_LATCH*%
X147091000Y-106709000D03*
%TO.N,/NES_1_CLK*%
X151282000Y-106709000D03*
%TO.N,GND*%
X155473000Y-106709000D03*
%TD*%
D12*
%TO.N,GND*%
%TO.C,H1*%
X93895500Y-87249000D03*
%TD*%
%TO.N,GND*%
%TO.C,H2*%
X93895500Y-110109000D03*
%TD*%
D10*
%TO.N,VCC*%
%TO.C,J3*%
X124014000Y-75125000D03*
%TO.N,/SNES_2_CLK*%
X120014000Y-75125000D03*
%TO.N,/SNES_2_LATCH*%
X116014000Y-75025000D03*
%TO.N,/SNES_2_DATA*%
X112014000Y-75125000D03*
%TO.N,unconnected-(J3-Pad5)*%
X105514000Y-75125000D03*
%TO.N,unconnected-(J3-Pad6)*%
X101514000Y-75125000D03*
%TO.N,GND*%
X97514000Y-75125000D03*
%TD*%
D13*
%TO.N,unconnected-(J1-PadS1)*%
%TO.C,J1*%
X95535500Y-94359000D03*
%TO.N,unconnected-(J1-PadS2)*%
X95535500Y-102999000D03*
%TO.N,unconnected-(J1-PadS3)*%
X91355500Y-94359000D03*
%TO.N,unconnected-(J1-PadS4)*%
X91355500Y-102999000D03*
%TD*%
D14*
%TO.N,GND*%
X103962200Y-108597750D03*
X127381000Y-106172000D03*
X124688600Y-109702600D03*
X102631200Y-94046000D03*
D15*
X98119000Y-101929000D03*
D14*
X122841000Y-102584000D03*
X125857000Y-110896400D03*
D15*
X108876300Y-101020400D03*
D14*
X122047000Y-108354000D03*
X126618000Y-94894400D03*
X122841000Y-100584000D03*
X122841000Y-98584000D03*
X123317000Y-110894000D03*
X127127000Y-110894000D03*
X122047000Y-110894000D03*
X123670544Y-105039041D03*
X127127000Y-108354000D03*
X126841000Y-98584000D03*
X126841000Y-102584000D03*
X118265000Y-102466200D03*
X127127000Y-109624000D03*
X124841000Y-98584000D03*
X122047000Y-109624000D03*
X127127000Y-107084000D03*
D15*
X98119000Y-95278000D03*
D14*
X122250200Y-107086400D03*
X124841000Y-100584000D03*
X124841000Y-102584000D03*
X124587000Y-110894000D03*
X130584000Y-103544000D03*
X117652800Y-100584000D03*
X118290400Y-96266000D03*
X126841000Y-100584000D03*
X120627200Y-106349800D03*
X123487000Y-107111800D03*
X122758200Y-106172000D03*
X101092000Y-97429000D03*
%TO.N,VCC*%
X102362000Y-104770400D03*
X121587200Y-106349800D03*
X127578000Y-94894400D03*
X103581200Y-110121750D03*
X102631200Y-95946000D03*
X119225000Y-102497377D03*
X130584000Y-102584000D03*
X122341000Y-96266000D03*
D15*
X98119000Y-96238000D03*
D14*
X119151400Y-96266000D03*
%TO.N,Net-(R3-Pad2)*%
X121920000Y-104775000D03*
D15*
X108876300Y-104770400D03*
%TD*%
%TA.AperFunction,Conductor*%
%TO.N,GND*%
G36*
X164026121Y-68600002D02*
G01*
X164072614Y-68653658D01*
X164084000Y-68706000D01*
X164084000Y-127001000D01*
X164063998Y-127069121D01*
X164010342Y-127115614D01*
X163958000Y-127127000D01*
X92250351Y-127127000D01*
X92182230Y-127106998D01*
X92166061Y-127094655D01*
X89703710Y-124878539D01*
X89666457Y-124818101D01*
X89662000Y-124784884D01*
X89662000Y-120709000D01*
X95054380Y-120709000D01*
X95074835Y-120995002D01*
X95135781Y-121275166D01*
X95135781Y-121275167D01*
X95235984Y-121543825D01*
X95307929Y-121675582D01*
X95369645Y-121788607D01*
X95373402Y-121795486D01*
X95545226Y-122025015D01*
X95545229Y-122025018D01*
X95545231Y-122025021D01*
X95747979Y-122227769D01*
X95747982Y-122227771D01*
X95747984Y-122227773D01*
X95963376Y-122389014D01*
X95977517Y-122399600D01*
X96229174Y-122537015D01*
X96497825Y-122637216D01*
X96497828Y-122637216D01*
X96497832Y-122637218D01*
X96642471Y-122668682D01*
X96778001Y-122698165D01*
X97064000Y-122718620D01*
X97349999Y-122698165D01*
X97630166Y-122637218D01*
X97630167Y-122637218D01*
X97630168Y-122637217D01*
X97630175Y-122637216D01*
X97898826Y-122537015D01*
X98150483Y-122399600D01*
X98380021Y-122227769D01*
X98582769Y-122025021D01*
X98754600Y-121795483D01*
X98892015Y-121543826D01*
X98945945Y-121399232D01*
X98988490Y-121342398D01*
X99055011Y-121317587D01*
X99124385Y-121332678D01*
X99174587Y-121382880D01*
X99182052Y-121399225D01*
X99194605Y-121432880D01*
X99235984Y-121543825D01*
X99307929Y-121675582D01*
X99369645Y-121788607D01*
X99373402Y-121795486D01*
X99545226Y-122025015D01*
X99545229Y-122025018D01*
X99545231Y-122025021D01*
X99747979Y-122227769D01*
X99747982Y-122227771D01*
X99747984Y-122227773D01*
X99963376Y-122389014D01*
X99977517Y-122399600D01*
X100229174Y-122537015D01*
X100497825Y-122637216D01*
X100497828Y-122637216D01*
X100497832Y-122637218D01*
X100642471Y-122668682D01*
X100778001Y-122698165D01*
X101064000Y-122718620D01*
X101349999Y-122698165D01*
X101630166Y-122637218D01*
X101630167Y-122637218D01*
X101630168Y-122637217D01*
X101630175Y-122637216D01*
X101898826Y-122537015D01*
X102150483Y-122399600D01*
X102380021Y-122227769D01*
X102582769Y-122025021D01*
X102754600Y-121795483D01*
X102892015Y-121543826D01*
X102927296Y-121449231D01*
X102969841Y-121392398D01*
X103036361Y-121367587D01*
X103105736Y-121382678D01*
X103155938Y-121432880D01*
X103163403Y-121449226D01*
X103163407Y-121449235D01*
X103235984Y-121643825D01*
X103312448Y-121783857D01*
X103343333Y-121840420D01*
X103373402Y-121895486D01*
X103545226Y-122125015D01*
X103545229Y-122125018D01*
X103545231Y-122125021D01*
X103747979Y-122327769D01*
X103747982Y-122327771D01*
X103747984Y-122327773D01*
X103947199Y-122476904D01*
X103977517Y-122499600D01*
X104229174Y-122637015D01*
X104497825Y-122737216D01*
X104497828Y-122737216D01*
X104497832Y-122737218D01*
X104659972Y-122772489D01*
X104778001Y-122798165D01*
X105064000Y-122818620D01*
X105349999Y-122798165D01*
X105630166Y-122737218D01*
X105630167Y-122737218D01*
X105630168Y-122737217D01*
X105630175Y-122737216D01*
X105898826Y-122637015D01*
X106150483Y-122499600D01*
X106380021Y-122327769D01*
X106582769Y-122125021D01*
X106754600Y-121895483D01*
X106892015Y-121643826D01*
X106964594Y-121449231D01*
X107007138Y-121392398D01*
X107073658Y-121367587D01*
X107143032Y-121382678D01*
X107193235Y-121432880D01*
X107200704Y-121449233D01*
X107235985Y-121543827D01*
X107307929Y-121675582D01*
X107369645Y-121788607D01*
X107373402Y-121795486D01*
X107545226Y-122025015D01*
X107545229Y-122025018D01*
X107545231Y-122025021D01*
X107747979Y-122227769D01*
X107747982Y-122227771D01*
X107747984Y-122227773D01*
X107963376Y-122389014D01*
X107977517Y-122399600D01*
X108229174Y-122537015D01*
X108497825Y-122637216D01*
X108497828Y-122637216D01*
X108497832Y-122637218D01*
X108642471Y-122668682D01*
X108778001Y-122698165D01*
X109064000Y-122718620D01*
X109349999Y-122698165D01*
X109630166Y-122637218D01*
X109630167Y-122637218D01*
X109630168Y-122637217D01*
X109630175Y-122637216D01*
X109898826Y-122537015D01*
X110150483Y-122399600D01*
X110380021Y-122227769D01*
X110582769Y-122025021D01*
X110754600Y-121795483D01*
X110892015Y-121543826D01*
X110992216Y-121275175D01*
X111053165Y-120994999D01*
X111073620Y-120709000D01*
X113554380Y-120709000D01*
X113574835Y-120995002D01*
X113635781Y-121275166D01*
X113635781Y-121275167D01*
X113735984Y-121543825D01*
X113807929Y-121675582D01*
X113869645Y-121788607D01*
X113873402Y-121795486D01*
X114045226Y-122025015D01*
X114045229Y-122025018D01*
X114045231Y-122025021D01*
X114247979Y-122227769D01*
X114247982Y-122227771D01*
X114247984Y-122227773D01*
X114463376Y-122389014D01*
X114477517Y-122399600D01*
X114729174Y-122537015D01*
X114997825Y-122637216D01*
X114997828Y-122637216D01*
X114997832Y-122637218D01*
X115142471Y-122668682D01*
X115278001Y-122698165D01*
X115564000Y-122718620D01*
X115849999Y-122698165D01*
X116130166Y-122637218D01*
X116130167Y-122637218D01*
X116130168Y-122637217D01*
X116130175Y-122637216D01*
X116398826Y-122537015D01*
X116650483Y-122399600D01*
X116880021Y-122227769D01*
X117082769Y-122025021D01*
X117254600Y-121795483D01*
X117392015Y-121543826D01*
X117445945Y-121399231D01*
X117488489Y-121342399D01*
X117555009Y-121317587D01*
X117624383Y-121332678D01*
X117674586Y-121382879D01*
X117682055Y-121399233D01*
X117735985Y-121543827D01*
X117807929Y-121675582D01*
X117869645Y-121788607D01*
X117873402Y-121795486D01*
X118045226Y-122025015D01*
X118045229Y-122025018D01*
X118045231Y-122025021D01*
X118247979Y-122227769D01*
X118247982Y-122227771D01*
X118247984Y-122227773D01*
X118463376Y-122389014D01*
X118477517Y-122399600D01*
X118729174Y-122537015D01*
X118997825Y-122637216D01*
X118997828Y-122637216D01*
X118997832Y-122637218D01*
X119142471Y-122668682D01*
X119278001Y-122698165D01*
X119564000Y-122718620D01*
X119849999Y-122698165D01*
X120130166Y-122637218D01*
X120130167Y-122637218D01*
X120130168Y-122637217D01*
X120130175Y-122637216D01*
X120398826Y-122537015D01*
X120650483Y-122399600D01*
X120880021Y-122227769D01*
X121082769Y-122025021D01*
X121254600Y-121795483D01*
X121310435Y-121693227D01*
X121360634Y-121643027D01*
X121430008Y-121627935D01*
X121496529Y-121652745D01*
X121534027Y-121697886D01*
X121604316Y-121840420D01*
X121768763Y-122086531D01*
X121796092Y-122117694D01*
X122700176Y-121213611D01*
X122769146Y-121324263D01*
X122909268Y-121471671D01*
X123057420Y-121574788D01*
X122155304Y-122476904D01*
X122155304Y-122476906D01*
X122186468Y-122504236D01*
X122432579Y-122668682D01*
X122698040Y-122799592D01*
X122698054Y-122799598D01*
X122978324Y-122894737D01*
X122978334Y-122894739D01*
X123268629Y-122952484D01*
X123268643Y-122952486D01*
X123563997Y-122971845D01*
X123564003Y-122971845D01*
X123859356Y-122952486D01*
X123859370Y-122952484D01*
X124149665Y-122894739D01*
X124149675Y-122894737D01*
X124429945Y-122799598D01*
X124429959Y-122799592D01*
X124695420Y-122668682D01*
X124941534Y-122504234D01*
X124941536Y-122504233D01*
X124972694Y-122476906D01*
X124972694Y-122476904D01*
X124068487Y-121572697D01*
X124138214Y-121533996D01*
X124292531Y-121401520D01*
X124417021Y-121240692D01*
X124429487Y-121215277D01*
X125331904Y-122117694D01*
X125331906Y-122117694D01*
X125359233Y-122086536D01*
X125359234Y-122086534D01*
X125523682Y-121840420D01*
X125654592Y-121574959D01*
X125654598Y-121574945D01*
X125749737Y-121294675D01*
X125749739Y-121294665D01*
X125807484Y-121004370D01*
X125807486Y-121004356D01*
X125822404Y-120776765D01*
X137120788Y-120776765D01*
X137150412Y-121046014D01*
X137218928Y-121308090D01*
X137324869Y-121557389D01*
X137335592Y-121574959D01*
X137465982Y-121788610D01*
X137639255Y-121996820D01*
X137639257Y-121996822D01*
X137639259Y-121996824D01*
X137739379Y-122086531D01*
X137840998Y-122177582D01*
X138066910Y-122327044D01*
X138312176Y-122442020D01*
X138571569Y-122520060D01*
X138571572Y-122520060D01*
X138571574Y-122520061D01*
X138839557Y-122559500D01*
X138839561Y-122559500D01*
X139042633Y-122559500D01*
X139077363Y-122556957D01*
X139245156Y-122544677D01*
X139245160Y-122544676D01*
X139245161Y-122544676D01*
X139426710Y-122504234D01*
X139509553Y-122485780D01*
X139762558Y-122389014D01*
X139998777Y-122256441D01*
X140213177Y-122090888D01*
X140401186Y-121895881D01*
X140558799Y-121675579D01*
X140575125Y-121643826D01*
X140682656Y-121434675D01*
X140682657Y-121434672D01*
X140693967Y-121401520D01*
X140770118Y-121178305D01*
X140819319Y-120911933D01*
X140824259Y-120776765D01*
X157620788Y-120776765D01*
X157650412Y-121046014D01*
X157718928Y-121308090D01*
X157824869Y-121557389D01*
X157835592Y-121574959D01*
X157965982Y-121788610D01*
X158139255Y-121996820D01*
X158139257Y-121996822D01*
X158139259Y-121996824D01*
X158239379Y-122086531D01*
X158340998Y-122177582D01*
X158566910Y-122327044D01*
X158812176Y-122442020D01*
X159071569Y-122520060D01*
X159071572Y-122520060D01*
X159071574Y-122520061D01*
X159339557Y-122559500D01*
X159339561Y-122559500D01*
X159542633Y-122559500D01*
X159577363Y-122556957D01*
X159745156Y-122544677D01*
X159745160Y-122544676D01*
X159745161Y-122544676D01*
X159926710Y-122504234D01*
X160009553Y-122485780D01*
X160262558Y-122389014D01*
X160498777Y-122256441D01*
X160713177Y-122090888D01*
X160901186Y-121895881D01*
X161058799Y-121675579D01*
X161075125Y-121643826D01*
X161182656Y-121434675D01*
X161182657Y-121434672D01*
X161193967Y-121401520D01*
X161270118Y-121178305D01*
X161319319Y-120911933D01*
X161329212Y-120641235D01*
X161305200Y-120423001D01*
X161299587Y-120371985D01*
X161265000Y-120239689D01*
X161231072Y-120109912D01*
X161224198Y-120093737D01*
X161125130Y-119860610D01*
X161082238Y-119790329D01*
X160984018Y-119629390D01*
X160810745Y-119421180D01*
X160810741Y-119421177D01*
X160810740Y-119421175D01*
X160609012Y-119240427D01*
X160609002Y-119240418D01*
X160383090Y-119090956D01*
X160137824Y-118975980D01*
X159980392Y-118928615D01*
X159878425Y-118897938D01*
X159610442Y-118858500D01*
X159610439Y-118858500D01*
X159407369Y-118858500D01*
X159407367Y-118858500D01*
X159204839Y-118873323D01*
X159204838Y-118873323D01*
X158940456Y-118932217D01*
X158940441Y-118932222D01*
X158687441Y-119028986D01*
X158451229Y-119161555D01*
X158451225Y-119161557D01*
X158236818Y-119327116D01*
X158048815Y-119522117D01*
X158048810Y-119522123D01*
X157891203Y-119742417D01*
X157891196Y-119742427D01*
X157767343Y-119983324D01*
X157767342Y-119983327D01*
X157679883Y-120239689D01*
X157679880Y-120239702D01*
X157630681Y-120506058D01*
X157630680Y-120506069D01*
X157620788Y-120776765D01*
X140824259Y-120776765D01*
X140829212Y-120641235D01*
X140805200Y-120423001D01*
X140799587Y-120371985D01*
X140765000Y-120239689D01*
X140731072Y-120109912D01*
X140724198Y-120093737D01*
X140625130Y-119860610D01*
X140582238Y-119790329D01*
X140484018Y-119629390D01*
X140310745Y-119421180D01*
X140310741Y-119421177D01*
X140310740Y-119421175D01*
X140109012Y-119240427D01*
X140109002Y-119240418D01*
X139883090Y-119090956D01*
X139637824Y-118975980D01*
X139480392Y-118928615D01*
X139378425Y-118897938D01*
X139110442Y-118858500D01*
X139110439Y-118858500D01*
X138907369Y-118858500D01*
X138907367Y-118858500D01*
X138704839Y-118873323D01*
X138704838Y-118873323D01*
X138440456Y-118932217D01*
X138440441Y-118932222D01*
X138187441Y-119028986D01*
X137951229Y-119161555D01*
X137951225Y-119161557D01*
X137736818Y-119327116D01*
X137548815Y-119522117D01*
X137548810Y-119522123D01*
X137391203Y-119742417D01*
X137391196Y-119742427D01*
X137267343Y-119983324D01*
X137267342Y-119983327D01*
X137179883Y-120239689D01*
X137179880Y-120239702D01*
X137130681Y-120506058D01*
X137130680Y-120506069D01*
X137120788Y-120776765D01*
X125822404Y-120776765D01*
X125826845Y-120709003D01*
X125826845Y-120708996D01*
X125807486Y-120413643D01*
X125807484Y-120413629D01*
X125749739Y-120123334D01*
X125749737Y-120123324D01*
X125654598Y-119843054D01*
X125654592Y-119843040D01*
X125523682Y-119577580D01*
X125359236Y-119331468D01*
X125331906Y-119300304D01*
X125331904Y-119300304D01*
X124427821Y-120204386D01*
X124358854Y-120093737D01*
X124218732Y-119946329D01*
X124070577Y-119843210D01*
X124972694Y-118941092D01*
X124941531Y-118913763D01*
X124695420Y-118749317D01*
X124429959Y-118618407D01*
X124429945Y-118618401D01*
X124149675Y-118523262D01*
X124149665Y-118523260D01*
X123859370Y-118465515D01*
X123859356Y-118465513D01*
X123564003Y-118446155D01*
X123563997Y-118446155D01*
X123268643Y-118465513D01*
X123268629Y-118465515D01*
X122978334Y-118523260D01*
X122978324Y-118523262D01*
X122698054Y-118618401D01*
X122698040Y-118618407D01*
X122432580Y-118749317D01*
X122186467Y-118913763D01*
X122186463Y-118913766D01*
X122155304Y-118941092D01*
X122155304Y-118941094D01*
X123059512Y-119845302D01*
X122989786Y-119884004D01*
X122835469Y-120016480D01*
X122710979Y-120177308D01*
X122698512Y-120202722D01*
X121796094Y-119300304D01*
X121796092Y-119300304D01*
X121768766Y-119331463D01*
X121768763Y-119331467D01*
X121604317Y-119577580D01*
X121534028Y-119720113D01*
X121485960Y-119772362D01*
X121417274Y-119790329D01*
X121349779Y-119768310D01*
X121310434Y-119724770D01*
X121254600Y-119622517D01*
X121103880Y-119421180D01*
X121082773Y-119392984D01*
X121082765Y-119392975D01*
X120880024Y-119190234D01*
X120880015Y-119190226D01*
X120650486Y-119018402D01*
X120650484Y-119018401D01*
X120650483Y-119018400D01*
X120492656Y-118932220D01*
X120398825Y-118880984D01*
X120130167Y-118780781D01*
X119850001Y-118719835D01*
X119850003Y-118719835D01*
X119564000Y-118699380D01*
X119277997Y-118719835D01*
X118997833Y-118780781D01*
X118997832Y-118780781D01*
X118729174Y-118880984D01*
X118477513Y-119018402D01*
X118247984Y-119190226D01*
X118247975Y-119190234D01*
X118045234Y-119392975D01*
X118045226Y-119392984D01*
X117873402Y-119622513D01*
X117735985Y-119874172D01*
X117682055Y-120018766D01*
X117639508Y-120075601D01*
X117572987Y-120100412D01*
X117503613Y-120085320D01*
X117453411Y-120035118D01*
X117445948Y-120018775D01*
X117392015Y-119874174D01*
X117254600Y-119622517D01*
X117103880Y-119421180D01*
X117082773Y-119392984D01*
X117082765Y-119392975D01*
X116880024Y-119190234D01*
X116880015Y-119190226D01*
X116650486Y-119018402D01*
X116650484Y-119018401D01*
X116650483Y-119018400D01*
X116492656Y-118932220D01*
X116398825Y-118880984D01*
X116130167Y-118780781D01*
X115850001Y-118719835D01*
X115850003Y-118719835D01*
X115564000Y-118699380D01*
X115277997Y-118719835D01*
X114997833Y-118780781D01*
X114997832Y-118780781D01*
X114729174Y-118880984D01*
X114477513Y-119018402D01*
X114247984Y-119190226D01*
X114247975Y-119190234D01*
X114045234Y-119392975D01*
X114045226Y-119392984D01*
X113873402Y-119622513D01*
X113735984Y-119874174D01*
X113635781Y-120142832D01*
X113635781Y-120142833D01*
X113574835Y-120422997D01*
X113554380Y-120709000D01*
X111073620Y-120709000D01*
X111053165Y-120423001D01*
X111013970Y-120242825D01*
X110992218Y-120142833D01*
X110992218Y-120142832D01*
X110992216Y-120142828D01*
X110992216Y-120142825D01*
X110892015Y-119874174D01*
X110754600Y-119622517D01*
X110603880Y-119421180D01*
X110582773Y-119392984D01*
X110582765Y-119392975D01*
X110380024Y-119190234D01*
X110380015Y-119190226D01*
X110150486Y-119018402D01*
X110150484Y-119018401D01*
X110150483Y-119018400D01*
X109992656Y-118932220D01*
X109898825Y-118880984D01*
X109630167Y-118780781D01*
X109350001Y-118719835D01*
X109350003Y-118719835D01*
X109064000Y-118699380D01*
X108777997Y-118719835D01*
X108497833Y-118780781D01*
X108497832Y-118780781D01*
X108229174Y-118880984D01*
X107977513Y-119018402D01*
X107747984Y-119190226D01*
X107747975Y-119190234D01*
X107545234Y-119392975D01*
X107545226Y-119392984D01*
X107373402Y-119622513D01*
X107235984Y-119874174D01*
X107163407Y-120068765D01*
X107120860Y-120125601D01*
X107054340Y-120150412D01*
X106984966Y-120135321D01*
X106934764Y-120085119D01*
X106927297Y-120068769D01*
X106892015Y-119974174D01*
X106754600Y-119722517D01*
X106684886Y-119629390D01*
X106582773Y-119492984D01*
X106582765Y-119492975D01*
X106380024Y-119290234D01*
X106380015Y-119290226D01*
X106150486Y-119118402D01*
X106150484Y-119118401D01*
X106150483Y-119118400D01*
X106038857Y-119057448D01*
X105898825Y-118980984D01*
X105630167Y-118880781D01*
X105350001Y-118819835D01*
X105350003Y-118819835D01*
X105064000Y-118799380D01*
X104777997Y-118819835D01*
X104497833Y-118880781D01*
X104497832Y-118880781D01*
X104229174Y-118980984D01*
X103977513Y-119118402D01*
X103747984Y-119290226D01*
X103747975Y-119290234D01*
X103545234Y-119492975D01*
X103545226Y-119492984D01*
X103373402Y-119722513D01*
X103235984Y-119974175D01*
X103235981Y-119974182D01*
X103200703Y-120068766D01*
X103158157Y-120125602D01*
X103091636Y-120150412D01*
X103022262Y-120135320D01*
X102972060Y-120085118D01*
X102964598Y-120068779D01*
X102892015Y-119874174D01*
X102754600Y-119622517D01*
X102603880Y-119421180D01*
X102582773Y-119392984D01*
X102582765Y-119392975D01*
X102380024Y-119190234D01*
X102380015Y-119190226D01*
X102150486Y-119018402D01*
X102150484Y-119018401D01*
X102150483Y-119018400D01*
X101992656Y-118932220D01*
X101898825Y-118880984D01*
X101630167Y-118780781D01*
X101350001Y-118719835D01*
X101350003Y-118719835D01*
X101064000Y-118699380D01*
X100777997Y-118719835D01*
X100497833Y-118780781D01*
X100497832Y-118780781D01*
X100229174Y-118880984D01*
X99977513Y-119018402D01*
X99747984Y-119190226D01*
X99747975Y-119190234D01*
X99545234Y-119392975D01*
X99545226Y-119392984D01*
X99373402Y-119622513D01*
X99235984Y-119874174D01*
X99182056Y-120018765D01*
X99139509Y-120075601D01*
X99072989Y-120100412D01*
X99003615Y-120085321D01*
X98953413Y-120035119D01*
X98945945Y-120018768D01*
X98892015Y-119874174D01*
X98754600Y-119622517D01*
X98603880Y-119421180D01*
X98582773Y-119392984D01*
X98582765Y-119392975D01*
X98380024Y-119190234D01*
X98380015Y-119190226D01*
X98150486Y-119018402D01*
X98150484Y-119018401D01*
X98150483Y-119018400D01*
X97992656Y-118932220D01*
X97898825Y-118880984D01*
X97630167Y-118780781D01*
X97350001Y-118719835D01*
X97350003Y-118719835D01*
X97064000Y-118699380D01*
X96777997Y-118719835D01*
X96497833Y-118780781D01*
X96497832Y-118780781D01*
X96229174Y-118880984D01*
X95977513Y-119018402D01*
X95747984Y-119190226D01*
X95747975Y-119190234D01*
X95545234Y-119392975D01*
X95545226Y-119392984D01*
X95373402Y-119622513D01*
X95235984Y-119874174D01*
X95135781Y-120142832D01*
X95135781Y-120142833D01*
X95074835Y-120422997D01*
X95054380Y-120709000D01*
X89662000Y-120709000D01*
X89662000Y-110109003D01*
X90582641Y-110109003D01*
X90602061Y-110467183D01*
X90660092Y-110821162D01*
X90756059Y-111166801D01*
X90888826Y-111500021D01*
X90888830Y-111500030D01*
X91056850Y-111816952D01*
X91056852Y-111816956D01*
X91258154Y-112113854D01*
X91383667Y-112261621D01*
X92595494Y-111049794D01*
X92597070Y-111052365D01*
X92760630Y-111243870D01*
X92952135Y-111407430D01*
X92954704Y-111409004D01*
X91740002Y-112623706D01*
X91750799Y-112633932D01*
X92036361Y-112851013D01*
X92036367Y-112851017D01*
X92343727Y-113035949D01*
X92343734Y-113035953D01*
X92669266Y-113186561D01*
X92669285Y-113186569D01*
X93009206Y-113301101D01*
X93009223Y-113301106D01*
X93359522Y-113378213D01*
X93359550Y-113378218D01*
X93716137Y-113416999D01*
X93716153Y-113417000D01*
X94074847Y-113417000D01*
X94074862Y-113416999D01*
X94431449Y-113378218D01*
X94431477Y-113378213D01*
X94781776Y-113301106D01*
X94781793Y-113301101D01*
X95121714Y-113186569D01*
X95121733Y-113186561D01*
X95447265Y-113035953D01*
X95447272Y-113035949D01*
X95754632Y-112851017D01*
X95754650Y-112851005D01*
X96040199Y-112633934D01*
X96040202Y-112633932D01*
X96050996Y-112623707D01*
X96050996Y-112623706D01*
X94836295Y-111409004D01*
X94838865Y-111407430D01*
X95030370Y-111243870D01*
X95193930Y-111052365D01*
X95195505Y-111049794D01*
X96407332Y-112261621D01*
X96532845Y-112113854D01*
X96734147Y-111816956D01*
X96734149Y-111816952D01*
X96902169Y-111500030D01*
X96902173Y-111500021D01*
X97034940Y-111166801D01*
X97130907Y-110821162D01*
X97188938Y-110467183D01*
X97207668Y-110121750D01*
X103021915Y-110121750D01*
X103040971Y-110266502D01*
X103096844Y-110401391D01*
X103096849Y-110401399D01*
X103185725Y-110517224D01*
X103301550Y-110606100D01*
X103301557Y-110606105D01*
X103436446Y-110661978D01*
X103508823Y-110671506D01*
X103581199Y-110681035D01*
X103581199Y-110681034D01*
X103581200Y-110681035D01*
X103725954Y-110661978D01*
X103860843Y-110606105D01*
X103976674Y-110517224D01*
X104065555Y-110401393D01*
X104121428Y-110266504D01*
X104140485Y-110121750D01*
X104121428Y-109976996D01*
X104065555Y-109842108D01*
X103976674Y-109726276D01*
X103976672Y-109726274D01*
X103976671Y-109726273D01*
X103860849Y-109637399D01*
X103860841Y-109637394D01*
X103725952Y-109581521D01*
X103581200Y-109562465D01*
X103436447Y-109581521D01*
X103369002Y-109609458D01*
X103301558Y-109637395D01*
X103301557Y-109637396D01*
X103301556Y-109637396D01*
X103185726Y-109726276D01*
X103096846Y-109842106D01*
X103096845Y-109842108D01*
X103090291Y-109857931D01*
X103040971Y-109976997D01*
X103021915Y-110121749D01*
X103021915Y-110121750D01*
X97207668Y-110121750D01*
X97208359Y-110109003D01*
X97208359Y-110108996D01*
X97188938Y-109750816D01*
X97130907Y-109396837D01*
X97034940Y-109051198D01*
X96902173Y-108717978D01*
X96902169Y-108717969D01*
X96734149Y-108401047D01*
X96734147Y-108401043D01*
X96532845Y-108104145D01*
X96407331Y-107956377D01*
X95195504Y-109168203D01*
X95193930Y-109165635D01*
X95030370Y-108974130D01*
X94838865Y-108810570D01*
X94836294Y-108808994D01*
X96050996Y-107594292D01*
X96040200Y-107584067D01*
X95754638Y-107366986D01*
X95754632Y-107366982D01*
X95447272Y-107182050D01*
X95447265Y-107182046D01*
X95121733Y-107031438D01*
X95121714Y-107031430D01*
X94781793Y-106916898D01*
X94781776Y-106916893D01*
X94431477Y-106839786D01*
X94431449Y-106839781D01*
X94074862Y-106801000D01*
X93716137Y-106801000D01*
X93359550Y-106839781D01*
X93359522Y-106839786D01*
X93009223Y-106916893D01*
X93009206Y-106916898D01*
X92669285Y-107031430D01*
X92669266Y-107031438D01*
X92343734Y-107182046D01*
X92343727Y-107182050D01*
X92036367Y-107366982D01*
X92036361Y-107366986D01*
X91750799Y-107584066D01*
X91740002Y-107594292D01*
X92954705Y-108808995D01*
X92952135Y-108810570D01*
X92760630Y-108974130D01*
X92597070Y-109165635D01*
X92595495Y-109168205D01*
X91383667Y-107956377D01*
X91383666Y-107956378D01*
X91258165Y-108104131D01*
X91056849Y-108401050D01*
X90888830Y-108717969D01*
X90888826Y-108717978D01*
X90756059Y-109051198D01*
X90660092Y-109396837D01*
X90602061Y-109750816D01*
X90582641Y-110108996D01*
X90582641Y-110109003D01*
X89662000Y-110109003D01*
X89662000Y-106349800D01*
X121027915Y-106349800D01*
X121046971Y-106494552D01*
X121102844Y-106629441D01*
X121102849Y-106629449D01*
X121191723Y-106745271D01*
X121191724Y-106745272D01*
X121191726Y-106745274D01*
X121245121Y-106786245D01*
X121286986Y-106843581D01*
X121291208Y-106914452D01*
X121285000Y-106933874D01*
X121285000Y-111379001D01*
X121411998Y-111505999D01*
X121412000Y-111506000D01*
X127698500Y-111506000D01*
X127825499Y-111379001D01*
X127825500Y-111379000D01*
X127825500Y-109709000D01*
X141290539Y-109709000D01*
X141310354Y-109960775D01*
X141314249Y-109976997D01*
X141369311Y-110206349D01*
X141465959Y-110439678D01*
X141597920Y-110655018D01*
X141597921Y-110655020D01*
X141761938Y-110847061D01*
X141953979Y-111011078D01*
X141953983Y-111011081D01*
X142169320Y-111143040D01*
X142402649Y-111239688D01*
X142648225Y-111298646D01*
X142900000Y-111318461D01*
X143151775Y-111298646D01*
X143397351Y-111239688D01*
X143630680Y-111143040D01*
X143846017Y-111011081D01*
X144038061Y-110847061D01*
X144202081Y-110655017D01*
X144334040Y-110439680D01*
X144430688Y-110206351D01*
X144489646Y-109960775D01*
X144509461Y-109709000D01*
X145481539Y-109709000D01*
X145501354Y-109960775D01*
X145505249Y-109976997D01*
X145560311Y-110206349D01*
X145656959Y-110439678D01*
X145788920Y-110655018D01*
X145788921Y-110655020D01*
X145952938Y-110847061D01*
X146144979Y-111011078D01*
X146144983Y-111011081D01*
X146360320Y-111143040D01*
X146593649Y-111239688D01*
X146839225Y-111298646D01*
X147091000Y-111318461D01*
X147342775Y-111298646D01*
X147588351Y-111239688D01*
X147821680Y-111143040D01*
X148037017Y-111011081D01*
X148229061Y-110847061D01*
X148393081Y-110655017D01*
X148525040Y-110439680D01*
X148621688Y-110206351D01*
X148680646Y-109960775D01*
X148700461Y-109709000D01*
X149672539Y-109709000D01*
X149692354Y-109960775D01*
X149696249Y-109976997D01*
X149751311Y-110206349D01*
X149847959Y-110439678D01*
X149979920Y-110655018D01*
X149979921Y-110655020D01*
X150143938Y-110847061D01*
X150335979Y-111011078D01*
X150335983Y-111011081D01*
X150551320Y-111143040D01*
X150784649Y-111239688D01*
X151030225Y-111298646D01*
X151282000Y-111318461D01*
X151533775Y-111298646D01*
X151779351Y-111239688D01*
X152012680Y-111143040D01*
X152228017Y-111011081D01*
X152420061Y-110847061D01*
X152584081Y-110655017D01*
X152716040Y-110439680D01*
X152812688Y-110206351D01*
X152871646Y-109960775D01*
X152891461Y-109709000D01*
X152871646Y-109457225D01*
X152812688Y-109211649D01*
X152716040Y-108978320D01*
X152584081Y-108762983D01*
X152584078Y-108762979D01*
X152420061Y-108570938D01*
X152228020Y-108406921D01*
X152228018Y-108406920D01*
X152228017Y-108406919D01*
X152080353Y-108316430D01*
X152032725Y-108263785D01*
X152021118Y-108193744D01*
X152049221Y-108128546D01*
X152080352Y-108101570D01*
X152228017Y-108011081D01*
X152420061Y-107847061D01*
X152584081Y-107655017D01*
X152716040Y-107439680D01*
X152812688Y-107206351D01*
X152871646Y-106960775D01*
X152891461Y-106709000D01*
X152891461Y-106708999D01*
X153610254Y-106708999D01*
X153629213Y-106974092D01*
X153685707Y-107233793D01*
X153778587Y-107482814D01*
X153905958Y-107716076D01*
X153991903Y-107830885D01*
X153991903Y-107830886D01*
X154754155Y-107068634D01*
X154843577Y-107210948D01*
X154971052Y-107338423D01*
X155113364Y-107427843D01*
X154351112Y-108190095D01*
X154351113Y-108190096D01*
X154465919Y-108276039D01*
X154699185Y-108403412D01*
X154948206Y-108496292D01*
X155207907Y-108552786D01*
X155472999Y-108571745D01*
X155738092Y-108552786D01*
X155997793Y-108496292D01*
X156246814Y-108403412D01*
X156480076Y-108276042D01*
X156594885Y-108190095D01*
X156594886Y-108190095D01*
X155832634Y-107427843D01*
X155974948Y-107338423D01*
X156102423Y-107210948D01*
X156191843Y-107068634D01*
X156954095Y-107830886D01*
X156954095Y-107830885D01*
X157040042Y-107716076D01*
X157167412Y-107482814D01*
X157260292Y-107233793D01*
X157316786Y-106974092D01*
X157335745Y-106709000D01*
X157316786Y-106443907D01*
X157260292Y-106184206D01*
X157167412Y-105935185D01*
X157040039Y-105701919D01*
X156954096Y-105587113D01*
X156954095Y-105587112D01*
X156191843Y-106349364D01*
X156102423Y-106207052D01*
X155974948Y-106079577D01*
X155832634Y-105990155D01*
X156594886Y-105227903D01*
X156480076Y-105141958D01*
X156246814Y-105014587D01*
X155997793Y-104921707D01*
X155738092Y-104865213D01*
X155472999Y-104846254D01*
X155207907Y-104865213D01*
X154948206Y-104921707D01*
X154699185Y-105014587D01*
X154465924Y-105141957D01*
X154351113Y-105227902D01*
X154351112Y-105227903D01*
X155113365Y-105990156D01*
X154971052Y-106079577D01*
X154843577Y-106207052D01*
X154754156Y-106349365D01*
X153991903Y-105587112D01*
X153991902Y-105587113D01*
X153905957Y-105701924D01*
X153778587Y-105935185D01*
X153685707Y-106184206D01*
X153629213Y-106443907D01*
X153610254Y-106708999D01*
X152891461Y-106708999D01*
X152871646Y-106457225D01*
X152812688Y-106211649D01*
X152716040Y-105978320D01*
X152584081Y-105762983D01*
X152584078Y-105762979D01*
X152420061Y-105570938D01*
X152228020Y-105406921D01*
X152228018Y-105406920D01*
X152228017Y-105406919D01*
X152012680Y-105274960D01*
X151975007Y-105259355D01*
X151779349Y-105178311D01*
X151611358Y-105137980D01*
X151533775Y-105119354D01*
X151282000Y-105099539D01*
X151281999Y-105099539D01*
X151030225Y-105119354D01*
X150784650Y-105178311D01*
X150551321Y-105274959D01*
X150335981Y-105406920D01*
X150335979Y-105406921D01*
X150143938Y-105570938D01*
X149979921Y-105762979D01*
X149979920Y-105762981D01*
X149847959Y-105978321D01*
X149751311Y-106211650D01*
X149695551Y-106443907D01*
X149692354Y-106457225D01*
X149672539Y-106709000D01*
X149690073Y-106931785D01*
X149692354Y-106960774D01*
X149751311Y-107206349D01*
X149817848Y-107366982D01*
X149847960Y-107439680D01*
X149890439Y-107509000D01*
X149979920Y-107655018D01*
X149979921Y-107655020D01*
X150143938Y-107847061D01*
X150335979Y-108011078D01*
X150335981Y-108011080D01*
X150335983Y-108011081D01*
X150483643Y-108101567D01*
X150531274Y-108154213D01*
X150542881Y-108224255D01*
X150514778Y-108289453D01*
X150483643Y-108316431D01*
X150335990Y-108406913D01*
X150335979Y-108406921D01*
X150143938Y-108570938D01*
X149979921Y-108762979D01*
X149979920Y-108762981D01*
X149847959Y-108978321D01*
X149751311Y-109211650D01*
X149706852Y-109396837D01*
X149692354Y-109457225D01*
X149672539Y-109709000D01*
X148700461Y-109709000D01*
X148680646Y-109457225D01*
X148621688Y-109211649D01*
X148525040Y-108978320D01*
X148393081Y-108762983D01*
X148393078Y-108762979D01*
X148229061Y-108570938D01*
X148037020Y-108406921D01*
X148037018Y-108406920D01*
X148037017Y-108406919D01*
X147889353Y-108316430D01*
X147841725Y-108263785D01*
X147830118Y-108193744D01*
X147858221Y-108128546D01*
X147889352Y-108101570D01*
X148037017Y-108011081D01*
X148229061Y-107847061D01*
X148393081Y-107655017D01*
X148525040Y-107439680D01*
X148621688Y-107206351D01*
X148680646Y-106960775D01*
X148700461Y-106709000D01*
X148680646Y-106457225D01*
X148621688Y-106211649D01*
X148525040Y-105978320D01*
X148393081Y-105762983D01*
X148393078Y-105762979D01*
X148229061Y-105570938D01*
X148037020Y-105406921D01*
X148037018Y-105406920D01*
X148037017Y-105406919D01*
X147821680Y-105274960D01*
X147784007Y-105259355D01*
X147588349Y-105178311D01*
X147420358Y-105137980D01*
X147342775Y-105119354D01*
X147091000Y-105099539D01*
X147090999Y-105099539D01*
X146839225Y-105119354D01*
X146593650Y-105178311D01*
X146360321Y-105274959D01*
X146144981Y-105406920D01*
X146144979Y-105406921D01*
X145952938Y-105570938D01*
X145788921Y-105762979D01*
X145788920Y-105762981D01*
X145656959Y-105978321D01*
X145560311Y-106211650D01*
X145504551Y-106443907D01*
X145501354Y-106457225D01*
X145481539Y-106709000D01*
X145499073Y-106931785D01*
X145501354Y-106960774D01*
X145560311Y-107206349D01*
X145626848Y-107366982D01*
X145656960Y-107439680D01*
X145699439Y-107509000D01*
X145788920Y-107655018D01*
X145788921Y-107655020D01*
X145952938Y-107847061D01*
X146144979Y-108011078D01*
X146144983Y-108011081D01*
X146292643Y-108101567D01*
X146340274Y-108154215D01*
X146351881Y-108224256D01*
X146323778Y-108289454D01*
X146292644Y-108316431D01*
X146199850Y-108373296D01*
X146144981Y-108406920D01*
X146144979Y-108406921D01*
X145952938Y-108570938D01*
X145788921Y-108762979D01*
X145788920Y-108762981D01*
X145656959Y-108978321D01*
X145560311Y-109211650D01*
X145515852Y-109396837D01*
X145501354Y-109457225D01*
X145481539Y-109709000D01*
X144509461Y-109709000D01*
X144489646Y-109457225D01*
X144430688Y-109211649D01*
X144334040Y-108978320D01*
X144202081Y-108762983D01*
X144202078Y-108762979D01*
X144038061Y-108570938D01*
X143846020Y-108406921D01*
X143846018Y-108406920D01*
X143846017Y-108406919D01*
X143698353Y-108316430D01*
X143650725Y-108263785D01*
X143639118Y-108193744D01*
X143667221Y-108128546D01*
X143698352Y-108101570D01*
X143846017Y-108011081D01*
X144038061Y-107847061D01*
X144202081Y-107655017D01*
X144334040Y-107439680D01*
X144430688Y-107206351D01*
X144489646Y-106960775D01*
X144509461Y-106709000D01*
X144489646Y-106457225D01*
X144430688Y-106211649D01*
X144334040Y-105978320D01*
X144202081Y-105762983D01*
X144202078Y-105762979D01*
X144038061Y-105570938D01*
X143846020Y-105406921D01*
X143846018Y-105406920D01*
X143846017Y-105406919D01*
X143630680Y-105274960D01*
X143593007Y-105259355D01*
X143397349Y-105178311D01*
X143229358Y-105137980D01*
X143151775Y-105119354D01*
X142900000Y-105099539D01*
X142648225Y-105119354D01*
X142402650Y-105178311D01*
X142169321Y-105274959D01*
X141953981Y-105406920D01*
X141953979Y-105406921D01*
X141761938Y-105570938D01*
X141597921Y-105762979D01*
X141597920Y-105762981D01*
X141465959Y-105978321D01*
X141369311Y-106211650D01*
X141313551Y-106443907D01*
X141310354Y-106457225D01*
X141290539Y-106709000D01*
X141308072Y-106931785D01*
X141310354Y-106960774D01*
X141369311Y-107206349D01*
X141435848Y-107366982D01*
X141465960Y-107439680D01*
X141508439Y-107509000D01*
X141597920Y-107655018D01*
X141597921Y-107655020D01*
X141761938Y-107847061D01*
X141953979Y-108011078D01*
X141953983Y-108011081D01*
X142101643Y-108101567D01*
X142149274Y-108154215D01*
X142160881Y-108224256D01*
X142132778Y-108289454D01*
X142101644Y-108316431D01*
X142008850Y-108373296D01*
X141953981Y-108406920D01*
X141953979Y-108406921D01*
X141761938Y-108570938D01*
X141597921Y-108762979D01*
X141597920Y-108762981D01*
X141465959Y-108978321D01*
X141369311Y-109211650D01*
X141324852Y-109396837D01*
X141310354Y-109457225D01*
X141290539Y-109709000D01*
X127825500Y-109709000D01*
X127825500Y-106172000D01*
X127825499Y-106171998D01*
X127698501Y-106045000D01*
X127698499Y-106045000D01*
X127571500Y-106171998D01*
X127571500Y-111126000D01*
X127551498Y-111194121D01*
X127497842Y-111240614D01*
X127445500Y-111252000D01*
X121665000Y-111252000D01*
X121596879Y-111231998D01*
X121550386Y-111178342D01*
X121539000Y-111126000D01*
X121539000Y-107050677D01*
X121559002Y-106982556D01*
X121577100Y-106960402D01*
X121606491Y-106931784D01*
X121669250Y-106898594D01*
X121677939Y-106897138D01*
X121731954Y-106890028D01*
X121866843Y-106834155D01*
X121982674Y-106745274D01*
X122071555Y-106629443D01*
X122127428Y-106494554D01*
X122146485Y-106349800D01*
X122127428Y-106205046D01*
X122071555Y-106070158D01*
X121982674Y-105954326D01*
X121982672Y-105954324D01*
X121982671Y-105954323D01*
X121866849Y-105865449D01*
X121866841Y-105865444D01*
X121731952Y-105809571D01*
X121587200Y-105790515D01*
X121442447Y-105809571D01*
X121375001Y-105837508D01*
X121307558Y-105865445D01*
X121307557Y-105865446D01*
X121307556Y-105865446D01*
X121191726Y-105954326D01*
X121102846Y-106070156D01*
X121102845Y-106070158D01*
X121074908Y-106137602D01*
X121046971Y-106205047D01*
X121027915Y-106349799D01*
X121027915Y-106349800D01*
X89662000Y-106349800D01*
X89662000Y-104770400D01*
X101802715Y-104770400D01*
X101821771Y-104915152D01*
X101877644Y-105050041D01*
X101877649Y-105050049D01*
X101966525Y-105165874D01*
X102082350Y-105254750D01*
X102082357Y-105254755D01*
X102217246Y-105310628D01*
X102252187Y-105315228D01*
X102361999Y-105329685D01*
X102361999Y-105329684D01*
X102362000Y-105329685D01*
X102506754Y-105310628D01*
X102641643Y-105254755D01*
X102757474Y-105165874D01*
X102846355Y-105050043D01*
X102902228Y-104915154D01*
X102921285Y-104770403D01*
X108216993Y-104770403D01*
X108236149Y-104928179D01*
X108268920Y-105014587D01*
X108292513Y-105076795D01*
X108382802Y-105207601D01*
X108501771Y-105312999D01*
X108501772Y-105312999D01*
X108501774Y-105313001D01*
X108533563Y-105329685D01*
X108642507Y-105386863D01*
X108796829Y-105424900D01*
X108796830Y-105424900D01*
X108955770Y-105424900D01*
X108955771Y-105424900D01*
X109110093Y-105386863D01*
X109250829Y-105312999D01*
X109369798Y-105207601D01*
X109460087Y-105076795D01*
X109516449Y-104928182D01*
X109516449Y-104928181D01*
X109516450Y-104928179D01*
X109535049Y-104775000D01*
X121360715Y-104775000D01*
X121379771Y-104919752D01*
X121435644Y-105054641D01*
X121435649Y-105054649D01*
X121524525Y-105170474D01*
X121634362Y-105254755D01*
X121640357Y-105259355D01*
X121775246Y-105315228D01*
X121920000Y-105334285D01*
X122064754Y-105315228D01*
X122199643Y-105259355D01*
X122315474Y-105170474D01*
X122404355Y-105054643D01*
X122460228Y-104919754D01*
X122479285Y-104775000D01*
X122460228Y-104630246D01*
X122404355Y-104495358D01*
X122315474Y-104379526D01*
X122315472Y-104379524D01*
X122315471Y-104379523D01*
X122199649Y-104290649D01*
X122199641Y-104290644D01*
X122064752Y-104234771D01*
X121920000Y-104215715D01*
X121775247Y-104234771D01*
X121707802Y-104262708D01*
X121640358Y-104290645D01*
X121640357Y-104290646D01*
X121640356Y-104290646D01*
X121524526Y-104379526D01*
X121435646Y-104495356D01*
X121435645Y-104495358D01*
X121407708Y-104562802D01*
X121379771Y-104630247D01*
X121360715Y-104774999D01*
X121360715Y-104775000D01*
X109535049Y-104775000D01*
X109535607Y-104770403D01*
X109535607Y-104770396D01*
X109516450Y-104612620D01*
X109502838Y-104576731D01*
X109460087Y-104464005D01*
X109369798Y-104333199D01*
X109250829Y-104227801D01*
X109250828Y-104227800D01*
X109250825Y-104227798D01*
X109110097Y-104153939D01*
X109110095Y-104153938D01*
X109110093Y-104153937D01*
X109110091Y-104153936D01*
X109110090Y-104153936D01*
X108955772Y-104115900D01*
X108955771Y-104115900D01*
X108796829Y-104115900D01*
X108796827Y-104115900D01*
X108642509Y-104153936D01*
X108642502Y-104153939D01*
X108501774Y-104227798D01*
X108501769Y-104227802D01*
X108382801Y-104333200D01*
X108292515Y-104464001D01*
X108292512Y-104464007D01*
X108236149Y-104612620D01*
X108216993Y-104770396D01*
X108216993Y-104770403D01*
X102921285Y-104770403D01*
X102921285Y-104770400D01*
X102902228Y-104625646D01*
X102846355Y-104490758D01*
X102757474Y-104374926D01*
X102757472Y-104374924D01*
X102757471Y-104374923D01*
X102641649Y-104286049D01*
X102641641Y-104286044D01*
X102506752Y-104230171D01*
X102362000Y-104211115D01*
X102217247Y-104230171D01*
X102149802Y-104258108D01*
X102082358Y-104286045D01*
X102082357Y-104286046D01*
X102082356Y-104286046D01*
X101966526Y-104374926D01*
X101877646Y-104490756D01*
X101877645Y-104490758D01*
X101875740Y-104495358D01*
X101821771Y-104625647D01*
X101802715Y-104770399D01*
X101802715Y-104770400D01*
X89662000Y-104770400D01*
X89662000Y-102998999D01*
X90046068Y-102998999D01*
X90065734Y-103173551D01*
X90123751Y-103339352D01*
X90123752Y-103339354D01*
X90217205Y-103488085D01*
X90341414Y-103612294D01*
X90467139Y-103691291D01*
X90490148Y-103705749D01*
X90655947Y-103763765D01*
X90699539Y-103768676D01*
X90786724Y-103778500D01*
X90786726Y-103778500D01*
X91924276Y-103778500D01*
X91989663Y-103771132D01*
X92055053Y-103763765D01*
X92220852Y-103705749D01*
X92369585Y-103612294D01*
X92493794Y-103488085D01*
X92587249Y-103339352D01*
X92645265Y-103173553D01*
X92664932Y-102999000D01*
X92664932Y-102998999D01*
X94226068Y-102998999D01*
X94245734Y-103173551D01*
X94303751Y-103339352D01*
X94303752Y-103339354D01*
X94397205Y-103488085D01*
X94521414Y-103612294D01*
X94647139Y-103691291D01*
X94670148Y-103705749D01*
X94835947Y-103763765D01*
X94879539Y-103768676D01*
X94966724Y-103778500D01*
X94966726Y-103778500D01*
X96104276Y-103778500D01*
X96169663Y-103771132D01*
X96235053Y-103763765D01*
X96400852Y-103705749D01*
X96549585Y-103612294D01*
X96673794Y-103488085D01*
X96767249Y-103339352D01*
X96825265Y-103173553D01*
X96844932Y-102999000D01*
X96825265Y-102824447D01*
X96767249Y-102658648D01*
X96720344Y-102583999D01*
X96673794Y-102509914D01*
X96661257Y-102497377D01*
X118665715Y-102497377D01*
X118684771Y-102642129D01*
X118740644Y-102777018D01*
X118740649Y-102777026D01*
X118829525Y-102892851D01*
X118942414Y-102979474D01*
X118945357Y-102981732D01*
X119080246Y-103037605D01*
X119225000Y-103056662D01*
X119369754Y-103037605D01*
X119504643Y-102981732D01*
X119620474Y-102892851D01*
X119709355Y-102777020D01*
X119765228Y-102642131D01*
X119772881Y-102584000D01*
X130024715Y-102584000D01*
X130043771Y-102728752D01*
X130099644Y-102863641D01*
X130099649Y-102863649D01*
X130188525Y-102979474D01*
X130304350Y-103068350D01*
X130304357Y-103068355D01*
X130439246Y-103124228D01*
X130511622Y-103133756D01*
X130583999Y-103143285D01*
X130583999Y-103143284D01*
X130584000Y-103143285D01*
X130728754Y-103124228D01*
X130863643Y-103068355D01*
X130979474Y-102979474D01*
X131068355Y-102863643D01*
X131124228Y-102728754D01*
X131143285Y-102584000D01*
X131124228Y-102439246D01*
X131068355Y-102304358D01*
X130979474Y-102188526D01*
X130979472Y-102188524D01*
X130979471Y-102188523D01*
X130863649Y-102099649D01*
X130863641Y-102099644D01*
X130728752Y-102043771D01*
X130584000Y-102024715D01*
X130439247Y-102043771D01*
X130371801Y-102071708D01*
X130304358Y-102099645D01*
X130304357Y-102099646D01*
X130304356Y-102099646D01*
X130188526Y-102188526D01*
X130099646Y-102304356D01*
X130099645Y-102304358D01*
X130071708Y-102371801D01*
X130043771Y-102439247D01*
X130024715Y-102583999D01*
X130024715Y-102584000D01*
X119772881Y-102584000D01*
X119784285Y-102497377D01*
X119765228Y-102352623D01*
X119709355Y-102217735D01*
X119620474Y-102101903D01*
X119620472Y-102101901D01*
X119620471Y-102101900D01*
X119504649Y-102013026D01*
X119504641Y-102013021D01*
X119369752Y-101957148D01*
X119225000Y-101938092D01*
X119080247Y-101957148D01*
X119012802Y-101985085D01*
X118945358Y-102013022D01*
X118945357Y-102013023D01*
X118945356Y-102013023D01*
X118829526Y-102101903D01*
X118740646Y-102217733D01*
X118740645Y-102217735D01*
X118718386Y-102271473D01*
X118684771Y-102352624D01*
X118665715Y-102497376D01*
X118665715Y-102497377D01*
X96661257Y-102497377D01*
X96549585Y-102385705D01*
X96400854Y-102292252D01*
X96400852Y-102292251D01*
X96235051Y-102234234D01*
X96104276Y-102219500D01*
X96104274Y-102219500D01*
X95515366Y-102219500D01*
X95447245Y-102199498D01*
X95400752Y-102145842D01*
X95390648Y-102075568D01*
X95420142Y-102010988D01*
X95428208Y-102003387D01*
X95427943Y-102003122D01*
X95433776Y-101997288D01*
X95433778Y-101997284D01*
X95433782Y-101997282D01*
X95530036Y-101871841D01*
X95590544Y-101725762D01*
X95611182Y-101569000D01*
X95590544Y-101412238D01*
X95530036Y-101266159D01*
X95433782Y-101140718D01*
X95308341Y-101044464D01*
X95162262Y-100983956D01*
X95162260Y-100983955D01*
X95044863Y-100968500D01*
X95044861Y-100968500D01*
X94966139Y-100968500D01*
X94966136Y-100968500D01*
X94848739Y-100983955D01*
X94702660Y-101044463D01*
X94702657Y-101044465D01*
X94577218Y-101140718D01*
X94480965Y-101266157D01*
X94480963Y-101266160D01*
X94420455Y-101412239D01*
X94399818Y-101568999D01*
X94399818Y-101569000D01*
X94420455Y-101725760D01*
X94420456Y-101725762D01*
X94480964Y-101871841D01*
X94577218Y-101997282D01*
X94686794Y-102081362D01*
X94728660Y-102138699D01*
X94732882Y-102209570D01*
X94698118Y-102271473D01*
X94675436Y-102287367D01*
X94676139Y-102288486D01*
X94521414Y-102385705D01*
X94397205Y-102509914D01*
X94303752Y-102658645D01*
X94303751Y-102658647D01*
X94245734Y-102824448D01*
X94226068Y-102998999D01*
X92664932Y-102998999D01*
X92645265Y-102824447D01*
X92587249Y-102658648D01*
X92540344Y-102583999D01*
X92493794Y-102509914D01*
X92369585Y-102385705D01*
X92220854Y-102292252D01*
X92220852Y-102292251D01*
X92055051Y-102234234D01*
X91924276Y-102219500D01*
X91924274Y-102219500D01*
X90786726Y-102219500D01*
X90786724Y-102219500D01*
X90655948Y-102234234D01*
X90490147Y-102292251D01*
X90490145Y-102292252D01*
X90341414Y-102385705D01*
X90217205Y-102509914D01*
X90123752Y-102658645D01*
X90123751Y-102658647D01*
X90065734Y-102824448D01*
X90046068Y-102998999D01*
X89662000Y-102998999D01*
X89662000Y-97917003D01*
X152237141Y-97917003D01*
X152256561Y-98275183D01*
X152314592Y-98629162D01*
X152410559Y-98974801D01*
X152543326Y-99308021D01*
X152543330Y-99308030D01*
X152711350Y-99624952D01*
X152711352Y-99624956D01*
X152912654Y-99921854D01*
X153038167Y-100069621D01*
X154249994Y-98857794D01*
X154251570Y-98860365D01*
X154415130Y-99051870D01*
X154606635Y-99215430D01*
X154609204Y-99217004D01*
X153394502Y-100431706D01*
X153405299Y-100441932D01*
X153690861Y-100659013D01*
X153690867Y-100659017D01*
X153998227Y-100843949D01*
X153998234Y-100843953D01*
X154323766Y-100994561D01*
X154323785Y-100994569D01*
X154663706Y-101109101D01*
X154663723Y-101109106D01*
X155014022Y-101186213D01*
X155014050Y-101186218D01*
X155370637Y-101224999D01*
X155370653Y-101225000D01*
X155729347Y-101225000D01*
X155729362Y-101224999D01*
X156085949Y-101186218D01*
X156085977Y-101186213D01*
X156436276Y-101109106D01*
X156436293Y-101109101D01*
X156776214Y-100994569D01*
X156776233Y-100994561D01*
X157101765Y-100843953D01*
X157101772Y-100843949D01*
X157409132Y-100659017D01*
X157409150Y-100659005D01*
X157694699Y-100441934D01*
X157694702Y-100441932D01*
X157705496Y-100431707D01*
X157705496Y-100431706D01*
X156490795Y-99217004D01*
X156493365Y-99215430D01*
X156684870Y-99051870D01*
X156848430Y-98860365D01*
X156850005Y-98857794D01*
X158061832Y-100069621D01*
X158187345Y-99921854D01*
X158388647Y-99624956D01*
X158388649Y-99624952D01*
X158556669Y-99308030D01*
X158556673Y-99308021D01*
X158689440Y-98974801D01*
X158785407Y-98629162D01*
X158843438Y-98275183D01*
X158862859Y-97917003D01*
X158862859Y-97916996D01*
X158843438Y-97558816D01*
X158785407Y-97204837D01*
X158689440Y-96859198D01*
X158556673Y-96525978D01*
X158556669Y-96525969D01*
X158388649Y-96209047D01*
X158388647Y-96209043D01*
X158187345Y-95912145D01*
X158061831Y-95764377D01*
X156850004Y-96976204D01*
X156848430Y-96973635D01*
X156684870Y-96782130D01*
X156493365Y-96618570D01*
X156490794Y-96616994D01*
X157705496Y-95402292D01*
X157694700Y-95392067D01*
X157409138Y-95174986D01*
X157409132Y-95174982D01*
X157101772Y-94990050D01*
X157101765Y-94990046D01*
X156776233Y-94839438D01*
X156776214Y-94839430D01*
X156436293Y-94724898D01*
X156436276Y-94724893D01*
X156085977Y-94647786D01*
X156085949Y-94647781D01*
X155729362Y-94609000D01*
X155370637Y-94609000D01*
X155014050Y-94647781D01*
X155014022Y-94647786D01*
X154663723Y-94724893D01*
X154663706Y-94724898D01*
X154323785Y-94839430D01*
X154323766Y-94839438D01*
X153998234Y-94990046D01*
X153998227Y-94990050D01*
X153690867Y-95174982D01*
X153690861Y-95174986D01*
X153405299Y-95392066D01*
X153394502Y-95402292D01*
X154609205Y-96616995D01*
X154606635Y-96618570D01*
X154415130Y-96782130D01*
X154251570Y-96973635D01*
X154249995Y-96976205D01*
X153038167Y-95764377D01*
X153038166Y-95764378D01*
X152912665Y-95912131D01*
X152711349Y-96209050D01*
X152543330Y-96525969D01*
X152543326Y-96525978D01*
X152410559Y-96859198D01*
X152314592Y-97204837D01*
X152256561Y-97558816D01*
X152237141Y-97916996D01*
X152237141Y-97917003D01*
X89662000Y-97917003D01*
X89662000Y-94358999D01*
X90046068Y-94358999D01*
X90065734Y-94533551D01*
X90123751Y-94699352D01*
X90123752Y-94699354D01*
X90217205Y-94848085D01*
X90341414Y-94972294D01*
X90447819Y-95039152D01*
X90490148Y-95065749D01*
X90655947Y-95123765D01*
X90699539Y-95128676D01*
X90786724Y-95138500D01*
X90786726Y-95138500D01*
X91924276Y-95138500D01*
X91989663Y-95131132D01*
X92055053Y-95123765D01*
X92220852Y-95065749D01*
X92369585Y-94972294D01*
X92493794Y-94848085D01*
X92587249Y-94699352D01*
X92645265Y-94533553D01*
X92664932Y-94359000D01*
X92664932Y-94358999D01*
X94226068Y-94358999D01*
X94245734Y-94533551D01*
X94303751Y-94699352D01*
X94303752Y-94699354D01*
X94397205Y-94848085D01*
X94521414Y-94972294D01*
X94676139Y-95069514D01*
X94674561Y-95072024D01*
X94717409Y-95110657D01*
X94736065Y-95179159D01*
X94714723Y-95246872D01*
X94686793Y-95276637D01*
X94577220Y-95360715D01*
X94480965Y-95486157D01*
X94480963Y-95486160D01*
X94420455Y-95632239D01*
X94399818Y-95788999D01*
X94399818Y-95789000D01*
X94420455Y-95945760D01*
X94476150Y-96080218D01*
X94480964Y-96091841D01*
X94577218Y-96217282D01*
X94702659Y-96313536D01*
X94848738Y-96374044D01*
X94966139Y-96389500D01*
X94966146Y-96389500D01*
X95044854Y-96389500D01*
X95044861Y-96389500D01*
X95162262Y-96374044D01*
X95308341Y-96313536D01*
X95406778Y-96238003D01*
X97459693Y-96238003D01*
X97478849Y-96395779D01*
X97520380Y-96505285D01*
X97535213Y-96544395D01*
X97625502Y-96675201D01*
X97744471Y-96780599D01*
X97744472Y-96780599D01*
X97744474Y-96780601D01*
X97793303Y-96806228D01*
X97885207Y-96854463D01*
X98039529Y-96892500D01*
X98039530Y-96892500D01*
X98198470Y-96892500D01*
X98198471Y-96892500D01*
X98352793Y-96854463D01*
X98493529Y-96780599D01*
X98612498Y-96675201D01*
X98702787Y-96544395D01*
X98759149Y-96395782D01*
X98759149Y-96395781D01*
X98759150Y-96395779D01*
X98778307Y-96238003D01*
X98778307Y-96237996D01*
X98759150Y-96080220D01*
X98723552Y-95986358D01*
X98708246Y-95946000D01*
X102071915Y-95946000D01*
X102090971Y-96090752D01*
X102146844Y-96225641D01*
X102146849Y-96225649D01*
X102235725Y-96341474D01*
X102351550Y-96430350D01*
X102351557Y-96430355D01*
X102486446Y-96486228D01*
X102558823Y-96495756D01*
X102631199Y-96505285D01*
X102631199Y-96505284D01*
X102631200Y-96505285D01*
X102775954Y-96486228D01*
X102910843Y-96430355D01*
X103026674Y-96341474D01*
X103084588Y-96266000D01*
X118592115Y-96266000D01*
X118611171Y-96410752D01*
X118667044Y-96545641D01*
X118667049Y-96545649D01*
X118755925Y-96661474D01*
X118871750Y-96750350D01*
X118871757Y-96750355D01*
X119006646Y-96806228D01*
X119079023Y-96815756D01*
X119151399Y-96825285D01*
X119151399Y-96825284D01*
X119151400Y-96825285D01*
X119296154Y-96806228D01*
X119431043Y-96750355D01*
X119546874Y-96661474D01*
X119635755Y-96545643D01*
X119691628Y-96410754D01*
X119710685Y-96266000D01*
X121781715Y-96266000D01*
X121800771Y-96410752D01*
X121856644Y-96545641D01*
X121856649Y-96545649D01*
X121945525Y-96661474D01*
X122061350Y-96750350D01*
X122061357Y-96750355D01*
X122196246Y-96806228D01*
X122341000Y-96825285D01*
X122485754Y-96806228D01*
X122620643Y-96750355D01*
X122736474Y-96661474D01*
X122825355Y-96545643D01*
X122881228Y-96410754D01*
X122900285Y-96266000D01*
X122881228Y-96121246D01*
X122825355Y-95986358D01*
X122736474Y-95870526D01*
X122736472Y-95870524D01*
X122736471Y-95870523D01*
X122620649Y-95781649D01*
X122620641Y-95781644D01*
X122485752Y-95725771D01*
X122341000Y-95706715D01*
X122196247Y-95725771D01*
X122128802Y-95753708D01*
X122061358Y-95781645D01*
X122061357Y-95781646D01*
X122061356Y-95781646D01*
X121945526Y-95870526D01*
X121856646Y-95986356D01*
X121856645Y-95986358D01*
X121828708Y-96053801D01*
X121800771Y-96121247D01*
X121781715Y-96265999D01*
X121781715Y-96266000D01*
X119710685Y-96266000D01*
X119691628Y-96121246D01*
X119635755Y-95986358D01*
X119546874Y-95870526D01*
X119546872Y-95870524D01*
X119546871Y-95870523D01*
X119431049Y-95781649D01*
X119431041Y-95781644D01*
X119296152Y-95725771D01*
X119151400Y-95706715D01*
X119006647Y-95725771D01*
X118939201Y-95753708D01*
X118871758Y-95781645D01*
X118871757Y-95781646D01*
X118871756Y-95781646D01*
X118755926Y-95870526D01*
X118667046Y-95986356D01*
X118667045Y-95986358D01*
X118639108Y-96053801D01*
X118611171Y-96121247D01*
X118592115Y-96265999D01*
X118592115Y-96266000D01*
X103084588Y-96266000D01*
X103115555Y-96225643D01*
X103171428Y-96090754D01*
X103190485Y-95946000D01*
X103171428Y-95801246D01*
X103115555Y-95666358D01*
X103026674Y-95550526D01*
X103026672Y-95550524D01*
X103026671Y-95550523D01*
X102910849Y-95461649D01*
X102910841Y-95461644D01*
X102775952Y-95405771D01*
X102631200Y-95386715D01*
X102486447Y-95405771D01*
X102419002Y-95433708D01*
X102351558Y-95461645D01*
X102351557Y-95461646D01*
X102351556Y-95461646D01*
X102235726Y-95550526D01*
X102146846Y-95666356D01*
X102146845Y-95666358D01*
X102122235Y-95725771D01*
X102090971Y-95801247D01*
X102071915Y-95945999D01*
X102071915Y-95946000D01*
X98708246Y-95946000D01*
X98702787Y-95931605D01*
X98612498Y-95800799D01*
X98493529Y-95695401D01*
X98493528Y-95695400D01*
X98493525Y-95695398D01*
X98352797Y-95621539D01*
X98352795Y-95621538D01*
X98352793Y-95621537D01*
X98352791Y-95621536D01*
X98352790Y-95621536D01*
X98198472Y-95583500D01*
X98198471Y-95583500D01*
X98039529Y-95583500D01*
X98039527Y-95583500D01*
X97885209Y-95621536D01*
X97885202Y-95621539D01*
X97744474Y-95695398D01*
X97744469Y-95695402D01*
X97625501Y-95800800D01*
X97535215Y-95931601D01*
X97535212Y-95931607D01*
X97478849Y-96080220D01*
X97459693Y-96237996D01*
X97459693Y-96238003D01*
X95406778Y-96238003D01*
X95433782Y-96217282D01*
X95530036Y-96091841D01*
X95590544Y-95945762D01*
X95611182Y-95789000D01*
X95607940Y-95764378D01*
X95598860Y-95695402D01*
X95590544Y-95632238D01*
X95530036Y-95486159D01*
X95433782Y-95360718D01*
X95433780Y-95360716D01*
X95433776Y-95360711D01*
X95427943Y-95354878D01*
X95430093Y-95352727D01*
X95396794Y-95307123D01*
X95392573Y-95236252D01*
X95427338Y-95174350D01*
X95490051Y-95141069D01*
X95515366Y-95138500D01*
X96104276Y-95138500D01*
X96169663Y-95131132D01*
X96235053Y-95123765D01*
X96400852Y-95065749D01*
X96549585Y-94972294D01*
X96627479Y-94894400D01*
X127018715Y-94894400D01*
X127037771Y-95039152D01*
X127093644Y-95174041D01*
X127093649Y-95174049D01*
X127182525Y-95289874D01*
X127298350Y-95378750D01*
X127298357Y-95378755D01*
X127433246Y-95434628D01*
X127505622Y-95444156D01*
X127577999Y-95453685D01*
X127577999Y-95453684D01*
X127578000Y-95453685D01*
X127722754Y-95434628D01*
X127857643Y-95378755D01*
X127973474Y-95289874D01*
X128062355Y-95174043D01*
X128118228Y-95039154D01*
X128137285Y-94894400D01*
X128118228Y-94749646D01*
X128062355Y-94614758D01*
X127973474Y-94498926D01*
X127973472Y-94498924D01*
X127973471Y-94498923D01*
X127857649Y-94410049D01*
X127857641Y-94410044D01*
X127722752Y-94354171D01*
X127578000Y-94335115D01*
X127433247Y-94354171D01*
X127365802Y-94382108D01*
X127298358Y-94410045D01*
X127298357Y-94410046D01*
X127298356Y-94410046D01*
X127182526Y-94498926D01*
X127093646Y-94614756D01*
X127093645Y-94614758D01*
X127065708Y-94682202D01*
X127037771Y-94749647D01*
X127018715Y-94894399D01*
X127018715Y-94894400D01*
X96627479Y-94894400D01*
X96673794Y-94848085D01*
X96767249Y-94699352D01*
X96825265Y-94533553D01*
X96844932Y-94359000D01*
X96825265Y-94184447D01*
X96767249Y-94018648D01*
X96752791Y-93995639D01*
X96673794Y-93869914D01*
X96549585Y-93745705D01*
X96400854Y-93652252D01*
X96400852Y-93652251D01*
X96235051Y-93594234D01*
X96104276Y-93579500D01*
X96104274Y-93579500D01*
X94966726Y-93579500D01*
X94966724Y-93579500D01*
X94835948Y-93594234D01*
X94670147Y-93652251D01*
X94670145Y-93652252D01*
X94521414Y-93745705D01*
X94397205Y-93869914D01*
X94303752Y-94018645D01*
X94303751Y-94018647D01*
X94245734Y-94184448D01*
X94226068Y-94358999D01*
X92664932Y-94358999D01*
X92645265Y-94184447D01*
X92587249Y-94018648D01*
X92572791Y-93995639D01*
X92493794Y-93869914D01*
X92369585Y-93745705D01*
X92220854Y-93652252D01*
X92220852Y-93652251D01*
X92055051Y-93594234D01*
X91924276Y-93579500D01*
X91924274Y-93579500D01*
X90786726Y-93579500D01*
X90786724Y-93579500D01*
X90655948Y-93594234D01*
X90490147Y-93652251D01*
X90490145Y-93652252D01*
X90341414Y-93745705D01*
X90217205Y-93869914D01*
X90123752Y-94018645D01*
X90123751Y-94018647D01*
X90065734Y-94184448D01*
X90046068Y-94358999D01*
X89662000Y-94358999D01*
X89662000Y-87249003D01*
X90582641Y-87249003D01*
X90602061Y-87607183D01*
X90660092Y-87961162D01*
X90756059Y-88306801D01*
X90888826Y-88640021D01*
X90888830Y-88640030D01*
X91056850Y-88956952D01*
X91056852Y-88956956D01*
X91258154Y-89253854D01*
X91383667Y-89401621D01*
X92595494Y-88189794D01*
X92597070Y-88192365D01*
X92760630Y-88383870D01*
X92952135Y-88547430D01*
X92954704Y-88549004D01*
X91740002Y-89763706D01*
X91750799Y-89773932D01*
X92036361Y-89991013D01*
X92036367Y-89991017D01*
X92343727Y-90175949D01*
X92343734Y-90175953D01*
X92669266Y-90326561D01*
X92669285Y-90326569D01*
X93009206Y-90441101D01*
X93009223Y-90441106D01*
X93359522Y-90518213D01*
X93359550Y-90518218D01*
X93716137Y-90556999D01*
X93716153Y-90557000D01*
X94074847Y-90557000D01*
X94074862Y-90556999D01*
X94431449Y-90518218D01*
X94431477Y-90518213D01*
X94781776Y-90441106D01*
X94781793Y-90441101D01*
X95121714Y-90326569D01*
X95121733Y-90326561D01*
X95447265Y-90175953D01*
X95447272Y-90175949D01*
X95754632Y-89991017D01*
X95754650Y-89991005D01*
X96040199Y-89773934D01*
X96040202Y-89773932D01*
X96050996Y-89763707D01*
X96050996Y-89763706D01*
X94836295Y-88549004D01*
X94838865Y-88547430D01*
X95030370Y-88383870D01*
X95193930Y-88192365D01*
X95195505Y-88189794D01*
X96407332Y-89401621D01*
X96532845Y-89253854D01*
X96620210Y-89125000D01*
X141114254Y-89125000D01*
X141133213Y-89390092D01*
X141189707Y-89649793D01*
X141282587Y-89898814D01*
X141409958Y-90132076D01*
X141495903Y-90246885D01*
X141495903Y-90246886D01*
X142258155Y-89484634D01*
X142347577Y-89626948D01*
X142475052Y-89754423D01*
X142617364Y-89843843D01*
X141855112Y-90606095D01*
X141855113Y-90606096D01*
X141969919Y-90692039D01*
X142203185Y-90819412D01*
X142452206Y-90912292D01*
X142711907Y-90968786D01*
X142977000Y-90987745D01*
X143242092Y-90968786D01*
X143501793Y-90912292D01*
X143750814Y-90819412D01*
X143984076Y-90692042D01*
X144098885Y-90606095D01*
X144098886Y-90606095D01*
X143336634Y-89843843D01*
X143478948Y-89754423D01*
X143606423Y-89626948D01*
X143695843Y-89484634D01*
X144458095Y-90246886D01*
X144458095Y-90246885D01*
X144544042Y-90132076D01*
X144671412Y-89898814D01*
X144764292Y-89649793D01*
X144820786Y-89390092D01*
X144839745Y-89124999D01*
X145558539Y-89124999D01*
X145578354Y-89376774D01*
X145637311Y-89622349D01*
X145695864Y-89763707D01*
X145733960Y-89855680D01*
X145816892Y-89991013D01*
X145865920Y-90071018D01*
X145865921Y-90071020D01*
X146029938Y-90263061D01*
X146221979Y-90427078D01*
X146221983Y-90427081D01*
X146437320Y-90559040D01*
X146670649Y-90655688D01*
X146916225Y-90714646D01*
X147168000Y-90734461D01*
X147419775Y-90714646D01*
X147665351Y-90655688D01*
X147898680Y-90559040D01*
X148114017Y-90427081D01*
X148306061Y-90263061D01*
X148470081Y-90071017D01*
X148602040Y-89855680D01*
X148698688Y-89622351D01*
X148757646Y-89376775D01*
X148777461Y-89125000D01*
X148777461Y-89124999D01*
X149749539Y-89124999D01*
X149769354Y-89376774D01*
X149828311Y-89622349D01*
X149886864Y-89763707D01*
X149924960Y-89855680D01*
X150007892Y-89991013D01*
X150056920Y-90071018D01*
X150056921Y-90071020D01*
X150220938Y-90263061D01*
X150412979Y-90427078D01*
X150412983Y-90427081D01*
X150628320Y-90559040D01*
X150861649Y-90655688D01*
X151107225Y-90714646D01*
X151359000Y-90734461D01*
X151610775Y-90714646D01*
X151856351Y-90655688D01*
X152089680Y-90559040D01*
X152305017Y-90427081D01*
X152497061Y-90263061D01*
X152661081Y-90071017D01*
X152793040Y-89855680D01*
X152889688Y-89622351D01*
X152948646Y-89376775D01*
X152968461Y-89125000D01*
X153940539Y-89125000D01*
X153960354Y-89376774D01*
X154019311Y-89622349D01*
X154077864Y-89763707D01*
X154115960Y-89855680D01*
X154198892Y-89991013D01*
X154247920Y-90071018D01*
X154247921Y-90071020D01*
X154411938Y-90263061D01*
X154603979Y-90427078D01*
X154603983Y-90427081D01*
X154819320Y-90559040D01*
X155052649Y-90655688D01*
X155298225Y-90714646D01*
X155550000Y-90734461D01*
X155801775Y-90714646D01*
X156047351Y-90655688D01*
X156280680Y-90559040D01*
X156496017Y-90427081D01*
X156688061Y-90263061D01*
X156852081Y-90071017D01*
X156984040Y-89855680D01*
X157080688Y-89622351D01*
X157139646Y-89376775D01*
X157159461Y-89125000D01*
X157139646Y-88873225D01*
X157080688Y-88627649D01*
X156984040Y-88394320D01*
X156852081Y-88178983D01*
X156852078Y-88178979D01*
X156688061Y-87986938D01*
X156496020Y-87822921D01*
X156496018Y-87822920D01*
X156496017Y-87822919D01*
X156348353Y-87732430D01*
X156300725Y-87679785D01*
X156289118Y-87609744D01*
X156317221Y-87544546D01*
X156348352Y-87517570D01*
X156496017Y-87427081D01*
X156688061Y-87263061D01*
X156852081Y-87071017D01*
X156984040Y-86855680D01*
X157080688Y-86622351D01*
X157139646Y-86376775D01*
X157159461Y-86125000D01*
X157139646Y-85873225D01*
X157080688Y-85627649D01*
X156984040Y-85394320D01*
X156852081Y-85178983D01*
X156852078Y-85178979D01*
X156688061Y-84986938D01*
X156496020Y-84822921D01*
X156496018Y-84822920D01*
X156496017Y-84822919D01*
X156280680Y-84690960D01*
X156047351Y-84594312D01*
X156047349Y-84594311D01*
X155879358Y-84553980D01*
X155801775Y-84535354D01*
X155550000Y-84515539D01*
X155549999Y-84515539D01*
X155298225Y-84535354D01*
X155052650Y-84594311D01*
X154819321Y-84690959D01*
X154603981Y-84822920D01*
X154603979Y-84822921D01*
X154411938Y-84986938D01*
X154247921Y-85178979D01*
X154247920Y-85178981D01*
X154115959Y-85394321D01*
X154019311Y-85627650D01*
X153960354Y-85873225D01*
X153940539Y-86124999D01*
X153960354Y-86376774D01*
X154019311Y-86622349D01*
X154019312Y-86622351D01*
X154115960Y-86855680D01*
X154137491Y-86890816D01*
X154247920Y-87071018D01*
X154247921Y-87071020D01*
X154411938Y-87263061D01*
X154603979Y-87427078D01*
X154603983Y-87427081D01*
X154751643Y-87517567D01*
X154799274Y-87570215D01*
X154810881Y-87640256D01*
X154782778Y-87705454D01*
X154751644Y-87732431D01*
X154731207Y-87744956D01*
X154603981Y-87822920D01*
X154603979Y-87822921D01*
X154411938Y-87986938D01*
X154247921Y-88178979D01*
X154247920Y-88178981D01*
X154115959Y-88394321D01*
X154019311Y-88627650D01*
X153960354Y-88873225D01*
X153940539Y-89125000D01*
X152968461Y-89125000D01*
X152948646Y-88873225D01*
X152889688Y-88627649D01*
X152793040Y-88394320D01*
X152661081Y-88178983D01*
X152661078Y-88178979D01*
X152497061Y-87986938D01*
X152305020Y-87822921D01*
X152305018Y-87822920D01*
X152305017Y-87822919D01*
X152157353Y-87732430D01*
X152109725Y-87679785D01*
X152098118Y-87609744D01*
X152126221Y-87544546D01*
X152157352Y-87517570D01*
X152305017Y-87427081D01*
X152497061Y-87263061D01*
X152661081Y-87071017D01*
X152793040Y-86855680D01*
X152889688Y-86622351D01*
X152948646Y-86376775D01*
X152968461Y-86125000D01*
X152948646Y-85873225D01*
X152889688Y-85627649D01*
X152793040Y-85394320D01*
X152661081Y-85178983D01*
X152661078Y-85178979D01*
X152497061Y-84986938D01*
X152305020Y-84822921D01*
X152305018Y-84822920D01*
X152305017Y-84822919D01*
X152089680Y-84690960D01*
X151856351Y-84594312D01*
X151856349Y-84594311D01*
X151688358Y-84553980D01*
X151610775Y-84535354D01*
X151359000Y-84515539D01*
X151358999Y-84515539D01*
X151107225Y-84535354D01*
X150861650Y-84594311D01*
X150628321Y-84690959D01*
X150412981Y-84822920D01*
X150412979Y-84822921D01*
X150220938Y-84986938D01*
X150056921Y-85178979D01*
X150056920Y-85178981D01*
X149924959Y-85394321D01*
X149828311Y-85627650D01*
X149769354Y-85873225D01*
X149749539Y-86124999D01*
X149769354Y-86376774D01*
X149828311Y-86622349D01*
X149828312Y-86622351D01*
X149924960Y-86855680D01*
X149946491Y-86890816D01*
X150056920Y-87071018D01*
X150056921Y-87071020D01*
X150220938Y-87263061D01*
X150412979Y-87427078D01*
X150412983Y-87427081D01*
X150560643Y-87517567D01*
X150608274Y-87570215D01*
X150619881Y-87640256D01*
X150591778Y-87705454D01*
X150560644Y-87732431D01*
X150540207Y-87744956D01*
X150412981Y-87822920D01*
X150412979Y-87822921D01*
X150220938Y-87986938D01*
X150056921Y-88178979D01*
X150056920Y-88178981D01*
X149924959Y-88394321D01*
X149828311Y-88627650D01*
X149769354Y-88873225D01*
X149749539Y-89124999D01*
X148777461Y-89124999D01*
X148757646Y-88873225D01*
X148698688Y-88627649D01*
X148602040Y-88394320D01*
X148470081Y-88178983D01*
X148470078Y-88178979D01*
X148306061Y-87986938D01*
X148114020Y-87822921D01*
X148114018Y-87822920D01*
X148114017Y-87822919D01*
X147966353Y-87732430D01*
X147918725Y-87679785D01*
X147907118Y-87609744D01*
X147935221Y-87544546D01*
X147966352Y-87517570D01*
X148114017Y-87427081D01*
X148306061Y-87263061D01*
X148470081Y-87071017D01*
X148602040Y-86855680D01*
X148698688Y-86622351D01*
X148757646Y-86376775D01*
X148777461Y-86125000D01*
X148757646Y-85873225D01*
X148698688Y-85627649D01*
X148602040Y-85394320D01*
X148470081Y-85178983D01*
X148470078Y-85178979D01*
X148306061Y-84986938D01*
X148114020Y-84822921D01*
X148114018Y-84822920D01*
X148114017Y-84822919D01*
X147898680Y-84690960D01*
X147665351Y-84594312D01*
X147665349Y-84594311D01*
X147497358Y-84553980D01*
X147419775Y-84535354D01*
X147168000Y-84515539D01*
X146916225Y-84535354D01*
X146670650Y-84594311D01*
X146437321Y-84690959D01*
X146221981Y-84822920D01*
X146221979Y-84822921D01*
X146029938Y-84986938D01*
X145865921Y-85178979D01*
X145865920Y-85178981D01*
X145733959Y-85394321D01*
X145637311Y-85627650D01*
X145578354Y-85873225D01*
X145558539Y-86125000D01*
X145578354Y-86376774D01*
X145637311Y-86622349D01*
X145637312Y-86622351D01*
X145733960Y-86855680D01*
X145755491Y-86890816D01*
X145865920Y-87071018D01*
X145865921Y-87071020D01*
X146029938Y-87263061D01*
X146221979Y-87427078D01*
X146221983Y-87427081D01*
X146369643Y-87517567D01*
X146417274Y-87570215D01*
X146428881Y-87640256D01*
X146400778Y-87705454D01*
X146369644Y-87732431D01*
X146349207Y-87744956D01*
X146221981Y-87822920D01*
X146221979Y-87822921D01*
X146029938Y-87986938D01*
X145865921Y-88178979D01*
X145865920Y-88178981D01*
X145733959Y-88394321D01*
X145637311Y-88627650D01*
X145578354Y-88873225D01*
X145558539Y-89124999D01*
X144839745Y-89124999D01*
X144820786Y-88859907D01*
X144764292Y-88600206D01*
X144671412Y-88351185D01*
X144544039Y-88117919D01*
X144458096Y-88003113D01*
X144458095Y-88003112D01*
X143695843Y-88765364D01*
X143606423Y-88623052D01*
X143478948Y-88495577D01*
X143336634Y-88406155D01*
X144098886Y-87643903D01*
X143984076Y-87557958D01*
X143750814Y-87430587D01*
X143501793Y-87337707D01*
X143242092Y-87281213D01*
X142977000Y-87262254D01*
X142711907Y-87281213D01*
X142452206Y-87337707D01*
X142203185Y-87430587D01*
X141969924Y-87557957D01*
X141855113Y-87643902D01*
X141855112Y-87643903D01*
X142617365Y-88406156D01*
X142475052Y-88495577D01*
X142347577Y-88623052D01*
X142258156Y-88765365D01*
X141495903Y-88003112D01*
X141495902Y-88003113D01*
X141409957Y-88117924D01*
X141282587Y-88351185D01*
X141189707Y-88600206D01*
X141133213Y-88859907D01*
X141114254Y-89125000D01*
X96620210Y-89125000D01*
X96734147Y-88956956D01*
X96734149Y-88956952D01*
X96902169Y-88640030D01*
X96902173Y-88640021D01*
X97034940Y-88306801D01*
X97130907Y-87961162D01*
X97188938Y-87607183D01*
X97208359Y-87249003D01*
X97208359Y-87248996D01*
X97188938Y-86890816D01*
X97130907Y-86536837D01*
X97034940Y-86191198D01*
X96902173Y-85857978D01*
X96902169Y-85857969D01*
X96734149Y-85541047D01*
X96734147Y-85541043D01*
X96532845Y-85244145D01*
X96407331Y-85096377D01*
X95195504Y-86308204D01*
X95193930Y-86305635D01*
X95030370Y-86114130D01*
X94838865Y-85950570D01*
X94836294Y-85948994D01*
X96050996Y-84734292D01*
X96040200Y-84724067D01*
X95754638Y-84506986D01*
X95754632Y-84506982D01*
X95447272Y-84322050D01*
X95447265Y-84322046D01*
X95121733Y-84171438D01*
X95121714Y-84171430D01*
X94781793Y-84056898D01*
X94781776Y-84056893D01*
X94431477Y-83979786D01*
X94431449Y-83979781D01*
X94074862Y-83941000D01*
X93716137Y-83941000D01*
X93359550Y-83979781D01*
X93359522Y-83979786D01*
X93009223Y-84056893D01*
X93009206Y-84056898D01*
X92669285Y-84171430D01*
X92669266Y-84171438D01*
X92343734Y-84322046D01*
X92343727Y-84322050D01*
X92036367Y-84506982D01*
X92036361Y-84506986D01*
X91750799Y-84724066D01*
X91740002Y-84734292D01*
X92954705Y-85948995D01*
X92952135Y-85950570D01*
X92760630Y-86114130D01*
X92597070Y-86305635D01*
X92595495Y-86308205D01*
X91383667Y-85096377D01*
X91383666Y-85096378D01*
X91258165Y-85244131D01*
X91056849Y-85541050D01*
X90888830Y-85857969D01*
X90888826Y-85857978D01*
X90756059Y-86191198D01*
X90660092Y-86536837D01*
X90602061Y-86890816D01*
X90582641Y-87248996D01*
X90582641Y-87249003D01*
X89662000Y-87249003D01*
X89662000Y-75125003D01*
X95251155Y-75125003D01*
X95270513Y-75420356D01*
X95270515Y-75420370D01*
X95328260Y-75710665D01*
X95328262Y-75710675D01*
X95423401Y-75990945D01*
X95423407Y-75990959D01*
X95554317Y-76256420D01*
X95718763Y-76502531D01*
X95746092Y-76533694D01*
X96650176Y-75629611D01*
X96719146Y-75740263D01*
X96859268Y-75887671D01*
X97007420Y-75990788D01*
X96105304Y-76892904D01*
X96105304Y-76892906D01*
X96136468Y-76920236D01*
X96382579Y-77084682D01*
X96648040Y-77215592D01*
X96648054Y-77215598D01*
X96928324Y-77310737D01*
X96928334Y-77310739D01*
X97218629Y-77368484D01*
X97218643Y-77368486D01*
X97513997Y-77387845D01*
X97514003Y-77387845D01*
X97809356Y-77368486D01*
X97809370Y-77368484D01*
X98099665Y-77310739D01*
X98099675Y-77310737D01*
X98379945Y-77215598D01*
X98379959Y-77215592D01*
X98645420Y-77084682D01*
X98891534Y-76920234D01*
X98891536Y-76920233D01*
X98922694Y-76892906D01*
X98922694Y-76892904D01*
X98018487Y-75988697D01*
X98088214Y-75949996D01*
X98242531Y-75817520D01*
X98367021Y-75656692D01*
X98379487Y-75631277D01*
X99281904Y-76533694D01*
X99281906Y-76533694D01*
X99309233Y-76502536D01*
X99309234Y-76502534D01*
X99473684Y-76256417D01*
X99543971Y-76113888D01*
X99592038Y-76061638D01*
X99660724Y-76043671D01*
X99728220Y-76065690D01*
X99767564Y-76109229D01*
X99823400Y-76211484D01*
X99995226Y-76441015D01*
X99995229Y-76441018D01*
X99995231Y-76441021D01*
X100197979Y-76643769D01*
X100197982Y-76643771D01*
X100197984Y-76643773D01*
X100413376Y-76805014D01*
X100427517Y-76815600D01*
X100679174Y-76953015D01*
X100947825Y-77053216D01*
X100947828Y-77053216D01*
X100947832Y-77053218D01*
X101092471Y-77084682D01*
X101228001Y-77114165D01*
X101514000Y-77134620D01*
X101799999Y-77114165D01*
X102080166Y-77053218D01*
X102080167Y-77053218D01*
X102080168Y-77053217D01*
X102080175Y-77053216D01*
X102348826Y-76953015D01*
X102600483Y-76815600D01*
X102830021Y-76643769D01*
X103032769Y-76441021D01*
X103204600Y-76211483D01*
X103342015Y-75959826D01*
X103395945Y-75815232D01*
X103438490Y-75758398D01*
X103505011Y-75733587D01*
X103574385Y-75748678D01*
X103624587Y-75798880D01*
X103632052Y-75815225D01*
X103645273Y-75850672D01*
X103685984Y-75959825D01*
X103757929Y-76091582D01*
X103819645Y-76204607D01*
X103823402Y-76211486D01*
X103995226Y-76441015D01*
X103995229Y-76441018D01*
X103995231Y-76441021D01*
X104197979Y-76643769D01*
X104197982Y-76643771D01*
X104197984Y-76643773D01*
X104413376Y-76805014D01*
X104427517Y-76815600D01*
X104679174Y-76953015D01*
X104947825Y-77053216D01*
X104947828Y-77053216D01*
X104947832Y-77053218D01*
X105092471Y-77084682D01*
X105228001Y-77114165D01*
X105514000Y-77134620D01*
X105799999Y-77114165D01*
X106080166Y-77053218D01*
X106080167Y-77053218D01*
X106080168Y-77053217D01*
X106080175Y-77053216D01*
X106348826Y-76953015D01*
X106600483Y-76815600D01*
X106830021Y-76643769D01*
X107032769Y-76441021D01*
X107204600Y-76211483D01*
X107342015Y-75959826D01*
X107442216Y-75691175D01*
X107503165Y-75410999D01*
X107523620Y-75125000D01*
X110004380Y-75125000D01*
X110024835Y-75411002D01*
X110085781Y-75691166D01*
X110085781Y-75691167D01*
X110185984Y-75959825D01*
X110257929Y-76091582D01*
X110319645Y-76204607D01*
X110323402Y-76211486D01*
X110495226Y-76441015D01*
X110495229Y-76441018D01*
X110495231Y-76441021D01*
X110697979Y-76643769D01*
X110697982Y-76643771D01*
X110697984Y-76643773D01*
X110913376Y-76805014D01*
X110927517Y-76815600D01*
X111179174Y-76953015D01*
X111447825Y-77053216D01*
X111447828Y-77053216D01*
X111447832Y-77053218D01*
X111592471Y-77084682D01*
X111728001Y-77114165D01*
X112014000Y-77134620D01*
X112299999Y-77114165D01*
X112580166Y-77053218D01*
X112580167Y-77053218D01*
X112580168Y-77053217D01*
X112580175Y-77053216D01*
X112848826Y-76953015D01*
X113100483Y-76815600D01*
X113330021Y-76643769D01*
X113532769Y-76441021D01*
X113704600Y-76211483D01*
X113842015Y-75959826D01*
X113914594Y-75765231D01*
X113957138Y-75708398D01*
X114023658Y-75683587D01*
X114093032Y-75698678D01*
X114143235Y-75748880D01*
X114150704Y-75765233D01*
X114185985Y-75859827D01*
X114257581Y-75990945D01*
X114322361Y-76109581D01*
X114323402Y-76111486D01*
X114495226Y-76341015D01*
X114495229Y-76341018D01*
X114495231Y-76341021D01*
X114697979Y-76543769D01*
X114697982Y-76543771D01*
X114697984Y-76543773D01*
X114831568Y-76643773D01*
X114927517Y-76715600D01*
X115179174Y-76853015D01*
X115447825Y-76953216D01*
X115447828Y-76953216D01*
X115447832Y-76953218D01*
X115609972Y-76988489D01*
X115728001Y-77014165D01*
X116014000Y-77034620D01*
X116299999Y-77014165D01*
X116580166Y-76953218D01*
X116580167Y-76953218D01*
X116580168Y-76953217D01*
X116580175Y-76953216D01*
X116848826Y-76853015D01*
X117100483Y-76715600D01*
X117330021Y-76543769D01*
X117532769Y-76341021D01*
X117704600Y-76111483D01*
X117842015Y-75859826D01*
X117877296Y-75765231D01*
X117919841Y-75708398D01*
X117986361Y-75683587D01*
X118055736Y-75698678D01*
X118105938Y-75748880D01*
X118113403Y-75765226D01*
X118132908Y-75817520D01*
X118185984Y-75959825D01*
X118257929Y-76091582D01*
X118319645Y-76204607D01*
X118323402Y-76211486D01*
X118495226Y-76441015D01*
X118495229Y-76441018D01*
X118495231Y-76441021D01*
X118697979Y-76643769D01*
X118697982Y-76643771D01*
X118697984Y-76643773D01*
X118913376Y-76805014D01*
X118927517Y-76815600D01*
X119179174Y-76953015D01*
X119447825Y-77053216D01*
X119447828Y-77053216D01*
X119447832Y-77053218D01*
X119592471Y-77084682D01*
X119728001Y-77114165D01*
X120014000Y-77134620D01*
X120299999Y-77114165D01*
X120580166Y-77053218D01*
X120580167Y-77053218D01*
X120580168Y-77053217D01*
X120580175Y-77053216D01*
X120848826Y-76953015D01*
X121100483Y-76815600D01*
X121330021Y-76643769D01*
X121532769Y-76441021D01*
X121704600Y-76211483D01*
X121842015Y-75959826D01*
X121895945Y-75815232D01*
X121938490Y-75758398D01*
X122005011Y-75733587D01*
X122074385Y-75748678D01*
X122124587Y-75798880D01*
X122132052Y-75815225D01*
X122145273Y-75850672D01*
X122185984Y-75959825D01*
X122257929Y-76091582D01*
X122319645Y-76204607D01*
X122323402Y-76211486D01*
X122495226Y-76441015D01*
X122495229Y-76441018D01*
X122495231Y-76441021D01*
X122697979Y-76643769D01*
X122697982Y-76643771D01*
X122697984Y-76643773D01*
X122913376Y-76805014D01*
X122927517Y-76815600D01*
X123179174Y-76953015D01*
X123447825Y-77053216D01*
X123447828Y-77053216D01*
X123447832Y-77053218D01*
X123592471Y-77084682D01*
X123728001Y-77114165D01*
X124014000Y-77134620D01*
X124299999Y-77114165D01*
X124580166Y-77053218D01*
X124580167Y-77053218D01*
X124580168Y-77053217D01*
X124580175Y-77053216D01*
X124848826Y-76953015D01*
X125100483Y-76815600D01*
X125330021Y-76643769D01*
X125532769Y-76441021D01*
X125704600Y-76211483D01*
X125842015Y-75959826D01*
X125942216Y-75691175D01*
X126003165Y-75410999D01*
X126018773Y-75192765D01*
X137120788Y-75192765D01*
X137150412Y-75462014D01*
X137218928Y-75724090D01*
X137324869Y-75973389D01*
X137335592Y-75990959D01*
X137465982Y-76204610D01*
X137639255Y-76412820D01*
X137639257Y-76412822D01*
X137639259Y-76412824D01*
X137739379Y-76502531D01*
X137840998Y-76593582D01*
X138066910Y-76743044D01*
X138312176Y-76858020D01*
X138571569Y-76936060D01*
X138571572Y-76936060D01*
X138571574Y-76936061D01*
X138839557Y-76975500D01*
X138839561Y-76975500D01*
X139042633Y-76975500D01*
X139077363Y-76972957D01*
X139245156Y-76960677D01*
X139245160Y-76960676D01*
X139245161Y-76960676D01*
X139426710Y-76920234D01*
X139509553Y-76901780D01*
X139762558Y-76805014D01*
X139998777Y-76672441D01*
X140213177Y-76506888D01*
X140401186Y-76311881D01*
X140558799Y-76091579D01*
X140572110Y-76065690D01*
X140682656Y-75850675D01*
X140682657Y-75850672D01*
X140730421Y-75710665D01*
X140770118Y-75594305D01*
X140819319Y-75327933D01*
X140824259Y-75192765D01*
X157620788Y-75192765D01*
X157650412Y-75462014D01*
X157718928Y-75724090D01*
X157824869Y-75973389D01*
X157835592Y-75990959D01*
X157965982Y-76204610D01*
X158139255Y-76412820D01*
X158139257Y-76412822D01*
X158139259Y-76412824D01*
X158239379Y-76502531D01*
X158340998Y-76593582D01*
X158566910Y-76743044D01*
X158812176Y-76858020D01*
X159071569Y-76936060D01*
X159071572Y-76936060D01*
X159071574Y-76936061D01*
X159339557Y-76975500D01*
X159339561Y-76975500D01*
X159542633Y-76975500D01*
X159577363Y-76972957D01*
X159745156Y-76960677D01*
X159745160Y-76960676D01*
X159745161Y-76960676D01*
X159926710Y-76920234D01*
X160009553Y-76901780D01*
X160262558Y-76805014D01*
X160498777Y-76672441D01*
X160713177Y-76506888D01*
X160901186Y-76311881D01*
X161058799Y-76091579D01*
X161072110Y-76065690D01*
X161182656Y-75850675D01*
X161182657Y-75850672D01*
X161230421Y-75710665D01*
X161270118Y-75594305D01*
X161319319Y-75327933D01*
X161329212Y-75057235D01*
X161305200Y-74839001D01*
X161299587Y-74787985D01*
X161265000Y-74655689D01*
X161231072Y-74525912D01*
X161224198Y-74509737D01*
X161125130Y-74276610D01*
X161082076Y-74206064D01*
X160984018Y-74045390D01*
X160810745Y-73837180D01*
X160810741Y-73837177D01*
X160810740Y-73837175D01*
X160609012Y-73656427D01*
X160609002Y-73656418D01*
X160383090Y-73506956D01*
X160137824Y-73391980D01*
X159946437Y-73334400D01*
X159878425Y-73313938D01*
X159610442Y-73274500D01*
X159610439Y-73274500D01*
X159407369Y-73274500D01*
X159407367Y-73274500D01*
X159204839Y-73289323D01*
X159204838Y-73289323D01*
X158940456Y-73348217D01*
X158940441Y-73348222D01*
X158687441Y-73444986D01*
X158451229Y-73577555D01*
X158451225Y-73577557D01*
X158236818Y-73743116D01*
X158048815Y-73938117D01*
X158048810Y-73938123D01*
X157891203Y-74158417D01*
X157891196Y-74158427D01*
X157767343Y-74399324D01*
X157767342Y-74399327D01*
X157679883Y-74655689D01*
X157679880Y-74655702D01*
X157630681Y-74922058D01*
X157630680Y-74922069D01*
X157620788Y-75192765D01*
X140824259Y-75192765D01*
X140829212Y-75057235D01*
X140805200Y-74839001D01*
X140799587Y-74787985D01*
X140765000Y-74655689D01*
X140731072Y-74525912D01*
X140724198Y-74509737D01*
X140625130Y-74276610D01*
X140582076Y-74206064D01*
X140484018Y-74045390D01*
X140310745Y-73837180D01*
X140310741Y-73837177D01*
X140310740Y-73837175D01*
X140109012Y-73656427D01*
X140109002Y-73656418D01*
X139883090Y-73506956D01*
X139637824Y-73391980D01*
X139446437Y-73334400D01*
X139378425Y-73313938D01*
X139110442Y-73274500D01*
X139110439Y-73274500D01*
X138907369Y-73274500D01*
X138907367Y-73274500D01*
X138704839Y-73289323D01*
X138704838Y-73289323D01*
X138440456Y-73348217D01*
X138440441Y-73348222D01*
X138187441Y-73444986D01*
X137951229Y-73577555D01*
X137951225Y-73577557D01*
X137736818Y-73743116D01*
X137548815Y-73938117D01*
X137548810Y-73938123D01*
X137391203Y-74158417D01*
X137391196Y-74158427D01*
X137267343Y-74399324D01*
X137267342Y-74399327D01*
X137179883Y-74655689D01*
X137179880Y-74655702D01*
X137130681Y-74922058D01*
X137130680Y-74922069D01*
X137120788Y-75192765D01*
X126018773Y-75192765D01*
X126023620Y-75125000D01*
X126003165Y-74839001D01*
X125969084Y-74682335D01*
X125942218Y-74558833D01*
X125942218Y-74558832D01*
X125942216Y-74558828D01*
X125942216Y-74558825D01*
X125842015Y-74290174D01*
X125704600Y-74038517D01*
X125670960Y-73993580D01*
X125532773Y-73808984D01*
X125532765Y-73808975D01*
X125330024Y-73606234D01*
X125330015Y-73606226D01*
X125100486Y-73434402D01*
X125100484Y-73434401D01*
X125100483Y-73434400D01*
X124942656Y-73348220D01*
X124848825Y-73296984D01*
X124580167Y-73196781D01*
X124300001Y-73135835D01*
X124300003Y-73135835D01*
X124014000Y-73115380D01*
X123727997Y-73135835D01*
X123447833Y-73196781D01*
X123447832Y-73196781D01*
X123179174Y-73296984D01*
X122927513Y-73434402D01*
X122697984Y-73606226D01*
X122697975Y-73606234D01*
X122495234Y-73808975D01*
X122495226Y-73808984D01*
X122323402Y-74038513D01*
X122185984Y-74290174D01*
X122132056Y-74434765D01*
X122089509Y-74491601D01*
X122022989Y-74516412D01*
X121953615Y-74501321D01*
X121903413Y-74451119D01*
X121895944Y-74434765D01*
X121883394Y-74401118D01*
X121842015Y-74290174D01*
X121704600Y-74038517D01*
X121670960Y-73993580D01*
X121532773Y-73808984D01*
X121532765Y-73808975D01*
X121330024Y-73606234D01*
X121330015Y-73606226D01*
X121100486Y-73434402D01*
X121100484Y-73434401D01*
X121100483Y-73434400D01*
X120942656Y-73348220D01*
X120848825Y-73296984D01*
X120580167Y-73196781D01*
X120300001Y-73135835D01*
X120300003Y-73135835D01*
X120014000Y-73115380D01*
X119727997Y-73135835D01*
X119447833Y-73196781D01*
X119447832Y-73196781D01*
X119179174Y-73296984D01*
X118927513Y-73434402D01*
X118697984Y-73606226D01*
X118697975Y-73606234D01*
X118495234Y-73808975D01*
X118495226Y-73808984D01*
X118323402Y-74038513D01*
X118185984Y-74290175D01*
X118185981Y-74290182D01*
X118150703Y-74384766D01*
X118108157Y-74441602D01*
X118041636Y-74466412D01*
X117972262Y-74451320D01*
X117922060Y-74401118D01*
X117914598Y-74384779D01*
X117842015Y-74190174D01*
X117704600Y-73938517D01*
X117558321Y-73743112D01*
X117532773Y-73708984D01*
X117532765Y-73708975D01*
X117330024Y-73506234D01*
X117330015Y-73506226D01*
X117100486Y-73334402D01*
X117100484Y-73334401D01*
X117100483Y-73334400D01*
X116988857Y-73273448D01*
X116848825Y-73196984D01*
X116580167Y-73096781D01*
X116300001Y-73035835D01*
X116300003Y-73035835D01*
X116014000Y-73015380D01*
X115727997Y-73035835D01*
X115447833Y-73096781D01*
X115447832Y-73096781D01*
X115179174Y-73196984D01*
X114927513Y-73334402D01*
X114697984Y-73506226D01*
X114697975Y-73506234D01*
X114495234Y-73708975D01*
X114495226Y-73708984D01*
X114323402Y-73938513D01*
X114185984Y-74190174D01*
X114113407Y-74384765D01*
X114070860Y-74441601D01*
X114004340Y-74466412D01*
X113934966Y-74451321D01*
X113884764Y-74401119D01*
X113877297Y-74384769D01*
X113842015Y-74290174D01*
X113704600Y-74038517D01*
X113670960Y-73993580D01*
X113532773Y-73808984D01*
X113532765Y-73808975D01*
X113330024Y-73606234D01*
X113330015Y-73606226D01*
X113100486Y-73434402D01*
X113100484Y-73434401D01*
X113100483Y-73434400D01*
X112942656Y-73348220D01*
X112848825Y-73296984D01*
X112580167Y-73196781D01*
X112300001Y-73135835D01*
X112300003Y-73135835D01*
X112014000Y-73115380D01*
X111727997Y-73135835D01*
X111447833Y-73196781D01*
X111447832Y-73196781D01*
X111179174Y-73296984D01*
X110927513Y-73434402D01*
X110697984Y-73606226D01*
X110697975Y-73606234D01*
X110495234Y-73808975D01*
X110495226Y-73808984D01*
X110323402Y-74038513D01*
X110185984Y-74290174D01*
X110085781Y-74558832D01*
X110085781Y-74558833D01*
X110024835Y-74838997D01*
X110004380Y-75125000D01*
X107523620Y-75125000D01*
X107503165Y-74839001D01*
X107469084Y-74682335D01*
X107442218Y-74558833D01*
X107442218Y-74558832D01*
X107442216Y-74558828D01*
X107442216Y-74558825D01*
X107342015Y-74290174D01*
X107204600Y-74038517D01*
X107170960Y-73993580D01*
X107032773Y-73808984D01*
X107032765Y-73808975D01*
X106830024Y-73606234D01*
X106830015Y-73606226D01*
X106600486Y-73434402D01*
X106600484Y-73434401D01*
X106600483Y-73434400D01*
X106442656Y-73348220D01*
X106348825Y-73296984D01*
X106080167Y-73196781D01*
X105800001Y-73135835D01*
X105800003Y-73135835D01*
X105514000Y-73115380D01*
X105227997Y-73135835D01*
X104947833Y-73196781D01*
X104947832Y-73196781D01*
X104679174Y-73296984D01*
X104427513Y-73434402D01*
X104197984Y-73606226D01*
X104197975Y-73606234D01*
X103995234Y-73808975D01*
X103995226Y-73808984D01*
X103823402Y-74038513D01*
X103685984Y-74290174D01*
X103632056Y-74434765D01*
X103589509Y-74491601D01*
X103522989Y-74516412D01*
X103453615Y-74501321D01*
X103403413Y-74451119D01*
X103395944Y-74434765D01*
X103383394Y-74401118D01*
X103342015Y-74290174D01*
X103204600Y-74038517D01*
X103170960Y-73993580D01*
X103032773Y-73808984D01*
X103032765Y-73808975D01*
X102830024Y-73606234D01*
X102830015Y-73606226D01*
X102600486Y-73434402D01*
X102600484Y-73434401D01*
X102600483Y-73434400D01*
X102442656Y-73348220D01*
X102348825Y-73296984D01*
X102080167Y-73196781D01*
X101800001Y-73135835D01*
X101800003Y-73135835D01*
X101514000Y-73115380D01*
X101227997Y-73135835D01*
X100947833Y-73196781D01*
X100947832Y-73196781D01*
X100679174Y-73296984D01*
X100427513Y-73434402D01*
X100197984Y-73606226D01*
X100197975Y-73606234D01*
X99995234Y-73808975D01*
X99995226Y-73808984D01*
X99823400Y-74038515D01*
X99767564Y-74140771D01*
X99717362Y-74190973D01*
X99647988Y-74206064D01*
X99581467Y-74181253D01*
X99543971Y-74136113D01*
X99473682Y-73993580D01*
X99309236Y-73747468D01*
X99281906Y-73716304D01*
X99281904Y-73716304D01*
X98377821Y-74620386D01*
X98308854Y-74509737D01*
X98168732Y-74362329D01*
X98020577Y-74259210D01*
X98922694Y-73357093D01*
X98922694Y-73357092D01*
X98891531Y-73329763D01*
X98645420Y-73165317D01*
X98379959Y-73034407D01*
X98379945Y-73034401D01*
X98099675Y-72939262D01*
X98099665Y-72939260D01*
X97809370Y-72881515D01*
X97809356Y-72881513D01*
X97514003Y-72862155D01*
X97513997Y-72862155D01*
X97218643Y-72881513D01*
X97218629Y-72881515D01*
X96928334Y-72939260D01*
X96928324Y-72939262D01*
X96648054Y-73034401D01*
X96648040Y-73034407D01*
X96382580Y-73165317D01*
X96136467Y-73329763D01*
X96136463Y-73329766D01*
X96105304Y-73357092D01*
X96105304Y-73357094D01*
X97009512Y-74261302D01*
X96939786Y-74300004D01*
X96785469Y-74432480D01*
X96660979Y-74593308D01*
X96648512Y-74618722D01*
X95746094Y-73716304D01*
X95746092Y-73716304D01*
X95718766Y-73747463D01*
X95718763Y-73747467D01*
X95554317Y-73993580D01*
X95423407Y-74259040D01*
X95423401Y-74259054D01*
X95328262Y-74539324D01*
X95328260Y-74539334D01*
X95270515Y-74829629D01*
X95270513Y-74829643D01*
X95251155Y-75124996D01*
X95251155Y-75125003D01*
X89662000Y-75125003D01*
X89662000Y-71172190D01*
X89682002Y-71104069D01*
X89698905Y-71083095D01*
X92165095Y-68616905D01*
X92227407Y-68582879D01*
X92254190Y-68580000D01*
X163958000Y-68580000D01*
X164026121Y-68600002D01*
G37*
%TD.AperFunction*%
%TD*%
M02*
