%TF.GenerationSoftware,KiCad,Pcbnew,7.0.6*%
%TF.CreationDate,2023-09-20T14:55:28-04:00*%
%TF.ProjectId,32U4_NES_SNES_adapter,33325534-5f4e-4455-935f-534e45535f61,rev?*%
%TF.SameCoordinates,Original*%
%TF.FileFunction,Soldermask,Top*%
%TF.FilePolarity,Negative*%
%FSLAX46Y46*%
G04 Gerber Fmt 4.6, Leading zero omitted, Abs format (unit mm)*
G04 Created by KiCad (PCBNEW 7.0.6) date 2023-09-20 14:55:28*
%MOMM*%
%LPD*%
G01*
G04 APERTURE LIST*
G04 Aperture macros list*
%AMRoundRect*
0 Rectangle with rounded corners*
0 $1 Rounding radius*
0 $2 $3 $4 $5 $6 $7 $8 $9 X,Y pos of 4 corners*
0 Add a 4 corners polygon primitive as box body*
4,1,4,$2,$3,$4,$5,$6,$7,$8,$9,$2,$3,0*
0 Add four circle primitives for the rounded corners*
1,1,$1+$1,$2,$3*
1,1,$1+$1,$4,$5*
1,1,$1+$1,$6,$7*
1,1,$1+$1,$8,$9*
0 Add four rect primitives between the rounded corners*
20,1,$1+$1,$2,$3,$4,$5,0*
20,1,$1+$1,$4,$5,$6,$7,0*
20,1,$1+$1,$6,$7,$8,$9,0*
20,1,$1+$1,$8,$9,$2,$3,0*%
G04 Aperture macros list end*
%ADD10RoundRect,0.140000X0.140000X0.170000X-0.140000X0.170000X-0.140000X-0.170000X0.140000X-0.170000X0*%
%ADD11C,3.500000*%
%ADD12RoundRect,0.135000X-0.135000X-0.185000X0.135000X-0.185000X0.135000X0.185000X-0.135000X0.185000X0*%
%ADD13C,3.200000*%
%ADD14C,2.700000*%
%ADD15C,5.600000*%
%ADD16RoundRect,0.135000X0.135000X0.185000X-0.135000X0.185000X-0.135000X-0.185000X0.135000X-0.185000X0*%
%ADD17RoundRect,0.218750X0.218750X0.256250X-0.218750X0.256250X-0.218750X-0.256250X0.218750X-0.256250X0*%
%ADD18R,1.000000X0.750000*%
%ADD19RoundRect,0.062500X-0.475000X-0.062500X0.475000X-0.062500X0.475000X0.062500X-0.475000X0.062500X0*%
%ADD20RoundRect,0.062500X-0.062500X-0.475000X0.062500X-0.475000X0.062500X0.475000X-0.062500X0.475000X0*%
%ADD21R,5.200000X5.200000*%
%ADD22RoundRect,0.135000X0.185000X-0.135000X0.185000X0.135000X-0.185000X0.135000X-0.185000X-0.135000X0*%
%ADD23RoundRect,0.140000X-0.170000X0.140000X-0.170000X-0.140000X0.170000X-0.140000X0.170000X0.140000X0*%
%ADD24R,1.400000X1.200000*%
%ADD25RoundRect,0.250000X0.475000X-0.250000X0.475000X0.250000X-0.475000X0.250000X-0.475000X-0.250000X0*%
%ADD26RoundRect,0.140000X-0.140000X-0.170000X0.140000X-0.170000X0.140000X0.170000X-0.140000X0.170000X0*%
%ADD27C,0.700000*%
%ADD28R,1.450000X0.600000*%
%ADD29R,1.450000X0.300000*%
%ADD30O,2.100000X1.050000*%
%ADD31RoundRect,0.140000X0.170000X-0.140000X0.170000X0.140000X-0.170000X0.140000X-0.170000X-0.140000X0*%
G04 APERTURE END LIST*
D10*
%TO.C,C9*%
X119250400Y-97028000D03*
X118290400Y-97028000D03*
%TD*%
%TO.C,C7*%
X121587200Y-105587800D03*
X120627200Y-105587800D03*
%TD*%
%TO.C,C8*%
X119225000Y-101727000D03*
X118265000Y-101727000D03*
%TD*%
D11*
%TO.C,J2*%
X97064000Y-120709000D03*
X101064000Y-120709000D03*
X105064000Y-120809000D03*
X109064000Y-120709000D03*
X115564000Y-120709000D03*
X119564000Y-120709000D03*
X123564000Y-120709000D03*
%TD*%
D12*
%TO.C,R6*%
X118235000Y-98171000D03*
X119255000Y-98171000D03*
%TD*%
%TO.C,R3*%
X104142000Y-104770400D03*
X103122000Y-104770400D03*
%TD*%
D13*
%TO.C,J5*%
X159475000Y-75125000D03*
X138975000Y-75125000D03*
D14*
X147168000Y-86125000D03*
X151359000Y-86125000D03*
X155550000Y-86125000D03*
X155550000Y-89125000D03*
X151359000Y-89125000D03*
X147168000Y-89125000D03*
X142977000Y-89125000D03*
%TD*%
D15*
%TO.C,H3*%
X155550000Y-97917000D03*
%TD*%
D13*
%TO.C,J4*%
X138975000Y-120709000D03*
X159475000Y-120709000D03*
D14*
X151282000Y-109709000D03*
X147091000Y-109709000D03*
X142900000Y-109709000D03*
X142900000Y-106709000D03*
X147091000Y-106709000D03*
X151282000Y-106709000D03*
X155473000Y-106709000D03*
%TD*%
D16*
%TO.C,R4*%
X101801200Y-110121750D03*
X102821200Y-110121750D03*
%TD*%
D10*
%TO.C,C10*%
X119225000Y-100584000D03*
X118265000Y-100584000D03*
%TD*%
D15*
%TO.C,H1*%
X93895500Y-87249000D03*
%TD*%
D17*
%TO.C,D1*%
X103098700Y-108597750D03*
X101523700Y-108597750D03*
%TD*%
D12*
%TO.C,R5*%
X118235000Y-99314000D03*
X119255000Y-99314000D03*
%TD*%
D18*
%TO.C,S1*%
X111922500Y-104770400D03*
X105922500Y-104770400D03*
X111922500Y-101020400D03*
X105922500Y-101020400D03*
%TD*%
D15*
%TO.C,H2*%
X93895500Y-110109000D03*
%TD*%
D16*
%TO.C,R2*%
X100332000Y-97429000D03*
X99312000Y-97429000D03*
%TD*%
D19*
%TO.C,U1*%
X121503500Y-98084000D03*
X121503500Y-98584000D03*
X121503500Y-99084000D03*
X121503500Y-99584000D03*
X121503500Y-100084000D03*
X121503500Y-100584000D03*
X121503500Y-101084000D03*
X121503500Y-101584000D03*
X121503500Y-102084000D03*
X121503500Y-102584000D03*
X121503500Y-103084000D03*
D20*
X122341000Y-103921500D03*
X122841000Y-103921500D03*
X123341000Y-103921500D03*
X123841000Y-103921500D03*
X124341000Y-103921500D03*
X124841000Y-103921500D03*
X125341000Y-103921500D03*
X125841000Y-103921500D03*
X126341000Y-103921500D03*
X126841000Y-103921500D03*
X127341000Y-103921500D03*
D19*
X128178500Y-103084000D03*
X128178500Y-102584000D03*
X128178500Y-102084000D03*
X128178500Y-101584000D03*
X128178500Y-101084000D03*
X128178500Y-100584000D03*
X128178500Y-100084000D03*
X128178500Y-99584000D03*
X128178500Y-99084000D03*
X128178500Y-98584000D03*
X128178500Y-98084000D03*
D20*
X127341000Y-97246500D03*
X126841000Y-97246500D03*
X126341000Y-97246500D03*
X125841000Y-97246500D03*
X125341000Y-97246500D03*
X124841000Y-97246500D03*
X124341000Y-97246500D03*
X123841000Y-97246500D03*
X123341000Y-97246500D03*
X122841000Y-97246500D03*
X122341000Y-97246500D03*
D21*
X124841000Y-100584000D03*
%TD*%
D22*
%TO.C,R1*%
X99187000Y-101449000D03*
X99187000Y-100429000D03*
%TD*%
D23*
%TO.C,C6*%
X129794000Y-102584000D03*
X129794000Y-103544000D03*
%TD*%
D24*
%TO.C,Y1*%
X125687000Y-108012000D03*
X123487000Y-108012000D03*
X123487000Y-109712000D03*
X125687000Y-109712000D03*
%TD*%
D10*
%TO.C,C1*%
X126647000Y-106172000D03*
X125687000Y-106172000D03*
%TD*%
D25*
%TO.C,C4*%
X101523800Y-95946000D03*
X101523800Y-94046000D03*
%TD*%
D26*
%TO.C,C2*%
X123472000Y-106172000D03*
X124432000Y-106172000D03*
%TD*%
D11*
%TO.C,J3*%
X124014000Y-75125000D03*
X120014000Y-75125000D03*
X116014000Y-75025000D03*
X112014000Y-75125000D03*
X105514000Y-75125000D03*
X101514000Y-75125000D03*
X97514000Y-75125000D03*
%TD*%
D10*
%TO.C,C5*%
X126618000Y-95631000D03*
X127578000Y-95631000D03*
%TD*%
D27*
%TO.C,J1*%
X95005500Y-95789000D03*
X95005500Y-101569000D03*
D28*
X96450500Y-95429000D03*
X96450500Y-96229000D03*
D29*
X96450500Y-97429000D03*
X96450500Y-98429000D03*
X96450500Y-98929000D03*
X96450500Y-99929000D03*
D28*
X96450500Y-101929000D03*
X96450500Y-101129000D03*
D29*
X96450500Y-100429000D03*
X96450500Y-99429000D03*
X96450500Y-97929000D03*
X96450500Y-96929000D03*
D30*
X95535500Y-94359000D03*
X95535500Y-102999000D03*
X91355500Y-94359000D03*
X91355500Y-102999000D03*
%TD*%
D31*
%TO.C,C3*%
X99187000Y-96238000D03*
X99187000Y-95278000D03*
%TD*%
M02*
