M48
; DRILL file {KiCad 7.0.6} date Wed Sep 20 14:55:28 2023
; FORMAT={-:-/ absolute / inch / decimal}
; #@! TF.CreationDate,2023-09-20T14:55:28-04:00
; #@! TF.GenerationSoftware,Kicad,Pcbnew,7.0.6
; #@! TF.FileFunction,Plated,1,4,PTH
FMAT,2
INCH
; #@! TA.AperFunction,Plated,PTH,ViaDrill
T1C0.0138
; #@! TA.AperFunction,Plated,PTH,ViaDrill
T2C0.0157
; #@! TA.AperFunction,Plated,PTH,ComponentDrill
T3C0.0256
; #@! TA.AperFunction,Plated,PTH,ComponentDrill
T4C0.0630
; #@! TA.AperFunction,Plated,PTH,ComponentDrill
T5C0.0787
; #@! TA.AperFunction,Plated,PTH,ComponentDrill
T6C0.1260
%
G90
G05
T1
X3.98Y-3.8358
X4.03Y-4.1248
X4.0406Y-3.7026
X4.0406Y-3.7774
X4.078Y-4.3355
X4.093Y-4.2755
X4.632Y-3.96
X4.6561Y-4.0341
X4.6571Y-3.79
X4.691Y-3.79
X4.6939Y-4.0353
X4.7491Y-4.187
X4.7869Y-4.187
X4.8Y-4.125
X4.805Y-4.2659
X4.805Y-4.3159
X4.805Y-4.3659
X4.813Y-4.216
X4.8166Y-3.79
X4.833Y-4.18
X4.8363Y-3.8813
X4.8363Y-3.96
X4.8363Y-4.0387
X4.855Y-4.3659
X4.8617Y-4.217
X4.8689Y-4.1354
X4.905Y-4.3659
X4.909Y-4.319
X4.915Y-3.8813
X4.915Y-3.96
X4.915Y-4.0387
X4.955Y-4.366
X4.985Y-3.736
X4.9937Y-3.8813
X4.9937Y-3.96
X4.9937Y-4.0387
X5.005Y-4.2159
X5.005Y-4.2659
X5.005Y-4.3159
X5.005Y-4.3659
X5.015Y-4.18
X5.0228Y-3.736
X5.1411Y-4.0387
X5.1411Y-4.0765
T2
X3.863Y-3.7511
X3.863Y-3.7889
X3.863Y-4.013
X4.2865Y-3.9772
X4.2865Y-4.1248
T4
X5.626Y-4.2011
X5.626Y-4.3193
X5.629Y-3.5089
X5.791Y-4.2011
X5.791Y-4.3193
X5.794Y-3.3907
X5.794Y-3.5089
X5.956Y-4.2011
X5.956Y-4.3193
X5.959Y-3.3907
X5.959Y-3.5089
X6.121Y-4.2011
X6.124Y-3.3907
X6.124Y-3.5089
T5
X3.8214Y-4.7523
X3.8391Y-2.9577
X3.9789Y-4.7523
X3.9966Y-2.9577
X4.1364Y-4.7563
X4.1541Y-2.9577
X4.2939Y-4.7523
X4.41Y-2.9577
X4.5498Y-4.7523
X4.5675Y-2.9537
X4.7072Y-4.7523
X4.725Y-2.9577
X4.8647Y-4.7523
X4.8824Y-2.9577
T6
X3.6967Y-3.435
X3.6967Y-4.335
X6.124Y-3.855
T3
G00X3.6085Y-3.7149
M15
G01X3.5849Y-3.7149
M16
G05
G00X3.6085Y-4.0551
M15
G01X3.5849Y-4.0551
M16
G05
G00X3.7829Y-3.7149
M15
G01X3.7396Y-3.7149
M16
G05
G00X3.7829Y-4.0551
M15
G01X3.7396Y-4.0551
M16
G05
T0
M30
