%TF.GenerationSoftware,KiCad,Pcbnew,7.0.6*%
%TF.CreationDate,2023-09-20T14:55:28-04:00*%
%TF.ProjectId,32U4_NES_SNES_adapter,33325534-5f4e-4455-935f-534e45535f61,rev?*%
%TF.SameCoordinates,Original*%
%TF.FileFunction,Copper,L3,Inr*%
%TF.FilePolarity,Positive*%
%FSLAX46Y46*%
G04 Gerber Fmt 4.6, Leading zero omitted, Abs format (unit mm)*
G04 Created by KiCad (PCBNEW 7.0.6) date 2023-09-20 14:55:28*
%MOMM*%
%LPD*%
G01*
G04 APERTURE LIST*
%TA.AperFunction,ComponentPad*%
%ADD10C,3.500000*%
%TD*%
%TA.AperFunction,ComponentPad*%
%ADD11C,2.700000*%
%TD*%
%TA.AperFunction,ComponentPad*%
%ADD12C,5.600000*%
%TD*%
%TA.AperFunction,ComponentPad*%
%ADD13O,2.100000X1.050000*%
%TD*%
%TA.AperFunction,ViaPad*%
%ADD14C,0.600000*%
%TD*%
%TA.AperFunction,ViaPad*%
%ADD15C,0.800000*%
%TD*%
G04 APERTURE END LIST*
D10*
%TO.N,VCC*%
%TO.C,J2*%
X97064000Y-120709000D03*
%TO.N,/SNES_1_CLK*%
X101064000Y-120709000D03*
%TO.N,/SNES_1_LATCH*%
X105064000Y-120809000D03*
%TO.N,/SNES_1_DATA*%
X109064000Y-120709000D03*
%TO.N,unconnected-(J2-Pad5)*%
X115564000Y-120709000D03*
%TO.N,unconnected-(J2-Pad6)*%
X119564000Y-120709000D03*
%TO.N,GND*%
X123564000Y-120709000D03*
%TD*%
D11*
%TO.N,VCC*%
%TO.C,J5*%
X147168000Y-86125000D03*
%TO.N,unconnected-(J5-Pad2)*%
X151359000Y-86125000D03*
%TO.N,unconnected-(J5-Pad3)*%
X155550000Y-86125000D03*
%TO.N,/NES_2_DATA*%
X155550000Y-89125000D03*
%TO.N,/NES_2_LATCH*%
X151359000Y-89125000D03*
%TO.N,/NES_2_CLK*%
X147168000Y-89125000D03*
%TO.N,GND*%
X142977000Y-89125000D03*
%TD*%
D12*
%TO.N,GND*%
%TO.C,H3*%
X155550000Y-97917000D03*
%TD*%
D11*
%TO.N,VCC*%
%TO.C,J4*%
X151282000Y-109709000D03*
%TO.N,unconnected-(J4-Pad2)*%
X147091000Y-109709000D03*
%TO.N,unconnected-(J4-Pad3)*%
X142900000Y-109709000D03*
%TO.N,/NES_1_DATA*%
X142900000Y-106709000D03*
%TO.N,/NES_1_LATCH*%
X147091000Y-106709000D03*
%TO.N,/NES_1_CLK*%
X151282000Y-106709000D03*
%TO.N,GND*%
X155473000Y-106709000D03*
%TD*%
D12*
%TO.N,GND*%
%TO.C,H1*%
X93895500Y-87249000D03*
%TD*%
%TO.N,GND*%
%TO.C,H2*%
X93895500Y-110109000D03*
%TD*%
D10*
%TO.N,VCC*%
%TO.C,J3*%
X124014000Y-75125000D03*
%TO.N,/SNES_2_CLK*%
X120014000Y-75125000D03*
%TO.N,/SNES_2_LATCH*%
X116014000Y-75025000D03*
%TO.N,/SNES_2_DATA*%
X112014000Y-75125000D03*
%TO.N,unconnected-(J3-Pad5)*%
X105514000Y-75125000D03*
%TO.N,unconnected-(J3-Pad6)*%
X101514000Y-75125000D03*
%TO.N,GND*%
X97514000Y-75125000D03*
%TD*%
D13*
%TO.N,unconnected-(J1-PadS1)*%
%TO.C,J1*%
X95535500Y-94359000D03*
%TO.N,unconnected-(J1-PadS2)*%
X95535500Y-102999000D03*
%TO.N,unconnected-(J1-PadS3)*%
X91355500Y-94359000D03*
%TO.N,unconnected-(J1-PadS4)*%
X91355500Y-102999000D03*
%TD*%
D14*
%TO.N,GND*%
X103962200Y-108597750D03*
X127381000Y-106172000D03*
X124688600Y-109702600D03*
X102631200Y-94046000D03*
D15*
X98119000Y-101929000D03*
D14*
X122841000Y-102584000D03*
X125857000Y-110896400D03*
D15*
X108876300Y-101020400D03*
D14*
X122047000Y-108354000D03*
X126618000Y-94894400D03*
X122841000Y-100584000D03*
X122841000Y-98584000D03*
X123317000Y-110894000D03*
X127127000Y-110894000D03*
X122047000Y-110894000D03*
X123670544Y-105039041D03*
X127127000Y-108354000D03*
X126841000Y-98584000D03*
X126841000Y-102584000D03*
X118265000Y-102466200D03*
X127127000Y-109624000D03*
X124841000Y-98584000D03*
X122047000Y-109624000D03*
X127127000Y-107084000D03*
D15*
X98119000Y-95278000D03*
D14*
X122250200Y-107086400D03*
X124841000Y-100584000D03*
X124841000Y-102584000D03*
X124587000Y-110894000D03*
X130584000Y-103544000D03*
X117652800Y-100584000D03*
X118290400Y-96266000D03*
X126841000Y-100584000D03*
X120627200Y-106349800D03*
X123487000Y-107111800D03*
X122758200Y-106172000D03*
X101092000Y-97429000D03*
%TO.N,VCC*%
X102362000Y-104770400D03*
X121587200Y-106349800D03*
X127578000Y-94894400D03*
X103581200Y-110121750D03*
X102631200Y-95946000D03*
X119225000Y-102497377D03*
X130584000Y-102584000D03*
X122341000Y-96266000D03*
D15*
X98119000Y-96238000D03*
D14*
X119151400Y-96266000D03*
%TO.N,Net-(R3-Pad2)*%
X121920000Y-104775000D03*
D15*
X108876300Y-104770400D03*
%TD*%
%TA.AperFunction,Conductor*%
%TO.N,VCC*%
G36*
X164026121Y-68854002D02*
G01*
X164072614Y-68907658D01*
X164084000Y-68960000D01*
X164084000Y-127001000D01*
X164063998Y-127069121D01*
X164010342Y-127115614D01*
X163958000Y-127127000D01*
X92250351Y-127127000D01*
X92182230Y-127106998D01*
X92166061Y-127094655D01*
X89703710Y-124878539D01*
X89666457Y-124818101D01*
X89662000Y-124784884D01*
X89662000Y-120709003D01*
X94801155Y-120709003D01*
X94820513Y-121004356D01*
X94820515Y-121004370D01*
X94878260Y-121294665D01*
X94878262Y-121294675D01*
X94973401Y-121574945D01*
X94973407Y-121574959D01*
X95104317Y-121840420D01*
X95268763Y-122086531D01*
X95296092Y-122117694D01*
X96200176Y-121213611D01*
X96269146Y-121324263D01*
X96409268Y-121471671D01*
X96557420Y-121574788D01*
X95655304Y-122476904D01*
X95655304Y-122476906D01*
X95686468Y-122504236D01*
X95932579Y-122668682D01*
X96198040Y-122799592D01*
X96198054Y-122799598D01*
X96478324Y-122894737D01*
X96478334Y-122894739D01*
X96768629Y-122952484D01*
X96768643Y-122952486D01*
X97063997Y-122971845D01*
X97064003Y-122971845D01*
X97359356Y-122952486D01*
X97359370Y-122952484D01*
X97649665Y-122894739D01*
X97649675Y-122894737D01*
X97929945Y-122799598D01*
X97929959Y-122799592D01*
X98195420Y-122668682D01*
X98441534Y-122504234D01*
X98441536Y-122504233D01*
X98472694Y-122476906D01*
X98472694Y-122476904D01*
X97568487Y-121572697D01*
X97638214Y-121533996D01*
X97792531Y-121401520D01*
X97917021Y-121240692D01*
X97929487Y-121215277D01*
X98831904Y-122117694D01*
X98831906Y-122117694D01*
X98859233Y-122086536D01*
X98859234Y-122086534D01*
X99023684Y-121840417D01*
X99093971Y-121697888D01*
X99142038Y-121645638D01*
X99210724Y-121627671D01*
X99278220Y-121649690D01*
X99317564Y-121693229D01*
X99373400Y-121795484D01*
X99545226Y-122025015D01*
X99545229Y-122025018D01*
X99545231Y-122025021D01*
X99747979Y-122227769D01*
X99747982Y-122227771D01*
X99747984Y-122227773D01*
X99963376Y-122389014D01*
X99977517Y-122399600D01*
X100229174Y-122537015D01*
X100497825Y-122637216D01*
X100497828Y-122637216D01*
X100497832Y-122637218D01*
X100642471Y-122668682D01*
X100778001Y-122698165D01*
X101064000Y-122718620D01*
X101349999Y-122698165D01*
X101630166Y-122637218D01*
X101630167Y-122637218D01*
X101630168Y-122637217D01*
X101630175Y-122637216D01*
X101898826Y-122537015D01*
X102150483Y-122399600D01*
X102380021Y-122227769D01*
X102582769Y-122025021D01*
X102754600Y-121795483D01*
X102892015Y-121543826D01*
X102927296Y-121449231D01*
X102969841Y-121392398D01*
X103036361Y-121367587D01*
X103105736Y-121382678D01*
X103155938Y-121432880D01*
X103163403Y-121449226D01*
X103163407Y-121449235D01*
X103235984Y-121643825D01*
X103312448Y-121783857D01*
X103343333Y-121840420D01*
X103373402Y-121895486D01*
X103545226Y-122125015D01*
X103545229Y-122125018D01*
X103545231Y-122125021D01*
X103747979Y-122327769D01*
X103747982Y-122327771D01*
X103747984Y-122327773D01*
X103947199Y-122476904D01*
X103977517Y-122499600D01*
X104229174Y-122637015D01*
X104497825Y-122737216D01*
X104497828Y-122737216D01*
X104497832Y-122737218D01*
X104659972Y-122772489D01*
X104778001Y-122798165D01*
X105064000Y-122818620D01*
X105349999Y-122798165D01*
X105630166Y-122737218D01*
X105630167Y-122737218D01*
X105630168Y-122737217D01*
X105630175Y-122737216D01*
X105898826Y-122637015D01*
X106150483Y-122499600D01*
X106380021Y-122327769D01*
X106582769Y-122125021D01*
X106754600Y-121895483D01*
X106892015Y-121643826D01*
X106964594Y-121449231D01*
X107007138Y-121392398D01*
X107073658Y-121367587D01*
X107143032Y-121382678D01*
X107193235Y-121432880D01*
X107200704Y-121449233D01*
X107235985Y-121543827D01*
X107307929Y-121675582D01*
X107369645Y-121788607D01*
X107373402Y-121795486D01*
X107545226Y-122025015D01*
X107545229Y-122025018D01*
X107545231Y-122025021D01*
X107747979Y-122227769D01*
X107747982Y-122227771D01*
X107747984Y-122227773D01*
X107963376Y-122389014D01*
X107977517Y-122399600D01*
X108229174Y-122537015D01*
X108497825Y-122637216D01*
X108497828Y-122637216D01*
X108497832Y-122637218D01*
X108642471Y-122668682D01*
X108778001Y-122698165D01*
X109064000Y-122718620D01*
X109349999Y-122698165D01*
X109630166Y-122637218D01*
X109630167Y-122637218D01*
X109630168Y-122637217D01*
X109630175Y-122637216D01*
X109898826Y-122537015D01*
X110150483Y-122399600D01*
X110380021Y-122227769D01*
X110582769Y-122025021D01*
X110754600Y-121795483D01*
X110892015Y-121543826D01*
X110992216Y-121275175D01*
X111053165Y-120994999D01*
X111073620Y-120709000D01*
X113554380Y-120709000D01*
X113574835Y-120995002D01*
X113635781Y-121275166D01*
X113635781Y-121275167D01*
X113735984Y-121543825D01*
X113807929Y-121675582D01*
X113869645Y-121788607D01*
X113873402Y-121795486D01*
X114045226Y-122025015D01*
X114045229Y-122025018D01*
X114045231Y-122025021D01*
X114247979Y-122227769D01*
X114247982Y-122227771D01*
X114247984Y-122227773D01*
X114463376Y-122389014D01*
X114477517Y-122399600D01*
X114729174Y-122537015D01*
X114997825Y-122637216D01*
X114997828Y-122637216D01*
X114997832Y-122637218D01*
X115142471Y-122668682D01*
X115278001Y-122698165D01*
X115564000Y-122718620D01*
X115849999Y-122698165D01*
X116130166Y-122637218D01*
X116130167Y-122637218D01*
X116130168Y-122637217D01*
X116130175Y-122637216D01*
X116398826Y-122537015D01*
X116650483Y-122399600D01*
X116880021Y-122227769D01*
X117082769Y-122025021D01*
X117254600Y-121795483D01*
X117392015Y-121543826D01*
X117445945Y-121399231D01*
X117488489Y-121342399D01*
X117555009Y-121317587D01*
X117624383Y-121332678D01*
X117674586Y-121382879D01*
X117682055Y-121399233D01*
X117735985Y-121543827D01*
X117807929Y-121675582D01*
X117869645Y-121788607D01*
X117873402Y-121795486D01*
X118045226Y-122025015D01*
X118045229Y-122025018D01*
X118045231Y-122025021D01*
X118247979Y-122227769D01*
X118247982Y-122227771D01*
X118247984Y-122227773D01*
X118463376Y-122389014D01*
X118477517Y-122399600D01*
X118729174Y-122537015D01*
X118997825Y-122637216D01*
X118997828Y-122637216D01*
X118997832Y-122637218D01*
X119142471Y-122668682D01*
X119278001Y-122698165D01*
X119564000Y-122718620D01*
X119849999Y-122698165D01*
X120130166Y-122637218D01*
X120130167Y-122637218D01*
X120130168Y-122637217D01*
X120130175Y-122637216D01*
X120398826Y-122537015D01*
X120650483Y-122399600D01*
X120880021Y-122227769D01*
X121082769Y-122025021D01*
X121254600Y-121795483D01*
X121392015Y-121543826D01*
X121445945Y-121399231D01*
X121488489Y-121342399D01*
X121555009Y-121317587D01*
X121624383Y-121332678D01*
X121674586Y-121382879D01*
X121682055Y-121399233D01*
X121735985Y-121543827D01*
X121807929Y-121675582D01*
X121869645Y-121788607D01*
X121873402Y-121795486D01*
X122045226Y-122025015D01*
X122045229Y-122025018D01*
X122045231Y-122025021D01*
X122247979Y-122227769D01*
X122247982Y-122227771D01*
X122247984Y-122227773D01*
X122463376Y-122389014D01*
X122477517Y-122399600D01*
X122729174Y-122537015D01*
X122997825Y-122637216D01*
X122997828Y-122637216D01*
X122997832Y-122637218D01*
X123142471Y-122668682D01*
X123278001Y-122698165D01*
X123564000Y-122718620D01*
X123849999Y-122698165D01*
X124130166Y-122637218D01*
X124130167Y-122637218D01*
X124130168Y-122637217D01*
X124130175Y-122637216D01*
X124398826Y-122537015D01*
X124650483Y-122399600D01*
X124880021Y-122227769D01*
X125082769Y-122025021D01*
X125254600Y-121795483D01*
X125392015Y-121543826D01*
X125492216Y-121275175D01*
X125553165Y-120994999D01*
X125568773Y-120776765D01*
X137120788Y-120776765D01*
X137150412Y-121046014D01*
X137218928Y-121308090D01*
X137324869Y-121557389D01*
X137335592Y-121574959D01*
X137465982Y-121788610D01*
X137639255Y-121996820D01*
X137639257Y-121996822D01*
X137639259Y-121996824D01*
X137739379Y-122086531D01*
X137840998Y-122177582D01*
X138066910Y-122327044D01*
X138312176Y-122442020D01*
X138571569Y-122520060D01*
X138571572Y-122520060D01*
X138571574Y-122520061D01*
X138839557Y-122559500D01*
X138839561Y-122559500D01*
X139042633Y-122559500D01*
X139077363Y-122556957D01*
X139245156Y-122544677D01*
X139245160Y-122544676D01*
X139245161Y-122544676D01*
X139426710Y-122504234D01*
X139509553Y-122485780D01*
X139762558Y-122389014D01*
X139998777Y-122256441D01*
X140213177Y-122090888D01*
X140401186Y-121895881D01*
X140558799Y-121675579D01*
X140572110Y-121649690D01*
X140682656Y-121434675D01*
X140682657Y-121434672D01*
X140693967Y-121401520D01*
X140770118Y-121178305D01*
X140819319Y-120911933D01*
X140824259Y-120776765D01*
X157620788Y-120776765D01*
X157650412Y-121046014D01*
X157718928Y-121308090D01*
X157824869Y-121557389D01*
X157835592Y-121574959D01*
X157965982Y-121788610D01*
X158139255Y-121996820D01*
X158139257Y-121996822D01*
X158139259Y-121996824D01*
X158239379Y-122086531D01*
X158340998Y-122177582D01*
X158566910Y-122327044D01*
X158812176Y-122442020D01*
X159071569Y-122520060D01*
X159071572Y-122520060D01*
X159071574Y-122520061D01*
X159339557Y-122559500D01*
X159339561Y-122559500D01*
X159542633Y-122559500D01*
X159577363Y-122556957D01*
X159745156Y-122544677D01*
X159745160Y-122544676D01*
X159745161Y-122544676D01*
X159926710Y-122504234D01*
X160009553Y-122485780D01*
X160262558Y-122389014D01*
X160498777Y-122256441D01*
X160713177Y-122090888D01*
X160901186Y-121895881D01*
X161058799Y-121675579D01*
X161072110Y-121649690D01*
X161182656Y-121434675D01*
X161182657Y-121434672D01*
X161193967Y-121401520D01*
X161270118Y-121178305D01*
X161319319Y-120911933D01*
X161329212Y-120641235D01*
X161305200Y-120423001D01*
X161299587Y-120371985D01*
X161265000Y-120239689D01*
X161231072Y-120109912D01*
X161224198Y-120093737D01*
X161125130Y-119860610D01*
X161082076Y-119790064D01*
X160984018Y-119629390D01*
X160810745Y-119421180D01*
X160810741Y-119421177D01*
X160810740Y-119421175D01*
X160609012Y-119240427D01*
X160609002Y-119240418D01*
X160383090Y-119090956D01*
X160137824Y-118975980D01*
X159980392Y-118928615D01*
X159878425Y-118897938D01*
X159610442Y-118858500D01*
X159610439Y-118858500D01*
X159407369Y-118858500D01*
X159407367Y-118858500D01*
X159204839Y-118873323D01*
X159204838Y-118873323D01*
X158940456Y-118932217D01*
X158940441Y-118932222D01*
X158687441Y-119028986D01*
X158451229Y-119161555D01*
X158451225Y-119161557D01*
X158236818Y-119327116D01*
X158048815Y-119522117D01*
X158048810Y-119522123D01*
X157891203Y-119742417D01*
X157891196Y-119742427D01*
X157767343Y-119983324D01*
X157767342Y-119983327D01*
X157679883Y-120239689D01*
X157679880Y-120239702D01*
X157630681Y-120506058D01*
X157630680Y-120506069D01*
X157620788Y-120776765D01*
X140824259Y-120776765D01*
X140829212Y-120641235D01*
X140805200Y-120423001D01*
X140799587Y-120371985D01*
X140765000Y-120239689D01*
X140731072Y-120109912D01*
X140724198Y-120093737D01*
X140625130Y-119860610D01*
X140582076Y-119790064D01*
X140484018Y-119629390D01*
X140310745Y-119421180D01*
X140310741Y-119421177D01*
X140310740Y-119421175D01*
X140109012Y-119240427D01*
X140109002Y-119240418D01*
X139883090Y-119090956D01*
X139637824Y-118975980D01*
X139480392Y-118928615D01*
X139378425Y-118897938D01*
X139110442Y-118858500D01*
X139110439Y-118858500D01*
X138907369Y-118858500D01*
X138907367Y-118858500D01*
X138704839Y-118873323D01*
X138704838Y-118873323D01*
X138440456Y-118932217D01*
X138440441Y-118932222D01*
X138187441Y-119028986D01*
X137951229Y-119161555D01*
X137951225Y-119161557D01*
X137736818Y-119327116D01*
X137548815Y-119522117D01*
X137548810Y-119522123D01*
X137391203Y-119742417D01*
X137391196Y-119742427D01*
X137267343Y-119983324D01*
X137267342Y-119983327D01*
X137179883Y-120239689D01*
X137179880Y-120239702D01*
X137130681Y-120506058D01*
X137130680Y-120506069D01*
X137120788Y-120776765D01*
X125568773Y-120776765D01*
X125573620Y-120709000D01*
X125553165Y-120423001D01*
X125513970Y-120242825D01*
X125492218Y-120142833D01*
X125492218Y-120142832D01*
X125492216Y-120142828D01*
X125492216Y-120142825D01*
X125392015Y-119874174D01*
X125254600Y-119622517D01*
X125103880Y-119421180D01*
X125082773Y-119392984D01*
X125082765Y-119392975D01*
X124880024Y-119190234D01*
X124880015Y-119190226D01*
X124650486Y-119018402D01*
X124650484Y-119018401D01*
X124650483Y-119018400D01*
X124492656Y-118932220D01*
X124398825Y-118880984D01*
X124130167Y-118780781D01*
X123850001Y-118719835D01*
X123850003Y-118719835D01*
X123564000Y-118699380D01*
X123277997Y-118719835D01*
X122997833Y-118780781D01*
X122997832Y-118780781D01*
X122729174Y-118880984D01*
X122477513Y-119018402D01*
X122247984Y-119190226D01*
X122247975Y-119190234D01*
X122045234Y-119392975D01*
X122045226Y-119392984D01*
X121873402Y-119622513D01*
X121735985Y-119874172D01*
X121682055Y-120018766D01*
X121639508Y-120075601D01*
X121572987Y-120100412D01*
X121503613Y-120085320D01*
X121453411Y-120035118D01*
X121445948Y-120018775D01*
X121392015Y-119874174D01*
X121254600Y-119622517D01*
X121103880Y-119421180D01*
X121082773Y-119392984D01*
X121082765Y-119392975D01*
X120880024Y-119190234D01*
X120880015Y-119190226D01*
X120650486Y-119018402D01*
X120650484Y-119018401D01*
X120650483Y-119018400D01*
X120492656Y-118932220D01*
X120398825Y-118880984D01*
X120130167Y-118780781D01*
X119850001Y-118719835D01*
X119850003Y-118719835D01*
X119564000Y-118699380D01*
X119277997Y-118719835D01*
X118997833Y-118780781D01*
X118997832Y-118780781D01*
X118729174Y-118880984D01*
X118477513Y-119018402D01*
X118247984Y-119190226D01*
X118247975Y-119190234D01*
X118045234Y-119392975D01*
X118045226Y-119392984D01*
X117873402Y-119622513D01*
X117735985Y-119874172D01*
X117682055Y-120018766D01*
X117639508Y-120075601D01*
X117572987Y-120100412D01*
X117503613Y-120085320D01*
X117453411Y-120035118D01*
X117445948Y-120018775D01*
X117392015Y-119874174D01*
X117254600Y-119622517D01*
X117103880Y-119421180D01*
X117082773Y-119392984D01*
X117082765Y-119392975D01*
X116880024Y-119190234D01*
X116880015Y-119190226D01*
X116650486Y-119018402D01*
X116650484Y-119018401D01*
X116650483Y-119018400D01*
X116492656Y-118932220D01*
X116398825Y-118880984D01*
X116130167Y-118780781D01*
X115850001Y-118719835D01*
X115850003Y-118719835D01*
X115564000Y-118699380D01*
X115277997Y-118719835D01*
X114997833Y-118780781D01*
X114997832Y-118780781D01*
X114729174Y-118880984D01*
X114477513Y-119018402D01*
X114247984Y-119190226D01*
X114247975Y-119190234D01*
X114045234Y-119392975D01*
X114045226Y-119392984D01*
X113873402Y-119622513D01*
X113735984Y-119874174D01*
X113635781Y-120142832D01*
X113635781Y-120142833D01*
X113574835Y-120422997D01*
X113554380Y-120709000D01*
X111073620Y-120709000D01*
X111053165Y-120423001D01*
X111013970Y-120242825D01*
X110992218Y-120142833D01*
X110992218Y-120142832D01*
X110992216Y-120142828D01*
X110992216Y-120142825D01*
X110892015Y-119874174D01*
X110754600Y-119622517D01*
X110603880Y-119421180D01*
X110582773Y-119392984D01*
X110582765Y-119392975D01*
X110380024Y-119190234D01*
X110380015Y-119190226D01*
X110150486Y-119018402D01*
X110150484Y-119018401D01*
X110150483Y-119018400D01*
X109992656Y-118932220D01*
X109898825Y-118880984D01*
X109630167Y-118780781D01*
X109350001Y-118719835D01*
X109350003Y-118719835D01*
X109064000Y-118699380D01*
X108777997Y-118719835D01*
X108497833Y-118780781D01*
X108497832Y-118780781D01*
X108229174Y-118880984D01*
X107977513Y-119018402D01*
X107747984Y-119190226D01*
X107747975Y-119190234D01*
X107545234Y-119392975D01*
X107545226Y-119392984D01*
X107373402Y-119622513D01*
X107235984Y-119874174D01*
X107163407Y-120068765D01*
X107120860Y-120125601D01*
X107054340Y-120150412D01*
X106984966Y-120135321D01*
X106934764Y-120085119D01*
X106927297Y-120068769D01*
X106892015Y-119974174D01*
X106754600Y-119722517D01*
X106684886Y-119629390D01*
X106582773Y-119492984D01*
X106582765Y-119492975D01*
X106380024Y-119290234D01*
X106380015Y-119290226D01*
X106150486Y-119118402D01*
X106150484Y-119118401D01*
X106150483Y-119118400D01*
X106038857Y-119057448D01*
X105898825Y-118980984D01*
X105630167Y-118880781D01*
X105350001Y-118819835D01*
X105350003Y-118819835D01*
X105064000Y-118799380D01*
X104777997Y-118819835D01*
X104497833Y-118880781D01*
X104497832Y-118880781D01*
X104229174Y-118980984D01*
X103977513Y-119118402D01*
X103747984Y-119290226D01*
X103747975Y-119290234D01*
X103545234Y-119492975D01*
X103545226Y-119492984D01*
X103373402Y-119722513D01*
X103235984Y-119974175D01*
X103235981Y-119974182D01*
X103200703Y-120068766D01*
X103158157Y-120125602D01*
X103091636Y-120150412D01*
X103022262Y-120135320D01*
X102972060Y-120085118D01*
X102964598Y-120068779D01*
X102892015Y-119874174D01*
X102754600Y-119622517D01*
X102603880Y-119421180D01*
X102582773Y-119392984D01*
X102582765Y-119392975D01*
X102380024Y-119190234D01*
X102380015Y-119190226D01*
X102150486Y-119018402D01*
X102150484Y-119018401D01*
X102150483Y-119018400D01*
X101992656Y-118932220D01*
X101898825Y-118880984D01*
X101630167Y-118780781D01*
X101350001Y-118719835D01*
X101350003Y-118719835D01*
X101064000Y-118699380D01*
X100777997Y-118719835D01*
X100497833Y-118780781D01*
X100497832Y-118780781D01*
X100229174Y-118880984D01*
X99977513Y-119018402D01*
X99747984Y-119190226D01*
X99747975Y-119190234D01*
X99545234Y-119392975D01*
X99545226Y-119392984D01*
X99373400Y-119622515D01*
X99317564Y-119724771D01*
X99267362Y-119774973D01*
X99197988Y-119790064D01*
X99131467Y-119765253D01*
X99093971Y-119720113D01*
X99023682Y-119577580D01*
X98859236Y-119331468D01*
X98831906Y-119300304D01*
X98831904Y-119300304D01*
X97927822Y-120204386D01*
X97858854Y-120093737D01*
X97718732Y-119946329D01*
X97570577Y-119843210D01*
X98472694Y-118941092D01*
X98441531Y-118913763D01*
X98195420Y-118749317D01*
X97929959Y-118618407D01*
X97929945Y-118618401D01*
X97649675Y-118523262D01*
X97649665Y-118523260D01*
X97359370Y-118465515D01*
X97359356Y-118465513D01*
X97064003Y-118446155D01*
X97063997Y-118446155D01*
X96768643Y-118465513D01*
X96768629Y-118465515D01*
X96478334Y-118523260D01*
X96478324Y-118523262D01*
X96198054Y-118618401D01*
X96198040Y-118618407D01*
X95932580Y-118749317D01*
X95686467Y-118913763D01*
X95686463Y-118913766D01*
X95655304Y-118941092D01*
X95655304Y-118941094D01*
X96559512Y-119845302D01*
X96489786Y-119884004D01*
X96335469Y-120016480D01*
X96210979Y-120177308D01*
X96198512Y-120202722D01*
X95296094Y-119300304D01*
X95296092Y-119300304D01*
X95268766Y-119331463D01*
X95268763Y-119331467D01*
X95104317Y-119577580D01*
X94973407Y-119843040D01*
X94973401Y-119843054D01*
X94878262Y-120123324D01*
X94878260Y-120123334D01*
X94820515Y-120413629D01*
X94820513Y-120413643D01*
X94801155Y-120708996D01*
X94801155Y-120709003D01*
X89662000Y-120709003D01*
X89662000Y-110108999D01*
X90836187Y-110108999D01*
X90855422Y-110451529D01*
X90912888Y-110789754D01*
X91007866Y-111119431D01*
X91139153Y-111436384D01*
X91139156Y-111436389D01*
X91305103Y-111736649D01*
X91503630Y-112016446D01*
X91503635Y-112016453D01*
X91602497Y-112127079D01*
X91732239Y-112272261D01*
X91894696Y-112417441D01*
X91988046Y-112500864D01*
X91988053Y-112500869D01*
X92267850Y-112699396D01*
X92358614Y-112749559D01*
X92568114Y-112865346D01*
X92885073Y-112996635D01*
X93214739Y-113091610D01*
X93552966Y-113149077D01*
X93895500Y-113168313D01*
X94238034Y-113149077D01*
X94576261Y-113091610D01*
X94905927Y-112996635D01*
X95222886Y-112865346D01*
X95523153Y-112699394D01*
X95802950Y-112500867D01*
X96058761Y-112272261D01*
X96287367Y-112016450D01*
X96485894Y-111736653D01*
X96651846Y-111436386D01*
X96783135Y-111119427D01*
X96848079Y-110894000D01*
X121487715Y-110894000D01*
X121506771Y-111038752D01*
X121562644Y-111173641D01*
X121562649Y-111173649D01*
X121651525Y-111289474D01*
X121767350Y-111378350D01*
X121767357Y-111378355D01*
X121902246Y-111434228D01*
X122047000Y-111453285D01*
X122191754Y-111434228D01*
X122326643Y-111378355D01*
X122442474Y-111289474D01*
X122531355Y-111173643D01*
X122565592Y-111090987D01*
X122610139Y-111035708D01*
X122677503Y-111013287D01*
X122746294Y-111030845D01*
X122794672Y-111082807D01*
X122798403Y-111090977D01*
X122798906Y-111092189D01*
X122832644Y-111173641D01*
X122832649Y-111173649D01*
X122921525Y-111289474D01*
X123037350Y-111378350D01*
X123037357Y-111378355D01*
X123172246Y-111434228D01*
X123317000Y-111453285D01*
X123461754Y-111434228D01*
X123596643Y-111378355D01*
X123712474Y-111289474D01*
X123801355Y-111173643D01*
X123835592Y-111090987D01*
X123880139Y-111035708D01*
X123947503Y-111013287D01*
X124016294Y-111030845D01*
X124064672Y-111082807D01*
X124068403Y-111090977D01*
X124068906Y-111092189D01*
X124102644Y-111173641D01*
X124102649Y-111173649D01*
X124191525Y-111289474D01*
X124307350Y-111378350D01*
X124307357Y-111378355D01*
X124442246Y-111434228D01*
X124587000Y-111453285D01*
X124731754Y-111434228D01*
X124866643Y-111378355D01*
X124982474Y-111289474D01*
X125071355Y-111173643D01*
X125105095Y-111092187D01*
X125149641Y-111036909D01*
X125217004Y-111014487D01*
X125285795Y-111032045D01*
X125334174Y-111084006D01*
X125337910Y-111092188D01*
X125372642Y-111176037D01*
X125372649Y-111176049D01*
X125461525Y-111291874D01*
X125574229Y-111378355D01*
X125577357Y-111380755D01*
X125712246Y-111436628D01*
X125857000Y-111455685D01*
X126001754Y-111436628D01*
X126136643Y-111380755D01*
X126252474Y-111291874D01*
X126341355Y-111176043D01*
X126376089Y-111092187D01*
X126420636Y-111036908D01*
X126488000Y-111014487D01*
X126556791Y-111032045D01*
X126605169Y-111084007D01*
X126608901Y-111092178D01*
X126608905Y-111092188D01*
X126608906Y-111092189D01*
X126642644Y-111173641D01*
X126642649Y-111173649D01*
X126731525Y-111289474D01*
X126847350Y-111378350D01*
X126847357Y-111378355D01*
X126982246Y-111434228D01*
X127054622Y-111443756D01*
X127126999Y-111453285D01*
X127126999Y-111453284D01*
X127127000Y-111453285D01*
X127271754Y-111434228D01*
X127406643Y-111378355D01*
X127522474Y-111289474D01*
X127611355Y-111173643D01*
X127667228Y-111038754D01*
X127686285Y-110894000D01*
X127667228Y-110749246D01*
X127611355Y-110614358D01*
X127522474Y-110498526D01*
X127522472Y-110498524D01*
X127522471Y-110498523D01*
X127406649Y-110409649D01*
X127406641Y-110409644D01*
X127353810Y-110387761D01*
X127323987Y-110375407D01*
X127268708Y-110330861D01*
X127246287Y-110263497D01*
X127263845Y-110194706D01*
X127315807Y-110146328D01*
X127323977Y-110142596D01*
X127406643Y-110108355D01*
X127522474Y-110019474D01*
X127611355Y-109903643D01*
X127667228Y-109768754D01*
X127675095Y-109709000D01*
X141290539Y-109709000D01*
X141310354Y-109960775D01*
X141328980Y-110038358D01*
X141369311Y-110206349D01*
X141459966Y-110425208D01*
X141465960Y-110439680D01*
X141574474Y-110616759D01*
X141597920Y-110655018D01*
X141597921Y-110655020D01*
X141761938Y-110847061D01*
X141953979Y-111011078D01*
X141953983Y-111011081D01*
X142169320Y-111143040D01*
X142402649Y-111239688D01*
X142648225Y-111298646D01*
X142900000Y-111318461D01*
X143151775Y-111298646D01*
X143397351Y-111239688D01*
X143630680Y-111143040D01*
X143846017Y-111011081D01*
X144038061Y-110847061D01*
X144202081Y-110655017D01*
X144334040Y-110439680D01*
X144430688Y-110206351D01*
X144489646Y-109960775D01*
X144509461Y-109709000D01*
X145481539Y-109709000D01*
X145501354Y-109960775D01*
X145519980Y-110038358D01*
X145560311Y-110206349D01*
X145650966Y-110425208D01*
X145656960Y-110439680D01*
X145765474Y-110616759D01*
X145788920Y-110655018D01*
X145788921Y-110655020D01*
X145952938Y-110847061D01*
X146144979Y-111011078D01*
X146144983Y-111011081D01*
X146360320Y-111143040D01*
X146593649Y-111239688D01*
X146839225Y-111298646D01*
X147091000Y-111318461D01*
X147342775Y-111298646D01*
X147588351Y-111239688D01*
X147821680Y-111143040D01*
X148037017Y-111011081D01*
X148229061Y-110847061D01*
X148393081Y-110655017D01*
X148525040Y-110439680D01*
X148621688Y-110206351D01*
X148680646Y-109960775D01*
X148700461Y-109709000D01*
X149419254Y-109709000D01*
X149438213Y-109974092D01*
X149494707Y-110233793D01*
X149587587Y-110482814D01*
X149714958Y-110716076D01*
X149800903Y-110830885D01*
X149800903Y-110830886D01*
X150563155Y-110068633D01*
X150652577Y-110210948D01*
X150780052Y-110338423D01*
X150922364Y-110427843D01*
X150160112Y-111190095D01*
X150160113Y-111190096D01*
X150274919Y-111276039D01*
X150508185Y-111403412D01*
X150757206Y-111496292D01*
X151016907Y-111552786D01*
X151282000Y-111571745D01*
X151547092Y-111552786D01*
X151806793Y-111496292D01*
X152055814Y-111403412D01*
X152289076Y-111276042D01*
X152403885Y-111190095D01*
X152403886Y-111190095D01*
X151641634Y-110427843D01*
X151783948Y-110338423D01*
X151911423Y-110210948D01*
X152000843Y-110068634D01*
X152763095Y-110830886D01*
X152763095Y-110830885D01*
X152849042Y-110716076D01*
X152976412Y-110482814D01*
X153069292Y-110233793D01*
X153125786Y-109974092D01*
X153144745Y-109709000D01*
X153125786Y-109443907D01*
X153069292Y-109184206D01*
X152976412Y-108935185D01*
X152849039Y-108701919D01*
X152763096Y-108587113D01*
X152763095Y-108587112D01*
X152000843Y-109349364D01*
X151911423Y-109207052D01*
X151783948Y-109079577D01*
X151641634Y-108990155D01*
X152403886Y-108227903D01*
X152403885Y-108227902D01*
X152300964Y-108150856D01*
X152258417Y-108094020D01*
X152253353Y-108023204D01*
X152287378Y-107960892D01*
X152294623Y-107954194D01*
X152420061Y-107847061D01*
X152584081Y-107655017D01*
X152716040Y-107439680D01*
X152812688Y-107206351D01*
X152871646Y-106960775D01*
X152891461Y-106709000D01*
X153863539Y-106709000D01*
X153883354Y-106960774D01*
X153942311Y-107206349D01*
X154018980Y-107391443D01*
X154038960Y-107439680D01*
X154170728Y-107654706D01*
X154170920Y-107655018D01*
X154170921Y-107655020D01*
X154334938Y-107847061D01*
X154526979Y-108011078D01*
X154526983Y-108011081D01*
X154742320Y-108143040D01*
X154975649Y-108239688D01*
X155221225Y-108298646D01*
X155473000Y-108318461D01*
X155724775Y-108298646D01*
X155970351Y-108239688D01*
X156203680Y-108143040D01*
X156419017Y-108011081D01*
X156611061Y-107847061D01*
X156775081Y-107655017D01*
X156907040Y-107439680D01*
X157003688Y-107206351D01*
X157062646Y-106960775D01*
X157082461Y-106709000D01*
X157062646Y-106457225D01*
X157003688Y-106211649D01*
X156907040Y-105978320D01*
X156775081Y-105762983D01*
X156775078Y-105762979D01*
X156611061Y-105570938D01*
X156419020Y-105406921D01*
X156419018Y-105406920D01*
X156419017Y-105406919D01*
X156203680Y-105274960D01*
X156166007Y-105259355D01*
X155970349Y-105178311D01*
X155802358Y-105137980D01*
X155724775Y-105119354D01*
X155473000Y-105099539D01*
X155221225Y-105119354D01*
X154975650Y-105178311D01*
X154742321Y-105274959D01*
X154526981Y-105406920D01*
X154526979Y-105406921D01*
X154334938Y-105570938D01*
X154170921Y-105762979D01*
X154170920Y-105762981D01*
X154038959Y-105978321D01*
X153942311Y-106211650D01*
X153883354Y-106457225D01*
X153863539Y-106709000D01*
X152891461Y-106709000D01*
X152871646Y-106457225D01*
X152812688Y-106211649D01*
X152716040Y-105978320D01*
X152584081Y-105762983D01*
X152584078Y-105762979D01*
X152420061Y-105570938D01*
X152228020Y-105406921D01*
X152228018Y-105406920D01*
X152228017Y-105406919D01*
X152012680Y-105274960D01*
X151975007Y-105259355D01*
X151779349Y-105178311D01*
X151611358Y-105137980D01*
X151533775Y-105119354D01*
X151282000Y-105099539D01*
X151281999Y-105099539D01*
X151030225Y-105119354D01*
X150784650Y-105178311D01*
X150551321Y-105274959D01*
X150335981Y-105406920D01*
X150335979Y-105406921D01*
X150143938Y-105570938D01*
X149979921Y-105762979D01*
X149979920Y-105762981D01*
X149847959Y-105978321D01*
X149751311Y-106211650D01*
X149692354Y-106457225D01*
X149676287Y-106661383D01*
X149672539Y-106709000D01*
X149682389Y-106834150D01*
X149692354Y-106960774D01*
X149751311Y-107206349D01*
X149827980Y-107391443D01*
X149847960Y-107439680D01*
X149979728Y-107654706D01*
X149979920Y-107655018D01*
X149979921Y-107655020D01*
X150143938Y-107847061D01*
X150269356Y-107954177D01*
X150308165Y-108013627D01*
X150308673Y-108084622D01*
X150270717Y-108144621D01*
X150263035Y-108150856D01*
X150160113Y-108227902D01*
X150160112Y-108227903D01*
X150922365Y-108990155D01*
X150780052Y-109079577D01*
X150652577Y-109207052D01*
X150563156Y-109349364D01*
X149800903Y-108587112D01*
X149800902Y-108587113D01*
X149714957Y-108701924D01*
X149587587Y-108935185D01*
X149494707Y-109184206D01*
X149438213Y-109443907D01*
X149419254Y-109709000D01*
X148700461Y-109709000D01*
X148680646Y-109457225D01*
X148621688Y-109211649D01*
X148525040Y-108978320D01*
X148393081Y-108762983D01*
X148393078Y-108762979D01*
X148229061Y-108570938D01*
X148037020Y-108406921D01*
X148037018Y-108406920D01*
X148037017Y-108406919D01*
X147889353Y-108316430D01*
X147841725Y-108263785D01*
X147830118Y-108193744D01*
X147858221Y-108128546D01*
X147889352Y-108101570D01*
X148037017Y-108011081D01*
X148229061Y-107847061D01*
X148393081Y-107655017D01*
X148525040Y-107439680D01*
X148621688Y-107206351D01*
X148680646Y-106960775D01*
X148700461Y-106709000D01*
X148680646Y-106457225D01*
X148621688Y-106211649D01*
X148525040Y-105978320D01*
X148393081Y-105762983D01*
X148393078Y-105762979D01*
X148229061Y-105570938D01*
X148037020Y-105406921D01*
X148037018Y-105406920D01*
X148037017Y-105406919D01*
X147821680Y-105274960D01*
X147784007Y-105259355D01*
X147588349Y-105178311D01*
X147420358Y-105137980D01*
X147342775Y-105119354D01*
X147091000Y-105099539D01*
X147090999Y-105099539D01*
X146839225Y-105119354D01*
X146593650Y-105178311D01*
X146360321Y-105274959D01*
X146144981Y-105406920D01*
X146144979Y-105406921D01*
X145952938Y-105570938D01*
X145788921Y-105762979D01*
X145788920Y-105762981D01*
X145656959Y-105978321D01*
X145560311Y-106211650D01*
X145501354Y-106457225D01*
X145485287Y-106661383D01*
X145481539Y-106709000D01*
X145491389Y-106834150D01*
X145501354Y-106960774D01*
X145560311Y-107206349D01*
X145636980Y-107391443D01*
X145656960Y-107439680D01*
X145788728Y-107654706D01*
X145788920Y-107655018D01*
X145788921Y-107655020D01*
X145952938Y-107847061D01*
X146144979Y-108011078D01*
X146144983Y-108011081D01*
X146292643Y-108101567D01*
X146340274Y-108154215D01*
X146351881Y-108224256D01*
X146323778Y-108289454D01*
X146292644Y-108316431D01*
X146231339Y-108354000D01*
X146144981Y-108406920D01*
X146144979Y-108406921D01*
X145952938Y-108570938D01*
X145788921Y-108762979D01*
X145788920Y-108762981D01*
X145656959Y-108978321D01*
X145560311Y-109211650D01*
X145504551Y-109443907D01*
X145501354Y-109457225D01*
X145481539Y-109709000D01*
X144509461Y-109709000D01*
X144489646Y-109457225D01*
X144430688Y-109211649D01*
X144334040Y-108978320D01*
X144202081Y-108762983D01*
X144202078Y-108762979D01*
X144038061Y-108570938D01*
X143846020Y-108406921D01*
X143846018Y-108406920D01*
X143846017Y-108406919D01*
X143698353Y-108316430D01*
X143650725Y-108263785D01*
X143639118Y-108193744D01*
X143667221Y-108128546D01*
X143698352Y-108101570D01*
X143846017Y-108011081D01*
X144038061Y-107847061D01*
X144202081Y-107655017D01*
X144334040Y-107439680D01*
X144430688Y-107206351D01*
X144489646Y-106960775D01*
X144509461Y-106709000D01*
X144489646Y-106457225D01*
X144430688Y-106211649D01*
X144334040Y-105978320D01*
X144202081Y-105762983D01*
X144202078Y-105762979D01*
X144038061Y-105570938D01*
X143846020Y-105406921D01*
X143846018Y-105406920D01*
X143846017Y-105406919D01*
X143630680Y-105274960D01*
X143593007Y-105259355D01*
X143397349Y-105178311D01*
X143229358Y-105137980D01*
X143151775Y-105119354D01*
X142900000Y-105099539D01*
X142648225Y-105119354D01*
X142402650Y-105178311D01*
X142169321Y-105274959D01*
X141953981Y-105406920D01*
X141953979Y-105406921D01*
X141761938Y-105570938D01*
X141597921Y-105762979D01*
X141597920Y-105762981D01*
X141465959Y-105978321D01*
X141369311Y-106211650D01*
X141310354Y-106457225D01*
X141290539Y-106709000D01*
X141310354Y-106960774D01*
X141369311Y-107206349D01*
X141445980Y-107391443D01*
X141465960Y-107439680D01*
X141597728Y-107654706D01*
X141597920Y-107655018D01*
X141597921Y-107655020D01*
X141761938Y-107847061D01*
X141953979Y-108011078D01*
X141953983Y-108011081D01*
X142101643Y-108101567D01*
X142149274Y-108154215D01*
X142160881Y-108224256D01*
X142132778Y-108289454D01*
X142101644Y-108316431D01*
X142040339Y-108354000D01*
X141953981Y-108406920D01*
X141953979Y-108406921D01*
X141761938Y-108570938D01*
X141597921Y-108762979D01*
X141597920Y-108762981D01*
X141465959Y-108978321D01*
X141369311Y-109211650D01*
X141313551Y-109443907D01*
X141310354Y-109457225D01*
X141290539Y-109709000D01*
X127675095Y-109709000D01*
X127686285Y-109624000D01*
X127667228Y-109479246D01*
X127611355Y-109344358D01*
X127522474Y-109228526D01*
X127522472Y-109228524D01*
X127522471Y-109228523D01*
X127406649Y-109139649D01*
X127406641Y-109139644D01*
X127385453Y-109130868D01*
X127323987Y-109105407D01*
X127268708Y-109060861D01*
X127246287Y-108993497D01*
X127263845Y-108924706D01*
X127315807Y-108876328D01*
X127323977Y-108872596D01*
X127406643Y-108838355D01*
X127522474Y-108749474D01*
X127611355Y-108633643D01*
X127667228Y-108498754D01*
X127686285Y-108354000D01*
X127667228Y-108209246D01*
X127611355Y-108074358D01*
X127522474Y-107958526D01*
X127522472Y-107958524D01*
X127522471Y-107958523D01*
X127406649Y-107869649D01*
X127406641Y-107869644D01*
X127385453Y-107860868D01*
X127323987Y-107835407D01*
X127268708Y-107790861D01*
X127246287Y-107723497D01*
X127263845Y-107654706D01*
X127315807Y-107606328D01*
X127323977Y-107602596D01*
X127406643Y-107568355D01*
X127522474Y-107479474D01*
X127611355Y-107363643D01*
X127667228Y-107228754D01*
X127686285Y-107084000D01*
X127667228Y-106939246D01*
X127613679Y-106809970D01*
X127606090Y-106739381D01*
X127637869Y-106675894D01*
X127654860Y-106662385D01*
X127654091Y-106661383D01*
X127776474Y-106567474D01*
X127787622Y-106552946D01*
X127865355Y-106451643D01*
X127921228Y-106316754D01*
X127940285Y-106172000D01*
X127921228Y-106027246D01*
X127865355Y-105892358D01*
X127776474Y-105776526D01*
X127776472Y-105776524D01*
X127776471Y-105776523D01*
X127660649Y-105687649D01*
X127660641Y-105687644D01*
X127525752Y-105631771D01*
X127381000Y-105612715D01*
X127236247Y-105631771D01*
X127168801Y-105659708D01*
X127101358Y-105687645D01*
X127101357Y-105687646D01*
X127101356Y-105687646D01*
X126985526Y-105776526D01*
X126896646Y-105892356D01*
X126896645Y-105892358D01*
X126870978Y-105954323D01*
X126840771Y-106027247D01*
X126821715Y-106171999D01*
X126821715Y-106172000D01*
X126840771Y-106316752D01*
X126840772Y-106316754D01*
X126891467Y-106439143D01*
X126894320Y-106446029D01*
X126901909Y-106516619D01*
X126870130Y-106580106D01*
X126853154Y-106593633D01*
X126853910Y-106594618D01*
X126847359Y-106599644D01*
X126847358Y-106599645D01*
X126765594Y-106662385D01*
X126731526Y-106688526D01*
X126642646Y-106804356D01*
X126642645Y-106804358D01*
X126631130Y-106832158D01*
X126586771Y-106939247D01*
X126567715Y-107083999D01*
X126567715Y-107084000D01*
X126586771Y-107228752D01*
X126642644Y-107363641D01*
X126642649Y-107363649D01*
X126731525Y-107479474D01*
X126767755Y-107507274D01*
X126847357Y-107568355D01*
X126930012Y-107602592D01*
X126985291Y-107647138D01*
X127007712Y-107714501D01*
X126990154Y-107783293D01*
X126938192Y-107831671D01*
X126930012Y-107835407D01*
X126847361Y-107869643D01*
X126847356Y-107869646D01*
X126731526Y-107958526D01*
X126642646Y-108074356D01*
X126642645Y-108074358D01*
X126634501Y-108094020D01*
X126586771Y-108209247D01*
X126567715Y-108353999D01*
X126567715Y-108354000D01*
X126586771Y-108498752D01*
X126642644Y-108633641D01*
X126642649Y-108633649D01*
X126731525Y-108749474D01*
X126847350Y-108838350D01*
X126847357Y-108838355D01*
X126930012Y-108872592D01*
X126985291Y-108917138D01*
X127007712Y-108984501D01*
X126990154Y-109053293D01*
X126938192Y-109101671D01*
X126930012Y-109105407D01*
X126847361Y-109139643D01*
X126847356Y-109139646D01*
X126731526Y-109228526D01*
X126642646Y-109344356D01*
X126642645Y-109344358D01*
X126614708Y-109411801D01*
X126586771Y-109479247D01*
X126567715Y-109623999D01*
X126567715Y-109624000D01*
X126586771Y-109768752D01*
X126642644Y-109903641D01*
X126642649Y-109903649D01*
X126731525Y-110019474D01*
X126847350Y-110108350D01*
X126847357Y-110108355D01*
X126930012Y-110142592D01*
X126985291Y-110187138D01*
X127007712Y-110254501D01*
X126990154Y-110323293D01*
X126938192Y-110371671D01*
X126930012Y-110375407D01*
X126847361Y-110409643D01*
X126847356Y-110409646D01*
X126731526Y-110498526D01*
X126642646Y-110614356D01*
X126642643Y-110614361D01*
X126607910Y-110698212D01*
X126563361Y-110753492D01*
X126495997Y-110775912D01*
X126427206Y-110758353D01*
X126378829Y-110706390D01*
X126375102Y-110698230D01*
X126341355Y-110616758D01*
X126252474Y-110500926D01*
X126252472Y-110500924D01*
X126252471Y-110500923D01*
X126136649Y-110412049D01*
X126136641Y-110412044D01*
X126001752Y-110356171D01*
X125857000Y-110337115D01*
X125712247Y-110356171D01*
X125674828Y-110371671D01*
X125577358Y-110412045D01*
X125577357Y-110412046D01*
X125577356Y-110412046D01*
X125461526Y-110500926D01*
X125372646Y-110616756D01*
X125372642Y-110616763D01*
X125338905Y-110698211D01*
X125294357Y-110753492D01*
X125226993Y-110775912D01*
X125158202Y-110758353D01*
X125109824Y-110706391D01*
X125106089Y-110698211D01*
X125072351Y-110616763D01*
X125071355Y-110614358D01*
X124982474Y-110498526D01*
X124976415Y-110493877D01*
X124886925Y-110425208D01*
X124845058Y-110367870D01*
X124840837Y-110296999D01*
X124875602Y-110235096D01*
X124915409Y-110208839D01*
X124968243Y-110186955D01*
X125084074Y-110098074D01*
X125172955Y-109982243D01*
X125228828Y-109847354D01*
X125247885Y-109702600D01*
X125228828Y-109557846D01*
X125172955Y-109422958D01*
X125084074Y-109307126D01*
X125084072Y-109307124D01*
X125084071Y-109307123D01*
X124968249Y-109218249D01*
X124968241Y-109218244D01*
X124833352Y-109162371D01*
X124688600Y-109143315D01*
X124543847Y-109162371D01*
X124476402Y-109190308D01*
X124408958Y-109218245D01*
X124408957Y-109218246D01*
X124408956Y-109218246D01*
X124293126Y-109307126D01*
X124204246Y-109422956D01*
X124204245Y-109422958D01*
X124195568Y-109443907D01*
X124148371Y-109557847D01*
X124129315Y-109702599D01*
X124129315Y-109702600D01*
X124148371Y-109847352D01*
X124204244Y-109982241D01*
X124204249Y-109982249D01*
X124293125Y-110098074D01*
X124388673Y-110171391D01*
X124430540Y-110228729D01*
X124434762Y-110299600D01*
X124399998Y-110361503D01*
X124360189Y-110387761D01*
X124307361Y-110409643D01*
X124307356Y-110409646D01*
X124191526Y-110498526D01*
X124102646Y-110614356D01*
X124102642Y-110614363D01*
X124068408Y-110697011D01*
X124023860Y-110752292D01*
X123956496Y-110774712D01*
X123887705Y-110757153D01*
X123839327Y-110705191D01*
X123835592Y-110697011D01*
X123802351Y-110616763D01*
X123801355Y-110614358D01*
X123712474Y-110498526D01*
X123712472Y-110498524D01*
X123712471Y-110498523D01*
X123596649Y-110409649D01*
X123596641Y-110409644D01*
X123461752Y-110353771D01*
X123317000Y-110334715D01*
X123172247Y-110353771D01*
X123129034Y-110371671D01*
X123037358Y-110409645D01*
X123037357Y-110409646D01*
X123037356Y-110409646D01*
X122921526Y-110498526D01*
X122832646Y-110614356D01*
X122832643Y-110614361D01*
X122798407Y-110697012D01*
X122753858Y-110752292D01*
X122686494Y-110774712D01*
X122617703Y-110757153D01*
X122569326Y-110705190D01*
X122565599Y-110697031D01*
X122531355Y-110614358D01*
X122442474Y-110498526D01*
X122442472Y-110498524D01*
X122442471Y-110498523D01*
X122326649Y-110409649D01*
X122326641Y-110409644D01*
X122273810Y-110387761D01*
X122243987Y-110375407D01*
X122188708Y-110330861D01*
X122166287Y-110263497D01*
X122183845Y-110194706D01*
X122235807Y-110146328D01*
X122243977Y-110142596D01*
X122326643Y-110108355D01*
X122442474Y-110019474D01*
X122531355Y-109903643D01*
X122587228Y-109768754D01*
X122606285Y-109624000D01*
X122587228Y-109479246D01*
X122531355Y-109344358D01*
X122442474Y-109228526D01*
X122442472Y-109228524D01*
X122442471Y-109228523D01*
X122326649Y-109139649D01*
X122326641Y-109139644D01*
X122305453Y-109130868D01*
X122243987Y-109105407D01*
X122188708Y-109060861D01*
X122166287Y-108993497D01*
X122183845Y-108924706D01*
X122235807Y-108876328D01*
X122243977Y-108872596D01*
X122326643Y-108838355D01*
X122442474Y-108749474D01*
X122531355Y-108633643D01*
X122587228Y-108498754D01*
X122606285Y-108354000D01*
X122587228Y-108209246D01*
X122531355Y-108074358D01*
X122442474Y-107958526D01*
X122442472Y-107958524D01*
X122442471Y-107958523D01*
X122326649Y-107869649D01*
X122326644Y-107869646D01*
X122326643Y-107869645D01*
X122326639Y-107869643D01*
X122319493Y-107865518D01*
X122321016Y-107862878D01*
X122277062Y-107827435D01*
X122254662Y-107760065D01*
X122272241Y-107691279D01*
X122324218Y-107642916D01*
X122364130Y-107630685D01*
X122394954Y-107626628D01*
X122529843Y-107570755D01*
X122645674Y-107481874D01*
X122734555Y-107366043D01*
X122746932Y-107336162D01*
X122791477Y-107280884D01*
X122858840Y-107258462D01*
X122927631Y-107276019D01*
X122976010Y-107327980D01*
X122979744Y-107336155D01*
X122995412Y-107373982D01*
X123002644Y-107391441D01*
X123002649Y-107391449D01*
X123091525Y-107507274D01*
X123183079Y-107577526D01*
X123207357Y-107596155D01*
X123342246Y-107652028D01*
X123364958Y-107655018D01*
X123486999Y-107671085D01*
X123486999Y-107671084D01*
X123487000Y-107671085D01*
X123631754Y-107652028D01*
X123766643Y-107596155D01*
X123882474Y-107507274D01*
X123971355Y-107391443D01*
X124027228Y-107256554D01*
X124046285Y-107111800D01*
X124027228Y-106967046D01*
X123971355Y-106832158D01*
X123882474Y-106716326D01*
X123882472Y-106716324D01*
X123882471Y-106716323D01*
X123766649Y-106627449D01*
X123766641Y-106627444D01*
X123631752Y-106571571D01*
X123487000Y-106552515D01*
X123400634Y-106563885D01*
X123330485Y-106552946D01*
X123277387Y-106505817D01*
X123258197Y-106437463D01*
X123267777Y-106390750D01*
X123298428Y-106316754D01*
X123317485Y-106172000D01*
X123298428Y-106027246D01*
X123242555Y-105892358D01*
X123153674Y-105776526D01*
X123153672Y-105776524D01*
X123153671Y-105776523D01*
X123037849Y-105687649D01*
X123037841Y-105687644D01*
X122902952Y-105631771D01*
X122758200Y-105612715D01*
X122613447Y-105631771D01*
X122546001Y-105659708D01*
X122478558Y-105687645D01*
X122478557Y-105687646D01*
X122478556Y-105687646D01*
X122362726Y-105776526D01*
X122273846Y-105892356D01*
X122273845Y-105892358D01*
X122248178Y-105954323D01*
X122217971Y-106027247D01*
X122198915Y-106171999D01*
X122198915Y-106172000D01*
X122217971Y-106316752D01*
X122239428Y-106368553D01*
X122247017Y-106439143D01*
X122215237Y-106502630D01*
X122154179Y-106538857D01*
X122139466Y-106541693D01*
X122105447Y-106546171D01*
X122038002Y-106574108D01*
X121970558Y-106602045D01*
X121970557Y-106602046D01*
X121970556Y-106602046D01*
X121854726Y-106690926D01*
X121765846Y-106806756D01*
X121765845Y-106806758D01*
X121755324Y-106832158D01*
X121709971Y-106941647D01*
X121690915Y-107086399D01*
X121690915Y-107086400D01*
X121709971Y-107231152D01*
X121765844Y-107366041D01*
X121765849Y-107366049D01*
X121854725Y-107481874D01*
X121967429Y-107568355D01*
X121970557Y-107570755D01*
X121970562Y-107570757D01*
X121977707Y-107574882D01*
X121976180Y-107577526D01*
X122020118Y-107612937D01*
X122042536Y-107680301D01*
X122024975Y-107749092D01*
X121973011Y-107797468D01*
X121933062Y-107809715D01*
X121902247Y-107813771D01*
X121859034Y-107831671D01*
X121767358Y-107869645D01*
X121767357Y-107869646D01*
X121767356Y-107869646D01*
X121651526Y-107958526D01*
X121562646Y-108074356D01*
X121562645Y-108074358D01*
X121554501Y-108094020D01*
X121506771Y-108209247D01*
X121487715Y-108353999D01*
X121487715Y-108354000D01*
X121506771Y-108498752D01*
X121562644Y-108633641D01*
X121562649Y-108633649D01*
X121651525Y-108749474D01*
X121767350Y-108838350D01*
X121767357Y-108838355D01*
X121850012Y-108872592D01*
X121905291Y-108917138D01*
X121927712Y-108984501D01*
X121910154Y-109053293D01*
X121858192Y-109101671D01*
X121850012Y-109105407D01*
X121767361Y-109139643D01*
X121767356Y-109139646D01*
X121651526Y-109228526D01*
X121562646Y-109344356D01*
X121562645Y-109344358D01*
X121534708Y-109411801D01*
X121506771Y-109479247D01*
X121487715Y-109623999D01*
X121487715Y-109624000D01*
X121506771Y-109768752D01*
X121562644Y-109903641D01*
X121562649Y-109903649D01*
X121651525Y-110019474D01*
X121767350Y-110108350D01*
X121767357Y-110108355D01*
X121850012Y-110142592D01*
X121905291Y-110187138D01*
X121927712Y-110254501D01*
X121910154Y-110323293D01*
X121858192Y-110371671D01*
X121850012Y-110375407D01*
X121767361Y-110409643D01*
X121767356Y-110409646D01*
X121651526Y-110498526D01*
X121562646Y-110614356D01*
X121562645Y-110614358D01*
X121545803Y-110655018D01*
X121506771Y-110749247D01*
X121487715Y-110893999D01*
X121487715Y-110894000D01*
X96848079Y-110894000D01*
X96878110Y-110789761D01*
X96935577Y-110451534D01*
X96954813Y-110109000D01*
X96935577Y-109766466D01*
X96878110Y-109428239D01*
X96783135Y-109098573D01*
X96651846Y-108781614D01*
X96550228Y-108597750D01*
X103402915Y-108597750D01*
X103421971Y-108742502D01*
X103477844Y-108877391D01*
X103477849Y-108877399D01*
X103566725Y-108993224D01*
X103659894Y-109064715D01*
X103682557Y-109082105D01*
X103817446Y-109137978D01*
X103962200Y-109157035D01*
X104106954Y-109137978D01*
X104241843Y-109082105D01*
X104357674Y-108993224D01*
X104446555Y-108877393D01*
X104502428Y-108742504D01*
X104521485Y-108597750D01*
X104502428Y-108452996D01*
X104446555Y-108318108D01*
X104357674Y-108202276D01*
X104357672Y-108202274D01*
X104357671Y-108202273D01*
X104241849Y-108113399D01*
X104241841Y-108113394D01*
X104106952Y-108057521D01*
X103962200Y-108038465D01*
X103817447Y-108057521D01*
X103752021Y-108084622D01*
X103682558Y-108113395D01*
X103682557Y-108113396D01*
X103682556Y-108113396D01*
X103566726Y-108202276D01*
X103477846Y-108318106D01*
X103477845Y-108318108D01*
X103462978Y-108354000D01*
X103421971Y-108452997D01*
X103402915Y-108597749D01*
X103402915Y-108597750D01*
X96550228Y-108597750D01*
X96495515Y-108498754D01*
X96485896Y-108481350D01*
X96465779Y-108452997D01*
X96287367Y-108201550D01*
X96287366Y-108201549D01*
X96287364Y-108201546D01*
X96182874Y-108084622D01*
X96058761Y-107945739D01*
X95885452Y-107790861D01*
X95802953Y-107717135D01*
X95802946Y-107717130D01*
X95523149Y-107518603D01*
X95247122Y-107366049D01*
X95222886Y-107352654D01*
X95163318Y-107327980D01*
X94905931Y-107221366D01*
X94576254Y-107126388D01*
X94238029Y-107068922D01*
X93920307Y-107051080D01*
X93895500Y-107049687D01*
X93895499Y-107049687D01*
X93552970Y-107068922D01*
X93214745Y-107126388D01*
X92885068Y-107221366D01*
X92568115Y-107352653D01*
X92568110Y-107352656D01*
X92267850Y-107518603D01*
X91988053Y-107717130D01*
X91988046Y-107717135D01*
X91732239Y-107945739D01*
X91503635Y-108201546D01*
X91503630Y-108201553D01*
X91305103Y-108481350D01*
X91139156Y-108781610D01*
X91139153Y-108781615D01*
X91007866Y-109098568D01*
X90912888Y-109428245D01*
X90855422Y-109766470D01*
X90836187Y-110108999D01*
X89662000Y-110108999D01*
X89662000Y-106349800D01*
X120067915Y-106349800D01*
X120086971Y-106494552D01*
X120142844Y-106629441D01*
X120142849Y-106629449D01*
X120231725Y-106745274D01*
X120344953Y-106832157D01*
X120347557Y-106834155D01*
X120482446Y-106890028D01*
X120627200Y-106909085D01*
X120771954Y-106890028D01*
X120906843Y-106834155D01*
X121022674Y-106745274D01*
X121111555Y-106629443D01*
X121167428Y-106494554D01*
X121186485Y-106349800D01*
X121167428Y-106205046D01*
X121111555Y-106070158D01*
X121022674Y-105954326D01*
X121022672Y-105954324D01*
X121022671Y-105954323D01*
X120906849Y-105865449D01*
X120906841Y-105865444D01*
X120771952Y-105809571D01*
X120627200Y-105790515D01*
X120482447Y-105809571D01*
X120415001Y-105837508D01*
X120347558Y-105865445D01*
X120347557Y-105865446D01*
X120347556Y-105865446D01*
X120231726Y-105954326D01*
X120142846Y-106070156D01*
X120142845Y-106070158D01*
X120114908Y-106137602D01*
X120086971Y-106205047D01*
X120067915Y-106349799D01*
X120067915Y-106349800D01*
X89662000Y-106349800D01*
X89662000Y-104770403D01*
X108216993Y-104770403D01*
X108236149Y-104928179D01*
X108278194Y-105039040D01*
X108292513Y-105076795D01*
X108382802Y-105207601D01*
X108501771Y-105312999D01*
X108501772Y-105312999D01*
X108501774Y-105313001D01*
X108512614Y-105318690D01*
X108642507Y-105386863D01*
X108796829Y-105424900D01*
X108796830Y-105424900D01*
X108955770Y-105424900D01*
X108955771Y-105424900D01*
X109110093Y-105386863D01*
X109250829Y-105312999D01*
X109369798Y-105207601D01*
X109460087Y-105076795D01*
X109516449Y-104928182D01*
X109516449Y-104928181D01*
X109516450Y-104928179D01*
X109535049Y-104775000D01*
X121360715Y-104775000D01*
X121379771Y-104919752D01*
X121435644Y-105054641D01*
X121435649Y-105054649D01*
X121524525Y-105170474D01*
X121572910Y-105207601D01*
X121640357Y-105259355D01*
X121775246Y-105315228D01*
X121920000Y-105334285D01*
X122064754Y-105315228D01*
X122199643Y-105259355D01*
X122315474Y-105170474D01*
X122404355Y-105054643D01*
X122410818Y-105039041D01*
X123111259Y-105039041D01*
X123130315Y-105183793D01*
X123186188Y-105318682D01*
X123186193Y-105318690D01*
X123275069Y-105434515D01*
X123390894Y-105523391D01*
X123390901Y-105523396D01*
X123525790Y-105579269D01*
X123598167Y-105588797D01*
X123670543Y-105598326D01*
X123670543Y-105598325D01*
X123670544Y-105598326D01*
X123815298Y-105579269D01*
X123950187Y-105523396D01*
X124066018Y-105434515D01*
X124154899Y-105318684D01*
X124210772Y-105183795D01*
X124229829Y-105039041D01*
X124210772Y-104894287D01*
X124154899Y-104759399D01*
X124066018Y-104643567D01*
X124066016Y-104643565D01*
X124066015Y-104643564D01*
X123950193Y-104554690D01*
X123950185Y-104554685D01*
X123815296Y-104498812D01*
X123670544Y-104479756D01*
X123525791Y-104498812D01*
X123458345Y-104526749D01*
X123390902Y-104554686D01*
X123390901Y-104554687D01*
X123390900Y-104554687D01*
X123275070Y-104643567D01*
X123186190Y-104759397D01*
X123186189Y-104759399D01*
X123179727Y-104775000D01*
X123130315Y-104894288D01*
X123111259Y-105039040D01*
X123111259Y-105039041D01*
X122410818Y-105039041D01*
X122460228Y-104919754D01*
X122479285Y-104775000D01*
X122460228Y-104630246D01*
X122404355Y-104495358D01*
X122315474Y-104379526D01*
X122315472Y-104379524D01*
X122315471Y-104379523D01*
X122199649Y-104290649D01*
X122199641Y-104290644D01*
X122064752Y-104234771D01*
X121920000Y-104215715D01*
X121775247Y-104234771D01*
X121707802Y-104262708D01*
X121640358Y-104290645D01*
X121640357Y-104290646D01*
X121640356Y-104290646D01*
X121524526Y-104379526D01*
X121435646Y-104495356D01*
X121435645Y-104495358D01*
X121434214Y-104498813D01*
X121379771Y-104630247D01*
X121360715Y-104774999D01*
X121360715Y-104775000D01*
X109535049Y-104775000D01*
X109535607Y-104770403D01*
X109535607Y-104770396D01*
X109516450Y-104612620D01*
X109502838Y-104576731D01*
X109460087Y-104464005D01*
X109369798Y-104333199D01*
X109250829Y-104227801D01*
X109250828Y-104227800D01*
X109250825Y-104227798D01*
X109110097Y-104153939D01*
X109110095Y-104153938D01*
X109110093Y-104153937D01*
X109110091Y-104153936D01*
X109110090Y-104153936D01*
X108955772Y-104115900D01*
X108955771Y-104115900D01*
X108796829Y-104115900D01*
X108796827Y-104115900D01*
X108642509Y-104153936D01*
X108642502Y-104153939D01*
X108501774Y-104227798D01*
X108501769Y-104227802D01*
X108382801Y-104333200D01*
X108292515Y-104464001D01*
X108292512Y-104464007D01*
X108236149Y-104612620D01*
X108216993Y-104770396D01*
X108216993Y-104770403D01*
X89662000Y-104770403D01*
X89662000Y-102998999D01*
X90046068Y-102998999D01*
X90065734Y-103173551D01*
X90123751Y-103339352D01*
X90123752Y-103339354D01*
X90217205Y-103488085D01*
X90341414Y-103612294D01*
X90463097Y-103688752D01*
X90490148Y-103705749D01*
X90655947Y-103763765D01*
X90699539Y-103768676D01*
X90786724Y-103778500D01*
X90786726Y-103778500D01*
X91924276Y-103778500D01*
X91989663Y-103771132D01*
X92055053Y-103763765D01*
X92220852Y-103705749D01*
X92369585Y-103612294D01*
X92493794Y-103488085D01*
X92587249Y-103339352D01*
X92645265Y-103173553D01*
X92664932Y-102999000D01*
X92664932Y-102998999D01*
X94226068Y-102998999D01*
X94245734Y-103173551D01*
X94303751Y-103339352D01*
X94303752Y-103339354D01*
X94397205Y-103488085D01*
X94521414Y-103612294D01*
X94643097Y-103688752D01*
X94670148Y-103705749D01*
X94835947Y-103763765D01*
X94879539Y-103768676D01*
X94966724Y-103778500D01*
X94966726Y-103778500D01*
X96104276Y-103778500D01*
X96169663Y-103771132D01*
X96235053Y-103763765D01*
X96400852Y-103705749D01*
X96549585Y-103612294D01*
X96617879Y-103544000D01*
X130024715Y-103544000D01*
X130043771Y-103688752D01*
X130099644Y-103823641D01*
X130099649Y-103823649D01*
X130188525Y-103939474D01*
X130304350Y-104028350D01*
X130304357Y-104028355D01*
X130439246Y-104084228D01*
X130511622Y-104093756D01*
X130583999Y-104103285D01*
X130583999Y-104103284D01*
X130584000Y-104103285D01*
X130728754Y-104084228D01*
X130863643Y-104028355D01*
X130979474Y-103939474D01*
X131068355Y-103823643D01*
X131124228Y-103688754D01*
X131143285Y-103544000D01*
X131124228Y-103399246D01*
X131068355Y-103264358D01*
X130979474Y-103148526D01*
X130979472Y-103148524D01*
X130979471Y-103148523D01*
X130863649Y-103059649D01*
X130863641Y-103059644D01*
X130728752Y-103003771D01*
X130584000Y-102984715D01*
X130439247Y-103003771D01*
X130371801Y-103031708D01*
X130304358Y-103059645D01*
X130304357Y-103059646D01*
X130304356Y-103059646D01*
X130188526Y-103148526D01*
X130099646Y-103264356D01*
X130099645Y-103264358D01*
X130071708Y-103331801D01*
X130043771Y-103399247D01*
X130024715Y-103543999D01*
X130024715Y-103544000D01*
X96617879Y-103544000D01*
X96673794Y-103488085D01*
X96767249Y-103339352D01*
X96825265Y-103173553D01*
X96844932Y-102999000D01*
X96825265Y-102824447D01*
X96767249Y-102658648D01*
X96720344Y-102583999D01*
X96673794Y-102509914D01*
X96549585Y-102385705D01*
X96400854Y-102292252D01*
X96400852Y-102292251D01*
X96235051Y-102234234D01*
X96104276Y-102219500D01*
X96104274Y-102219500D01*
X95515366Y-102219500D01*
X95447245Y-102199498D01*
X95400752Y-102145842D01*
X95390648Y-102075568D01*
X95420142Y-102010988D01*
X95428208Y-102003387D01*
X95427943Y-102003122D01*
X95433776Y-101997288D01*
X95433778Y-101997284D01*
X95433782Y-101997282D01*
X95486174Y-101929003D01*
X97459693Y-101929003D01*
X97478849Y-102086779D01*
X97517438Y-102188526D01*
X97535213Y-102235395D01*
X97625502Y-102366201D01*
X97744471Y-102471599D01*
X97744472Y-102471599D01*
X97744474Y-102471601D01*
X97817474Y-102509914D01*
X97885207Y-102545463D01*
X98039529Y-102583500D01*
X98039530Y-102583500D01*
X98198470Y-102583500D01*
X98198471Y-102583500D01*
X98352793Y-102545463D01*
X98493529Y-102471599D01*
X98499623Y-102466200D01*
X117705715Y-102466200D01*
X117724771Y-102610952D01*
X117780644Y-102745841D01*
X117780649Y-102745849D01*
X117869525Y-102861674D01*
X117985350Y-102950550D01*
X117985357Y-102950555D01*
X118120246Y-103006428D01*
X118265000Y-103025485D01*
X118409754Y-103006428D01*
X118544643Y-102950555D01*
X118660474Y-102861674D01*
X118749355Y-102745843D01*
X118805228Y-102610954D01*
X118808777Y-102584000D01*
X122281715Y-102584000D01*
X122300771Y-102728752D01*
X122356644Y-102863641D01*
X122356649Y-102863649D01*
X122445525Y-102979474D01*
X122550007Y-103059646D01*
X122561357Y-103068355D01*
X122696246Y-103124228D01*
X122768623Y-103133756D01*
X122840999Y-103143285D01*
X122840999Y-103143284D01*
X122841000Y-103143285D01*
X122985754Y-103124228D01*
X123120643Y-103068355D01*
X123236474Y-102979474D01*
X123325355Y-102863643D01*
X123381228Y-102728754D01*
X123400285Y-102584000D01*
X124281715Y-102584000D01*
X124300771Y-102728752D01*
X124356644Y-102863641D01*
X124356649Y-102863649D01*
X124445525Y-102979474D01*
X124550007Y-103059646D01*
X124561357Y-103068355D01*
X124696246Y-103124228D01*
X124841000Y-103143285D01*
X124985754Y-103124228D01*
X125120643Y-103068355D01*
X125236474Y-102979474D01*
X125325355Y-102863643D01*
X125381228Y-102728754D01*
X125400285Y-102584000D01*
X126281715Y-102584000D01*
X126300771Y-102728752D01*
X126356644Y-102863641D01*
X126356649Y-102863649D01*
X126445525Y-102979474D01*
X126550007Y-103059646D01*
X126561357Y-103068355D01*
X126696246Y-103124228D01*
X126768623Y-103133756D01*
X126840999Y-103143285D01*
X126840999Y-103143284D01*
X126841000Y-103143285D01*
X126985754Y-103124228D01*
X127120643Y-103068355D01*
X127236474Y-102979474D01*
X127325355Y-102863643D01*
X127381228Y-102728754D01*
X127400285Y-102584000D01*
X127381228Y-102439246D01*
X127325355Y-102304358D01*
X127236474Y-102188526D01*
X127236472Y-102188524D01*
X127236471Y-102188523D01*
X127120649Y-102099649D01*
X127120641Y-102099644D01*
X126985752Y-102043771D01*
X126841000Y-102024715D01*
X126696247Y-102043771D01*
X126631181Y-102070723D01*
X126561358Y-102099645D01*
X126561357Y-102099646D01*
X126561356Y-102099646D01*
X126445526Y-102188526D01*
X126356646Y-102304356D01*
X126356645Y-102304358D01*
X126331029Y-102366199D01*
X126300771Y-102439247D01*
X126281715Y-102583999D01*
X126281715Y-102584000D01*
X125400285Y-102584000D01*
X125381228Y-102439246D01*
X125325355Y-102304358D01*
X125236474Y-102188526D01*
X125236472Y-102188524D01*
X125236471Y-102188523D01*
X125120649Y-102099649D01*
X125120641Y-102099644D01*
X124985752Y-102043771D01*
X124841000Y-102024715D01*
X124696247Y-102043771D01*
X124631181Y-102070723D01*
X124561358Y-102099645D01*
X124561357Y-102099646D01*
X124561356Y-102099646D01*
X124445526Y-102188526D01*
X124356646Y-102304356D01*
X124356645Y-102304358D01*
X124331029Y-102366199D01*
X124300771Y-102439247D01*
X124281715Y-102583999D01*
X124281715Y-102584000D01*
X123400285Y-102584000D01*
X123381228Y-102439246D01*
X123325355Y-102304358D01*
X123236474Y-102188526D01*
X123236472Y-102188524D01*
X123236471Y-102188523D01*
X123120649Y-102099649D01*
X123120641Y-102099644D01*
X122985752Y-102043771D01*
X122841000Y-102024715D01*
X122696247Y-102043771D01*
X122631181Y-102070723D01*
X122561358Y-102099645D01*
X122561357Y-102099646D01*
X122561356Y-102099646D01*
X122445526Y-102188526D01*
X122356646Y-102304356D01*
X122356645Y-102304358D01*
X122331029Y-102366199D01*
X122300771Y-102439247D01*
X122281715Y-102583999D01*
X122281715Y-102584000D01*
X118808777Y-102584000D01*
X118824285Y-102466200D01*
X118805228Y-102321446D01*
X118749355Y-102186558D01*
X118660474Y-102070726D01*
X118660472Y-102070724D01*
X118660471Y-102070723D01*
X118544649Y-101981849D01*
X118544641Y-101981844D01*
X118409752Y-101925971D01*
X118265000Y-101906915D01*
X118120247Y-101925971D01*
X118052801Y-101953908D01*
X117985358Y-101981845D01*
X117985357Y-101981846D01*
X117985356Y-101981846D01*
X117869526Y-102070726D01*
X117780646Y-102186556D01*
X117780645Y-102186558D01*
X117760417Y-102235392D01*
X117724771Y-102321447D01*
X117705715Y-102466199D01*
X117705715Y-102466200D01*
X98499623Y-102466200D01*
X98612498Y-102366201D01*
X98702787Y-102235395D01*
X98759149Y-102086782D01*
X98759149Y-102086781D01*
X98759150Y-102086779D01*
X98778307Y-101929003D01*
X98778307Y-101928996D01*
X98759150Y-101771220D01*
X98722620Y-101674900D01*
X98702787Y-101622605D01*
X98612498Y-101491799D01*
X98493529Y-101386401D01*
X98493528Y-101386400D01*
X98493525Y-101386398D01*
X98352797Y-101312539D01*
X98352795Y-101312538D01*
X98352793Y-101312537D01*
X98352791Y-101312536D01*
X98352790Y-101312536D01*
X98198472Y-101274500D01*
X98198471Y-101274500D01*
X98039529Y-101274500D01*
X98039527Y-101274500D01*
X97885209Y-101312536D01*
X97885202Y-101312539D01*
X97744474Y-101386398D01*
X97744469Y-101386402D01*
X97625501Y-101491800D01*
X97535215Y-101622601D01*
X97535212Y-101622607D01*
X97478849Y-101771220D01*
X97459693Y-101928996D01*
X97459693Y-101929003D01*
X95486174Y-101929003D01*
X95530036Y-101871841D01*
X95590544Y-101725762D01*
X95611182Y-101569000D01*
X95590544Y-101412238D01*
X95530036Y-101266159D01*
X95433782Y-101140718D01*
X95308341Y-101044464D01*
X95250253Y-101020403D01*
X108216993Y-101020403D01*
X108236149Y-101178179D01*
X108269517Y-101266160D01*
X108292513Y-101326795D01*
X108382802Y-101457601D01*
X108501771Y-101562999D01*
X108501772Y-101562999D01*
X108501774Y-101563001D01*
X108576500Y-101602220D01*
X108642507Y-101636863D01*
X108796829Y-101674900D01*
X108796830Y-101674900D01*
X108955770Y-101674900D01*
X108955771Y-101674900D01*
X109110093Y-101636863D01*
X109250829Y-101562999D01*
X109369798Y-101457601D01*
X109460087Y-101326795D01*
X109516449Y-101178182D01*
X109516449Y-101178181D01*
X109516450Y-101178179D01*
X109535607Y-101020403D01*
X109535607Y-101020396D01*
X109516450Y-100862620D01*
X109494458Y-100804633D01*
X109460087Y-100714005D01*
X109370351Y-100584000D01*
X117093515Y-100584000D01*
X117112571Y-100728752D01*
X117168444Y-100863641D01*
X117168449Y-100863649D01*
X117257325Y-100979474D01*
X117342023Y-101044465D01*
X117373157Y-101068355D01*
X117508046Y-101124228D01*
X117652800Y-101143285D01*
X117797554Y-101124228D01*
X117932443Y-101068355D01*
X118048274Y-100979474D01*
X118137155Y-100863643D01*
X118193028Y-100728754D01*
X118212085Y-100584000D01*
X122281715Y-100584000D01*
X122300771Y-100728752D01*
X122356644Y-100863641D01*
X122356649Y-100863649D01*
X122445525Y-100979474D01*
X122530223Y-101044465D01*
X122561357Y-101068355D01*
X122696246Y-101124228D01*
X122768623Y-101133756D01*
X122840999Y-101143285D01*
X122840999Y-101143284D01*
X122841000Y-101143285D01*
X122985754Y-101124228D01*
X123120643Y-101068355D01*
X123236474Y-100979474D01*
X123325355Y-100863643D01*
X123381228Y-100728754D01*
X123400285Y-100584000D01*
X124281715Y-100584000D01*
X124300771Y-100728752D01*
X124356644Y-100863641D01*
X124356649Y-100863649D01*
X124445525Y-100979474D01*
X124530223Y-101044465D01*
X124561357Y-101068355D01*
X124696246Y-101124228D01*
X124841000Y-101143285D01*
X124985754Y-101124228D01*
X125120643Y-101068355D01*
X125236474Y-100979474D01*
X125325355Y-100863643D01*
X125381228Y-100728754D01*
X125400285Y-100584000D01*
X126281715Y-100584000D01*
X126300771Y-100728752D01*
X126356644Y-100863641D01*
X126356649Y-100863649D01*
X126445525Y-100979474D01*
X126530223Y-101044465D01*
X126561357Y-101068355D01*
X126696246Y-101124228D01*
X126768623Y-101133756D01*
X126840999Y-101143285D01*
X126840999Y-101143284D01*
X126841000Y-101143285D01*
X126985754Y-101124228D01*
X127120643Y-101068355D01*
X127236474Y-100979474D01*
X127325355Y-100863643D01*
X127381228Y-100728754D01*
X127400285Y-100584000D01*
X127381228Y-100439246D01*
X127325355Y-100304358D01*
X127236474Y-100188526D01*
X127236472Y-100188524D01*
X127236471Y-100188523D01*
X127120649Y-100099649D01*
X127120641Y-100099644D01*
X126985752Y-100043771D01*
X126841000Y-100024715D01*
X126696247Y-100043771D01*
X126628802Y-100071708D01*
X126561358Y-100099645D01*
X126561357Y-100099646D01*
X126561356Y-100099646D01*
X126445526Y-100188526D01*
X126356646Y-100304356D01*
X126356645Y-100304358D01*
X126331153Y-100365900D01*
X126300771Y-100439247D01*
X126281715Y-100583999D01*
X126281715Y-100584000D01*
X125400285Y-100584000D01*
X125381228Y-100439246D01*
X125325355Y-100304358D01*
X125236474Y-100188526D01*
X125236472Y-100188524D01*
X125236471Y-100188523D01*
X125120649Y-100099649D01*
X125120641Y-100099644D01*
X124985752Y-100043771D01*
X124841000Y-100024715D01*
X124696247Y-100043771D01*
X124628801Y-100071708D01*
X124561358Y-100099645D01*
X124561357Y-100099646D01*
X124561356Y-100099646D01*
X124445526Y-100188526D01*
X124356646Y-100304356D01*
X124356645Y-100304358D01*
X124331153Y-100365900D01*
X124300771Y-100439247D01*
X124281715Y-100583999D01*
X124281715Y-100584000D01*
X123400285Y-100584000D01*
X123381228Y-100439246D01*
X123325355Y-100304358D01*
X123236474Y-100188526D01*
X123236472Y-100188524D01*
X123236471Y-100188523D01*
X123120649Y-100099649D01*
X123120641Y-100099644D01*
X122985752Y-100043771D01*
X122841000Y-100024715D01*
X122696247Y-100043771D01*
X122628802Y-100071708D01*
X122561358Y-100099645D01*
X122561357Y-100099646D01*
X122561356Y-100099646D01*
X122445526Y-100188526D01*
X122356646Y-100304356D01*
X122356645Y-100304358D01*
X122331153Y-100365900D01*
X122300771Y-100439247D01*
X122281715Y-100583999D01*
X122281715Y-100584000D01*
X118212085Y-100584000D01*
X118193028Y-100439246D01*
X118137155Y-100304358D01*
X118048274Y-100188526D01*
X118048272Y-100188524D01*
X118048271Y-100188523D01*
X117932449Y-100099649D01*
X117932441Y-100099644D01*
X117797552Y-100043771D01*
X117652800Y-100024715D01*
X117508047Y-100043771D01*
X117440601Y-100071708D01*
X117373158Y-100099645D01*
X117373157Y-100099646D01*
X117373156Y-100099646D01*
X117257326Y-100188526D01*
X117168446Y-100304356D01*
X117168445Y-100304358D01*
X117142953Y-100365900D01*
X117112571Y-100439247D01*
X117093515Y-100583999D01*
X117093515Y-100584000D01*
X109370351Y-100584000D01*
X109369798Y-100583199D01*
X109250829Y-100477801D01*
X109250828Y-100477800D01*
X109250825Y-100477798D01*
X109110097Y-100403939D01*
X109110095Y-100403938D01*
X109110093Y-100403937D01*
X109110091Y-100403936D01*
X109110090Y-100403936D01*
X108955772Y-100365900D01*
X108955771Y-100365900D01*
X108796829Y-100365900D01*
X108796827Y-100365900D01*
X108642509Y-100403936D01*
X108642502Y-100403939D01*
X108501774Y-100477798D01*
X108501769Y-100477802D01*
X108382801Y-100583200D01*
X108292515Y-100714001D01*
X108292512Y-100714007D01*
X108236149Y-100862620D01*
X108216993Y-101020396D01*
X108216993Y-101020403D01*
X95250253Y-101020403D01*
X95250246Y-101020400D01*
X95162260Y-100983955D01*
X95044863Y-100968500D01*
X95044861Y-100968500D01*
X94966139Y-100968500D01*
X94966136Y-100968500D01*
X94848739Y-100983955D01*
X94702660Y-101044463D01*
X94702657Y-101044465D01*
X94577218Y-101140718D01*
X94480965Y-101266157D01*
X94480963Y-101266160D01*
X94420455Y-101412239D01*
X94399818Y-101568999D01*
X94399818Y-101569000D01*
X94420455Y-101725760D01*
X94439285Y-101771218D01*
X94480964Y-101871841D01*
X94577218Y-101997282D01*
X94686794Y-102081362D01*
X94728660Y-102138699D01*
X94732882Y-102209570D01*
X94698118Y-102271473D01*
X94675436Y-102287367D01*
X94676139Y-102288486D01*
X94521414Y-102385705D01*
X94397205Y-102509914D01*
X94303752Y-102658645D01*
X94303751Y-102658647D01*
X94245734Y-102824448D01*
X94226068Y-102998999D01*
X92664932Y-102998999D01*
X92645265Y-102824447D01*
X92587249Y-102658648D01*
X92540344Y-102583999D01*
X92493794Y-102509914D01*
X92369585Y-102385705D01*
X92220854Y-102292252D01*
X92220852Y-102292251D01*
X92055051Y-102234234D01*
X91924276Y-102219500D01*
X91924274Y-102219500D01*
X90786726Y-102219500D01*
X90786724Y-102219500D01*
X90655948Y-102234234D01*
X90490147Y-102292251D01*
X90490145Y-102292252D01*
X90341414Y-102385705D01*
X90217205Y-102509914D01*
X90123752Y-102658645D01*
X90123751Y-102658647D01*
X90065734Y-102824448D01*
X90046068Y-102998999D01*
X89662000Y-102998999D01*
X89662000Y-98584000D01*
X122281715Y-98584000D01*
X122300771Y-98728752D01*
X122356644Y-98863641D01*
X122356649Y-98863649D01*
X122445525Y-98979474D01*
X122561350Y-99068350D01*
X122561357Y-99068355D01*
X122696246Y-99124228D01*
X122768623Y-99133756D01*
X122840999Y-99143285D01*
X122840999Y-99143284D01*
X122841000Y-99143285D01*
X122985754Y-99124228D01*
X123120643Y-99068355D01*
X123236474Y-98979474D01*
X123325355Y-98863643D01*
X123381228Y-98728754D01*
X123400285Y-98584000D01*
X124281715Y-98584000D01*
X124300771Y-98728752D01*
X124356644Y-98863641D01*
X124356649Y-98863649D01*
X124445525Y-98979474D01*
X124561350Y-99068350D01*
X124561357Y-99068355D01*
X124696246Y-99124228D01*
X124841000Y-99143285D01*
X124985754Y-99124228D01*
X125120643Y-99068355D01*
X125236474Y-98979474D01*
X125325355Y-98863643D01*
X125381228Y-98728754D01*
X125400285Y-98584000D01*
X126281715Y-98584000D01*
X126300771Y-98728752D01*
X126356644Y-98863641D01*
X126356649Y-98863649D01*
X126445525Y-98979474D01*
X126561350Y-99068350D01*
X126561357Y-99068355D01*
X126696246Y-99124228D01*
X126768623Y-99133756D01*
X126840999Y-99143285D01*
X126840999Y-99143284D01*
X126841000Y-99143285D01*
X126985754Y-99124228D01*
X127120643Y-99068355D01*
X127236474Y-98979474D01*
X127325355Y-98863643D01*
X127381228Y-98728754D01*
X127400285Y-98584000D01*
X127381228Y-98439246D01*
X127325355Y-98304358D01*
X127236474Y-98188526D01*
X127236472Y-98188524D01*
X127236471Y-98188523D01*
X127120649Y-98099649D01*
X127120641Y-98099644D01*
X126985752Y-98043771D01*
X126841000Y-98024715D01*
X126696247Y-98043771D01*
X126628802Y-98071708D01*
X126561358Y-98099645D01*
X126561357Y-98099646D01*
X126561356Y-98099646D01*
X126445526Y-98188526D01*
X126356646Y-98304356D01*
X126356645Y-98304358D01*
X126328708Y-98371801D01*
X126300771Y-98439247D01*
X126281715Y-98583999D01*
X126281715Y-98584000D01*
X125400285Y-98584000D01*
X125381228Y-98439246D01*
X125325355Y-98304358D01*
X125236474Y-98188526D01*
X125236472Y-98188524D01*
X125236471Y-98188523D01*
X125120649Y-98099649D01*
X125120641Y-98099644D01*
X124985752Y-98043771D01*
X124841000Y-98024715D01*
X124696247Y-98043771D01*
X124628801Y-98071708D01*
X124561358Y-98099645D01*
X124561357Y-98099646D01*
X124561356Y-98099646D01*
X124445526Y-98188526D01*
X124356646Y-98304356D01*
X124356645Y-98304358D01*
X124328708Y-98371801D01*
X124300771Y-98439247D01*
X124281715Y-98583999D01*
X124281715Y-98584000D01*
X123400285Y-98584000D01*
X123381228Y-98439246D01*
X123325355Y-98304358D01*
X123236474Y-98188526D01*
X123236472Y-98188524D01*
X123236471Y-98188523D01*
X123120649Y-98099649D01*
X123120641Y-98099644D01*
X122985752Y-98043771D01*
X122841000Y-98024715D01*
X122696247Y-98043771D01*
X122628802Y-98071708D01*
X122561358Y-98099645D01*
X122561357Y-98099646D01*
X122561356Y-98099646D01*
X122445526Y-98188526D01*
X122356646Y-98304356D01*
X122356645Y-98304358D01*
X122328708Y-98371801D01*
X122300771Y-98439247D01*
X122281715Y-98583999D01*
X122281715Y-98584000D01*
X89662000Y-98584000D01*
X89662000Y-97429000D01*
X100532715Y-97429000D01*
X100551771Y-97573752D01*
X100607644Y-97708641D01*
X100607649Y-97708649D01*
X100696525Y-97824474D01*
X100812350Y-97913350D01*
X100812357Y-97913355D01*
X100947246Y-97969228D01*
X101019623Y-97978756D01*
X101091999Y-97988285D01*
X101091999Y-97988284D01*
X101092000Y-97988285D01*
X101236754Y-97969228D01*
X101362843Y-97917000D01*
X152490687Y-97917000D01*
X152509922Y-98259529D01*
X152567388Y-98597754D01*
X152662366Y-98927431D01*
X152793653Y-99244384D01*
X152793656Y-99244389D01*
X152959603Y-99544649D01*
X153158130Y-99824446D01*
X153158135Y-99824453D01*
X153256997Y-99935079D01*
X153386739Y-100080261D01*
X153507885Y-100188523D01*
X153642546Y-100308864D01*
X153642549Y-100308866D01*
X153642550Y-100308867D01*
X153880636Y-100477798D01*
X153922350Y-100507396D01*
X154013114Y-100557559D01*
X154222614Y-100673346D01*
X154539573Y-100804635D01*
X154869239Y-100899610D01*
X155207466Y-100957077D01*
X155550000Y-100976313D01*
X155892534Y-100957077D01*
X156230761Y-100899610D01*
X156560427Y-100804635D01*
X156877386Y-100673346D01*
X157177653Y-100507394D01*
X157457450Y-100308867D01*
X157713261Y-100080261D01*
X157941867Y-99824450D01*
X158140394Y-99544653D01*
X158306346Y-99244386D01*
X158437635Y-98927427D01*
X158532610Y-98597761D01*
X158590077Y-98259534D01*
X158609313Y-97917000D01*
X158590077Y-97574466D01*
X158532610Y-97236239D01*
X158437635Y-96906573D01*
X158306346Y-96589614D01*
X158140394Y-96289347D01*
X157941867Y-96009550D01*
X157941866Y-96009549D01*
X157941864Y-96009546D01*
X157839019Y-95894463D01*
X157713261Y-95753739D01*
X157523768Y-95584398D01*
X157457453Y-95525135D01*
X157457446Y-95525130D01*
X157177649Y-95326603D01*
X156901622Y-95174049D01*
X156877386Y-95160654D01*
X156823902Y-95138500D01*
X156560431Y-95029366D01*
X156230754Y-94934388D01*
X155892529Y-94876922D01*
X155574807Y-94859080D01*
X155550000Y-94857687D01*
X155549999Y-94857687D01*
X155207470Y-94876922D01*
X154869245Y-94934388D01*
X154539568Y-95029366D01*
X154222615Y-95160653D01*
X154222610Y-95160656D01*
X153922350Y-95326603D01*
X153642553Y-95525130D01*
X153642546Y-95525135D01*
X153386739Y-95753739D01*
X153158135Y-96009546D01*
X153158130Y-96009553D01*
X152959603Y-96289350D01*
X152793656Y-96589610D01*
X152793653Y-96589615D01*
X152662366Y-96906568D01*
X152567388Y-97236245D01*
X152509922Y-97574470D01*
X152490687Y-97917000D01*
X101362843Y-97917000D01*
X101371643Y-97913355D01*
X101487474Y-97824474D01*
X101576355Y-97708643D01*
X101632228Y-97573754D01*
X101651285Y-97429000D01*
X101632228Y-97284246D01*
X101576355Y-97149358D01*
X101487474Y-97033526D01*
X101487472Y-97033524D01*
X101487471Y-97033523D01*
X101371649Y-96944649D01*
X101371641Y-96944644D01*
X101236752Y-96888771D01*
X101092000Y-96869715D01*
X100947247Y-96888771D01*
X100904283Y-96906568D01*
X100812358Y-96944645D01*
X100812357Y-96944646D01*
X100812356Y-96944646D01*
X100696526Y-97033526D01*
X100607646Y-97149356D01*
X100607645Y-97149358D01*
X100579708Y-97216801D01*
X100551771Y-97284247D01*
X100532715Y-97428999D01*
X100532715Y-97429000D01*
X89662000Y-97429000D01*
X89662000Y-94358999D01*
X90046068Y-94358999D01*
X90065734Y-94533551D01*
X90123751Y-94699352D01*
X90123752Y-94699354D01*
X90217205Y-94848085D01*
X90341414Y-94972294D01*
X90447819Y-95039152D01*
X90490148Y-95065749D01*
X90655947Y-95123765D01*
X90699539Y-95128676D01*
X90786724Y-95138500D01*
X90786726Y-95138500D01*
X91924276Y-95138500D01*
X91989663Y-95131132D01*
X92055053Y-95123765D01*
X92220852Y-95065749D01*
X92369585Y-94972294D01*
X92493794Y-94848085D01*
X92587249Y-94699352D01*
X92645265Y-94533553D01*
X92664932Y-94359000D01*
X92664932Y-94358999D01*
X94226068Y-94358999D01*
X94245734Y-94533551D01*
X94303751Y-94699352D01*
X94303752Y-94699354D01*
X94397205Y-94848085D01*
X94521414Y-94972294D01*
X94676139Y-95069514D01*
X94674561Y-95072024D01*
X94717409Y-95110657D01*
X94736065Y-95179159D01*
X94714723Y-95246872D01*
X94686793Y-95276637D01*
X94577220Y-95360715D01*
X94480965Y-95486157D01*
X94480963Y-95486160D01*
X94420455Y-95632239D01*
X94399818Y-95788999D01*
X94399818Y-95789000D01*
X94420455Y-95945760D01*
X94437271Y-95986356D01*
X94480964Y-96091841D01*
X94577218Y-96217282D01*
X94702659Y-96313536D01*
X94848738Y-96374044D01*
X94966139Y-96389500D01*
X94966146Y-96389500D01*
X95044854Y-96389500D01*
X95044861Y-96389500D01*
X95162262Y-96374044D01*
X95308341Y-96313536D01*
X95370291Y-96266000D01*
X117731115Y-96266000D01*
X117750171Y-96410752D01*
X117806044Y-96545641D01*
X117806049Y-96545649D01*
X117894925Y-96661474D01*
X118010750Y-96750350D01*
X118010757Y-96750355D01*
X118145646Y-96806228D01*
X118218022Y-96815756D01*
X118290399Y-96825285D01*
X118290399Y-96825284D01*
X118290400Y-96825285D01*
X118435154Y-96806228D01*
X118570043Y-96750355D01*
X118685874Y-96661474D01*
X118774755Y-96545643D01*
X118830628Y-96410754D01*
X118849685Y-96266000D01*
X118830628Y-96121246D01*
X118774755Y-95986358D01*
X118685874Y-95870526D01*
X118685872Y-95870524D01*
X118685871Y-95870523D01*
X118570049Y-95781649D01*
X118570041Y-95781644D01*
X118435152Y-95725771D01*
X118290400Y-95706715D01*
X118145647Y-95725771D01*
X118078201Y-95753708D01*
X118010758Y-95781645D01*
X118010757Y-95781646D01*
X118010756Y-95781646D01*
X117894926Y-95870526D01*
X117806046Y-95986356D01*
X117806045Y-95986358D01*
X117778108Y-96053801D01*
X117750171Y-96121247D01*
X117731115Y-96265999D01*
X117731115Y-96266000D01*
X95370291Y-96266000D01*
X95433782Y-96217282D01*
X95530036Y-96091841D01*
X95590544Y-95945762D01*
X95611182Y-95789000D01*
X95590544Y-95632238D01*
X95530036Y-95486159D01*
X95433782Y-95360718D01*
X95433780Y-95360716D01*
X95433776Y-95360711D01*
X95427943Y-95354878D01*
X95430093Y-95352727D01*
X95396794Y-95307123D01*
X95395060Y-95278003D01*
X97459693Y-95278003D01*
X97478849Y-95435779D01*
X97512738Y-95525135D01*
X97535213Y-95584395D01*
X97625502Y-95715201D01*
X97744471Y-95820599D01*
X97744472Y-95820599D01*
X97744474Y-95820601D01*
X97819200Y-95859820D01*
X97885207Y-95894463D01*
X98039529Y-95932500D01*
X98039530Y-95932500D01*
X98198470Y-95932500D01*
X98198471Y-95932500D01*
X98352793Y-95894463D01*
X98493529Y-95820599D01*
X98612498Y-95715201D01*
X98702787Y-95584395D01*
X98759149Y-95435782D01*
X98759149Y-95435781D01*
X98759150Y-95435779D01*
X98778307Y-95278003D01*
X98778307Y-95277996D01*
X98759150Y-95120220D01*
X98724693Y-95029366D01*
X98702787Y-94971605D01*
X98649496Y-94894400D01*
X126058715Y-94894400D01*
X126077771Y-95039152D01*
X126133644Y-95174041D01*
X126133649Y-95174049D01*
X126222525Y-95289874D01*
X126338350Y-95378750D01*
X126338357Y-95378755D01*
X126473246Y-95434628D01*
X126482012Y-95435782D01*
X126617999Y-95453685D01*
X126617999Y-95453684D01*
X126618000Y-95453685D01*
X126762754Y-95434628D01*
X126897643Y-95378755D01*
X127013474Y-95289874D01*
X127102355Y-95174043D01*
X127158228Y-95039154D01*
X127177285Y-94894400D01*
X127158228Y-94749646D01*
X127102355Y-94614758D01*
X127013474Y-94498926D01*
X127013472Y-94498924D01*
X127013471Y-94498923D01*
X126897649Y-94410049D01*
X126897641Y-94410044D01*
X126762752Y-94354171D01*
X126618000Y-94335115D01*
X126473247Y-94354171D01*
X126405802Y-94382108D01*
X126338358Y-94410045D01*
X126338357Y-94410046D01*
X126338356Y-94410046D01*
X126222526Y-94498926D01*
X126133646Y-94614756D01*
X126133645Y-94614758D01*
X126105708Y-94682202D01*
X126077771Y-94749647D01*
X126058715Y-94894399D01*
X126058715Y-94894400D01*
X98649496Y-94894400D01*
X98612498Y-94840799D01*
X98493529Y-94735401D01*
X98493528Y-94735400D01*
X98493525Y-94735398D01*
X98352797Y-94661539D01*
X98352795Y-94661538D01*
X98352793Y-94661537D01*
X98352791Y-94661536D01*
X98352790Y-94661536D01*
X98198472Y-94623500D01*
X98198471Y-94623500D01*
X98039529Y-94623500D01*
X98039527Y-94623500D01*
X97885209Y-94661536D01*
X97885202Y-94661539D01*
X97744474Y-94735398D01*
X97744469Y-94735402D01*
X97625501Y-94840800D01*
X97535215Y-94971601D01*
X97535212Y-94971607D01*
X97478849Y-95120220D01*
X97459693Y-95277996D01*
X97459693Y-95278003D01*
X95395060Y-95278003D01*
X95392573Y-95236252D01*
X95427338Y-95174350D01*
X95490051Y-95141069D01*
X95515366Y-95138500D01*
X96104276Y-95138500D01*
X96169663Y-95131132D01*
X96235053Y-95123765D01*
X96400852Y-95065749D01*
X96549585Y-94972294D01*
X96673794Y-94848085D01*
X96767249Y-94699352D01*
X96825265Y-94533553D01*
X96844932Y-94359000D01*
X96825265Y-94184447D01*
X96776820Y-94046000D01*
X102071915Y-94046000D01*
X102090971Y-94190752D01*
X102146844Y-94325641D01*
X102146849Y-94325649D01*
X102235725Y-94441474D01*
X102310594Y-94498923D01*
X102351557Y-94530355D01*
X102486446Y-94586228D01*
X102631200Y-94605285D01*
X102775954Y-94586228D01*
X102910843Y-94530355D01*
X103026674Y-94441474D01*
X103115555Y-94325643D01*
X103171428Y-94190754D01*
X103190485Y-94046000D01*
X103171428Y-93901246D01*
X103115555Y-93766358D01*
X103026674Y-93650526D01*
X103026672Y-93650524D01*
X103026671Y-93650523D01*
X102910849Y-93561649D01*
X102910841Y-93561644D01*
X102775952Y-93505771D01*
X102631200Y-93486715D01*
X102486447Y-93505771D01*
X102419002Y-93533708D01*
X102351558Y-93561645D01*
X102351557Y-93561646D01*
X102351556Y-93561646D01*
X102235726Y-93650526D01*
X102146846Y-93766356D01*
X102146845Y-93766358D01*
X102118908Y-93833801D01*
X102090971Y-93901247D01*
X102071915Y-94045999D01*
X102071915Y-94046000D01*
X96776820Y-94046000D01*
X96767249Y-94018648D01*
X96752791Y-93995639D01*
X96673794Y-93869914D01*
X96549585Y-93745705D01*
X96400854Y-93652252D01*
X96400852Y-93652251D01*
X96235051Y-93594234D01*
X96104276Y-93579500D01*
X96104274Y-93579500D01*
X94966726Y-93579500D01*
X94966724Y-93579500D01*
X94835948Y-93594234D01*
X94670147Y-93652251D01*
X94670145Y-93652252D01*
X94521414Y-93745705D01*
X94397205Y-93869914D01*
X94303752Y-94018645D01*
X94303751Y-94018647D01*
X94245734Y-94184448D01*
X94226068Y-94358999D01*
X92664932Y-94358999D01*
X92645265Y-94184447D01*
X92587249Y-94018648D01*
X92572791Y-93995639D01*
X92493794Y-93869914D01*
X92369585Y-93745705D01*
X92220854Y-93652252D01*
X92220852Y-93652251D01*
X92055051Y-93594234D01*
X91924276Y-93579500D01*
X91924274Y-93579500D01*
X90786726Y-93579500D01*
X90786724Y-93579500D01*
X90655948Y-93594234D01*
X90490147Y-93652251D01*
X90490145Y-93652252D01*
X90341414Y-93745705D01*
X90217205Y-93869914D01*
X90123752Y-94018645D01*
X90123751Y-94018647D01*
X90065734Y-94184448D01*
X90046068Y-94358999D01*
X89662000Y-94358999D01*
X89662000Y-87249000D01*
X90836187Y-87249000D01*
X90855422Y-87591529D01*
X90912888Y-87929754D01*
X91007866Y-88259431D01*
X91139153Y-88576384D01*
X91139156Y-88576389D01*
X91305103Y-88876649D01*
X91503630Y-89156446D01*
X91503635Y-89156453D01*
X91602497Y-89267079D01*
X91732239Y-89412261D01*
X91894696Y-89557441D01*
X91988046Y-89640864D01*
X91988053Y-89640869D01*
X92267850Y-89839396D01*
X92297314Y-89855680D01*
X92568114Y-90005346D01*
X92885073Y-90136635D01*
X93214739Y-90231610D01*
X93552966Y-90289077D01*
X93895500Y-90308313D01*
X94238034Y-90289077D01*
X94576261Y-90231610D01*
X94905927Y-90136635D01*
X95222886Y-90005346D01*
X95523153Y-89839394D01*
X95802950Y-89640867D01*
X96058761Y-89412261D01*
X96287367Y-89156450D01*
X96309682Y-89125000D01*
X141367539Y-89125000D01*
X141387354Y-89376775D01*
X141405980Y-89454358D01*
X141446311Y-89622349D01*
X141542959Y-89855678D01*
X141674920Y-90071018D01*
X141674921Y-90071020D01*
X141838938Y-90263061D01*
X142030979Y-90427078D01*
X142030983Y-90427081D01*
X142246320Y-90559040D01*
X142479649Y-90655688D01*
X142725225Y-90714646D01*
X142977000Y-90734461D01*
X143228775Y-90714646D01*
X143474351Y-90655688D01*
X143707680Y-90559040D01*
X143923017Y-90427081D01*
X144115061Y-90263061D01*
X144279081Y-90071017D01*
X144411040Y-89855680D01*
X144507688Y-89622351D01*
X144566646Y-89376775D01*
X144586461Y-89125000D01*
X144566646Y-88873225D01*
X144507688Y-88627649D01*
X144411040Y-88394320D01*
X144279081Y-88178983D01*
X144279078Y-88178979D01*
X144115061Y-87986938D01*
X143923020Y-87822921D01*
X143923018Y-87822920D01*
X143923017Y-87822919D01*
X143707680Y-87690960D01*
X143680702Y-87679785D01*
X143474349Y-87594311D01*
X143267062Y-87544546D01*
X143228775Y-87535354D01*
X142977000Y-87515539D01*
X142976999Y-87515539D01*
X142725225Y-87535354D01*
X142479650Y-87594311D01*
X142246321Y-87690959D01*
X142030981Y-87822920D01*
X142030979Y-87822921D01*
X141838938Y-87986938D01*
X141674921Y-88178979D01*
X141674920Y-88178981D01*
X141542959Y-88394321D01*
X141446311Y-88627650D01*
X141387354Y-88873224D01*
X141387354Y-88873225D01*
X141367539Y-89125000D01*
X96309682Y-89125000D01*
X96485894Y-88876653D01*
X96651846Y-88576386D01*
X96783135Y-88259427D01*
X96878110Y-87929761D01*
X96935577Y-87591534D01*
X96954813Y-87249000D01*
X96935577Y-86906466D01*
X96878110Y-86568239D01*
X96783135Y-86238573D01*
X96736091Y-86125000D01*
X145305254Y-86125000D01*
X145324213Y-86390092D01*
X145380707Y-86649793D01*
X145473587Y-86898814D01*
X145600958Y-87132076D01*
X145686903Y-87246885D01*
X145686903Y-87246886D01*
X146449155Y-86484634D01*
X146538577Y-86626948D01*
X146666052Y-86754423D01*
X146808364Y-86843843D01*
X146046112Y-87606095D01*
X146046113Y-87606096D01*
X146149035Y-87683143D01*
X146191582Y-87739979D01*
X146196646Y-87810795D01*
X146162621Y-87873107D01*
X146155357Y-87879822D01*
X146029936Y-87986941D01*
X145865921Y-88178979D01*
X145865920Y-88178981D01*
X145733959Y-88394321D01*
X145637311Y-88627650D01*
X145578354Y-88873224D01*
X145578354Y-88873225D01*
X145558539Y-89125000D01*
X145578354Y-89376775D01*
X145596980Y-89454358D01*
X145637311Y-89622349D01*
X145733959Y-89855678D01*
X145865920Y-90071018D01*
X145865921Y-90071020D01*
X146029938Y-90263061D01*
X146221979Y-90427078D01*
X146221983Y-90427081D01*
X146437320Y-90559040D01*
X146670649Y-90655688D01*
X146916225Y-90714646D01*
X147168000Y-90734461D01*
X147419775Y-90714646D01*
X147665351Y-90655688D01*
X147898680Y-90559040D01*
X148114017Y-90427081D01*
X148306061Y-90263061D01*
X148470081Y-90071017D01*
X148602040Y-89855680D01*
X148698688Y-89622351D01*
X148757646Y-89376775D01*
X148777461Y-89125000D01*
X149749539Y-89125000D01*
X149769354Y-89376775D01*
X149787980Y-89454358D01*
X149828311Y-89622349D01*
X149924959Y-89855678D01*
X150056920Y-90071018D01*
X150056921Y-90071020D01*
X150220938Y-90263061D01*
X150412979Y-90427078D01*
X150412983Y-90427081D01*
X150628320Y-90559040D01*
X150861649Y-90655688D01*
X151107225Y-90714646D01*
X151359000Y-90734461D01*
X151610775Y-90714646D01*
X151856351Y-90655688D01*
X152089680Y-90559040D01*
X152305017Y-90427081D01*
X152497061Y-90263061D01*
X152661081Y-90071017D01*
X152793040Y-89855680D01*
X152889688Y-89622351D01*
X152948646Y-89376775D01*
X152968461Y-89125000D01*
X153940539Y-89125000D01*
X153960354Y-89376775D01*
X153978980Y-89454358D01*
X154019311Y-89622349D01*
X154115959Y-89855678D01*
X154247920Y-90071018D01*
X154247921Y-90071020D01*
X154411938Y-90263061D01*
X154603979Y-90427078D01*
X154603983Y-90427081D01*
X154819320Y-90559040D01*
X155052649Y-90655688D01*
X155298225Y-90714646D01*
X155550000Y-90734461D01*
X155801775Y-90714646D01*
X156047351Y-90655688D01*
X156280680Y-90559040D01*
X156496017Y-90427081D01*
X156688061Y-90263061D01*
X156852081Y-90071017D01*
X156984040Y-89855680D01*
X157080688Y-89622351D01*
X157139646Y-89376775D01*
X157159461Y-89125000D01*
X157139646Y-88873225D01*
X157080688Y-88627649D01*
X156984040Y-88394320D01*
X156852081Y-88178983D01*
X156852078Y-88178979D01*
X156688061Y-87986938D01*
X156496020Y-87822921D01*
X156496018Y-87822920D01*
X156496017Y-87822919D01*
X156348353Y-87732430D01*
X156300725Y-87679785D01*
X156289118Y-87609744D01*
X156317221Y-87544546D01*
X156348352Y-87517570D01*
X156496017Y-87427081D01*
X156688061Y-87263061D01*
X156852081Y-87071017D01*
X156984040Y-86855680D01*
X157080688Y-86622351D01*
X157139646Y-86376775D01*
X157159461Y-86125000D01*
X157139646Y-85873225D01*
X157080688Y-85627649D01*
X156984040Y-85394320D01*
X156852081Y-85178983D01*
X156852078Y-85178979D01*
X156688061Y-84986938D01*
X156496020Y-84822921D01*
X156496018Y-84822920D01*
X156496017Y-84822919D01*
X156280680Y-84690960D01*
X156202564Y-84658603D01*
X156047349Y-84594311D01*
X155879358Y-84553980D01*
X155801775Y-84535354D01*
X155550000Y-84515539D01*
X155549999Y-84515539D01*
X155298225Y-84535354D01*
X155052650Y-84594311D01*
X154819321Y-84690959D01*
X154603981Y-84822920D01*
X154603979Y-84822921D01*
X154411938Y-84986938D01*
X154247921Y-85178979D01*
X154247920Y-85178981D01*
X154115959Y-85394321D01*
X154019311Y-85627650D01*
X153960354Y-85873225D01*
X153940539Y-86124999D01*
X153960354Y-86376774D01*
X154019311Y-86622349D01*
X154019312Y-86622351D01*
X154115960Y-86855680D01*
X154158439Y-86925000D01*
X154247920Y-87071018D01*
X154247921Y-87071020D01*
X154411938Y-87263061D01*
X154603979Y-87427078D01*
X154603983Y-87427081D01*
X154751643Y-87517567D01*
X154799274Y-87570215D01*
X154810881Y-87640256D01*
X154782778Y-87705454D01*
X154751644Y-87732431D01*
X154658850Y-87789296D01*
X154603981Y-87822920D01*
X154603979Y-87822921D01*
X154411938Y-87986938D01*
X154247921Y-88178979D01*
X154247920Y-88178981D01*
X154115959Y-88394321D01*
X154019311Y-88627650D01*
X153960353Y-88873225D01*
X153960354Y-88873225D01*
X153940539Y-89125000D01*
X152968461Y-89125000D01*
X152948646Y-88873225D01*
X152889688Y-88627649D01*
X152793040Y-88394320D01*
X152661081Y-88178983D01*
X152661078Y-88178979D01*
X152497061Y-87986938D01*
X152305020Y-87822921D01*
X152305018Y-87822920D01*
X152305017Y-87822919D01*
X152157353Y-87732430D01*
X152109725Y-87679785D01*
X152098118Y-87609744D01*
X152126221Y-87544546D01*
X152157352Y-87517570D01*
X152305017Y-87427081D01*
X152497061Y-87263061D01*
X152661081Y-87071017D01*
X152793040Y-86855680D01*
X152889688Y-86622351D01*
X152948646Y-86376775D01*
X152968461Y-86125000D01*
X152948646Y-85873225D01*
X152889688Y-85627649D01*
X152793040Y-85394320D01*
X152661081Y-85178983D01*
X152661078Y-85178979D01*
X152497061Y-84986938D01*
X152305020Y-84822921D01*
X152305018Y-84822920D01*
X152305017Y-84822919D01*
X152089680Y-84690960D01*
X152011564Y-84658603D01*
X151856349Y-84594311D01*
X151688358Y-84553980D01*
X151610775Y-84535354D01*
X151359000Y-84515539D01*
X151358999Y-84515539D01*
X151107225Y-84535354D01*
X150861650Y-84594311D01*
X150628321Y-84690959D01*
X150412981Y-84822920D01*
X150412979Y-84822921D01*
X150220938Y-84986938D01*
X150056921Y-85178979D01*
X150056920Y-85178981D01*
X149924959Y-85394321D01*
X149828311Y-85627650D01*
X149769354Y-85873225D01*
X149749539Y-86124999D01*
X149769354Y-86376774D01*
X149828311Y-86622349D01*
X149828312Y-86622351D01*
X149924960Y-86855680D01*
X149967439Y-86925000D01*
X150056920Y-87071018D01*
X150056921Y-87071020D01*
X150220938Y-87263061D01*
X150412979Y-87427078D01*
X150412983Y-87427081D01*
X150560643Y-87517567D01*
X150608274Y-87570215D01*
X150619881Y-87640256D01*
X150591778Y-87705454D01*
X150560644Y-87732431D01*
X150467850Y-87789296D01*
X150412981Y-87822920D01*
X150412979Y-87822921D01*
X150220938Y-87986938D01*
X150056921Y-88178979D01*
X150056920Y-88178981D01*
X149924959Y-88394321D01*
X149828311Y-88627650D01*
X149769353Y-88873225D01*
X149769354Y-88873225D01*
X149749539Y-89125000D01*
X148777461Y-89125000D01*
X148757646Y-88873225D01*
X148698688Y-88627649D01*
X148602040Y-88394320D01*
X148470081Y-88178983D01*
X148470078Y-88178979D01*
X148306061Y-87986938D01*
X148180643Y-87879822D01*
X148141834Y-87820372D01*
X148141326Y-87749377D01*
X148179282Y-87689378D01*
X148186964Y-87683143D01*
X148289885Y-87606096D01*
X148289886Y-87606095D01*
X147527634Y-86843843D01*
X147669948Y-86754423D01*
X147797423Y-86626948D01*
X147886843Y-86484634D01*
X148649095Y-87246886D01*
X148649095Y-87246885D01*
X148735042Y-87132076D01*
X148862412Y-86898814D01*
X148955292Y-86649793D01*
X149011786Y-86390092D01*
X149030745Y-86124999D01*
X149011786Y-85859907D01*
X148955292Y-85600206D01*
X148862412Y-85351185D01*
X148735039Y-85117919D01*
X148649096Y-85003113D01*
X148649095Y-85003112D01*
X147886843Y-85765364D01*
X147797423Y-85623052D01*
X147669948Y-85495577D01*
X147527634Y-85406155D01*
X148289886Y-84643903D01*
X148175076Y-84557958D01*
X147941814Y-84430587D01*
X147692793Y-84337707D01*
X147433092Y-84281213D01*
X147168000Y-84262254D01*
X146902907Y-84281213D01*
X146643206Y-84337707D01*
X146394185Y-84430587D01*
X146160924Y-84557957D01*
X146046113Y-84643902D01*
X146046112Y-84643903D01*
X146808365Y-85406156D01*
X146666052Y-85495577D01*
X146538577Y-85623052D01*
X146449156Y-85765365D01*
X145686903Y-85003112D01*
X145686902Y-85003113D01*
X145600957Y-85117924D01*
X145473587Y-85351185D01*
X145380707Y-85600206D01*
X145324213Y-85859907D01*
X145305254Y-86125000D01*
X96736091Y-86125000D01*
X96651846Y-85921614D01*
X96489377Y-85627649D01*
X96485896Y-85621350D01*
X96470894Y-85600206D01*
X96287367Y-85341550D01*
X96287366Y-85341549D01*
X96287364Y-85341546D01*
X96203941Y-85248196D01*
X96058761Y-85085739D01*
X95913579Y-84955997D01*
X95802953Y-84857135D01*
X95802946Y-84857130D01*
X95523149Y-84658603D01*
X95264293Y-84515539D01*
X95222886Y-84492654D01*
X95222884Y-84492653D01*
X94905931Y-84361366D01*
X94576254Y-84266388D01*
X94238029Y-84208922D01*
X93895500Y-84189687D01*
X93552970Y-84208922D01*
X93214745Y-84266388D01*
X92885068Y-84361366D01*
X92568115Y-84492653D01*
X92568110Y-84492656D01*
X92267850Y-84658603D01*
X91988053Y-84857130D01*
X91988046Y-84857135D01*
X91732239Y-85085739D01*
X91503635Y-85341546D01*
X91503630Y-85341553D01*
X91305103Y-85621350D01*
X91139156Y-85921610D01*
X91139153Y-85921615D01*
X91007866Y-86238568D01*
X90912888Y-86568245D01*
X90855422Y-86906470D01*
X90836187Y-87249000D01*
X89662000Y-87249000D01*
X89662000Y-75125000D01*
X95504380Y-75125000D01*
X95524835Y-75411002D01*
X95585781Y-75691166D01*
X95585781Y-75691167D01*
X95685984Y-75959825D01*
X95757929Y-76091582D01*
X95819645Y-76204607D01*
X95823402Y-76211486D01*
X95995226Y-76441015D01*
X95995229Y-76441018D01*
X95995231Y-76441021D01*
X96197979Y-76643769D01*
X96197982Y-76643771D01*
X96197984Y-76643773D01*
X96413376Y-76805014D01*
X96427517Y-76815600D01*
X96679174Y-76953015D01*
X96947825Y-77053216D01*
X96947828Y-77053216D01*
X96947832Y-77053218D01*
X97092471Y-77084682D01*
X97228001Y-77114165D01*
X97514000Y-77134620D01*
X97799999Y-77114165D01*
X98080166Y-77053218D01*
X98080167Y-77053218D01*
X98080168Y-77053217D01*
X98080175Y-77053216D01*
X98348826Y-76953015D01*
X98600483Y-76815600D01*
X98830021Y-76643769D01*
X99032769Y-76441021D01*
X99204600Y-76211483D01*
X99342015Y-75959826D01*
X99395945Y-75815232D01*
X99438490Y-75758398D01*
X99505011Y-75733587D01*
X99574385Y-75748678D01*
X99624587Y-75798880D01*
X99632052Y-75815225D01*
X99645273Y-75850672D01*
X99685984Y-75959825D01*
X99757929Y-76091582D01*
X99819645Y-76204607D01*
X99823402Y-76211486D01*
X99995226Y-76441015D01*
X99995229Y-76441018D01*
X99995231Y-76441021D01*
X100197979Y-76643769D01*
X100197982Y-76643771D01*
X100197984Y-76643773D01*
X100413376Y-76805014D01*
X100427517Y-76815600D01*
X100679174Y-76953015D01*
X100947825Y-77053216D01*
X100947828Y-77053216D01*
X100947832Y-77053218D01*
X101092471Y-77084682D01*
X101228001Y-77114165D01*
X101514000Y-77134620D01*
X101799999Y-77114165D01*
X102080166Y-77053218D01*
X102080167Y-77053218D01*
X102080168Y-77053217D01*
X102080175Y-77053216D01*
X102348826Y-76953015D01*
X102600483Y-76815600D01*
X102830021Y-76643769D01*
X103032769Y-76441021D01*
X103204600Y-76211483D01*
X103342015Y-75959826D01*
X103395945Y-75815232D01*
X103438490Y-75758398D01*
X103505011Y-75733587D01*
X103574385Y-75748678D01*
X103624587Y-75798880D01*
X103632052Y-75815225D01*
X103645273Y-75850672D01*
X103685984Y-75959825D01*
X103757929Y-76091582D01*
X103819645Y-76204607D01*
X103823402Y-76211486D01*
X103995226Y-76441015D01*
X103995229Y-76441018D01*
X103995231Y-76441021D01*
X104197979Y-76643769D01*
X104197982Y-76643771D01*
X104197984Y-76643773D01*
X104413376Y-76805014D01*
X104427517Y-76815600D01*
X104679174Y-76953015D01*
X104947825Y-77053216D01*
X104947828Y-77053216D01*
X104947832Y-77053218D01*
X105092471Y-77084682D01*
X105228001Y-77114165D01*
X105514000Y-77134620D01*
X105799999Y-77114165D01*
X106080166Y-77053218D01*
X106080167Y-77053218D01*
X106080168Y-77053217D01*
X106080175Y-77053216D01*
X106348826Y-76953015D01*
X106600483Y-76815600D01*
X106830021Y-76643769D01*
X107032769Y-76441021D01*
X107204600Y-76211483D01*
X107342015Y-75959826D01*
X107442216Y-75691175D01*
X107503165Y-75410999D01*
X107523620Y-75125000D01*
X110004380Y-75125000D01*
X110024835Y-75411002D01*
X110085781Y-75691166D01*
X110085781Y-75691167D01*
X110185984Y-75959825D01*
X110257929Y-76091582D01*
X110319645Y-76204607D01*
X110323402Y-76211486D01*
X110495226Y-76441015D01*
X110495229Y-76441018D01*
X110495231Y-76441021D01*
X110697979Y-76643769D01*
X110697982Y-76643771D01*
X110697984Y-76643773D01*
X110913376Y-76805014D01*
X110927517Y-76815600D01*
X111179174Y-76953015D01*
X111447825Y-77053216D01*
X111447828Y-77053216D01*
X111447832Y-77053218D01*
X111592471Y-77084682D01*
X111728001Y-77114165D01*
X112014000Y-77134620D01*
X112299999Y-77114165D01*
X112580166Y-77053218D01*
X112580167Y-77053218D01*
X112580168Y-77053217D01*
X112580175Y-77053216D01*
X112848826Y-76953015D01*
X113100483Y-76815600D01*
X113330021Y-76643769D01*
X113532769Y-76441021D01*
X113704600Y-76211483D01*
X113842015Y-75959826D01*
X113914594Y-75765231D01*
X113957138Y-75708398D01*
X114023658Y-75683587D01*
X114093032Y-75698678D01*
X114143235Y-75748880D01*
X114150704Y-75765233D01*
X114185985Y-75859827D01*
X114257581Y-75990945D01*
X114322361Y-76109581D01*
X114323402Y-76111486D01*
X114495226Y-76341015D01*
X114495229Y-76341018D01*
X114495231Y-76341021D01*
X114697979Y-76543769D01*
X114697982Y-76543771D01*
X114697984Y-76543773D01*
X114831568Y-76643773D01*
X114927517Y-76715600D01*
X115179174Y-76853015D01*
X115447825Y-76953216D01*
X115447828Y-76953216D01*
X115447832Y-76953218D01*
X115609972Y-76988489D01*
X115728001Y-77014165D01*
X116014000Y-77034620D01*
X116299999Y-77014165D01*
X116580166Y-76953218D01*
X116580167Y-76953218D01*
X116580168Y-76953217D01*
X116580175Y-76953216D01*
X116848826Y-76853015D01*
X117100483Y-76715600D01*
X117330021Y-76543769D01*
X117532769Y-76341021D01*
X117704600Y-76111483D01*
X117842015Y-75859826D01*
X117877296Y-75765231D01*
X117919841Y-75708398D01*
X117986361Y-75683587D01*
X118055736Y-75698678D01*
X118105938Y-75748880D01*
X118113403Y-75765226D01*
X118132908Y-75817520D01*
X118185984Y-75959825D01*
X118257929Y-76091582D01*
X118319645Y-76204607D01*
X118323402Y-76211486D01*
X118495226Y-76441015D01*
X118495229Y-76441018D01*
X118495231Y-76441021D01*
X118697979Y-76643769D01*
X118697982Y-76643771D01*
X118697984Y-76643773D01*
X118913376Y-76805014D01*
X118927517Y-76815600D01*
X119179174Y-76953015D01*
X119447825Y-77053216D01*
X119447828Y-77053216D01*
X119447832Y-77053218D01*
X119592471Y-77084682D01*
X119728001Y-77114165D01*
X120014000Y-77134620D01*
X120299999Y-77114165D01*
X120580166Y-77053218D01*
X120580167Y-77053218D01*
X120580168Y-77053217D01*
X120580175Y-77053216D01*
X120848826Y-76953015D01*
X121100483Y-76815600D01*
X121330021Y-76643769D01*
X121532769Y-76441021D01*
X121704600Y-76211483D01*
X121760435Y-76109227D01*
X121810634Y-76059027D01*
X121880008Y-76043935D01*
X121946529Y-76068745D01*
X121984027Y-76113886D01*
X122054316Y-76256420D01*
X122218763Y-76502531D01*
X122246092Y-76533694D01*
X123150176Y-75629611D01*
X123219146Y-75740263D01*
X123359268Y-75887671D01*
X123507420Y-75990788D01*
X122605304Y-76892904D01*
X122605304Y-76892906D01*
X122636468Y-76920236D01*
X122882579Y-77084682D01*
X123148040Y-77215592D01*
X123148054Y-77215598D01*
X123428324Y-77310737D01*
X123428334Y-77310739D01*
X123718629Y-77368484D01*
X123718643Y-77368486D01*
X124013997Y-77387845D01*
X124014003Y-77387845D01*
X124309356Y-77368486D01*
X124309370Y-77368484D01*
X124599665Y-77310739D01*
X124599675Y-77310737D01*
X124879945Y-77215598D01*
X124879959Y-77215592D01*
X125145420Y-77084682D01*
X125391534Y-76920234D01*
X125391536Y-76920233D01*
X125422694Y-76892906D01*
X125422694Y-76892904D01*
X124518487Y-75988697D01*
X124588214Y-75949996D01*
X124742531Y-75817520D01*
X124867021Y-75656692D01*
X124879487Y-75631277D01*
X125781904Y-76533694D01*
X125781906Y-76533694D01*
X125809233Y-76502536D01*
X125809234Y-76502534D01*
X125973682Y-76256420D01*
X126104592Y-75990959D01*
X126104598Y-75990945D01*
X126199737Y-75710675D01*
X126199739Y-75710665D01*
X126257484Y-75420370D01*
X126257486Y-75420356D01*
X126272404Y-75192765D01*
X137120788Y-75192765D01*
X137150412Y-75462014D01*
X137218928Y-75724090D01*
X137324869Y-75973389D01*
X137335592Y-75990959D01*
X137465982Y-76204610D01*
X137639255Y-76412820D01*
X137639257Y-76412822D01*
X137639259Y-76412824D01*
X137739379Y-76502531D01*
X137840998Y-76593582D01*
X138066910Y-76743044D01*
X138312176Y-76858020D01*
X138571569Y-76936060D01*
X138571572Y-76936060D01*
X138571574Y-76936061D01*
X138839557Y-76975500D01*
X138839561Y-76975500D01*
X139042633Y-76975500D01*
X139077363Y-76972957D01*
X139245156Y-76960677D01*
X139245160Y-76960676D01*
X139245161Y-76960676D01*
X139426710Y-76920234D01*
X139509553Y-76901780D01*
X139762558Y-76805014D01*
X139998777Y-76672441D01*
X140213177Y-76506888D01*
X140401186Y-76311881D01*
X140558799Y-76091579D01*
X140583295Y-76043935D01*
X140682656Y-75850675D01*
X140682657Y-75850672D01*
X140730421Y-75710665D01*
X140770118Y-75594305D01*
X140819319Y-75327933D01*
X140824259Y-75192765D01*
X157620788Y-75192765D01*
X157650412Y-75462014D01*
X157718928Y-75724090D01*
X157824869Y-75973389D01*
X157835592Y-75990959D01*
X157965982Y-76204610D01*
X158139255Y-76412820D01*
X158139257Y-76412822D01*
X158139259Y-76412824D01*
X158239379Y-76502531D01*
X158340998Y-76593582D01*
X158566910Y-76743044D01*
X158812176Y-76858020D01*
X159071569Y-76936060D01*
X159071572Y-76936060D01*
X159071574Y-76936061D01*
X159339557Y-76975500D01*
X159339561Y-76975500D01*
X159542633Y-76975500D01*
X159577363Y-76972957D01*
X159745156Y-76960677D01*
X159745160Y-76960676D01*
X159745161Y-76960676D01*
X159926710Y-76920234D01*
X160009553Y-76901780D01*
X160262558Y-76805014D01*
X160498777Y-76672441D01*
X160713177Y-76506888D01*
X160901186Y-76311881D01*
X161058799Y-76091579D01*
X161083295Y-76043935D01*
X161182656Y-75850675D01*
X161182657Y-75850672D01*
X161230421Y-75710665D01*
X161270118Y-75594305D01*
X161319319Y-75327933D01*
X161329212Y-75057235D01*
X161305200Y-74839001D01*
X161299587Y-74787985D01*
X161265000Y-74655689D01*
X161231072Y-74525912D01*
X161224198Y-74509737D01*
X161125130Y-74276610D01*
X161082238Y-74206329D01*
X160984018Y-74045390D01*
X160810745Y-73837180D01*
X160810741Y-73837177D01*
X160810740Y-73837175D01*
X160609012Y-73656427D01*
X160609002Y-73656418D01*
X160383090Y-73506956D01*
X160137824Y-73391980D01*
X159946437Y-73334400D01*
X159878425Y-73313938D01*
X159610442Y-73274500D01*
X159610439Y-73274500D01*
X159407369Y-73274500D01*
X159407367Y-73274500D01*
X159204839Y-73289323D01*
X159204838Y-73289323D01*
X158940456Y-73348217D01*
X158940441Y-73348222D01*
X158687441Y-73444986D01*
X158451229Y-73577555D01*
X158451225Y-73577557D01*
X158236818Y-73743116D01*
X158048815Y-73938117D01*
X158048810Y-73938123D01*
X157891203Y-74158417D01*
X157891196Y-74158427D01*
X157767343Y-74399324D01*
X157767342Y-74399327D01*
X157679883Y-74655689D01*
X157679880Y-74655702D01*
X157630681Y-74922058D01*
X157630680Y-74922069D01*
X157620788Y-75192765D01*
X140824259Y-75192765D01*
X140829212Y-75057235D01*
X140805200Y-74839001D01*
X140799587Y-74787985D01*
X140765000Y-74655689D01*
X140731072Y-74525912D01*
X140724198Y-74509737D01*
X140625130Y-74276610D01*
X140582238Y-74206329D01*
X140484018Y-74045390D01*
X140310745Y-73837180D01*
X140310741Y-73837177D01*
X140310740Y-73837175D01*
X140109012Y-73656427D01*
X140109002Y-73656418D01*
X139883090Y-73506956D01*
X139637824Y-73391980D01*
X139446437Y-73334400D01*
X139378425Y-73313938D01*
X139110442Y-73274500D01*
X139110439Y-73274500D01*
X138907369Y-73274500D01*
X138907367Y-73274500D01*
X138704839Y-73289323D01*
X138704838Y-73289323D01*
X138440456Y-73348217D01*
X138440441Y-73348222D01*
X138187441Y-73444986D01*
X137951229Y-73577555D01*
X137951225Y-73577557D01*
X137736818Y-73743116D01*
X137548815Y-73938117D01*
X137548810Y-73938123D01*
X137391203Y-74158417D01*
X137391196Y-74158427D01*
X137267343Y-74399324D01*
X137267342Y-74399327D01*
X137179883Y-74655689D01*
X137179880Y-74655702D01*
X137130681Y-74922058D01*
X137130680Y-74922069D01*
X137120788Y-75192765D01*
X126272404Y-75192765D01*
X126276845Y-75125003D01*
X126276845Y-75124996D01*
X126257486Y-74829643D01*
X126257484Y-74829629D01*
X126199739Y-74539334D01*
X126199737Y-74539324D01*
X126104598Y-74259054D01*
X126104592Y-74259040D01*
X125973682Y-73993580D01*
X125809236Y-73747468D01*
X125781906Y-73716304D01*
X125781904Y-73716304D01*
X124877821Y-74620386D01*
X124808854Y-74509737D01*
X124668732Y-74362329D01*
X124520577Y-74259210D01*
X125422694Y-73357092D01*
X125391531Y-73329763D01*
X125145420Y-73165317D01*
X124879959Y-73034407D01*
X124879945Y-73034401D01*
X124599675Y-72939262D01*
X124599665Y-72939260D01*
X124309370Y-72881515D01*
X124309356Y-72881513D01*
X124014003Y-72862155D01*
X124013997Y-72862155D01*
X123718643Y-72881513D01*
X123718629Y-72881515D01*
X123428334Y-72939260D01*
X123428324Y-72939262D01*
X123148054Y-73034401D01*
X123148040Y-73034407D01*
X122882580Y-73165317D01*
X122636467Y-73329763D01*
X122636463Y-73329766D01*
X122605304Y-73357092D01*
X122605304Y-73357094D01*
X123509512Y-74261302D01*
X123439786Y-74300004D01*
X123285469Y-74432480D01*
X123160979Y-74593308D01*
X123148512Y-74618722D01*
X122246094Y-73716304D01*
X122246092Y-73716304D01*
X122218766Y-73747463D01*
X122218763Y-73747467D01*
X122054317Y-73993580D01*
X121984028Y-74136113D01*
X121935960Y-74188362D01*
X121867274Y-74206329D01*
X121799779Y-74184310D01*
X121760434Y-74140770D01*
X121704600Y-74038517D01*
X121670960Y-73993580D01*
X121532773Y-73808984D01*
X121532765Y-73808975D01*
X121330024Y-73606234D01*
X121330015Y-73606226D01*
X121100486Y-73434402D01*
X121100484Y-73434401D01*
X121100483Y-73434400D01*
X120942656Y-73348220D01*
X120848825Y-73296984D01*
X120580167Y-73196781D01*
X120300001Y-73135835D01*
X120300003Y-73135835D01*
X120014000Y-73115380D01*
X119727997Y-73135835D01*
X119447833Y-73196781D01*
X119447832Y-73196781D01*
X119179174Y-73296984D01*
X118927513Y-73434402D01*
X118697984Y-73606226D01*
X118697975Y-73606234D01*
X118495234Y-73808975D01*
X118495226Y-73808984D01*
X118323402Y-74038513D01*
X118185984Y-74290175D01*
X118185981Y-74290182D01*
X118150703Y-74384766D01*
X118108157Y-74441602D01*
X118041636Y-74466412D01*
X117972262Y-74451320D01*
X117922060Y-74401118D01*
X117914598Y-74384779D01*
X117842015Y-74190174D01*
X117704600Y-73938517D01*
X117558321Y-73743112D01*
X117532773Y-73708984D01*
X117532765Y-73708975D01*
X117330024Y-73506234D01*
X117330015Y-73506226D01*
X117100486Y-73334402D01*
X117100484Y-73334401D01*
X117100483Y-73334400D01*
X116988857Y-73273448D01*
X116848825Y-73196984D01*
X116580167Y-73096781D01*
X116300001Y-73035835D01*
X116300003Y-73035835D01*
X116014000Y-73015380D01*
X115727997Y-73035835D01*
X115447833Y-73096781D01*
X115447832Y-73096781D01*
X115179174Y-73196984D01*
X114927513Y-73334402D01*
X114697984Y-73506226D01*
X114697975Y-73506234D01*
X114495234Y-73708975D01*
X114495226Y-73708984D01*
X114323402Y-73938513D01*
X114185984Y-74190174D01*
X114113407Y-74384765D01*
X114070860Y-74441601D01*
X114004340Y-74466412D01*
X113934966Y-74451321D01*
X113884764Y-74401119D01*
X113877297Y-74384769D01*
X113842015Y-74290174D01*
X113704600Y-74038517D01*
X113670960Y-73993580D01*
X113532773Y-73808984D01*
X113532765Y-73808975D01*
X113330024Y-73606234D01*
X113330015Y-73606226D01*
X113100486Y-73434402D01*
X113100484Y-73434401D01*
X113100483Y-73434400D01*
X112942656Y-73348220D01*
X112848825Y-73296984D01*
X112580167Y-73196781D01*
X112300001Y-73135835D01*
X112300003Y-73135835D01*
X112014000Y-73115380D01*
X111727997Y-73135835D01*
X111447833Y-73196781D01*
X111447832Y-73196781D01*
X111179174Y-73296984D01*
X110927513Y-73434402D01*
X110697984Y-73606226D01*
X110697975Y-73606234D01*
X110495234Y-73808975D01*
X110495226Y-73808984D01*
X110323402Y-74038513D01*
X110185984Y-74290174D01*
X110085781Y-74558832D01*
X110085781Y-74558833D01*
X110024835Y-74838997D01*
X110004380Y-75125000D01*
X107523620Y-75125000D01*
X107503165Y-74839001D01*
X107469084Y-74682335D01*
X107442218Y-74558833D01*
X107442218Y-74558832D01*
X107442216Y-74558828D01*
X107442216Y-74558825D01*
X107342015Y-74290174D01*
X107204600Y-74038517D01*
X107170960Y-73993580D01*
X107032773Y-73808984D01*
X107032765Y-73808975D01*
X106830024Y-73606234D01*
X106830015Y-73606226D01*
X106600486Y-73434402D01*
X106600484Y-73434401D01*
X106600483Y-73434400D01*
X106442656Y-73348220D01*
X106348825Y-73296984D01*
X106080167Y-73196781D01*
X105800001Y-73135835D01*
X105800003Y-73135835D01*
X105514000Y-73115380D01*
X105227997Y-73135835D01*
X104947833Y-73196781D01*
X104947832Y-73196781D01*
X104679174Y-73296984D01*
X104427513Y-73434402D01*
X104197984Y-73606226D01*
X104197975Y-73606234D01*
X103995234Y-73808975D01*
X103995226Y-73808984D01*
X103823402Y-74038513D01*
X103685984Y-74290174D01*
X103632056Y-74434765D01*
X103589509Y-74491601D01*
X103522989Y-74516412D01*
X103453615Y-74501321D01*
X103403413Y-74451119D01*
X103395944Y-74434765D01*
X103383394Y-74401118D01*
X103342015Y-74290174D01*
X103204600Y-74038517D01*
X103170960Y-73993580D01*
X103032773Y-73808984D01*
X103032765Y-73808975D01*
X102830024Y-73606234D01*
X102830015Y-73606226D01*
X102600486Y-73434402D01*
X102600484Y-73434401D01*
X102600483Y-73434400D01*
X102442656Y-73348220D01*
X102348825Y-73296984D01*
X102080167Y-73196781D01*
X101800001Y-73135835D01*
X101800003Y-73135835D01*
X101514000Y-73115380D01*
X101227997Y-73135835D01*
X100947833Y-73196781D01*
X100947832Y-73196781D01*
X100679174Y-73296984D01*
X100427513Y-73434402D01*
X100197984Y-73606226D01*
X100197975Y-73606234D01*
X99995234Y-73808975D01*
X99995226Y-73808984D01*
X99823402Y-74038513D01*
X99685984Y-74290174D01*
X99632056Y-74434765D01*
X99589509Y-74491601D01*
X99522989Y-74516412D01*
X99453615Y-74501321D01*
X99403413Y-74451119D01*
X99395944Y-74434765D01*
X99383394Y-74401118D01*
X99342015Y-74290174D01*
X99204600Y-74038517D01*
X99170960Y-73993580D01*
X99032773Y-73808984D01*
X99032765Y-73808975D01*
X98830024Y-73606234D01*
X98830015Y-73606226D01*
X98600486Y-73434402D01*
X98600484Y-73434401D01*
X98600483Y-73434400D01*
X98442656Y-73348220D01*
X98348825Y-73296984D01*
X98080167Y-73196781D01*
X97800001Y-73135835D01*
X97800003Y-73135835D01*
X97514000Y-73115380D01*
X97227997Y-73135835D01*
X96947833Y-73196781D01*
X96947832Y-73196781D01*
X96679174Y-73296984D01*
X96427513Y-73434402D01*
X96197984Y-73606226D01*
X96197975Y-73606234D01*
X95995234Y-73808975D01*
X95995226Y-73808984D01*
X95823402Y-74038513D01*
X95685984Y-74290174D01*
X95585781Y-74558832D01*
X95585781Y-74558833D01*
X95524835Y-74838997D01*
X95504380Y-75125000D01*
X89662000Y-75125000D01*
X89662000Y-71426190D01*
X89682002Y-71358069D01*
X89698905Y-71337095D01*
X92165095Y-68870905D01*
X92227407Y-68836879D01*
X92254190Y-68834000D01*
X163958000Y-68834000D01*
X164026121Y-68854002D01*
G37*
%TD.AperFunction*%
%TD*%
M02*
