%TF.GenerationSoftware,KiCad,Pcbnew,7.0.6*%
%TF.CreationDate,2023-09-20T14:55:28-04:00*%
%TF.ProjectId,32U4_NES_SNES_adapter,33325534-5f4e-4455-935f-534e45535f61,rev?*%
%TF.SameCoordinates,Original*%
%TF.FileFunction,Copper,L1,Top*%
%TF.FilePolarity,Positive*%
%FSLAX46Y46*%
G04 Gerber Fmt 4.6, Leading zero omitted, Abs format (unit mm)*
G04 Created by KiCad (PCBNEW 7.0.6) date 2023-09-20 14:55:28*
%MOMM*%
%LPD*%
G01*
G04 APERTURE LIST*
G04 Aperture macros list*
%AMRoundRect*
0 Rectangle with rounded corners*
0 $1 Rounding radius*
0 $2 $3 $4 $5 $6 $7 $8 $9 X,Y pos of 4 corners*
0 Add a 4 corners polygon primitive as box body*
4,1,4,$2,$3,$4,$5,$6,$7,$8,$9,$2,$3,0*
0 Add four circle primitives for the rounded corners*
1,1,$1+$1,$2,$3*
1,1,$1+$1,$4,$5*
1,1,$1+$1,$6,$7*
1,1,$1+$1,$8,$9*
0 Add four rect primitives between the rounded corners*
20,1,$1+$1,$2,$3,$4,$5,0*
20,1,$1+$1,$4,$5,$6,$7,0*
20,1,$1+$1,$6,$7,$8,$9,0*
20,1,$1+$1,$8,$9,$2,$3,0*%
G04 Aperture macros list end*
%TA.AperFunction,SMDPad,CuDef*%
%ADD10RoundRect,0.140000X0.140000X0.170000X-0.140000X0.170000X-0.140000X-0.170000X0.140000X-0.170000X0*%
%TD*%
%TA.AperFunction,ComponentPad*%
%ADD11C,3.500000*%
%TD*%
%TA.AperFunction,SMDPad,CuDef*%
%ADD12RoundRect,0.135000X-0.135000X-0.185000X0.135000X-0.185000X0.135000X0.185000X-0.135000X0.185000X0*%
%TD*%
%TA.AperFunction,ComponentPad*%
%ADD13C,2.700000*%
%TD*%
%TA.AperFunction,ComponentPad*%
%ADD14C,5.600000*%
%TD*%
%TA.AperFunction,SMDPad,CuDef*%
%ADD15RoundRect,0.135000X0.135000X0.185000X-0.135000X0.185000X-0.135000X-0.185000X0.135000X-0.185000X0*%
%TD*%
%TA.AperFunction,SMDPad,CuDef*%
%ADD16RoundRect,0.218750X0.218750X0.256250X-0.218750X0.256250X-0.218750X-0.256250X0.218750X-0.256250X0*%
%TD*%
%TA.AperFunction,SMDPad,CuDef*%
%ADD17R,1.000000X0.750000*%
%TD*%
%TA.AperFunction,SMDPad,CuDef*%
%ADD18RoundRect,0.062500X-0.475000X-0.062500X0.475000X-0.062500X0.475000X0.062500X-0.475000X0.062500X0*%
%TD*%
%TA.AperFunction,SMDPad,CuDef*%
%ADD19RoundRect,0.062500X-0.062500X-0.475000X0.062500X-0.475000X0.062500X0.475000X-0.062500X0.475000X0*%
%TD*%
%TA.AperFunction,SMDPad,CuDef*%
%ADD20R,5.200000X5.200000*%
%TD*%
%TA.AperFunction,SMDPad,CuDef*%
%ADD21RoundRect,0.135000X0.185000X-0.135000X0.185000X0.135000X-0.185000X0.135000X-0.185000X-0.135000X0*%
%TD*%
%TA.AperFunction,SMDPad,CuDef*%
%ADD22RoundRect,0.140000X-0.170000X0.140000X-0.170000X-0.140000X0.170000X-0.140000X0.170000X0.140000X0*%
%TD*%
%TA.AperFunction,SMDPad,CuDef*%
%ADD23R,1.400000X1.200000*%
%TD*%
%TA.AperFunction,SMDPad,CuDef*%
%ADD24RoundRect,0.250000X0.475000X-0.250000X0.475000X0.250000X-0.475000X0.250000X-0.475000X-0.250000X0*%
%TD*%
%TA.AperFunction,SMDPad,CuDef*%
%ADD25RoundRect,0.140000X-0.140000X-0.170000X0.140000X-0.170000X0.140000X0.170000X-0.140000X0.170000X0*%
%TD*%
%TA.AperFunction,SMDPad,CuDef*%
%ADD26R,1.450000X0.600000*%
%TD*%
%TA.AperFunction,SMDPad,CuDef*%
%ADD27R,1.450000X0.300000*%
%TD*%
%TA.AperFunction,ComponentPad*%
%ADD28O,2.100000X1.050000*%
%TD*%
%TA.AperFunction,SMDPad,CuDef*%
%ADD29RoundRect,0.140000X0.170000X-0.140000X0.170000X0.140000X-0.170000X0.140000X-0.170000X-0.140000X0*%
%TD*%
%TA.AperFunction,ViaPad*%
%ADD30C,0.600000*%
%TD*%
%TA.AperFunction,ViaPad*%
%ADD31C,0.800000*%
%TD*%
%TA.AperFunction,Conductor*%
%ADD32C,0.200000*%
%TD*%
%TA.AperFunction,Conductor*%
%ADD33C,0.508000*%
%TD*%
%TA.AperFunction,Conductor*%
%ADD34C,0.254000*%
%TD*%
%TA.AperFunction,Conductor*%
%ADD35C,0.381000*%
%TD*%
%TA.AperFunction,Conductor*%
%ADD36C,0.250000*%
%TD*%
%TA.AperFunction,Conductor*%
%ADD37C,0.205740*%
%TD*%
G04 APERTURE END LIST*
D10*
%TO.P,C9,1*%
%TO.N,VCC*%
X119250400Y-97028000D03*
%TO.P,C9,2*%
%TO.N,GND*%
X118290400Y-97028000D03*
%TD*%
%TO.P,C7,1*%
%TO.N,VCC*%
X121587200Y-105587800D03*
%TO.P,C7,2*%
%TO.N,GND*%
X120627200Y-105587800D03*
%TD*%
%TO.P,C8,1*%
%TO.N,VCC*%
X119225000Y-101727000D03*
%TO.P,C8,2*%
%TO.N,GND*%
X118265000Y-101727000D03*
%TD*%
D11*
%TO.P,J2,1,5V*%
%TO.N,VCC*%
X97064000Y-120709000D03*
%TO.P,J2,2,CLK*%
%TO.N,/SNES_1_CLK*%
X101064000Y-120709000D03*
%TO.P,J2,3,LATCH*%
%TO.N,/SNES_1_LATCH*%
X105064000Y-120809000D03*
%TO.P,J2,4,DATA*%
%TO.N,/SNES_1_DATA*%
X109064000Y-120709000D03*
%TO.P,J2,5,NC*%
%TO.N,unconnected-(J2-Pad5)*%
X115564000Y-120709000D03*
%TO.P,J2,6,NC*%
%TO.N,unconnected-(J2-Pad6)*%
X119564000Y-120709000D03*
%TO.P,J2,7,GND*%
%TO.N,GND*%
X123564000Y-120709000D03*
%TD*%
D12*
%TO.P,R6,1*%
%TO.N,/USB_D-*%
X118235000Y-98171000D03*
%TO.P,R6,2*%
%TO.N,Net-(R6-Pad2)*%
X119255000Y-98171000D03*
%TD*%
%TO.P,R3,2*%
%TO.N,Net-(R3-Pad2)*%
X104142000Y-104770400D03*
%TO.P,R3,1*%
%TO.N,VCC*%
X103122000Y-104770400D03*
%TD*%
D13*
%TO.P,J5,1,5V*%
%TO.N,VCC*%
X147168000Y-86125000D03*
%TO.P,J5,2,NC*%
%TO.N,unconnected-(J5-Pad2)*%
X151359000Y-86125000D03*
%TO.P,J5,3,NC*%
%TO.N,unconnected-(J5-Pad3)*%
X155550000Y-86125000D03*
%TO.P,J5,4,DATA*%
%TO.N,/NES_2_DATA*%
X155550000Y-89125000D03*
%TO.P,J5,5,LATCH*%
%TO.N,/NES_2_LATCH*%
X151359000Y-89125000D03*
%TO.P,J5,6,CLK*%
%TO.N,/NES_2_CLK*%
X147168000Y-89125000D03*
%TO.P,J5,7,GND*%
%TO.N,GND*%
X142977000Y-89125000D03*
%TD*%
D14*
%TO.P,H3,1,1*%
%TO.N,GND*%
X155550000Y-97917000D03*
%TD*%
D13*
%TO.P,J4,1,5V*%
%TO.N,VCC*%
X151282000Y-109709000D03*
%TO.P,J4,2,NC*%
%TO.N,unconnected-(J4-Pad2)*%
X147091000Y-109709000D03*
%TO.P,J4,3,NC*%
%TO.N,unconnected-(J4-Pad3)*%
X142900000Y-109709000D03*
%TO.P,J4,4,DATA*%
%TO.N,/NES_1_DATA*%
X142900000Y-106709000D03*
%TO.P,J4,5,LATCH*%
%TO.N,/NES_1_LATCH*%
X147091000Y-106709000D03*
%TO.P,J4,6,CLK*%
%TO.N,/NES_1_CLK*%
X151282000Y-106709000D03*
%TO.P,J4,7,GND*%
%TO.N,GND*%
X155473000Y-106709000D03*
%TD*%
D15*
%TO.P,R4,2*%
%TO.N,Net-(D1-Pad2)*%
X101801200Y-110121750D03*
%TO.P,R4,1*%
%TO.N,VCC*%
X102821200Y-110121750D03*
%TD*%
D10*
%TO.P,C10,1*%
%TO.N,Net-(C10-Pad1)*%
X119225000Y-100584000D03*
%TO.P,C10,2*%
%TO.N,GND*%
X118265000Y-100584000D03*
%TD*%
D14*
%TO.P,H1,1,1*%
%TO.N,GND*%
X93895500Y-87249000D03*
%TD*%
D16*
%TO.P,D1,1,K*%
%TO.N,GND*%
X103098700Y-108597750D03*
%TO.P,D1,2,A*%
%TO.N,Net-(D1-Pad2)*%
X101523700Y-108597750D03*
%TD*%
D12*
%TO.P,R5,1*%
%TO.N,/USB_D+*%
X118235000Y-99314000D03*
%TO.P,R5,2*%
%TO.N,Net-(R5-Pad2)*%
X119255000Y-99314000D03*
%TD*%
D17*
%TO.P,S1,D*%
%TO.N,Net-(R3-Pad2)*%
X111922500Y-104770400D03*
%TO.P,S1,C*%
X105922500Y-104770400D03*
%TO.P,S1,B*%
%TO.N,GND*%
X111922500Y-101020400D03*
%TO.P,S1,A*%
X105922500Y-101020400D03*
%TD*%
D14*
%TO.P,H2,1,1*%
%TO.N,GND*%
X93895500Y-110109000D03*
%TD*%
D15*
%TO.P,R2,1*%
%TO.N,GND*%
X100332000Y-97429000D03*
%TO.P,R2,2*%
%TO.N,Net-(J1-PadA5)*%
X99312000Y-97429000D03*
%TD*%
D18*
%TO.P,U1,1,PE6*%
%TO.N,unconnected-(U1-Pad1)*%
X121503500Y-98084000D03*
%TO.P,U1,2,UVCC*%
%TO.N,VCC*%
X121503500Y-98584000D03*
%TO.P,U1,3,D-*%
%TO.N,Net-(R6-Pad2)*%
X121503500Y-99084000D03*
%TO.P,U1,4,D+*%
%TO.N,Net-(R5-Pad2)*%
X121503500Y-99584000D03*
%TO.P,U1,5,UGND*%
%TO.N,GND*%
X121503500Y-100084000D03*
%TO.P,U1,6,UCAP*%
%TO.N,Net-(C10-Pad1)*%
X121503500Y-100584000D03*
%TO.P,U1,7,VBUS*%
%TO.N,VCC*%
X121503500Y-101084000D03*
%TO.P,U1,8,PB0*%
%TO.N,unconnected-(U1-Pad8)*%
X121503500Y-101584000D03*
%TO.P,U1,9,PB1*%
%TO.N,/SNES_1_CLK*%
X121503500Y-102084000D03*
%TO.P,U1,10,PB2*%
%TO.N,/SNES_1_LATCH*%
X121503500Y-102584000D03*
%TO.P,U1,11,PB3*%
%TO.N,/SNES_1_DATA*%
X121503500Y-103084000D03*
D19*
%TO.P,U1,12,PB7*%
%TO.N,unconnected-(U1-Pad12)*%
X122341000Y-103921500D03*
%TO.P,U1,13,~{RESET}*%
%TO.N,Net-(R3-Pad2)*%
X122841000Y-103921500D03*
%TO.P,U1,14,VCC*%
%TO.N,VCC*%
X123341000Y-103921500D03*
%TO.P,U1,15,GND*%
%TO.N,GND*%
X123841000Y-103921500D03*
%TO.P,U1,16,XTAL2*%
%TO.N,/XOUT*%
X124341000Y-103921500D03*
%TO.P,U1,17,XTAL1*%
%TO.N,/XIN*%
X124841000Y-103921500D03*
%TO.P,U1,18,PD0*%
%TO.N,/NES_1_DATA*%
X125341000Y-103921500D03*
%TO.P,U1,19,PD1*%
%TO.N,/NES_1_LATCH*%
X125841000Y-103921500D03*
%TO.P,U1,20,PD2*%
%TO.N,unconnected-(U1-Pad20)*%
X126341000Y-103921500D03*
%TO.P,U1,21,PD3*%
%TO.N,unconnected-(U1-Pad21)*%
X126841000Y-103921500D03*
%TO.P,U1,22,PD5*%
%TO.N,/NES_1_CLK*%
X127341000Y-103921500D03*
D18*
%TO.P,U1,23,GND*%
%TO.N,GND*%
X128178500Y-103084000D03*
%TO.P,U1,24,AVCC*%
%TO.N,VCC*%
X128178500Y-102584000D03*
%TO.P,U1,25,PD4*%
%TO.N,/NES_2_DATA*%
X128178500Y-102084000D03*
%TO.P,U1,26,PD6*%
%TO.N,/NES_2_LATCH*%
X128178500Y-101584000D03*
%TO.P,U1,27,PD7*%
%TO.N,/NES_2_CLK*%
X128178500Y-101084000D03*
%TO.P,U1,28,PB4*%
%TO.N,/SNES_2_CLK*%
X128178500Y-100584000D03*
%TO.P,U1,29,PB5*%
%TO.N,/SNES_2_LATCH*%
X128178500Y-100084000D03*
%TO.P,U1,30,PB6*%
%TO.N,/SNES_2_DATA*%
X128178500Y-99584000D03*
%TO.P,U1,31,PC6*%
%TO.N,unconnected-(U1-Pad31)*%
X128178500Y-99084000D03*
%TO.P,U1,32,PC7*%
%TO.N,unconnected-(U1-Pad32)*%
X128178500Y-98584000D03*
%TO.P,U1,33,~{HWB}/PE2*%
%TO.N,unconnected-(U1-Pad33)*%
X128178500Y-98084000D03*
D19*
%TO.P,U1,34,VCC*%
%TO.N,VCC*%
X127341000Y-97246500D03*
%TO.P,U1,35,GND*%
%TO.N,GND*%
X126841000Y-97246500D03*
%TO.P,U1,36,PF7*%
%TO.N,unconnected-(U1-Pad36)*%
X126341000Y-97246500D03*
%TO.P,U1,37,PF6*%
%TO.N,unconnected-(U1-Pad37)*%
X125841000Y-97246500D03*
%TO.P,U1,38,PF5*%
%TO.N,unconnected-(U1-Pad38)*%
X125341000Y-97246500D03*
%TO.P,U1,39,PF4*%
%TO.N,unconnected-(U1-Pad39)*%
X124841000Y-97246500D03*
%TO.P,U1,40,PF1*%
%TO.N,unconnected-(U1-Pad40)*%
X124341000Y-97246500D03*
%TO.P,U1,41,PF0*%
%TO.N,unconnected-(U1-Pad41)*%
X123841000Y-97246500D03*
%TO.P,U1,42,AREF*%
%TO.N,unconnected-(U1-Pad42)*%
X123341000Y-97246500D03*
%TO.P,U1,43,GND*%
%TO.N,GND*%
X122841000Y-97246500D03*
%TO.P,U1,44,AVCC*%
%TO.N,VCC*%
X122341000Y-97246500D03*
D20*
%TO.P,U1,45,GND*%
%TO.N,GND*%
X124841000Y-100584000D03*
%TD*%
D21*
%TO.P,R1,1*%
%TO.N,GND*%
X99187000Y-101449000D03*
%TO.P,R1,2*%
%TO.N,Net-(J1-PadB5)*%
X99187000Y-100429000D03*
%TD*%
D22*
%TO.P,C6,1*%
%TO.N,VCC*%
X129794000Y-102584000D03*
%TO.P,C6,2*%
%TO.N,GND*%
X129794000Y-103544000D03*
%TD*%
D23*
%TO.P,Y1,1,1*%
%TO.N,/XIN*%
X125687000Y-108012000D03*
%TO.P,Y1,2,2*%
%TO.N,GND*%
X123487000Y-108012000D03*
%TO.P,Y1,3,3*%
%TO.N,/XOUT*%
X123487000Y-109712000D03*
%TO.P,Y1,4,4*%
%TO.N,GND*%
X125687000Y-109712000D03*
%TD*%
D10*
%TO.P,C1,1*%
%TO.N,GND*%
X126647000Y-106172000D03*
%TO.P,C1,2*%
%TO.N,/XIN*%
X125687000Y-106172000D03*
%TD*%
D24*
%TO.P,C4,1*%
%TO.N,VCC*%
X101523800Y-95946000D03*
%TO.P,C4,2*%
%TO.N,GND*%
X101523800Y-94046000D03*
%TD*%
D25*
%TO.P,C2,1*%
%TO.N,GND*%
X123472000Y-106172000D03*
%TO.P,C2,2*%
%TO.N,/XOUT*%
X124432000Y-106172000D03*
%TD*%
D11*
%TO.P,J3,1,5V*%
%TO.N,VCC*%
X124014000Y-75125000D03*
%TO.P,J3,2,CLK*%
%TO.N,/SNES_2_CLK*%
X120014000Y-75125000D03*
%TO.P,J3,3,LATCH*%
%TO.N,/SNES_2_LATCH*%
X116014000Y-75025000D03*
%TO.P,J3,4,DATA*%
%TO.N,/SNES_2_DATA*%
X112014000Y-75125000D03*
%TO.P,J3,5,NC*%
%TO.N,unconnected-(J3-Pad5)*%
X105514000Y-75125000D03*
%TO.P,J3,6,NC*%
%TO.N,unconnected-(J3-Pad6)*%
X101514000Y-75125000D03*
%TO.P,J3,7,GND*%
%TO.N,GND*%
X97514000Y-75125000D03*
%TD*%
D10*
%TO.P,C5,2*%
%TO.N,GND*%
X126618000Y-95631000D03*
%TO.P,C5,1*%
%TO.N,VCC*%
X127578000Y-95631000D03*
%TD*%
D26*
%TO.P,J1,A1B12,GND*%
%TO.N,GND*%
X96450500Y-95429000D03*
%TO.P,J1,A4B9,VBUS*%
%TO.N,VCC*%
X96450500Y-96229000D03*
D27*
%TO.P,J1,A5,CC1*%
%TO.N,Net-(J1-PadA5)*%
X96450500Y-97429000D03*
%TO.P,J1,A6,DP1*%
%TO.N,/USB_D+*%
X96450500Y-98429000D03*
%TO.P,J1,A7,DN1*%
%TO.N,/USB_D-*%
X96450500Y-98929000D03*
%TO.P,J1,A8,SBU1*%
%TO.N,unconnected-(J1-PadA8)*%
X96450500Y-99929000D03*
D26*
%TO.P,J1,B1A12,GND*%
%TO.N,GND*%
X96450500Y-101929000D03*
%TO.P,J1,B4A9,VBUS*%
%TO.N,VCC*%
X96450500Y-101129000D03*
D27*
%TO.P,J1,B5,CC2*%
%TO.N,Net-(J1-PadB5)*%
X96450500Y-100429000D03*
%TO.P,J1,B6,DP2*%
%TO.N,/USB_D+*%
X96450500Y-99429000D03*
%TO.P,J1,B7,DN2*%
%TO.N,/USB_D-*%
X96450500Y-97929000D03*
%TO.P,J1,B8,SBU2*%
%TO.N,unconnected-(J1-PadB8)*%
X96450500Y-96929000D03*
D28*
%TO.P,J1,S1,SHIELD*%
%TO.N,unconnected-(J1-PadS1)*%
X95535500Y-94359000D03*
%TO.P,J1,S2,SHIELD*%
%TO.N,unconnected-(J1-PadS2)*%
X95535500Y-102999000D03*
%TO.P,J1,S3,SHIELD*%
%TO.N,unconnected-(J1-PadS3)*%
X91355500Y-94359000D03*
%TO.P,J1,S4,SHIELD*%
%TO.N,unconnected-(J1-PadS4)*%
X91355500Y-102999000D03*
%TD*%
D29*
%TO.P,C3,1*%
%TO.N,VCC*%
X99187000Y-96238000D03*
%TO.P,C3,2*%
%TO.N,GND*%
X99187000Y-95278000D03*
%TD*%
D30*
%TO.N,GND*%
X103962200Y-108597750D03*
X127381000Y-106172000D03*
X124688600Y-109702600D03*
X102631200Y-94046000D03*
D31*
X98119000Y-101929000D03*
D30*
X122841000Y-102584000D03*
X125857000Y-110896400D03*
D31*
X108876300Y-101020400D03*
D30*
X122047000Y-108354000D03*
X126618000Y-94894400D03*
X122841000Y-100584000D03*
X122841000Y-98584000D03*
X123317000Y-110894000D03*
X127127000Y-110894000D03*
X122047000Y-110894000D03*
X123670544Y-105039041D03*
X127127000Y-108354000D03*
X126841000Y-98584000D03*
X126841000Y-102584000D03*
X118265000Y-102466200D03*
X127127000Y-109624000D03*
X124841000Y-98584000D03*
X122047000Y-109624000D03*
X127127000Y-107084000D03*
D31*
X98119000Y-95278000D03*
D30*
X122250200Y-107086400D03*
X124841000Y-100584000D03*
X124841000Y-102584000D03*
X124587000Y-110894000D03*
X130584000Y-103544000D03*
X117652800Y-100584000D03*
X118290400Y-96266000D03*
X126841000Y-100584000D03*
X120627200Y-106349800D03*
X123487000Y-107111800D03*
X122758200Y-106172000D03*
X101092000Y-97429000D03*
%TO.N,VCC*%
X102362000Y-104770400D03*
X121587200Y-106349800D03*
X127578000Y-94894400D03*
X103581200Y-110121750D03*
X102631200Y-95946000D03*
X119225000Y-102497377D03*
X130584000Y-102584000D03*
X122341000Y-96266000D03*
D31*
X98119000Y-96238000D03*
D30*
X119151400Y-96266000D03*
%TO.N,Net-(R3-Pad2)*%
X121920000Y-104775000D03*
D31*
X108876300Y-104770400D03*
%TD*%
D32*
%TO.N,/SNES_1_LATCH*%
X116840000Y-106553000D02*
X120809000Y-102584000D01*
X120809000Y-102584000D02*
X121503500Y-102584000D01*
X116840000Y-109042200D02*
X116840000Y-106553000D01*
X105064000Y-120809000D02*
X105073200Y-120809000D01*
X105073200Y-120809000D02*
X116840000Y-109042200D01*
%TO.N,/SNES_1_DATA*%
X109064000Y-120729800D02*
X109064000Y-120746600D01*
X119380000Y-110413800D02*
X109064000Y-120729800D01*
X120918600Y-103084000D02*
X119380000Y-104622600D01*
X119380000Y-104622600D02*
X119380000Y-110413800D01*
X121503500Y-103084000D02*
X120918600Y-103084000D01*
D33*
%TO.N,GND*%
X99187000Y-95278000D02*
X99667000Y-95278000D01*
X99667000Y-95278000D02*
X100899000Y-94046000D01*
X100899000Y-94046000D02*
X101523800Y-94046000D01*
D34*
X99187000Y-101449000D02*
X98599000Y-101449000D01*
X98599000Y-101449000D02*
X98119000Y-101929000D01*
D35*
%TO.N,VCC*%
X103122000Y-104770400D02*
X102362000Y-104770400D01*
%TO.N,Net-(R3-Pad2)*%
X105922500Y-104770400D02*
X104142000Y-104770400D01*
D34*
X122841000Y-104406599D02*
X122841000Y-103921500D01*
X122472599Y-104775000D02*
X122841000Y-104406599D01*
X121920000Y-104775000D02*
X122472599Y-104775000D01*
D32*
%TO.N,/NES_2_CLK*%
X132842000Y-98806000D02*
X137487000Y-98806000D01*
X130564000Y-101084000D02*
X132842000Y-98806000D01*
X128178500Y-101084000D02*
X130564000Y-101084000D01*
X137487000Y-98806000D02*
X147168000Y-89125000D01*
D35*
%TO.N,GND*%
X118290400Y-97028000D02*
X118290400Y-96266000D01*
D33*
X96450500Y-101929000D02*
X98119000Y-101929000D01*
D32*
X121503500Y-100084000D02*
X119794400Y-100084000D01*
D34*
X126841000Y-96361000D02*
X126618000Y-96138000D01*
D33*
X123487000Y-108012000D02*
X123487000Y-107111800D01*
X97558800Y-95278000D02*
X97407800Y-95429000D01*
D35*
X122758200Y-106172000D02*
X123472000Y-106172000D01*
D33*
X101523800Y-94046000D02*
X102631200Y-94046000D01*
D32*
X118874600Y-99974400D02*
X118265000Y-100584000D01*
D34*
X129198000Y-103544000D02*
X129794000Y-103544000D01*
X100332000Y-97429000D02*
X101092000Y-97429000D01*
D35*
X117652800Y-100584000D02*
X118265000Y-100584000D01*
X108876300Y-101020400D02*
X105922500Y-101020400D01*
D33*
X124688600Y-109702600D02*
X125677600Y-109702600D01*
D35*
X126618000Y-95631000D02*
X126618000Y-94894400D01*
X120627200Y-106349800D02*
X120627200Y-105587800D01*
D34*
X126841000Y-97246500D02*
X126841000Y-96361000D01*
X123841000Y-104868585D02*
X123841000Y-103921500D01*
D36*
X122841000Y-97246500D02*
X122841000Y-98584000D01*
D33*
X125677600Y-109702600D02*
X125687000Y-109712000D01*
D35*
X103098700Y-108597750D02*
X103962200Y-108597750D01*
D33*
X98119000Y-95278000D02*
X97558800Y-95278000D01*
D35*
X118265000Y-101727000D02*
X118265000Y-102466200D01*
X111922500Y-101020400D02*
X108876300Y-101020400D01*
X126647000Y-106172000D02*
X127381000Y-106172000D01*
D34*
X128738000Y-103084000D02*
X129198000Y-103544000D01*
D33*
X97407800Y-95429000D02*
X96450500Y-95429000D01*
D35*
X129794000Y-103544000D02*
X130584000Y-103544000D01*
D33*
X98119000Y-95278000D02*
X99187000Y-95278000D01*
D34*
X126618000Y-96138000D02*
X126618000Y-95631000D01*
X128178500Y-103084000D02*
X128738000Y-103084000D01*
X123670544Y-105039041D02*
X123841000Y-104868585D01*
D32*
X119794400Y-100084000D02*
X119684800Y-99974400D01*
X119684800Y-99974400D02*
X118874600Y-99974400D01*
D34*
%TO.N,Net-(D1-Pad2)*%
X101801200Y-109611750D02*
X101523700Y-109334250D01*
X101523700Y-109334250D02*
X101523700Y-108597750D01*
X101801200Y-110121750D02*
X101801200Y-109611750D01*
D33*
%TO.N,VCC*%
X96459500Y-96238000D02*
X96450500Y-96229000D01*
D35*
X119225000Y-101727000D02*
X119225000Y-102497377D01*
D34*
X119634000Y-97028000D02*
X119250400Y-97028000D01*
D35*
X95317499Y-100778499D02*
X94488000Y-99949000D01*
X95332937Y-96579501D02*
X95683438Y-96229000D01*
D33*
X99187000Y-96238000D02*
X98122800Y-96238000D01*
D34*
X128178500Y-102584000D02*
X129794000Y-102584000D01*
X127341000Y-97246500D02*
X127341000Y-96433000D01*
D32*
X120404000Y-101084000D02*
X121503500Y-101084000D01*
D35*
X96450500Y-101129000D02*
X95683438Y-101129000D01*
X95683438Y-96229000D02*
X96450500Y-96229000D01*
D34*
X120523000Y-98298000D02*
X120523000Y-97917000D01*
D35*
X127578000Y-94894400D02*
X127578000Y-95631000D01*
D34*
X123341000Y-104585110D02*
X122338310Y-105587800D01*
D35*
X103581200Y-110121750D02*
X102821200Y-110121750D01*
X94488000Y-97409000D02*
X95317499Y-96579501D01*
D33*
X98122800Y-96238000D02*
X96459500Y-96238000D01*
D35*
X95317499Y-96579501D02*
X95332937Y-96579501D01*
D33*
X99187000Y-96238000D02*
X100002400Y-96238000D01*
D34*
X122338310Y-105587800D02*
X121587200Y-105587800D01*
X127578000Y-96196000D02*
X127578000Y-95631000D01*
D35*
X129794000Y-102584000D02*
X130584000Y-102584000D01*
D36*
X122341000Y-97246500D02*
X122341000Y-96266000D01*
D35*
X94488000Y-99949000D02*
X94488000Y-97409000D01*
D34*
X120809000Y-98584000D02*
X120523000Y-98298000D01*
D33*
X100002400Y-96238000D02*
X100294400Y-95946000D01*
D34*
X127341000Y-96433000D02*
X127578000Y-96196000D01*
X123341000Y-103921500D02*
X123341000Y-104585110D01*
X121503500Y-98584000D02*
X120809000Y-98584000D01*
D35*
X121587200Y-106349800D02*
X121587200Y-105587800D01*
X95683438Y-101129000D02*
X95332937Y-100778499D01*
X95332937Y-100778499D02*
X95317499Y-100778499D01*
D33*
X101523800Y-95946000D02*
X102631200Y-95946000D01*
D34*
X120523000Y-97917000D02*
X119634000Y-97028000D01*
D32*
X119761000Y-101727000D02*
X119225000Y-101727000D01*
X119761000Y-101727000D02*
X120404000Y-101084000D01*
D33*
X100294400Y-95946000D02*
X101523800Y-95946000D01*
D35*
X119250400Y-97028000D02*
X119250400Y-96365000D01*
D34*
%TO.N,Net-(J1-PadA5)*%
X99312000Y-97429000D02*
X96450500Y-97429000D01*
D37*
%TO.N,/USB_D+*%
X97370200Y-99429000D02*
X96450500Y-99429000D01*
X97890330Y-98908870D02*
X97370200Y-99429000D01*
X96450500Y-99429000D02*
X95619000Y-99429000D01*
X118235000Y-99314000D02*
X117829870Y-98908870D01*
X95377000Y-99187000D02*
X95377000Y-98667760D01*
X95619000Y-99429000D02*
X95377000Y-99187000D01*
X95615760Y-98429000D02*
X96450500Y-98429000D01*
X117829870Y-98908870D02*
X97890330Y-98908870D01*
X95377000Y-98667760D02*
X95615760Y-98429000D01*
%TO.N,/USB_D-*%
X97536000Y-98171000D02*
X97294000Y-97929000D01*
X117829870Y-98576130D02*
X97560130Y-98576130D01*
X97294000Y-97929000D02*
X96450500Y-97929000D01*
X97560130Y-98576130D02*
X97536000Y-98552000D01*
X118235000Y-98171000D02*
X117829870Y-98576130D01*
X97536000Y-98552000D02*
X97536000Y-98171000D01*
X97536000Y-98679000D02*
X97536000Y-98552000D01*
X97286000Y-98929000D02*
X97536000Y-98679000D01*
X96450500Y-98929000D02*
X97286000Y-98929000D01*
D34*
%TO.N,Net-(J1-PadB5)*%
X96450500Y-100429000D02*
X99187000Y-100429000D01*
D35*
%TO.N,Net-(R3-Pad2)*%
X108825500Y-104770400D02*
X111922500Y-104770400D01*
X105922500Y-104770400D02*
X108825500Y-104770400D01*
D32*
%TO.N,/XIN*%
X124841000Y-104927400D02*
X125687000Y-105773400D01*
X125687000Y-105773400D02*
X125687000Y-108012000D01*
X124841000Y-103921500D02*
X124841000Y-104927400D01*
%TO.N,Net-(C10-Pad1)*%
X121503500Y-100584000D02*
X119225000Y-100584000D01*
%TO.N,/SNES_1_CLK*%
X121503500Y-102084000D02*
X120699400Y-102084000D01*
X118059200Y-103708200D02*
X101064000Y-120703400D01*
X101064000Y-120709000D02*
X102074400Y-120709000D01*
X120699400Y-102084000D02*
X119075200Y-103708200D01*
X119075200Y-103708200D02*
X118059200Y-103708200D01*
X101064000Y-120703400D02*
X101064000Y-120709000D01*
%TO.N,/SNES_2_CLK*%
X133477000Y-96901000D02*
X129794000Y-100584000D01*
X133477000Y-88588000D02*
X133477000Y-96901000D01*
X120014000Y-75125000D02*
X133477000Y-88588000D01*
X129794000Y-100584000D02*
X128178500Y-100584000D01*
%TO.N,/SNES_2_LATCH*%
X129151000Y-100084000D02*
X128178500Y-100084000D01*
X131191000Y-90202000D02*
X131191000Y-98044000D01*
X131191000Y-98044000D02*
X129151000Y-100084000D01*
X116014000Y-75025000D02*
X131191000Y-90202000D01*
%TO.N,/SNES_2_DATA*%
X128762000Y-99584000D02*
X129032000Y-99314000D01*
X129032000Y-99314000D02*
X129032000Y-92143000D01*
X129032000Y-92143000D02*
X112014000Y-75125000D01*
X128178500Y-99584000D02*
X128762000Y-99584000D01*
%TO.N,/NES_1_DATA*%
X142900000Y-106709000D02*
X129569000Y-106709000D01*
X129569000Y-106709000D02*
X128019000Y-105159000D01*
X125341000Y-104537338D02*
X125341000Y-103921500D01*
X125962662Y-105159000D02*
X125341000Y-104537338D01*
X128019000Y-105159000D02*
X125962662Y-105159000D01*
%TO.N,/NES_1_LATCH*%
X126128348Y-104759000D02*
X145141000Y-104759000D01*
X145141000Y-104759000D02*
X147091000Y-106709000D01*
X125841000Y-103921500D02*
X125841000Y-104471652D01*
X125841000Y-104471652D02*
X126128348Y-104759000D01*
%TO.N,/NES_1_CLK*%
X132207000Y-103378000D02*
X147951000Y-103378000D01*
X127341000Y-103921500D02*
X128432500Y-103921500D01*
X128432500Y-103921500D02*
X128651000Y-104140000D01*
X147951000Y-103378000D02*
X151282000Y-106709000D01*
X131445000Y-104140000D02*
X132207000Y-103378000D01*
X128651000Y-104140000D02*
X131445000Y-104140000D01*
%TO.N,/NES_2_DATA*%
X142694000Y-101981000D02*
X155550000Y-89125000D01*
X129056000Y-102084000D02*
X129159000Y-101981000D01*
X128178500Y-102084000D02*
X129056000Y-102084000D01*
X129159000Y-101981000D02*
X142694000Y-101981000D01*
%TO.N,/NES_2_LATCH*%
X131334000Y-101584000D02*
X132588000Y-100330000D01*
X132588000Y-100330000D02*
X140154000Y-100330000D01*
X128178500Y-101584000D02*
X131334000Y-101584000D01*
X140154000Y-100330000D02*
X151359000Y-89125000D01*
%TO.N,/XOUT*%
X123587000Y-109712000D02*
X123487000Y-109712000D01*
X124434600Y-105689400D02*
X124434600Y-108864400D01*
X124434600Y-108864400D02*
X123587000Y-109712000D01*
X124341000Y-105595800D02*
X124434600Y-105689400D01*
X124341000Y-103921500D02*
X124341000Y-105595800D01*
%TO.N,Net-(R6-Pad2)*%
X121503500Y-99084000D02*
X120477686Y-99084000D01*
X119564686Y-98171000D02*
X119255000Y-98171000D01*
X120477686Y-99084000D02*
X119564686Y-98171000D01*
%TO.N,Net-(R5-Pad2)*%
X121503500Y-99584000D02*
X120158000Y-99584000D01*
X119888000Y-99314000D02*
X119255000Y-99314000D01*
X120158000Y-99584000D02*
X119888000Y-99314000D01*
%TD*%
%TA.AperFunction,Conductor*%
%TO.N,GND*%
G36*
X122801921Y-106700002D02*
G01*
X122848414Y-106753658D01*
X122859800Y-106806001D01*
X122859799Y-107011201D01*
X122839797Y-107079321D01*
X122786141Y-107125814D01*
X122733799Y-107137200D01*
X122529600Y-107137200D01*
X122529600Y-110540800D01*
X122636239Y-110540800D01*
X122684458Y-110550392D01*
X122687696Y-110551733D01*
X122687698Y-110551733D01*
X122687699Y-110551734D01*
X122761933Y-110566500D01*
X124212066Y-110566499D01*
X124212069Y-110566498D01*
X124212073Y-110566498D01*
X124241514Y-110560641D01*
X124286301Y-110551734D01*
X124286305Y-110551730D01*
X124289547Y-110550389D01*
X124337761Y-110540800D01*
X124837571Y-110540800D01*
X124885790Y-110550392D01*
X124887892Y-110551262D01*
X124961980Y-110565999D01*
X125442732Y-110565999D01*
X125483607Y-110543679D01*
X125510390Y-110540800D01*
X125863610Y-110540800D01*
X125931731Y-110560802D01*
X125938180Y-110565999D01*
X126412014Y-110565999D01*
X126412022Y-110565998D01*
X126486103Y-110551263D01*
X126488212Y-110550390D01*
X126536428Y-110540800D01*
X126644400Y-110540800D01*
X126644400Y-107127634D01*
X126621879Y-107086392D01*
X126619000Y-107059609D01*
X126619000Y-106861999D01*
X126639002Y-106793878D01*
X126692658Y-106747385D01*
X126745000Y-106735999D01*
X126818004Y-106735999D01*
X126910269Y-106721387D01*
X126964544Y-106693733D01*
X127021747Y-106680000D01*
X127382000Y-106680000D01*
X127450121Y-106700002D01*
X127496614Y-106753658D01*
X127508000Y-106806000D01*
X127508000Y-111126000D01*
X127487998Y-111194121D01*
X127434342Y-111240614D01*
X127382000Y-111252000D01*
X121792000Y-111252000D01*
X121723879Y-111231998D01*
X121677386Y-111178342D01*
X121666000Y-111126000D01*
X121666000Y-107240190D01*
X121686002Y-107172069D01*
X121702905Y-107151095D01*
X122137095Y-106716905D01*
X122199407Y-106682879D01*
X122226190Y-106680000D01*
X122733800Y-106680000D01*
X122801921Y-106700002D01*
G37*
%TD.AperFunction*%
%TD*%
M02*
