%TF.GenerationSoftware,KiCad,Pcbnew,(6.0.10)*%
%TF.CreationDate,2023-01-18T21:36:02-05:00*%
%TF.ProjectId,32U4_NES_SNES_adapter,33325534-5f4e-4455-935f-534e45535f61,rev?*%
%TF.SameCoordinates,Original*%
%TF.FileFunction,Legend,Bot*%
%TF.FilePolarity,Positive*%
%FSLAX46Y46*%
G04 Gerber Fmt 4.6, Leading zero omitted, Abs format (unit mm)*
G04 Created by KiCad (PCBNEW (6.0.10)) date 2023-01-18 21:36:02*
%MOMM*%
%LPD*%
G01*
G04 APERTURE LIST*
%ADD10C,3.500000*%
%ADD11C,3.200000*%
%ADD12C,2.700000*%
%ADD13C,5.600000*%
%ADD14C,0.700000*%
%ADD15O,2.100000X1.050000*%
G04 APERTURE END LIST*
%LPC*%
D10*
%TO.C,J2*%
X97064000Y-120709000D03*
X101064000Y-120709000D03*
X105064000Y-120809000D03*
X109064000Y-120709000D03*
X115564000Y-120709000D03*
X119564000Y-120709000D03*
X123564000Y-120709000D03*
%TD*%
D11*
%TO.C,J5*%
X138975000Y-75125000D03*
X159475000Y-75125000D03*
D12*
X147168000Y-86125000D03*
X151359000Y-86125000D03*
X155550000Y-86125000D03*
X155550000Y-89125000D03*
X151359000Y-89125000D03*
X147168000Y-89125000D03*
X142977000Y-89125000D03*
%TD*%
D13*
%TO.C,H3*%
X155550000Y-97917000D03*
%TD*%
D11*
%TO.C,J4*%
X138975000Y-120709000D03*
X159475000Y-120709000D03*
D12*
X151282000Y-109709000D03*
X147091000Y-109709000D03*
X142900000Y-109709000D03*
X142900000Y-106709000D03*
X147091000Y-106709000D03*
X151282000Y-106709000D03*
X155473000Y-106709000D03*
%TD*%
D13*
%TO.C,H1*%
X93895500Y-87249000D03*
%TD*%
%TO.C,H2*%
X93895500Y-110109000D03*
%TD*%
D10*
%TO.C,J3*%
X124014000Y-75125000D03*
X120014000Y-75125000D03*
X116014000Y-75025000D03*
X112014000Y-75125000D03*
X105514000Y-75125000D03*
X101514000Y-75125000D03*
X97514000Y-75125000D03*
%TD*%
D14*
%TO.C,J1*%
X95005500Y-101569000D03*
X95005500Y-95789000D03*
D15*
X95535500Y-94359000D03*
X95535500Y-102999000D03*
X91355500Y-94359000D03*
X91355500Y-102999000D03*
%TD*%
M02*
