%TF.GenerationSoftware,KiCad,Pcbnew,(6.0.10)*%
%TF.CreationDate,2023-01-18T21:36:02-05:00*%
%TF.ProjectId,32U4_NES_SNES_adapter,33325534-5f4e-4455-935f-534e45535f61,rev?*%
%TF.SameCoordinates,Original*%
%TF.FileFunction,Copper,L2,Inr*%
%TF.FilePolarity,Positive*%
%FSLAX46Y46*%
G04 Gerber Fmt 4.6, Leading zero omitted, Abs format (unit mm)*
G04 Created by KiCad (PCBNEW (6.0.10)) date 2023-01-18 21:36:02*
%MOMM*%
%LPD*%
G01*
G04 APERTURE LIST*
%TA.AperFunction,ComponentPad*%
%ADD10C,3.500000*%
%TD*%
%TA.AperFunction,ComponentPad*%
%ADD11C,2.700000*%
%TD*%
%TA.AperFunction,ComponentPad*%
%ADD12C,5.600000*%
%TD*%
%TA.AperFunction,ComponentPad*%
%ADD13O,2.100000X1.050000*%
%TD*%
%TA.AperFunction,ViaPad*%
%ADD14C,0.800000*%
%TD*%
%TA.AperFunction,ViaPad*%
%ADD15C,0.600000*%
%TD*%
G04 APERTURE END LIST*
D10*
%TO.N,VCC*%
%TO.C,J2*%
X97064000Y-120709000D03*
%TO.N,/SNES_1_CLK*%
X101064000Y-120709000D03*
%TO.N,/SNES_1_LATCH*%
X105064000Y-120809000D03*
%TO.N,/SNES_1_DATA*%
X109064000Y-120709000D03*
%TO.N,unconnected-(J2-Pad5)*%
X115564000Y-120709000D03*
%TO.N,unconnected-(J2-Pad6)*%
X119564000Y-120709000D03*
%TO.N,GND*%
X123564000Y-120709000D03*
%TD*%
D11*
%TO.N,VCC*%
%TO.C,J5*%
X147168000Y-86125000D03*
%TO.N,unconnected-(J5-Pad2)*%
X151359000Y-86125000D03*
%TO.N,unconnected-(J5-Pad3)*%
X155550000Y-86125000D03*
%TO.N,/NES_2_DATA*%
X155550000Y-89125000D03*
%TO.N,/NES_2_LATCH*%
X151359000Y-89125000D03*
%TO.N,/NES_2_CLK*%
X147168000Y-89125000D03*
%TO.N,GND*%
X142977000Y-89125000D03*
%TD*%
D12*
%TO.N,GND*%
%TO.C,H3*%
X155550000Y-97917000D03*
%TD*%
D11*
%TO.N,VCC*%
%TO.C,J4*%
X151282000Y-109709000D03*
%TO.N,unconnected-(J4-Pad2)*%
X147091000Y-109709000D03*
%TO.N,unconnected-(J4-Pad3)*%
X142900000Y-109709000D03*
%TO.N,/NES_1_DATA*%
X142900000Y-106709000D03*
%TO.N,/NES_1_LATCH*%
X147091000Y-106709000D03*
%TO.N,/NES_1_CLK*%
X151282000Y-106709000D03*
%TO.N,GND*%
X155473000Y-106709000D03*
%TD*%
D12*
%TO.N,GND*%
%TO.C,H1*%
X93895500Y-87249000D03*
%TD*%
%TO.N,GND*%
%TO.C,H2*%
X93895500Y-110109000D03*
%TD*%
D10*
%TO.N,VCC*%
%TO.C,J3*%
X124014000Y-75125000D03*
%TO.N,/SNES_2_CLK*%
X120014000Y-75125000D03*
%TO.N,/SNES_2_LATCH*%
X116014000Y-75025000D03*
%TO.N,/SNES_2_DATA*%
X112014000Y-75125000D03*
%TO.N,unconnected-(J3-Pad5)*%
X105514000Y-75125000D03*
%TO.N,unconnected-(J3-Pad6)*%
X101514000Y-75125000D03*
%TO.N,GND*%
X97514000Y-75125000D03*
%TD*%
D13*
%TO.N,unconnected-(J1-PadS1)*%
%TO.C,J1*%
X95535500Y-94359000D03*
%TO.N,unconnected-(J1-PadS2)*%
X95535500Y-102999000D03*
%TO.N,unconnected-(J1-PadS3)*%
X91355500Y-94359000D03*
%TO.N,unconnected-(J1-PadS4)*%
X91355500Y-102999000D03*
%TD*%
D14*
%TO.N,Net-(R3-Pad2)*%
X108876300Y-104770400D03*
D15*
X120015000Y-104775000D03*
%TO.N,VCC*%
X121587200Y-106349800D03*
D14*
%TO.N,GND*%
X108876300Y-101020400D03*
D15*
X103962200Y-108204000D03*
X127381000Y-106172000D03*
X124688600Y-109702600D03*
X102631200Y-94046000D03*
D14*
X98119000Y-101929000D03*
D15*
X122841000Y-102584000D03*
X125857000Y-110896400D03*
X122047000Y-108354000D03*
X126618000Y-94894400D03*
X122841000Y-100584000D03*
X122841000Y-98584000D03*
X123317000Y-110894000D03*
X127127000Y-110894000D03*
X122047000Y-110894000D03*
X123670544Y-105039041D03*
X127127000Y-108354000D03*
X126841000Y-98584000D03*
X126841000Y-102584000D03*
X118265000Y-102466200D03*
X127127000Y-109624000D03*
X124841000Y-98584000D03*
X122047000Y-109624000D03*
X127127000Y-107084000D03*
D14*
X98119000Y-95278000D03*
D15*
X122250200Y-107086400D03*
X124841000Y-100584000D03*
X124841000Y-102584000D03*
X124587000Y-110894000D03*
X130584000Y-103544000D03*
X117652800Y-100584000D03*
X118290400Y-96266000D03*
X126841000Y-100584000D03*
X120627200Y-106349800D03*
X123487000Y-107111800D03*
X122758200Y-106172000D03*
X101092000Y-97429000D03*
%TO.N,VCC*%
X119456200Y-108229400D03*
X127578000Y-94894400D03*
X103581200Y-109728000D03*
X102631200Y-95946000D03*
X119225000Y-102497377D03*
X130584000Y-102584000D03*
X122341000Y-96266000D03*
D14*
X98119000Y-96238000D03*
D15*
X119151400Y-96266000D03*
%TD*%
%TA.AperFunction,Conductor*%
%TO.N,GND*%
G36*
X164026121Y-68600002D02*
G01*
X164072614Y-68653658D01*
X164084000Y-68706000D01*
X164084000Y-127001000D01*
X164063998Y-127069121D01*
X164010342Y-127115614D01*
X163958000Y-127127000D01*
X92250351Y-127127000D01*
X92182230Y-127106998D01*
X92166061Y-127094655D01*
X89703710Y-124878539D01*
X89666457Y-124818101D01*
X89662000Y-124784884D01*
X89662000Y-120645876D01*
X95055372Y-120645876D01*
X95057969Y-120711966D01*
X95065248Y-120897242D01*
X95066516Y-120929524D01*
X95117516Y-121208772D01*
X95147478Y-121298580D01*
X95201906Y-121461720D01*
X95207353Y-121478048D01*
X95209346Y-121482036D01*
X95292954Y-121649361D01*
X95334236Y-121731980D01*
X95495631Y-121965500D01*
X95688320Y-122173950D01*
X95691774Y-122176762D01*
X95905001Y-122350356D01*
X95905005Y-122350359D01*
X95908458Y-122353170D01*
X96151652Y-122499585D01*
X96155747Y-122501319D01*
X96155749Y-122501320D01*
X96387811Y-122599585D01*
X96413049Y-122610272D01*
X96417342Y-122611410D01*
X96417347Y-122611412D01*
X96560898Y-122649473D01*
X96687435Y-122683024D01*
X96969334Y-122716389D01*
X97253122Y-122709701D01*
X97257517Y-122708969D01*
X97257522Y-122708969D01*
X97528734Y-122663827D01*
X97528738Y-122663826D01*
X97533136Y-122663094D01*
X97741215Y-122597287D01*
X97799544Y-122578840D01*
X97799546Y-122578839D01*
X97803790Y-122577497D01*
X97807801Y-122575571D01*
X97807806Y-122575569D01*
X98055665Y-122456549D01*
X98055666Y-122456548D01*
X98059684Y-122454619D01*
X98215724Y-122350356D01*
X98292002Y-122299389D01*
X98292006Y-122299386D01*
X98295710Y-122296911D01*
X98299027Y-122293940D01*
X98299031Y-122293937D01*
X98503845Y-122110490D01*
X98507161Y-122107520D01*
X98689817Y-121890225D01*
X98769654Y-121762210D01*
X98837669Y-121653152D01*
X98837671Y-121653149D01*
X98840033Y-121649361D01*
X98950259Y-121400036D01*
X98996095Y-121345823D01*
X99063968Y-121324995D01*
X99132326Y-121344169D01*
X99179467Y-121397256D01*
X99185020Y-121411108D01*
X99207353Y-121478048D01*
X99209346Y-121482036D01*
X99292954Y-121649361D01*
X99334236Y-121731980D01*
X99495631Y-121965500D01*
X99688320Y-122173950D01*
X99691774Y-122176762D01*
X99905001Y-122350356D01*
X99905005Y-122350359D01*
X99908458Y-122353170D01*
X100151652Y-122499585D01*
X100155747Y-122501319D01*
X100155749Y-122501320D01*
X100387811Y-122599585D01*
X100413049Y-122610272D01*
X100417342Y-122611410D01*
X100417347Y-122611412D01*
X100560898Y-122649473D01*
X100687435Y-122683024D01*
X100969334Y-122716389D01*
X101253122Y-122709701D01*
X101257517Y-122708969D01*
X101257522Y-122708969D01*
X101528734Y-122663827D01*
X101528738Y-122663826D01*
X101533136Y-122663094D01*
X101741215Y-122597287D01*
X101799544Y-122578840D01*
X101799546Y-122578839D01*
X101803790Y-122577497D01*
X101807801Y-122575571D01*
X101807806Y-122575569D01*
X102055665Y-122456549D01*
X102055666Y-122456548D01*
X102059684Y-122454619D01*
X102215724Y-122350356D01*
X102292002Y-122299389D01*
X102292006Y-122299386D01*
X102295710Y-122296911D01*
X102299027Y-122293940D01*
X102299031Y-122293937D01*
X102503845Y-122110490D01*
X102507161Y-122107520D01*
X102689817Y-121890225D01*
X102769654Y-121762210D01*
X102837669Y-121653152D01*
X102837671Y-121653149D01*
X102840033Y-121649361D01*
X102931244Y-121443045D01*
X102977081Y-121388832D01*
X103044954Y-121368004D01*
X103113312Y-121387178D01*
X103160453Y-121440265D01*
X103166007Y-121454119D01*
X103175321Y-121482036D01*
X103207353Y-121578048D01*
X103248056Y-121659507D01*
X103297403Y-121758265D01*
X103334236Y-121831980D01*
X103495631Y-122065500D01*
X103576511Y-122152996D01*
X103677421Y-122262159D01*
X103688320Y-122273950D01*
X103691774Y-122276762D01*
X103905001Y-122450356D01*
X103905005Y-122450359D01*
X103908458Y-122453170D01*
X104151652Y-122599585D01*
X104155747Y-122601319D01*
X104155749Y-122601320D01*
X104349936Y-122683547D01*
X104413049Y-122710272D01*
X104417342Y-122711410D01*
X104417347Y-122711412D01*
X104560898Y-122749473D01*
X104687435Y-122783024D01*
X104969334Y-122816389D01*
X105253122Y-122809701D01*
X105257517Y-122808969D01*
X105257522Y-122808969D01*
X105528734Y-122763827D01*
X105528738Y-122763826D01*
X105533136Y-122763094D01*
X105710887Y-122706878D01*
X105799544Y-122678840D01*
X105799546Y-122678839D01*
X105803790Y-122677497D01*
X105807801Y-122675571D01*
X105807806Y-122675569D01*
X106055665Y-122556549D01*
X106055666Y-122556548D01*
X106059684Y-122554619D01*
X106215724Y-122450356D01*
X106292002Y-122399389D01*
X106292006Y-122399386D01*
X106295710Y-122396911D01*
X106299027Y-122393940D01*
X106299031Y-122393937D01*
X106503845Y-122210490D01*
X106507161Y-122207520D01*
X106689817Y-121990225D01*
X106707521Y-121961838D01*
X106837669Y-121753152D01*
X106837671Y-121753149D01*
X106840033Y-121749361D01*
X106846100Y-121735639D01*
X106892407Y-121630893D01*
X106954813Y-121489734D01*
X106959302Y-121473819D01*
X106961113Y-121467396D01*
X106998855Y-121407263D01*
X107063116Y-121377080D01*
X107133494Y-121386430D01*
X107187644Y-121432346D01*
X107201905Y-121461720D01*
X107203799Y-121467396D01*
X107207353Y-121478048D01*
X107209346Y-121482036D01*
X107292954Y-121649361D01*
X107334236Y-121731980D01*
X107495631Y-121965500D01*
X107688320Y-122173950D01*
X107691774Y-122176762D01*
X107905001Y-122350356D01*
X107905005Y-122350359D01*
X107908458Y-122353170D01*
X108151652Y-122499585D01*
X108155747Y-122501319D01*
X108155749Y-122501320D01*
X108387811Y-122599585D01*
X108413049Y-122610272D01*
X108417342Y-122611410D01*
X108417347Y-122611412D01*
X108560898Y-122649473D01*
X108687435Y-122683024D01*
X108969334Y-122716389D01*
X109253122Y-122709701D01*
X109257517Y-122708969D01*
X109257522Y-122708969D01*
X109528734Y-122663827D01*
X109528738Y-122663826D01*
X109533136Y-122663094D01*
X109741215Y-122597287D01*
X109799544Y-122578840D01*
X109799546Y-122578839D01*
X109803790Y-122577497D01*
X109807801Y-122575571D01*
X109807806Y-122575569D01*
X110055665Y-122456549D01*
X110055666Y-122456548D01*
X110059684Y-122454619D01*
X110215724Y-122350356D01*
X110292002Y-122299389D01*
X110292006Y-122299386D01*
X110295710Y-122296911D01*
X110299027Y-122293940D01*
X110299031Y-122293937D01*
X110503845Y-122110490D01*
X110507161Y-122107520D01*
X110689817Y-121890225D01*
X110769654Y-121762210D01*
X110837669Y-121653152D01*
X110837671Y-121653149D01*
X110840033Y-121649361D01*
X110954813Y-121389734D01*
X111031866Y-121116525D01*
X111037657Y-121073408D01*
X111069227Y-120838367D01*
X111069228Y-120838359D01*
X111069654Y-120835185D01*
X111072438Y-120746617D01*
X111073519Y-120712222D01*
X111073519Y-120712217D01*
X111073620Y-120709000D01*
X111069151Y-120645876D01*
X113555372Y-120645876D01*
X113557969Y-120711966D01*
X113565248Y-120897242D01*
X113566516Y-120929524D01*
X113617516Y-121208772D01*
X113647478Y-121298580D01*
X113701906Y-121461720D01*
X113707353Y-121478048D01*
X113709346Y-121482036D01*
X113792954Y-121649361D01*
X113834236Y-121731980D01*
X113995631Y-121965500D01*
X114188320Y-122173950D01*
X114191774Y-122176762D01*
X114405001Y-122350356D01*
X114405005Y-122350359D01*
X114408458Y-122353170D01*
X114651652Y-122499585D01*
X114655747Y-122501319D01*
X114655749Y-122501320D01*
X114887811Y-122599585D01*
X114913049Y-122610272D01*
X114917342Y-122611410D01*
X114917347Y-122611412D01*
X115060898Y-122649473D01*
X115187435Y-122683024D01*
X115469334Y-122716389D01*
X115753122Y-122709701D01*
X115757517Y-122708969D01*
X115757522Y-122708969D01*
X116028734Y-122663827D01*
X116028738Y-122663826D01*
X116033136Y-122663094D01*
X116241215Y-122597287D01*
X116299544Y-122578840D01*
X116299546Y-122578839D01*
X116303790Y-122577497D01*
X116307801Y-122575571D01*
X116307806Y-122575569D01*
X116555665Y-122456549D01*
X116555666Y-122456548D01*
X116559684Y-122454619D01*
X116715724Y-122350356D01*
X116792002Y-122299389D01*
X116792006Y-122299386D01*
X116795710Y-122296911D01*
X116799027Y-122293940D01*
X116799031Y-122293937D01*
X117003845Y-122110490D01*
X117007161Y-122107520D01*
X117189817Y-121890225D01*
X117269654Y-121762210D01*
X117337669Y-121653152D01*
X117337671Y-121653149D01*
X117340033Y-121649361D01*
X117450259Y-121400036D01*
X117496095Y-121345823D01*
X117563968Y-121324995D01*
X117632326Y-121344169D01*
X117679467Y-121397256D01*
X117685020Y-121411108D01*
X117707353Y-121478048D01*
X117709346Y-121482036D01*
X117792954Y-121649361D01*
X117834236Y-121731980D01*
X117995631Y-121965500D01*
X118188320Y-122173950D01*
X118191774Y-122176762D01*
X118405001Y-122350356D01*
X118405005Y-122350359D01*
X118408458Y-122353170D01*
X118651652Y-122499585D01*
X118655747Y-122501319D01*
X118655749Y-122501320D01*
X118887811Y-122599585D01*
X118913049Y-122610272D01*
X118917342Y-122611410D01*
X118917347Y-122611412D01*
X119060898Y-122649473D01*
X119187435Y-122683024D01*
X119469334Y-122716389D01*
X119753122Y-122709701D01*
X119757517Y-122708969D01*
X119757522Y-122708969D01*
X120028734Y-122663827D01*
X120028738Y-122663826D01*
X120033136Y-122663094D01*
X120241215Y-122597287D01*
X120299544Y-122578840D01*
X120299546Y-122578839D01*
X120303790Y-122577497D01*
X120307801Y-122575571D01*
X120307806Y-122575569D01*
X120511293Y-122477856D01*
X122160601Y-122477856D01*
X122167059Y-122487216D01*
X122183361Y-122501512D01*
X122189901Y-122506530D01*
X122429144Y-122666387D01*
X122436281Y-122670508D01*
X122694349Y-122797772D01*
X122701953Y-122800922D01*
X122974420Y-122893412D01*
X122982383Y-122895546D01*
X123264600Y-122951683D01*
X123272751Y-122952756D01*
X123559881Y-122971575D01*
X123568119Y-122971575D01*
X123855249Y-122952756D01*
X123863400Y-122951683D01*
X124145617Y-122895546D01*
X124153580Y-122893412D01*
X124426047Y-122800922D01*
X124433651Y-122797772D01*
X124691719Y-122670508D01*
X124698856Y-122666387D01*
X124938099Y-122506530D01*
X124944639Y-122501512D01*
X124959074Y-122488853D01*
X124967472Y-122475614D01*
X124961638Y-122465849D01*
X123576810Y-121081020D01*
X123562869Y-121073408D01*
X123561034Y-121073539D01*
X123554420Y-121077790D01*
X122168116Y-122464095D01*
X122160601Y-122477856D01*
X120511293Y-122477856D01*
X120555665Y-122456549D01*
X120555666Y-122456548D01*
X120559684Y-122454619D01*
X120715724Y-122350356D01*
X120792002Y-122299389D01*
X120792006Y-122299386D01*
X120795710Y-122296911D01*
X120799027Y-122293940D01*
X120799031Y-122293937D01*
X121003845Y-122110490D01*
X121007161Y-122107520D01*
X121189817Y-121890225D01*
X121315209Y-121689165D01*
X121368229Y-121641949D01*
X121438359Y-121630893D01*
X121503334Y-121659507D01*
X121535127Y-121700114D01*
X121602492Y-121836718D01*
X121606613Y-121843855D01*
X121766470Y-122083099D01*
X121771488Y-122089639D01*
X121784147Y-122104074D01*
X121797386Y-122112472D01*
X121807151Y-122106638D01*
X123191980Y-120721810D01*
X123198357Y-120710131D01*
X123928408Y-120710131D01*
X123928539Y-120711966D01*
X123932790Y-120718580D01*
X125319095Y-122104884D01*
X125332856Y-122112399D01*
X125342216Y-122105941D01*
X125356512Y-122089639D01*
X125361530Y-122083099D01*
X125521387Y-121843855D01*
X125525508Y-121836718D01*
X125652772Y-121578651D01*
X125655922Y-121571047D01*
X125748412Y-121298580D01*
X125750546Y-121290617D01*
X125806683Y-121008400D01*
X125807756Y-121000249D01*
X125824080Y-120751186D01*
X137116018Y-120751186D01*
X137141579Y-121019100D01*
X137142664Y-121023534D01*
X137142665Y-121023540D01*
X137166467Y-121120810D01*
X137205547Y-121280518D01*
X137306583Y-121529963D01*
X137308892Y-121533906D01*
X137432653Y-121745274D01*
X137442569Y-121762210D01*
X137610658Y-121972395D01*
X137807327Y-122156113D01*
X138028457Y-122309516D01*
X138269416Y-122429391D01*
X138273750Y-122430812D01*
X138273753Y-122430813D01*
X138520823Y-122511807D01*
X138520829Y-122511808D01*
X138525156Y-122513227D01*
X138529647Y-122514007D01*
X138529648Y-122514007D01*
X138786538Y-122558611D01*
X138786546Y-122558612D01*
X138790319Y-122559267D01*
X138794156Y-122559458D01*
X138873777Y-122563422D01*
X138873785Y-122563422D01*
X138875348Y-122563500D01*
X139043374Y-122563500D01*
X139045642Y-122563335D01*
X139045654Y-122563335D01*
X139176457Y-122553844D01*
X139243425Y-122548985D01*
X139247880Y-122548001D01*
X139247883Y-122548001D01*
X139501770Y-122491947D01*
X139501772Y-122491946D01*
X139506226Y-122490963D01*
X139757900Y-122395613D01*
X139940952Y-122293937D01*
X139989179Y-122267149D01*
X139989180Y-122267148D01*
X139993172Y-122264931D01*
X140139842Y-122152996D01*
X140203491Y-122104421D01*
X140203495Y-122104417D01*
X140207116Y-122101654D01*
X140218862Y-122089639D01*
X140392063Y-121912462D01*
X140395249Y-121909203D01*
X140502242Y-121762210D01*
X140550942Y-121695304D01*
X140550947Y-121695297D01*
X140553630Y-121691610D01*
X140678941Y-121453433D01*
X140768557Y-121199662D01*
X140802091Y-121029524D01*
X140819720Y-120940083D01*
X140819721Y-120940077D01*
X140820601Y-120935611D01*
X140820904Y-120929524D01*
X140829782Y-120751186D01*
X157616018Y-120751186D01*
X157641579Y-121019100D01*
X157642664Y-121023534D01*
X157642665Y-121023540D01*
X157666467Y-121120810D01*
X157705547Y-121280518D01*
X157806583Y-121529963D01*
X157808892Y-121533906D01*
X157932653Y-121745274D01*
X157942569Y-121762210D01*
X158110658Y-121972395D01*
X158307327Y-122156113D01*
X158528457Y-122309516D01*
X158769416Y-122429391D01*
X158773750Y-122430812D01*
X158773753Y-122430813D01*
X159020823Y-122511807D01*
X159020829Y-122511808D01*
X159025156Y-122513227D01*
X159029647Y-122514007D01*
X159029648Y-122514007D01*
X159286538Y-122558611D01*
X159286546Y-122558612D01*
X159290319Y-122559267D01*
X159294156Y-122559458D01*
X159373777Y-122563422D01*
X159373785Y-122563422D01*
X159375348Y-122563500D01*
X159543374Y-122563500D01*
X159545642Y-122563335D01*
X159545654Y-122563335D01*
X159676457Y-122553844D01*
X159743425Y-122548985D01*
X159747880Y-122548001D01*
X159747883Y-122548001D01*
X160001770Y-122491947D01*
X160001772Y-122491946D01*
X160006226Y-122490963D01*
X160257900Y-122395613D01*
X160440952Y-122293937D01*
X160489179Y-122267149D01*
X160489180Y-122267148D01*
X160493172Y-122264931D01*
X160639842Y-122152996D01*
X160703491Y-122104421D01*
X160703495Y-122104417D01*
X160707116Y-122101654D01*
X160718862Y-122089639D01*
X160892063Y-121912462D01*
X160895249Y-121909203D01*
X161002242Y-121762210D01*
X161050942Y-121695304D01*
X161050947Y-121695297D01*
X161053630Y-121691610D01*
X161178941Y-121453433D01*
X161268557Y-121199662D01*
X161302091Y-121029524D01*
X161319720Y-120940083D01*
X161319721Y-120940077D01*
X161320601Y-120935611D01*
X161320904Y-120929524D01*
X161333755Y-120671383D01*
X161333755Y-120671377D01*
X161333982Y-120666814D01*
X161308421Y-120398900D01*
X161293270Y-120336980D01*
X161245539Y-120141920D01*
X161244453Y-120137482D01*
X161143417Y-119888037D01*
X161023526Y-119683278D01*
X161009741Y-119659735D01*
X161009740Y-119659734D01*
X161007431Y-119655790D01*
X160883382Y-119500674D01*
X160842194Y-119449171D01*
X160842193Y-119449169D01*
X160839342Y-119445605D01*
X160642673Y-119261887D01*
X160421543Y-119108484D01*
X160180584Y-118988609D01*
X160176250Y-118987188D01*
X160176247Y-118987187D01*
X159929177Y-118906193D01*
X159929171Y-118906192D01*
X159924844Y-118904773D01*
X159920352Y-118903993D01*
X159663462Y-118859389D01*
X159663454Y-118859388D01*
X159659681Y-118858733D01*
X159649718Y-118858237D01*
X159576223Y-118854578D01*
X159576215Y-118854578D01*
X159574652Y-118854500D01*
X159406626Y-118854500D01*
X159404358Y-118854665D01*
X159404346Y-118854665D01*
X159273543Y-118864156D01*
X159206575Y-118869015D01*
X159202120Y-118869999D01*
X159202117Y-118869999D01*
X158948230Y-118926053D01*
X158948228Y-118926054D01*
X158943774Y-118927037D01*
X158692100Y-119022387D01*
X158688114Y-119024601D01*
X158688112Y-119024602D01*
X158540754Y-119106452D01*
X158456828Y-119153069D01*
X158453196Y-119155841D01*
X158246509Y-119313579D01*
X158246505Y-119313583D01*
X158242884Y-119316346D01*
X158239699Y-119319604D01*
X158239698Y-119319605D01*
X158224745Y-119334901D01*
X158054751Y-119508797D01*
X158052066Y-119512486D01*
X157899058Y-119722696D01*
X157899053Y-119722703D01*
X157896370Y-119726390D01*
X157771059Y-119964567D01*
X157681443Y-120218338D01*
X157680560Y-120222820D01*
X157643746Y-120409600D01*
X157629399Y-120482389D01*
X157629172Y-120486942D01*
X157629172Y-120486945D01*
X157617958Y-120712222D01*
X157616018Y-120751186D01*
X140829782Y-120751186D01*
X140833755Y-120671383D01*
X140833755Y-120671377D01*
X140833982Y-120666814D01*
X140808421Y-120398900D01*
X140793270Y-120336980D01*
X140745539Y-120141920D01*
X140744453Y-120137482D01*
X140643417Y-119888037D01*
X140523526Y-119683278D01*
X140509741Y-119659735D01*
X140509740Y-119659734D01*
X140507431Y-119655790D01*
X140383382Y-119500674D01*
X140342194Y-119449171D01*
X140342193Y-119449169D01*
X140339342Y-119445605D01*
X140142673Y-119261887D01*
X139921543Y-119108484D01*
X139680584Y-118988609D01*
X139676250Y-118987188D01*
X139676247Y-118987187D01*
X139429177Y-118906193D01*
X139429171Y-118906192D01*
X139424844Y-118904773D01*
X139420352Y-118903993D01*
X139163462Y-118859389D01*
X139163454Y-118859388D01*
X139159681Y-118858733D01*
X139149718Y-118858237D01*
X139076223Y-118854578D01*
X139076215Y-118854578D01*
X139074652Y-118854500D01*
X138906626Y-118854500D01*
X138904358Y-118854665D01*
X138904346Y-118854665D01*
X138773543Y-118864156D01*
X138706575Y-118869015D01*
X138702120Y-118869999D01*
X138702117Y-118869999D01*
X138448230Y-118926053D01*
X138448228Y-118926054D01*
X138443774Y-118927037D01*
X138192100Y-119022387D01*
X138188114Y-119024601D01*
X138188112Y-119024602D01*
X138040754Y-119106452D01*
X137956828Y-119153069D01*
X137953196Y-119155841D01*
X137746509Y-119313579D01*
X137746505Y-119313583D01*
X137742884Y-119316346D01*
X137739699Y-119319604D01*
X137739698Y-119319605D01*
X137724745Y-119334901D01*
X137554751Y-119508797D01*
X137552066Y-119512486D01*
X137399058Y-119722696D01*
X137399053Y-119722703D01*
X137396370Y-119726390D01*
X137271059Y-119964567D01*
X137181443Y-120218338D01*
X137180560Y-120222820D01*
X137143746Y-120409600D01*
X137129399Y-120482389D01*
X137129172Y-120486942D01*
X137129172Y-120486945D01*
X137117958Y-120712222D01*
X137116018Y-120751186D01*
X125824080Y-120751186D01*
X125826575Y-120713119D01*
X125826575Y-120704881D01*
X125807756Y-120417751D01*
X125806683Y-120409600D01*
X125750546Y-120127383D01*
X125748412Y-120119420D01*
X125655922Y-119846953D01*
X125652772Y-119839349D01*
X125525508Y-119581282D01*
X125521387Y-119574145D01*
X125361530Y-119334901D01*
X125356512Y-119328361D01*
X125343853Y-119313926D01*
X125330614Y-119305528D01*
X125320849Y-119311362D01*
X123936020Y-120696190D01*
X123928408Y-120710131D01*
X123198357Y-120710131D01*
X123199592Y-120707869D01*
X123199461Y-120706034D01*
X123195210Y-120699420D01*
X121808905Y-119313116D01*
X121795144Y-119305601D01*
X121785784Y-119312059D01*
X121771488Y-119328361D01*
X121766470Y-119334901D01*
X121606613Y-119574145D01*
X121602493Y-119581282D01*
X121534171Y-119719825D01*
X121486103Y-119772074D01*
X121417417Y-119790041D01*
X121349922Y-119768022D01*
X121310277Y-119723929D01*
X121262891Y-119636108D01*
X121260778Y-119632192D01*
X121092127Y-119403856D01*
X120892986Y-119201562D01*
X120757423Y-119098104D01*
X120670872Y-119032050D01*
X120670868Y-119032047D01*
X120667327Y-119029345D01*
X120512052Y-118942386D01*
X122160528Y-118942386D01*
X122166362Y-118952151D01*
X123551190Y-120336980D01*
X123565131Y-120344592D01*
X123566966Y-120344461D01*
X123573580Y-120340210D01*
X124959884Y-118953905D01*
X124967399Y-118940144D01*
X124960941Y-118930784D01*
X124944639Y-118916488D01*
X124938099Y-118911470D01*
X124698856Y-118751613D01*
X124691719Y-118747492D01*
X124433651Y-118620228D01*
X124426047Y-118617078D01*
X124153580Y-118524588D01*
X124145617Y-118522454D01*
X123863400Y-118466317D01*
X123855249Y-118465244D01*
X123568119Y-118446425D01*
X123559881Y-118446425D01*
X123272751Y-118465244D01*
X123264600Y-118466317D01*
X122982383Y-118522454D01*
X122974420Y-118524588D01*
X122701953Y-118617078D01*
X122694349Y-118620228D01*
X122436282Y-118747492D01*
X122429145Y-118751613D01*
X122189901Y-118911470D01*
X122183361Y-118916488D01*
X122168926Y-118929147D01*
X122160528Y-118942386D01*
X120512052Y-118942386D01*
X120419655Y-118890641D01*
X120415506Y-118889036D01*
X120415502Y-118889034D01*
X120185030Y-118799872D01*
X120154909Y-118788219D01*
X120150588Y-118787217D01*
X120150580Y-118787215D01*
X119968110Y-118744922D01*
X119878374Y-118724122D01*
X119595566Y-118699628D01*
X119591131Y-118699872D01*
X119591127Y-118699872D01*
X119484718Y-118705728D01*
X119312128Y-118715226D01*
X119307768Y-118716093D01*
X119307762Y-118716094D01*
X119171296Y-118743239D01*
X119033715Y-118770606D01*
X119029505Y-118772084D01*
X119029503Y-118772085D01*
X118978996Y-118789822D01*
X118765884Y-118864662D01*
X118761933Y-118866715D01*
X118761927Y-118866717D01*
X118519170Y-118992819D01*
X118513976Y-118995517D01*
X118510361Y-118998100D01*
X118510355Y-118998104D01*
X118466638Y-119029345D01*
X118283020Y-119160561D01*
X118077623Y-119356501D01*
X118074867Y-119359997D01*
X118074866Y-119359998D01*
X117906045Y-119574145D01*
X117901882Y-119579426D01*
X117841560Y-119683278D01*
X117761540Y-119821042D01*
X117761537Y-119821048D01*
X117759306Y-119824889D01*
X117757638Y-119829007D01*
X117680192Y-120020212D01*
X117636079Y-120075841D01*
X117568894Y-120098790D01*
X117499967Y-120081772D01*
X117451182Y-120030192D01*
X117445196Y-120016520D01*
X117431021Y-119978095D01*
X117395574Y-119882013D01*
X117308062Y-119719825D01*
X117262891Y-119636108D01*
X117260778Y-119632192D01*
X117092127Y-119403856D01*
X116892986Y-119201562D01*
X116757423Y-119098104D01*
X116670872Y-119032050D01*
X116670868Y-119032047D01*
X116667327Y-119029345D01*
X116419655Y-118890641D01*
X116415506Y-118889036D01*
X116415502Y-118889034D01*
X116185030Y-118799872D01*
X116154909Y-118788219D01*
X116150588Y-118787217D01*
X116150580Y-118787215D01*
X115968110Y-118744922D01*
X115878374Y-118724122D01*
X115595566Y-118699628D01*
X115591131Y-118699872D01*
X115591127Y-118699872D01*
X115484718Y-118705728D01*
X115312128Y-118715226D01*
X115307768Y-118716093D01*
X115307762Y-118716094D01*
X115171296Y-118743239D01*
X115033715Y-118770606D01*
X115029505Y-118772084D01*
X115029503Y-118772085D01*
X114978996Y-118789822D01*
X114765884Y-118864662D01*
X114761933Y-118866715D01*
X114761927Y-118866717D01*
X114519170Y-118992819D01*
X114513976Y-118995517D01*
X114510361Y-118998100D01*
X114510355Y-118998104D01*
X114466638Y-119029345D01*
X114283020Y-119160561D01*
X114077623Y-119356501D01*
X114074867Y-119359997D01*
X114074866Y-119359998D01*
X113906045Y-119574145D01*
X113901882Y-119579426D01*
X113841560Y-119683278D01*
X113761540Y-119821042D01*
X113761537Y-119821048D01*
X113759306Y-119824889D01*
X113757638Y-119829007D01*
X113757636Y-119829012D01*
X113654411Y-120083861D01*
X113654408Y-120083869D01*
X113652738Y-120087993D01*
X113584305Y-120363488D01*
X113555372Y-120645876D01*
X111069151Y-120645876D01*
X111053571Y-120425842D01*
X111036079Y-120344592D01*
X110994761Y-120152681D01*
X110994761Y-120152679D01*
X110993825Y-120148334D01*
X110895574Y-119882013D01*
X110808062Y-119719825D01*
X110762891Y-119636108D01*
X110760778Y-119632192D01*
X110592127Y-119403856D01*
X110392986Y-119201562D01*
X110257423Y-119098104D01*
X110170872Y-119032050D01*
X110170868Y-119032047D01*
X110167327Y-119029345D01*
X109919655Y-118890641D01*
X109915506Y-118889036D01*
X109915502Y-118889034D01*
X109685030Y-118799872D01*
X109654909Y-118788219D01*
X109650588Y-118787217D01*
X109650580Y-118787215D01*
X109468110Y-118744922D01*
X109378374Y-118724122D01*
X109095566Y-118699628D01*
X109091131Y-118699872D01*
X109091127Y-118699872D01*
X108984718Y-118705728D01*
X108812128Y-118715226D01*
X108807768Y-118716093D01*
X108807762Y-118716094D01*
X108671296Y-118743239D01*
X108533715Y-118770606D01*
X108529505Y-118772084D01*
X108529503Y-118772085D01*
X108478996Y-118789822D01*
X108265884Y-118864662D01*
X108261933Y-118866715D01*
X108261927Y-118866717D01*
X108019170Y-118992819D01*
X108013976Y-118995517D01*
X108010361Y-118998100D01*
X108010355Y-118998104D01*
X107966638Y-119029345D01*
X107783020Y-119160561D01*
X107577623Y-119356501D01*
X107574867Y-119359997D01*
X107574866Y-119359998D01*
X107406045Y-119574145D01*
X107401882Y-119579426D01*
X107341560Y-119683278D01*
X107261540Y-119821042D01*
X107261537Y-119821048D01*
X107259306Y-119824889D01*
X107160885Y-120067880D01*
X107116774Y-120123507D01*
X107049588Y-120146456D01*
X106980661Y-120129440D01*
X106931876Y-120077859D01*
X106925890Y-120064187D01*
X106897115Y-119986191D01*
X106895574Y-119982013D01*
X106760778Y-119732192D01*
X106592127Y-119503856D01*
X106538295Y-119449171D01*
X106447069Y-119356501D01*
X106392986Y-119301562D01*
X106319118Y-119245188D01*
X106170872Y-119132050D01*
X106170868Y-119132047D01*
X106167327Y-119129345D01*
X105919655Y-118990641D01*
X105915506Y-118989036D01*
X105915502Y-118989034D01*
X105701369Y-118906193D01*
X105654909Y-118888219D01*
X105650588Y-118887217D01*
X105650580Y-118887215D01*
X105468110Y-118844922D01*
X105378374Y-118824122D01*
X105095566Y-118799628D01*
X105091131Y-118799872D01*
X105091127Y-118799872D01*
X104984718Y-118805728D01*
X104812128Y-118815226D01*
X104807768Y-118816093D01*
X104807762Y-118816094D01*
X104671296Y-118843239D01*
X104533715Y-118870606D01*
X104529505Y-118872084D01*
X104529503Y-118872085D01*
X104417352Y-118911470D01*
X104265884Y-118964662D01*
X104261933Y-118966715D01*
X104261927Y-118966717D01*
X104017926Y-119093465D01*
X104013976Y-119095517D01*
X104010361Y-119098100D01*
X104010355Y-119098104D01*
X103865581Y-119201562D01*
X103783020Y-119260561D01*
X103577623Y-119456501D01*
X103574867Y-119459997D01*
X103574866Y-119459998D01*
X103436031Y-119636108D01*
X103401882Y-119679426D01*
X103348068Y-119772074D01*
X103261540Y-119921042D01*
X103261537Y-119921048D01*
X103259306Y-119924889D01*
X103257636Y-119929012D01*
X103199499Y-120072545D01*
X103155386Y-120128175D01*
X103088201Y-120151124D01*
X103019274Y-120134106D01*
X102970489Y-120082526D01*
X102964503Y-120068854D01*
X102962782Y-120064187D01*
X102895574Y-119882013D01*
X102808062Y-119719825D01*
X102762891Y-119636108D01*
X102760778Y-119632192D01*
X102592127Y-119403856D01*
X102392986Y-119201562D01*
X102257423Y-119098104D01*
X102170872Y-119032050D01*
X102170868Y-119032047D01*
X102167327Y-119029345D01*
X101919655Y-118890641D01*
X101915506Y-118889036D01*
X101915502Y-118889034D01*
X101685030Y-118799872D01*
X101654909Y-118788219D01*
X101650588Y-118787217D01*
X101650580Y-118787215D01*
X101468110Y-118744922D01*
X101378374Y-118724122D01*
X101095566Y-118699628D01*
X101091131Y-118699872D01*
X101091127Y-118699872D01*
X100984718Y-118705728D01*
X100812128Y-118715226D01*
X100807768Y-118716093D01*
X100807762Y-118716094D01*
X100671296Y-118743239D01*
X100533715Y-118770606D01*
X100529505Y-118772084D01*
X100529503Y-118772085D01*
X100478996Y-118789822D01*
X100265884Y-118864662D01*
X100261933Y-118866715D01*
X100261927Y-118866717D01*
X100019170Y-118992819D01*
X100013976Y-118995517D01*
X100010361Y-118998100D01*
X100010355Y-118998104D01*
X99966638Y-119029345D01*
X99783020Y-119160561D01*
X99577623Y-119356501D01*
X99574867Y-119359997D01*
X99574866Y-119359998D01*
X99406045Y-119574145D01*
X99401882Y-119579426D01*
X99341560Y-119683278D01*
X99261540Y-119821042D01*
X99261537Y-119821048D01*
X99259306Y-119824889D01*
X99257638Y-119829007D01*
X99180192Y-120020212D01*
X99136079Y-120075841D01*
X99068894Y-120098790D01*
X98999967Y-120081772D01*
X98951182Y-120030192D01*
X98945196Y-120016520D01*
X98931021Y-119978095D01*
X98895574Y-119882013D01*
X98808062Y-119719825D01*
X98762891Y-119636108D01*
X98760778Y-119632192D01*
X98592127Y-119403856D01*
X98392986Y-119201562D01*
X98257423Y-119098104D01*
X98170872Y-119032050D01*
X98170868Y-119032047D01*
X98167327Y-119029345D01*
X97919655Y-118890641D01*
X97915506Y-118889036D01*
X97915502Y-118889034D01*
X97685030Y-118799872D01*
X97654909Y-118788219D01*
X97650588Y-118787217D01*
X97650580Y-118787215D01*
X97468110Y-118744922D01*
X97378374Y-118724122D01*
X97095566Y-118699628D01*
X97091131Y-118699872D01*
X97091127Y-118699872D01*
X96984718Y-118705728D01*
X96812128Y-118715226D01*
X96807768Y-118716093D01*
X96807762Y-118716094D01*
X96671296Y-118743239D01*
X96533715Y-118770606D01*
X96529505Y-118772084D01*
X96529503Y-118772085D01*
X96478996Y-118789822D01*
X96265884Y-118864662D01*
X96261933Y-118866715D01*
X96261927Y-118866717D01*
X96019170Y-118992819D01*
X96013976Y-118995517D01*
X96010361Y-118998100D01*
X96010355Y-118998104D01*
X95966638Y-119029345D01*
X95783020Y-119160561D01*
X95577623Y-119356501D01*
X95574867Y-119359997D01*
X95574866Y-119359998D01*
X95406045Y-119574145D01*
X95401882Y-119579426D01*
X95341560Y-119683278D01*
X95261540Y-119821042D01*
X95261537Y-119821048D01*
X95259306Y-119824889D01*
X95257638Y-119829007D01*
X95257636Y-119829012D01*
X95154411Y-120083861D01*
X95154408Y-120083869D01*
X95152738Y-120087993D01*
X95084305Y-120363488D01*
X95055372Y-120645876D01*
X89662000Y-120645876D01*
X89662000Y-112625381D01*
X91744660Y-112625381D01*
X91744737Y-112626470D01*
X91747198Y-112630206D01*
X92021132Y-112840404D01*
X92026762Y-112844259D01*
X92327091Y-113026862D01*
X92333093Y-113030080D01*
X92651397Y-113179184D01*
X92657702Y-113181732D01*
X92990243Y-113295587D01*
X92996813Y-113297446D01*
X93339683Y-113374714D01*
X93346412Y-113375853D01*
X93695643Y-113415643D01*
X93702433Y-113416046D01*
X94053919Y-113417886D01*
X94060720Y-113417554D01*
X94410353Y-113381423D01*
X94417081Y-113380357D01*
X94760774Y-113306676D01*
X94767322Y-113304897D01*
X95101049Y-113194527D01*
X95107391Y-113192041D01*
X95427218Y-113046288D01*
X95433277Y-113043121D01*
X95735495Y-112863676D01*
X95741159Y-112859884D01*
X96022232Y-112648849D01*
X96027458Y-112644464D01*
X96037113Y-112635428D01*
X96045182Y-112621750D01*
X96045154Y-112621024D01*
X96040012Y-112612723D01*
X93908310Y-110481020D01*
X93894369Y-110473408D01*
X93892534Y-110473539D01*
X93885920Y-110477790D01*
X91752274Y-112611437D01*
X91744660Y-112625381D01*
X89662000Y-112625381D01*
X89662000Y-110100832D01*
X90582833Y-110100832D01*
X90600617Y-110451893D01*
X90601327Y-110458649D01*
X90656920Y-110805723D01*
X90658359Y-110812378D01*
X90751108Y-111151410D01*
X90753257Y-111157871D01*
X90882081Y-111484912D01*
X90884912Y-111491095D01*
X91048303Y-111802310D01*
X91051786Y-111808152D01*
X91247830Y-112099896D01*
X91251933Y-112105340D01*
X91371925Y-112247836D01*
X91384664Y-112256279D01*
X91395108Y-112250181D01*
X93523480Y-110121810D01*
X93529857Y-110110131D01*
X94259908Y-110110131D01*
X94260039Y-110111966D01*
X94264290Y-110118580D01*
X96394509Y-112248798D01*
X96408105Y-112256223D01*
X96417718Y-112249522D01*
X96518018Y-112132912D01*
X96522176Y-112127514D01*
X96721262Y-111837840D01*
X96724810Y-111832029D01*
X96891442Y-111522559D01*
X96894349Y-111516381D01*
X97026590Y-111190713D01*
X97028804Y-111184283D01*
X97125098Y-110846237D01*
X97126605Y-110839607D01*
X97185832Y-110493118D01*
X97186612Y-110486378D01*
X97208168Y-110133925D01*
X97208284Y-110130323D01*
X97208353Y-110110819D01*
X97208261Y-110107194D01*
X97189166Y-109754615D01*
X97188431Y-109747849D01*
X97185181Y-109728000D01*
X103021915Y-109728000D01*
X103040972Y-109872754D01*
X103096845Y-110007642D01*
X103101872Y-110014193D01*
X103176896Y-110111966D01*
X103185726Y-110123474D01*
X103192276Y-110128500D01*
X103192279Y-110128503D01*
X103295004Y-110207327D01*
X103301557Y-110212355D01*
X103436446Y-110268228D01*
X103581200Y-110287285D01*
X103589388Y-110286207D01*
X103717766Y-110269306D01*
X103725954Y-110268228D01*
X103860843Y-110212355D01*
X103867396Y-110207327D01*
X103970121Y-110128503D01*
X103970124Y-110128500D01*
X103976674Y-110123474D01*
X103985505Y-110111966D01*
X104060528Y-110014193D01*
X104065555Y-110007642D01*
X104121428Y-109872754D01*
X104140485Y-109728000D01*
X104121428Y-109583246D01*
X104065555Y-109448358D01*
X103976674Y-109332526D01*
X103970124Y-109327500D01*
X103970121Y-109327497D01*
X103867396Y-109248673D01*
X103867394Y-109248672D01*
X103860843Y-109243645D01*
X103725954Y-109187772D01*
X103581200Y-109168715D01*
X103573012Y-109169793D01*
X103444632Y-109186694D01*
X103444630Y-109186695D01*
X103436446Y-109187772D01*
X103388630Y-109207578D01*
X103309186Y-109240485D01*
X103309184Y-109240486D01*
X103301558Y-109243645D01*
X103185726Y-109332526D01*
X103096845Y-109448358D01*
X103040972Y-109583246D01*
X103021915Y-109728000D01*
X97185181Y-109728000D01*
X97131630Y-109400985D01*
X97130163Y-109394313D01*
X97036236Y-109055627D01*
X97034062Y-109049163D01*
X96904098Y-108722578D01*
X96901242Y-108716398D01*
X96736769Y-108405763D01*
X96733269Y-108399937D01*
X96617807Y-108229400D01*
X118896915Y-108229400D01*
X118915972Y-108374154D01*
X118919131Y-108381780D01*
X118955500Y-108469581D01*
X118971845Y-108509042D01*
X119060726Y-108624874D01*
X119067276Y-108629900D01*
X119067279Y-108629903D01*
X119170004Y-108708727D01*
X119176557Y-108713755D01*
X119311446Y-108769628D01*
X119456200Y-108788685D01*
X119464388Y-108787607D01*
X119592766Y-108770706D01*
X119600954Y-108769628D01*
X119735843Y-108713755D01*
X119742396Y-108708727D01*
X119845121Y-108629903D01*
X119845124Y-108629900D01*
X119851674Y-108624874D01*
X119940555Y-108509042D01*
X119956901Y-108469581D01*
X119993269Y-108381780D01*
X119996428Y-108374154D01*
X120015485Y-108229400D01*
X120004116Y-108143040D01*
X119997506Y-108092832D01*
X119997505Y-108092830D01*
X119996428Y-108084646D01*
X119976622Y-108036830D01*
X119943715Y-107957386D01*
X119943714Y-107957384D01*
X119940555Y-107949758D01*
X119851674Y-107833926D01*
X119845124Y-107828900D01*
X119845121Y-107828897D01*
X119742396Y-107750073D01*
X119742394Y-107750072D01*
X119735843Y-107745045D01*
X119600954Y-107689172D01*
X119456200Y-107670115D01*
X119448012Y-107671193D01*
X119319632Y-107688094D01*
X119319630Y-107688095D01*
X119311446Y-107689172D01*
X119263630Y-107708978D01*
X119184186Y-107741885D01*
X119184184Y-107741886D01*
X119176558Y-107745045D01*
X119104796Y-107800110D01*
X119078681Y-107820149D01*
X119060726Y-107833926D01*
X118971845Y-107949758D01*
X118968686Y-107957384D01*
X118968685Y-107957386D01*
X118935778Y-108036830D01*
X118915972Y-108084646D01*
X118914895Y-108092830D01*
X118914894Y-108092832D01*
X118908284Y-108143040D01*
X118896915Y-108229400D01*
X96617807Y-108229400D01*
X96536197Y-108108862D01*
X96532090Y-108103453D01*
X96419065Y-107970179D01*
X96406240Y-107961743D01*
X96395916Y-107967795D01*
X94267520Y-110096190D01*
X94259908Y-110110131D01*
X93529857Y-110110131D01*
X93531092Y-110107869D01*
X93530961Y-110106034D01*
X93526710Y-110099420D01*
X91396492Y-107969203D01*
X91382955Y-107961811D01*
X91373253Y-107968599D01*
X91265930Y-108094257D01*
X91261796Y-108099664D01*
X91063715Y-108390041D01*
X91060197Y-108395851D01*
X90894634Y-108705922D01*
X90891759Y-108712087D01*
X90760655Y-109038218D01*
X90758462Y-109044658D01*
X90663346Y-109383044D01*
X90661863Y-109389679D01*
X90603850Y-109736354D01*
X90603091Y-109743126D01*
X90582857Y-110094037D01*
X90582833Y-110100832D01*
X89662000Y-110100832D01*
X89662000Y-107595862D01*
X91745450Y-107595862D01*
X91745486Y-107596704D01*
X91750537Y-107604826D01*
X93882690Y-109736980D01*
X93896631Y-109744592D01*
X93898466Y-109744461D01*
X93905080Y-109740210D01*
X96038298Y-107606991D01*
X96045912Y-107593047D01*
X96045844Y-107592089D01*
X96041336Y-107585272D01*
X96039918Y-107584065D01*
X95760313Y-107371064D01*
X95754687Y-107367240D01*
X95453714Y-107185681D01*
X95447702Y-107182484D01*
X95128870Y-107034487D01*
X95122570Y-107031967D01*
X94789629Y-106919273D01*
X94783051Y-106917437D01*
X94439917Y-106841367D01*
X94433178Y-106840251D01*
X94083810Y-106801680D01*
X94077029Y-106801301D01*
X93725515Y-106800687D01*
X93718742Y-106801042D01*
X93369220Y-106838395D01*
X93362510Y-106839482D01*
X93019086Y-106914361D01*
X93012511Y-106916172D01*
X92679183Y-107027702D01*
X92672861Y-107030205D01*
X92353534Y-107177079D01*
X92347491Y-107180265D01*
X92045901Y-107360763D01*
X92040255Y-107364571D01*
X91759908Y-107576596D01*
X91754711Y-107580987D01*
X91753472Y-107582155D01*
X91745450Y-107595862D01*
X89662000Y-107595862D01*
X89662000Y-106349800D01*
X121027915Y-106349800D01*
X121028993Y-106357988D01*
X121042058Y-106457225D01*
X121046972Y-106494554D01*
X121102845Y-106629442D01*
X121107872Y-106635993D01*
X121164761Y-106710132D01*
X121191726Y-106745274D01*
X121248600Y-106788915D01*
X121290466Y-106846252D01*
X121294687Y-106917123D01*
X121290284Y-106928716D01*
X121285000Y-106934000D01*
X121285000Y-111379000D01*
X121412000Y-111506000D01*
X127698500Y-111506000D01*
X127825500Y-111379000D01*
X127825500Y-109709000D01*
X141290539Y-109709000D01*
X141310354Y-109960775D01*
X141311508Y-109965582D01*
X141311509Y-109965588D01*
X141342348Y-110094037D01*
X141369312Y-110206351D01*
X141465960Y-110439680D01*
X141597919Y-110655017D01*
X141761939Y-110847061D01*
X141953983Y-111011081D01*
X142169320Y-111143040D01*
X142173890Y-111144933D01*
X142173894Y-111144935D01*
X142398076Y-111237794D01*
X142402649Y-111239688D01*
X142453932Y-111252000D01*
X142643412Y-111297491D01*
X142643418Y-111297492D01*
X142648225Y-111298646D01*
X142900000Y-111318461D01*
X143151775Y-111298646D01*
X143156582Y-111297492D01*
X143156588Y-111297491D01*
X143346068Y-111252000D01*
X143397351Y-111239688D01*
X143401924Y-111237794D01*
X143626106Y-111144935D01*
X143626110Y-111144933D01*
X143630680Y-111143040D01*
X143846017Y-111011081D01*
X144038061Y-110847061D01*
X144202081Y-110655017D01*
X144334040Y-110439680D01*
X144430688Y-110206351D01*
X144457652Y-110094037D01*
X144488491Y-109965588D01*
X144488492Y-109965582D01*
X144489646Y-109960775D01*
X144509461Y-109709000D01*
X145481539Y-109709000D01*
X145501354Y-109960775D01*
X145502508Y-109965582D01*
X145502509Y-109965588D01*
X145533348Y-110094037D01*
X145560312Y-110206351D01*
X145656960Y-110439680D01*
X145788919Y-110655017D01*
X145952939Y-110847061D01*
X146144983Y-111011081D01*
X146360320Y-111143040D01*
X146364890Y-111144933D01*
X146364894Y-111144935D01*
X146589076Y-111237794D01*
X146593649Y-111239688D01*
X146644932Y-111252000D01*
X146834412Y-111297491D01*
X146834418Y-111297492D01*
X146839225Y-111298646D01*
X147091000Y-111318461D01*
X147342775Y-111298646D01*
X147347582Y-111297492D01*
X147347588Y-111297491D01*
X147537068Y-111252000D01*
X147588351Y-111239688D01*
X147592924Y-111237794D01*
X147817106Y-111144935D01*
X147817110Y-111144933D01*
X147821680Y-111143040D01*
X148037017Y-111011081D01*
X148229061Y-110847061D01*
X148393081Y-110655017D01*
X148525040Y-110439680D01*
X148621688Y-110206351D01*
X148648652Y-110094037D01*
X148679491Y-109965588D01*
X148679492Y-109965582D01*
X148680646Y-109960775D01*
X148700461Y-109709000D01*
X149672539Y-109709000D01*
X149692354Y-109960775D01*
X149693508Y-109965582D01*
X149693509Y-109965588D01*
X149724348Y-110094037D01*
X149751312Y-110206351D01*
X149847960Y-110439680D01*
X149979919Y-110655017D01*
X150143939Y-110847061D01*
X150335983Y-111011081D01*
X150551320Y-111143040D01*
X150555890Y-111144933D01*
X150555894Y-111144935D01*
X150780076Y-111237794D01*
X150784649Y-111239688D01*
X150835932Y-111252000D01*
X151025412Y-111297491D01*
X151025418Y-111297492D01*
X151030225Y-111298646D01*
X151282000Y-111318461D01*
X151533775Y-111298646D01*
X151538582Y-111297492D01*
X151538588Y-111297491D01*
X151728068Y-111252000D01*
X151779351Y-111239688D01*
X151783924Y-111237794D01*
X152008106Y-111144935D01*
X152008110Y-111144933D01*
X152012680Y-111143040D01*
X152228017Y-111011081D01*
X152420061Y-110847061D01*
X152584081Y-110655017D01*
X152716040Y-110439680D01*
X152812688Y-110206351D01*
X152839652Y-110094037D01*
X152870491Y-109965588D01*
X152870492Y-109965582D01*
X152871646Y-109960775D01*
X152891461Y-109709000D01*
X152871646Y-109457225D01*
X152870492Y-109452418D01*
X152870491Y-109452412D01*
X152821576Y-109248672D01*
X152812688Y-109211649D01*
X152804107Y-109190932D01*
X152717935Y-108982894D01*
X152717933Y-108982890D01*
X152716040Y-108978320D01*
X152584081Y-108762983D01*
X152420061Y-108570939D01*
X152228017Y-108406919D01*
X152080358Y-108316433D01*
X152032727Y-108263785D01*
X152021120Y-108193743D01*
X152022189Y-108191263D01*
X154355904Y-108191263D01*
X154363294Y-108201566D01*
X154398455Y-108230192D01*
X154405731Y-108235305D01*
X154623514Y-108366421D01*
X154631428Y-108370454D01*
X154865523Y-108469581D01*
X154873928Y-108472458D01*
X155119650Y-108537610D01*
X155128382Y-108539276D01*
X155380835Y-108569155D01*
X155389703Y-108569573D01*
X155643843Y-108563584D01*
X155652698Y-108562747D01*
X155903459Y-108521009D01*
X155912093Y-108518936D01*
X156154477Y-108442280D01*
X156162739Y-108439009D01*
X156391895Y-108328970D01*
X156399619Y-108324564D01*
X156582218Y-108202556D01*
X156590506Y-108192638D01*
X156583249Y-108178459D01*
X155485812Y-107081022D01*
X155471868Y-107073408D01*
X155470035Y-107073539D01*
X155463420Y-107077790D01*
X154363070Y-108178140D01*
X154355904Y-108191263D01*
X152022189Y-108191263D01*
X152049223Y-108128546D01*
X152080358Y-108101567D01*
X152223800Y-108013665D01*
X152228017Y-108011081D01*
X152420061Y-107847061D01*
X152584081Y-107655017D01*
X152716040Y-107439680D01*
X152721777Y-107425831D01*
X152810794Y-107210924D01*
X152810795Y-107210922D01*
X152812688Y-107206351D01*
X152854554Y-107031967D01*
X152870491Y-106965588D01*
X152870492Y-106965582D01*
X152871646Y-106960775D01*
X152891461Y-106709000D01*
X152887207Y-106654942D01*
X153611348Y-106654942D01*
X153621328Y-106908960D01*
X153622302Y-106917784D01*
X153667978Y-107167875D01*
X153670182Y-107176462D01*
X153750636Y-107417613D01*
X153754040Y-107425831D01*
X153867667Y-107653235D01*
X153872185Y-107660874D01*
X153980294Y-107817296D01*
X153990612Y-107825647D01*
X154004267Y-107818523D01*
X155100978Y-106721812D01*
X155107356Y-106710132D01*
X155837408Y-106710132D01*
X155837539Y-106711965D01*
X155841790Y-106718580D01*
X156943027Y-107819817D01*
X156956428Y-107827135D01*
X156966329Y-107820149D01*
X156977127Y-107807305D01*
X156982353Y-107800110D01*
X157116867Y-107584425D01*
X157121038Y-107576547D01*
X157223817Y-107344065D01*
X157226833Y-107335688D01*
X157295832Y-107091034D01*
X157297636Y-107082326D01*
X157331643Y-106829145D01*
X157332171Y-106822752D01*
X157335645Y-106712222D01*
X157335518Y-106705779D01*
X157317478Y-106450986D01*
X157316225Y-106442183D01*
X157262720Y-106193662D01*
X157260241Y-106185129D01*
X157172254Y-105946630D01*
X157168599Y-105938535D01*
X157047881Y-105714807D01*
X157043122Y-105707309D01*
X156965004Y-105601545D01*
X156953876Y-105593103D01*
X156941283Y-105599927D01*
X155845022Y-106696188D01*
X155837408Y-106710132D01*
X155107356Y-106710132D01*
X155108592Y-106707868D01*
X155108461Y-106706035D01*
X155104210Y-106699420D01*
X154004423Y-105599633D01*
X153991582Y-105592621D01*
X153980893Y-105600416D01*
X153935115Y-105658485D01*
X153930122Y-105665833D01*
X153802440Y-105885655D01*
X153798532Y-105893629D01*
X153703097Y-106129247D01*
X153700348Y-106137709D01*
X153639067Y-106384413D01*
X153637538Y-106393174D01*
X153611627Y-106646059D01*
X153611348Y-106654942D01*
X152887207Y-106654942D01*
X152871646Y-106457225D01*
X152870492Y-106452418D01*
X152870491Y-106452412D01*
X152813843Y-106216461D01*
X152812688Y-106211649D01*
X152805238Y-106193662D01*
X152717935Y-105982894D01*
X152717933Y-105982890D01*
X152716040Y-105978320D01*
X152584081Y-105762983D01*
X152420061Y-105570939D01*
X152228017Y-105406919D01*
X152012680Y-105274960D01*
X152008110Y-105273067D01*
X152008106Y-105273065D01*
X151898182Y-105227533D01*
X154356889Y-105227533D01*
X154363869Y-105240659D01*
X155460188Y-106336978D01*
X155474132Y-106344592D01*
X155475965Y-106344461D01*
X155482580Y-106340210D01*
X156582129Y-105240661D01*
X156588983Y-105228109D01*
X156580776Y-105217039D01*
X156499230Y-105154805D01*
X156491801Y-105149925D01*
X156270005Y-105025713D01*
X156261971Y-105021932D01*
X156024865Y-104930203D01*
X156016392Y-104927596D01*
X155768736Y-104870193D01*
X155759960Y-104868803D01*
X155506691Y-104846868D01*
X155497820Y-104846728D01*
X155243976Y-104860698D01*
X155235174Y-104861810D01*
X154985832Y-104911408D01*
X154977279Y-104913748D01*
X154737421Y-104997978D01*
X154729255Y-105001512D01*
X154503669Y-105118696D01*
X154496097Y-105123335D01*
X154365292Y-105216810D01*
X154356889Y-105227533D01*
X151898182Y-105227533D01*
X151783924Y-105180206D01*
X151783922Y-105180205D01*
X151779351Y-105178312D01*
X151681438Y-105154805D01*
X151538588Y-105120509D01*
X151538582Y-105120508D01*
X151533775Y-105119354D01*
X151282000Y-105099539D01*
X151030225Y-105119354D01*
X151025418Y-105120508D01*
X151025412Y-105120509D01*
X150882562Y-105154805D01*
X150784649Y-105178312D01*
X150780078Y-105180205D01*
X150780076Y-105180206D01*
X150555894Y-105273065D01*
X150555890Y-105273067D01*
X150551320Y-105274960D01*
X150335983Y-105406919D01*
X150143939Y-105570939D01*
X149979919Y-105762983D01*
X149847960Y-105978320D01*
X149846067Y-105982890D01*
X149846065Y-105982894D01*
X149758762Y-106193662D01*
X149751312Y-106211649D01*
X149750157Y-106216461D01*
X149693509Y-106452412D01*
X149693508Y-106452418D01*
X149692354Y-106457225D01*
X149672539Y-106709000D01*
X149692354Y-106960775D01*
X149693508Y-106965582D01*
X149693509Y-106965588D01*
X149709446Y-107031967D01*
X149751312Y-107206351D01*
X149753205Y-107210922D01*
X149753206Y-107210924D01*
X149842224Y-107425831D01*
X149847960Y-107439680D01*
X149979919Y-107655017D01*
X150143939Y-107847061D01*
X150335983Y-108011081D01*
X150340200Y-108013665D01*
X150483642Y-108101567D01*
X150531273Y-108154215D01*
X150542880Y-108224257D01*
X150514777Y-108289454D01*
X150483642Y-108316433D01*
X150335983Y-108406919D01*
X150143939Y-108570939D01*
X149979919Y-108762983D01*
X149847960Y-108978320D01*
X149846067Y-108982890D01*
X149846065Y-108982894D01*
X149759893Y-109190932D01*
X149751312Y-109211649D01*
X149742424Y-109248672D01*
X149693509Y-109452412D01*
X149693508Y-109452418D01*
X149692354Y-109457225D01*
X149672539Y-109709000D01*
X148700461Y-109709000D01*
X148680646Y-109457225D01*
X148679492Y-109452418D01*
X148679491Y-109452412D01*
X148630576Y-109248672D01*
X148621688Y-109211649D01*
X148613107Y-109190932D01*
X148526935Y-108982894D01*
X148526933Y-108982890D01*
X148525040Y-108978320D01*
X148393081Y-108762983D01*
X148229061Y-108570939D01*
X148037017Y-108406919D01*
X147889358Y-108316433D01*
X147841727Y-108263785D01*
X147830120Y-108193743D01*
X147858223Y-108128546D01*
X147889358Y-108101567D01*
X148032800Y-108013665D01*
X148037017Y-108011081D01*
X148229061Y-107847061D01*
X148393081Y-107655017D01*
X148525040Y-107439680D01*
X148530777Y-107425831D01*
X148619794Y-107210924D01*
X148619795Y-107210922D01*
X148621688Y-107206351D01*
X148663554Y-107031967D01*
X148679491Y-106965588D01*
X148679492Y-106965582D01*
X148680646Y-106960775D01*
X148700461Y-106709000D01*
X148680646Y-106457225D01*
X148679492Y-106452418D01*
X148679491Y-106452412D01*
X148622843Y-106216461D01*
X148621688Y-106211649D01*
X148614238Y-106193662D01*
X148526935Y-105982894D01*
X148526933Y-105982890D01*
X148525040Y-105978320D01*
X148393081Y-105762983D01*
X148229061Y-105570939D01*
X148037017Y-105406919D01*
X147821680Y-105274960D01*
X147817110Y-105273067D01*
X147817106Y-105273065D01*
X147592924Y-105180206D01*
X147592922Y-105180205D01*
X147588351Y-105178312D01*
X147490438Y-105154805D01*
X147347588Y-105120509D01*
X147347582Y-105120508D01*
X147342775Y-105119354D01*
X147091000Y-105099539D01*
X146839225Y-105119354D01*
X146834418Y-105120508D01*
X146834412Y-105120509D01*
X146691562Y-105154805D01*
X146593649Y-105178312D01*
X146589078Y-105180205D01*
X146589076Y-105180206D01*
X146364894Y-105273065D01*
X146364890Y-105273067D01*
X146360320Y-105274960D01*
X146144983Y-105406919D01*
X145952939Y-105570939D01*
X145788919Y-105762983D01*
X145656960Y-105978320D01*
X145655067Y-105982890D01*
X145655065Y-105982894D01*
X145567762Y-106193662D01*
X145560312Y-106211649D01*
X145559157Y-106216461D01*
X145502509Y-106452412D01*
X145502508Y-106452418D01*
X145501354Y-106457225D01*
X145481539Y-106709000D01*
X145501354Y-106960775D01*
X145502508Y-106965582D01*
X145502509Y-106965588D01*
X145518446Y-107031967D01*
X145560312Y-107206351D01*
X145562205Y-107210922D01*
X145562206Y-107210924D01*
X145651224Y-107425831D01*
X145656960Y-107439680D01*
X145788919Y-107655017D01*
X145952939Y-107847061D01*
X146144983Y-108011081D01*
X146149200Y-108013665D01*
X146292642Y-108101567D01*
X146340273Y-108154215D01*
X146351880Y-108224257D01*
X146323777Y-108289454D01*
X146292642Y-108316433D01*
X146144983Y-108406919D01*
X145952939Y-108570939D01*
X145788919Y-108762983D01*
X145656960Y-108978320D01*
X145655067Y-108982890D01*
X145655065Y-108982894D01*
X145568893Y-109190932D01*
X145560312Y-109211649D01*
X145551424Y-109248672D01*
X145502509Y-109452412D01*
X145502508Y-109452418D01*
X145501354Y-109457225D01*
X145481539Y-109709000D01*
X144509461Y-109709000D01*
X144489646Y-109457225D01*
X144488492Y-109452418D01*
X144488491Y-109452412D01*
X144439576Y-109248672D01*
X144430688Y-109211649D01*
X144422107Y-109190932D01*
X144335935Y-108982894D01*
X144335933Y-108982890D01*
X144334040Y-108978320D01*
X144202081Y-108762983D01*
X144038061Y-108570939D01*
X143846017Y-108406919D01*
X143698358Y-108316433D01*
X143650727Y-108263785D01*
X143639120Y-108193743D01*
X143667223Y-108128546D01*
X143698358Y-108101567D01*
X143841800Y-108013665D01*
X143846017Y-108011081D01*
X144038061Y-107847061D01*
X144202081Y-107655017D01*
X144334040Y-107439680D01*
X144339777Y-107425831D01*
X144428794Y-107210924D01*
X144428795Y-107210922D01*
X144430688Y-107206351D01*
X144472554Y-107031967D01*
X144488491Y-106965588D01*
X144488492Y-106965582D01*
X144489646Y-106960775D01*
X144509461Y-106709000D01*
X144489646Y-106457225D01*
X144488492Y-106452418D01*
X144488491Y-106452412D01*
X144431843Y-106216461D01*
X144430688Y-106211649D01*
X144423238Y-106193662D01*
X144335935Y-105982894D01*
X144335933Y-105982890D01*
X144334040Y-105978320D01*
X144202081Y-105762983D01*
X144038061Y-105570939D01*
X143846017Y-105406919D01*
X143630680Y-105274960D01*
X143626110Y-105273067D01*
X143626106Y-105273065D01*
X143401924Y-105180206D01*
X143401922Y-105180205D01*
X143397351Y-105178312D01*
X143299438Y-105154805D01*
X143156588Y-105120509D01*
X143156582Y-105120508D01*
X143151775Y-105119354D01*
X142900000Y-105099539D01*
X142648225Y-105119354D01*
X142643418Y-105120508D01*
X142643412Y-105120509D01*
X142500562Y-105154805D01*
X142402649Y-105178312D01*
X142398078Y-105180205D01*
X142398076Y-105180206D01*
X142173894Y-105273065D01*
X142173890Y-105273067D01*
X142169320Y-105274960D01*
X141953983Y-105406919D01*
X141761939Y-105570939D01*
X141597919Y-105762983D01*
X141465960Y-105978320D01*
X141464067Y-105982890D01*
X141464065Y-105982894D01*
X141376762Y-106193662D01*
X141369312Y-106211649D01*
X141368157Y-106216461D01*
X141311509Y-106452412D01*
X141311508Y-106452418D01*
X141310354Y-106457225D01*
X141290539Y-106709000D01*
X141310354Y-106960775D01*
X141311508Y-106965582D01*
X141311509Y-106965588D01*
X141327446Y-107031967D01*
X141369312Y-107206351D01*
X141371205Y-107210922D01*
X141371206Y-107210924D01*
X141460224Y-107425831D01*
X141465960Y-107439680D01*
X141597919Y-107655017D01*
X141761939Y-107847061D01*
X141953983Y-108011081D01*
X141958200Y-108013665D01*
X142101642Y-108101567D01*
X142149273Y-108154215D01*
X142160880Y-108224257D01*
X142132777Y-108289454D01*
X142101642Y-108316433D01*
X141953983Y-108406919D01*
X141761939Y-108570939D01*
X141597919Y-108762983D01*
X141465960Y-108978320D01*
X141464067Y-108982890D01*
X141464065Y-108982894D01*
X141377893Y-109190932D01*
X141369312Y-109211649D01*
X141360424Y-109248672D01*
X141311509Y-109452412D01*
X141311508Y-109452418D01*
X141310354Y-109457225D01*
X141290539Y-109709000D01*
X127825500Y-109709000D01*
X127825500Y-106172000D01*
X127698500Y-106045000D01*
X127571500Y-106172000D01*
X127571500Y-111126000D01*
X127551498Y-111194121D01*
X127497842Y-111240614D01*
X127445500Y-111252000D01*
X121665000Y-111252000D01*
X121596879Y-111231998D01*
X121550386Y-111178342D01*
X121539000Y-111126000D01*
X121539000Y-107050678D01*
X121559002Y-106982557D01*
X121577100Y-106960403D01*
X121606491Y-106931785D01*
X121669251Y-106898594D01*
X121677942Y-106897139D01*
X121731954Y-106890028D01*
X121866843Y-106834155D01*
X121909659Y-106801301D01*
X121976121Y-106750303D01*
X121976125Y-106750299D01*
X121982674Y-106745274D01*
X122009640Y-106710132D01*
X122066528Y-106635993D01*
X122071555Y-106629442D01*
X122127428Y-106494554D01*
X122132343Y-106457225D01*
X122145407Y-106357988D01*
X122146485Y-106349800D01*
X122127428Y-106205046D01*
X122071555Y-106070158D01*
X121982674Y-105954326D01*
X121976124Y-105949300D01*
X121976121Y-105949297D01*
X121873396Y-105870473D01*
X121873394Y-105870472D01*
X121866843Y-105865445D01*
X121731954Y-105809572D01*
X121587200Y-105790515D01*
X121579012Y-105791593D01*
X121450632Y-105808494D01*
X121450630Y-105808495D01*
X121442446Y-105809572D01*
X121394630Y-105829378D01*
X121315186Y-105862285D01*
X121315184Y-105862286D01*
X121307558Y-105865445D01*
X121191726Y-105954326D01*
X121102845Y-106070158D01*
X121046972Y-106205046D01*
X121027915Y-106349800D01*
X89662000Y-106349800D01*
X89662000Y-104763496D01*
X108217029Y-104763496D01*
X108225721Y-104842225D01*
X108233377Y-104911568D01*
X108234413Y-104920953D01*
X108237023Y-104928084D01*
X108237023Y-104928086D01*
X108283336Y-105054642D01*
X108288853Y-105069719D01*
X108293089Y-105076022D01*
X108293089Y-105076023D01*
X108361825Y-105178312D01*
X108377208Y-105201205D01*
X108382827Y-105206318D01*
X108382828Y-105206319D01*
X108458264Y-105274960D01*
X108494376Y-105307819D01*
X108633593Y-105383408D01*
X108786822Y-105423607D01*
X108870777Y-105424926D01*
X108937619Y-105425976D01*
X108937622Y-105425976D01*
X108945216Y-105426095D01*
X109099632Y-105390729D01*
X109170042Y-105355317D01*
X109234372Y-105322963D01*
X109234375Y-105322961D01*
X109241155Y-105319551D01*
X109246926Y-105314622D01*
X109246929Y-105314620D01*
X109355836Y-105221604D01*
X109355836Y-105221603D01*
X109361614Y-105216669D01*
X109454055Y-105088024D01*
X109513142Y-104941041D01*
X109535462Y-104784207D01*
X109535559Y-104775000D01*
X119455715Y-104775000D01*
X119456793Y-104783188D01*
X119467144Y-104861810D01*
X119474772Y-104919754D01*
X119486511Y-104948095D01*
X119508638Y-105001512D01*
X119530645Y-105054642D01*
X119535672Y-105061193D01*
X119581187Y-105120509D01*
X119619526Y-105170474D01*
X119626076Y-105175500D01*
X119626079Y-105175503D01*
X119728804Y-105254327D01*
X119735357Y-105259355D01*
X119870246Y-105315228D01*
X120015000Y-105334285D01*
X120023188Y-105333207D01*
X120151566Y-105316306D01*
X120159754Y-105315228D01*
X120294643Y-105259355D01*
X120301196Y-105254327D01*
X120403921Y-105175503D01*
X120403924Y-105175500D01*
X120410474Y-105170474D01*
X120448814Y-105120509D01*
X120494328Y-105061193D01*
X120499355Y-105054642D01*
X120521363Y-105001512D01*
X120543489Y-104948095D01*
X120555228Y-104919754D01*
X120562857Y-104861810D01*
X120573207Y-104783188D01*
X120574285Y-104775000D01*
X120555228Y-104630246D01*
X120499355Y-104495358D01*
X120410474Y-104379526D01*
X120403924Y-104374500D01*
X120403921Y-104374497D01*
X120301196Y-104295673D01*
X120301194Y-104295672D01*
X120294643Y-104290645D01*
X120159754Y-104234772D01*
X120015000Y-104215715D01*
X120006812Y-104216793D01*
X119878432Y-104233694D01*
X119878430Y-104233695D01*
X119870246Y-104234772D01*
X119822430Y-104254578D01*
X119742986Y-104287485D01*
X119742984Y-104287486D01*
X119735358Y-104290645D01*
X119619526Y-104379526D01*
X119530645Y-104495358D01*
X119474772Y-104630246D01*
X119455715Y-104775000D01*
X109535559Y-104775000D01*
X109535607Y-104770400D01*
X109516576Y-104613133D01*
X109460580Y-104464946D01*
X109401873Y-104379526D01*
X109375155Y-104340651D01*
X109375154Y-104340649D01*
X109370853Y-104334392D01*
X109252575Y-104229011D01*
X109245189Y-104225100D01*
X109119288Y-104158439D01*
X109119289Y-104158439D01*
X109112574Y-104154884D01*
X108958933Y-104116292D01*
X108951334Y-104116252D01*
X108951333Y-104116252D01*
X108885481Y-104115907D01*
X108800521Y-104115462D01*
X108793141Y-104117234D01*
X108793139Y-104117234D01*
X108653863Y-104150671D01*
X108653860Y-104150672D01*
X108646484Y-104152443D01*
X108505714Y-104225100D01*
X108386339Y-104329238D01*
X108295250Y-104458844D01*
X108237706Y-104606437D01*
X108236714Y-104613970D01*
X108236714Y-104613971D01*
X108234572Y-104630246D01*
X108217029Y-104763496D01*
X89662000Y-104763496D01*
X89662000Y-102993524D01*
X90046087Y-102993524D01*
X90064367Y-103167445D01*
X90120725Y-103332995D01*
X90212359Y-103481945D01*
X90334716Y-103606891D01*
X90481714Y-103701625D01*
X90488337Y-103704036D01*
X90488340Y-103704037D01*
X90501273Y-103708744D01*
X90646047Y-103761437D01*
X90781110Y-103778500D01*
X91924469Y-103778500D01*
X92054290Y-103763938D01*
X92068396Y-103759026D01*
X92127925Y-103738295D01*
X92219442Y-103706426D01*
X92227126Y-103701625D01*
X92361774Y-103617487D01*
X92367748Y-103613754D01*
X92379727Y-103601859D01*
X92486841Y-103495490D01*
X92491838Y-103490528D01*
X92585543Y-103342872D01*
X92595154Y-103315882D01*
X92641844Y-103184761D01*
X92641845Y-103184756D01*
X92644206Y-103178126D01*
X92664913Y-103004476D01*
X92663762Y-102993524D01*
X94226087Y-102993524D01*
X94244367Y-103167445D01*
X94300725Y-103332995D01*
X94392359Y-103481945D01*
X94514716Y-103606891D01*
X94661714Y-103701625D01*
X94668337Y-103704036D01*
X94668340Y-103704037D01*
X94681273Y-103708744D01*
X94826047Y-103761437D01*
X94961110Y-103778500D01*
X96104469Y-103778500D01*
X96234290Y-103763938D01*
X96248396Y-103759026D01*
X96307925Y-103738295D01*
X96399442Y-103706426D01*
X96407126Y-103701625D01*
X96541774Y-103617487D01*
X96547748Y-103613754D01*
X96559727Y-103601859D01*
X96666841Y-103495490D01*
X96671838Y-103490528D01*
X96765543Y-103342872D01*
X96775154Y-103315882D01*
X96821844Y-103184761D01*
X96821845Y-103184756D01*
X96824206Y-103178126D01*
X96844913Y-103004476D01*
X96842523Y-102981732D01*
X96833709Y-102897880D01*
X96826633Y-102830555D01*
X96791977Y-102728754D01*
X96772545Y-102671672D01*
X96772544Y-102671669D01*
X96770275Y-102665005D01*
X96678641Y-102516055D01*
X96660350Y-102497377D01*
X118665715Y-102497377D01*
X118684772Y-102642131D01*
X118687931Y-102649757D01*
X118723812Y-102736380D01*
X118740645Y-102777019D01*
X118745672Y-102783570D01*
X118787101Y-102837561D01*
X118829526Y-102892851D01*
X118836076Y-102897877D01*
X118836079Y-102897880D01*
X118933877Y-102972923D01*
X118945357Y-102981732D01*
X119080246Y-103037605D01*
X119225000Y-103056662D01*
X119233188Y-103055584D01*
X119361566Y-103038683D01*
X119369754Y-103037605D01*
X119504643Y-102981732D01*
X119516123Y-102972923D01*
X119613921Y-102897880D01*
X119613924Y-102897877D01*
X119620474Y-102892851D01*
X119662900Y-102837561D01*
X119704328Y-102783570D01*
X119709355Y-102777019D01*
X119726189Y-102736380D01*
X119762069Y-102649757D01*
X119765228Y-102642131D01*
X119772881Y-102584000D01*
X130024715Y-102584000D01*
X130025793Y-102592188D01*
X130034590Y-102659006D01*
X130043772Y-102728754D01*
X130046931Y-102736380D01*
X130081516Y-102819874D01*
X130099645Y-102863642D01*
X130188526Y-102979474D01*
X130195076Y-102984500D01*
X130195079Y-102984503D01*
X130297804Y-103063327D01*
X130304357Y-103068355D01*
X130439246Y-103124228D01*
X130584000Y-103143285D01*
X130592188Y-103142207D01*
X130720566Y-103125306D01*
X130728754Y-103124228D01*
X130863643Y-103068355D01*
X130870196Y-103063327D01*
X130972921Y-102984503D01*
X130972924Y-102984500D01*
X130979474Y-102979474D01*
X131068355Y-102863642D01*
X131086485Y-102819874D01*
X131121069Y-102736380D01*
X131124228Y-102728754D01*
X131133411Y-102659006D01*
X131142207Y-102592188D01*
X131143285Y-102584000D01*
X131133993Y-102513420D01*
X131125306Y-102447432D01*
X131125305Y-102447430D01*
X131124228Y-102439246D01*
X131088347Y-102352623D01*
X131071515Y-102311986D01*
X131071514Y-102311984D01*
X131068355Y-102304358D01*
X130979474Y-102188526D01*
X130972924Y-102183500D01*
X130972921Y-102183497D01*
X130870196Y-102104673D01*
X130870194Y-102104672D01*
X130863643Y-102099645D01*
X130728754Y-102043772D01*
X130584000Y-102024715D01*
X130575812Y-102025793D01*
X130447432Y-102042694D01*
X130447430Y-102042695D01*
X130439246Y-102043772D01*
X130391430Y-102063578D01*
X130311986Y-102096485D01*
X130311984Y-102096486D01*
X130304358Y-102099645D01*
X130188526Y-102188526D01*
X130099645Y-102304358D01*
X130096486Y-102311984D01*
X130096485Y-102311986D01*
X130079653Y-102352623D01*
X130043772Y-102439246D01*
X130042695Y-102447430D01*
X130042694Y-102447432D01*
X130034007Y-102513420D01*
X130024715Y-102584000D01*
X119772881Y-102584000D01*
X119784285Y-102497377D01*
X119770045Y-102389210D01*
X119766306Y-102360809D01*
X119766305Y-102360807D01*
X119765228Y-102352623D01*
X119709355Y-102217735D01*
X119620474Y-102101903D01*
X119613924Y-102096877D01*
X119613921Y-102096874D01*
X119511196Y-102018050D01*
X119511194Y-102018049D01*
X119504643Y-102013022D01*
X119369754Y-101957149D01*
X119225000Y-101938092D01*
X119216812Y-101939170D01*
X119088432Y-101956071D01*
X119088430Y-101956072D01*
X119080246Y-101957149D01*
X119032430Y-101976955D01*
X118952986Y-102009862D01*
X118952984Y-102009863D01*
X118945358Y-102013022D01*
X118829526Y-102101903D01*
X118740645Y-102217735D01*
X118684772Y-102352623D01*
X118683695Y-102360807D01*
X118683694Y-102360809D01*
X118679955Y-102389210D01*
X118665715Y-102497377D01*
X96660350Y-102497377D01*
X96556284Y-102391109D01*
X96409286Y-102296375D01*
X96402663Y-102293964D01*
X96402660Y-102293963D01*
X96251577Y-102238974D01*
X96251578Y-102238974D01*
X96244953Y-102236563D01*
X96109890Y-102219500D01*
X95519934Y-102219500D01*
X95451813Y-102199498D01*
X95405320Y-102145842D01*
X95395216Y-102075568D01*
X95424710Y-102010988D01*
X95430266Y-102005020D01*
X95436634Y-102000134D01*
X95533530Y-101873858D01*
X95536691Y-101866227D01*
X95591281Y-101734434D01*
X95591282Y-101734430D01*
X95594440Y-101726806D01*
X95615216Y-101569000D01*
X95594440Y-101411194D01*
X95591282Y-101403570D01*
X95591281Y-101403566D01*
X95536691Y-101271773D01*
X95536690Y-101271772D01*
X95533530Y-101264142D01*
X95476196Y-101189423D01*
X95441660Y-101144416D01*
X95436634Y-101137866D01*
X95310358Y-101040970D01*
X95302727Y-101037809D01*
X95170934Y-100983219D01*
X95170930Y-100983218D01*
X95163306Y-100980060D01*
X95155126Y-100978983D01*
X95155122Y-100978982D01*
X95049205Y-100965038D01*
X95049206Y-100965038D01*
X95045119Y-100964500D01*
X94965881Y-100964500D01*
X94961794Y-100965038D01*
X94961795Y-100965038D01*
X94855878Y-100978982D01*
X94855874Y-100978983D01*
X94847694Y-100980060D01*
X94840070Y-100983218D01*
X94840066Y-100983219D01*
X94708273Y-101037809D01*
X94700642Y-101040970D01*
X94574366Y-101137866D01*
X94569340Y-101144416D01*
X94534805Y-101189423D01*
X94477470Y-101264142D01*
X94474310Y-101271772D01*
X94474309Y-101271773D01*
X94419719Y-101403566D01*
X94419718Y-101403570D01*
X94416560Y-101411194D01*
X94395784Y-101569000D01*
X94416560Y-101726806D01*
X94419718Y-101734430D01*
X94419719Y-101734434D01*
X94474309Y-101866227D01*
X94477470Y-101873858D01*
X94574366Y-102000134D01*
X94672673Y-102075568D01*
X94683436Y-102083827D01*
X94725303Y-102141165D01*
X94729525Y-102212036D01*
X94694761Y-102273939D01*
X94670942Y-102290588D01*
X94671558Y-102291574D01*
X94523252Y-102384246D01*
X94518254Y-102389209D01*
X94518253Y-102389210D01*
X94475546Y-102431620D01*
X94399162Y-102507472D01*
X94305457Y-102655128D01*
X94303092Y-102661770D01*
X94249156Y-102813239D01*
X94249155Y-102813244D01*
X94246794Y-102819874D01*
X94245961Y-102826862D01*
X94245960Y-102826865D01*
X94238873Y-102886300D01*
X94226087Y-102993524D01*
X92663762Y-102993524D01*
X92662523Y-102981732D01*
X92653709Y-102897880D01*
X92646633Y-102830555D01*
X92611977Y-102728754D01*
X92592545Y-102671672D01*
X92592544Y-102671669D01*
X92590275Y-102665005D01*
X92498641Y-102516055D01*
X92376284Y-102391109D01*
X92229286Y-102296375D01*
X92222663Y-102293964D01*
X92222660Y-102293963D01*
X92071577Y-102238974D01*
X92071578Y-102238974D01*
X92064953Y-102236563D01*
X91929890Y-102219500D01*
X90786531Y-102219500D01*
X90656710Y-102234062D01*
X90650057Y-102236379D01*
X90650056Y-102236379D01*
X90583075Y-102259705D01*
X90491558Y-102291574D01*
X90485584Y-102295307D01*
X90485582Y-102295308D01*
X90471099Y-102304358D01*
X90343252Y-102384246D01*
X90338254Y-102389209D01*
X90338253Y-102389210D01*
X90295546Y-102431620D01*
X90219162Y-102507472D01*
X90125457Y-102655128D01*
X90123092Y-102661770D01*
X90069156Y-102813239D01*
X90069155Y-102813244D01*
X90066794Y-102819874D01*
X90065961Y-102826862D01*
X90065960Y-102826865D01*
X90058873Y-102886300D01*
X90046087Y-102993524D01*
X89662000Y-102993524D01*
X89662000Y-100433381D01*
X153399160Y-100433381D01*
X153399237Y-100434470D01*
X153401698Y-100438206D01*
X153675632Y-100648404D01*
X153681262Y-100652259D01*
X153981591Y-100834862D01*
X153987593Y-100838080D01*
X154305897Y-100987184D01*
X154312202Y-100989732D01*
X154644743Y-101103587D01*
X154651313Y-101105446D01*
X154994183Y-101182714D01*
X155000912Y-101183853D01*
X155350143Y-101223643D01*
X155356933Y-101224046D01*
X155708419Y-101225886D01*
X155715220Y-101225554D01*
X156064853Y-101189423D01*
X156071581Y-101188357D01*
X156415274Y-101114676D01*
X156421822Y-101112897D01*
X156755549Y-101002527D01*
X156761891Y-101000041D01*
X157081718Y-100854288D01*
X157087777Y-100851121D01*
X157389995Y-100671676D01*
X157395659Y-100667884D01*
X157676732Y-100456849D01*
X157681958Y-100452464D01*
X157691613Y-100443428D01*
X157699682Y-100429750D01*
X157699654Y-100429024D01*
X157694512Y-100420723D01*
X155562810Y-98289020D01*
X155548869Y-98281408D01*
X155547034Y-98281539D01*
X155540420Y-98285790D01*
X153406774Y-100419437D01*
X153399160Y-100433381D01*
X89662000Y-100433381D01*
X89662000Y-97908832D01*
X152237333Y-97908832D01*
X152255117Y-98259893D01*
X152255827Y-98266649D01*
X152311420Y-98613723D01*
X152312859Y-98620378D01*
X152405608Y-98959410D01*
X152407757Y-98965871D01*
X152536581Y-99292912D01*
X152539412Y-99299095D01*
X152702803Y-99610310D01*
X152706286Y-99616152D01*
X152902330Y-99907896D01*
X152906433Y-99913340D01*
X153026425Y-100055836D01*
X153039164Y-100064279D01*
X153049608Y-100058181D01*
X155177980Y-97929810D01*
X155184357Y-97918131D01*
X155914408Y-97918131D01*
X155914539Y-97919966D01*
X155918790Y-97926580D01*
X158049009Y-100056798D01*
X158062605Y-100064223D01*
X158072218Y-100057522D01*
X158172518Y-99940912D01*
X158176676Y-99935514D01*
X158375762Y-99645840D01*
X158379310Y-99640029D01*
X158545942Y-99330559D01*
X158548849Y-99324381D01*
X158681090Y-98998713D01*
X158683304Y-98992283D01*
X158779598Y-98654237D01*
X158781105Y-98647607D01*
X158840332Y-98301118D01*
X158841112Y-98294378D01*
X158862668Y-97941925D01*
X158862784Y-97938323D01*
X158862853Y-97918819D01*
X158862761Y-97915194D01*
X158843666Y-97562615D01*
X158842931Y-97555849D01*
X158786130Y-97208985D01*
X158784663Y-97202313D01*
X158690736Y-96863627D01*
X158688562Y-96857163D01*
X158558598Y-96530578D01*
X158555742Y-96524398D01*
X158391269Y-96213763D01*
X158387769Y-96207937D01*
X158190697Y-95916862D01*
X158186590Y-95911453D01*
X158073565Y-95778179D01*
X158060740Y-95769743D01*
X158050416Y-95775795D01*
X155922020Y-97904190D01*
X155914408Y-97918131D01*
X155184357Y-97918131D01*
X155185592Y-97915869D01*
X155185461Y-97914034D01*
X155181210Y-97907420D01*
X153050992Y-95777203D01*
X153037455Y-95769811D01*
X153027753Y-95776599D01*
X152920430Y-95902257D01*
X152916296Y-95907664D01*
X152718215Y-96198041D01*
X152714697Y-96203851D01*
X152549134Y-96513922D01*
X152546259Y-96520087D01*
X152415155Y-96846218D01*
X152412962Y-96852658D01*
X152317846Y-97191044D01*
X152316363Y-97197679D01*
X152258350Y-97544354D01*
X152257591Y-97551126D01*
X152237357Y-97902037D01*
X152237333Y-97908832D01*
X89662000Y-97908832D01*
X89662000Y-94353524D01*
X90046087Y-94353524D01*
X90064367Y-94527445D01*
X90066636Y-94534111D01*
X90066637Y-94534114D01*
X90105873Y-94649367D01*
X90120725Y-94692995D01*
X90212359Y-94841945D01*
X90334716Y-94966891D01*
X90481714Y-95061625D01*
X90488337Y-95064036D01*
X90488340Y-95064037D01*
X90501273Y-95068744D01*
X90646047Y-95121437D01*
X90781110Y-95138500D01*
X91924469Y-95138500D01*
X92054290Y-95123938D01*
X92068396Y-95119026D01*
X92127925Y-95098295D01*
X92219442Y-95066426D01*
X92227126Y-95061625D01*
X92361774Y-94977487D01*
X92367748Y-94973754D01*
X92379727Y-94961859D01*
X92486841Y-94855490D01*
X92491838Y-94850528D01*
X92499659Y-94838205D01*
X92560699Y-94742020D01*
X92585543Y-94702872D01*
X92605266Y-94647482D01*
X92641844Y-94544761D01*
X92641845Y-94544756D01*
X92644206Y-94538126D01*
X92648100Y-94505477D01*
X92664079Y-94371469D01*
X92664913Y-94364476D01*
X92663762Y-94353524D01*
X94226087Y-94353524D01*
X94244367Y-94527445D01*
X94246636Y-94534111D01*
X94246637Y-94534114D01*
X94285873Y-94649367D01*
X94300725Y-94692995D01*
X94392359Y-94841945D01*
X94514716Y-94966891D01*
X94547882Y-94988265D01*
X94655792Y-95057809D01*
X94655795Y-95057811D01*
X94661714Y-95061625D01*
X94664127Y-95062503D01*
X94714949Y-95109507D01*
X94732734Y-95178240D01*
X94710536Y-95245677D01*
X94683505Y-95274119D01*
X94574366Y-95357866D01*
X94569340Y-95364416D01*
X94490875Y-95466673D01*
X94477470Y-95484142D01*
X94474310Y-95491772D01*
X94474309Y-95491773D01*
X94419719Y-95623566D01*
X94419718Y-95623570D01*
X94416560Y-95631194D01*
X94395784Y-95789000D01*
X94416560Y-95946806D01*
X94419718Y-95954430D01*
X94419719Y-95954434D01*
X94474309Y-96086227D01*
X94477470Y-96093858D01*
X94482497Y-96100409D01*
X94482498Y-96100411D01*
X94504767Y-96129432D01*
X94574366Y-96220134D01*
X94700642Y-96317030D01*
X94708272Y-96320190D01*
X94708273Y-96320191D01*
X94840066Y-96374781D01*
X94840070Y-96374782D01*
X94847694Y-96377940D01*
X94855874Y-96379017D01*
X94855878Y-96379018D01*
X94951899Y-96391659D01*
X94965881Y-96393500D01*
X95045119Y-96393500D01*
X95059101Y-96391659D01*
X95155122Y-96379018D01*
X95155126Y-96379017D01*
X95163306Y-96377940D01*
X95170930Y-96374782D01*
X95170934Y-96374781D01*
X95302727Y-96320191D01*
X95302728Y-96320190D01*
X95310358Y-96317030D01*
X95422348Y-96231096D01*
X97459729Y-96231096D01*
X97462679Y-96257812D01*
X97475593Y-96374781D01*
X97477113Y-96388553D01*
X97479723Y-96395684D01*
X97479723Y-96395686D01*
X97526825Y-96524398D01*
X97531553Y-96537319D01*
X97535789Y-96543622D01*
X97535789Y-96543623D01*
X97610580Y-96654923D01*
X97619908Y-96668805D01*
X97625527Y-96673918D01*
X97625528Y-96673919D01*
X97636903Y-96684269D01*
X97737076Y-96775419D01*
X97876293Y-96851008D01*
X98029522Y-96891207D01*
X98113477Y-96892526D01*
X98180319Y-96893576D01*
X98180322Y-96893576D01*
X98187916Y-96893695D01*
X98342332Y-96858329D01*
X98443781Y-96807306D01*
X98477072Y-96790563D01*
X98477075Y-96790561D01*
X98483855Y-96787151D01*
X98489626Y-96782222D01*
X98489629Y-96782220D01*
X98598536Y-96689204D01*
X98598536Y-96689203D01*
X98604314Y-96684269D01*
X98696755Y-96555624D01*
X98755842Y-96408641D01*
X98776142Y-96266000D01*
X98777581Y-96255891D01*
X98777581Y-96255888D01*
X98778162Y-96251807D01*
X98778307Y-96238000D01*
X98775889Y-96218014D01*
X98765169Y-96129432D01*
X98759276Y-96080733D01*
X98708364Y-95946000D01*
X102071915Y-95946000D01*
X102072993Y-95954188D01*
X102089653Y-96080733D01*
X102090972Y-96090754D01*
X102094131Y-96098380D01*
X102141925Y-96213763D01*
X102146845Y-96225642D01*
X102235726Y-96341474D01*
X102242276Y-96346500D01*
X102242279Y-96346503D01*
X102335951Y-96418380D01*
X102351557Y-96430355D01*
X102486446Y-96486228D01*
X102631200Y-96505285D01*
X102639388Y-96504207D01*
X102767766Y-96487306D01*
X102775954Y-96486228D01*
X102910843Y-96430355D01*
X102926449Y-96418380D01*
X103020121Y-96346503D01*
X103020124Y-96346500D01*
X103026674Y-96341474D01*
X103084587Y-96266000D01*
X118592115Y-96266000D01*
X118593193Y-96274188D01*
X118608830Y-96392962D01*
X118611172Y-96410754D01*
X118619291Y-96430355D01*
X118656460Y-96520087D01*
X118667045Y-96545642D01*
X118755926Y-96661474D01*
X118762476Y-96666500D01*
X118762479Y-96666503D01*
X118865204Y-96745327D01*
X118871757Y-96750355D01*
X119006646Y-96806228D01*
X119151400Y-96825285D01*
X119159588Y-96824207D01*
X119287966Y-96807306D01*
X119296154Y-96806228D01*
X119431043Y-96750355D01*
X119437596Y-96745327D01*
X119540321Y-96666503D01*
X119540324Y-96666500D01*
X119546874Y-96661474D01*
X119635755Y-96545642D01*
X119646341Y-96520087D01*
X119683509Y-96430355D01*
X119691628Y-96410754D01*
X119693971Y-96392962D01*
X119709607Y-96274188D01*
X119710685Y-96266000D01*
X121781715Y-96266000D01*
X121782793Y-96274188D01*
X121798430Y-96392962D01*
X121800772Y-96410754D01*
X121808891Y-96430355D01*
X121846060Y-96520087D01*
X121856645Y-96545642D01*
X121945526Y-96661474D01*
X121952076Y-96666500D01*
X121952079Y-96666503D01*
X122054804Y-96745327D01*
X122061357Y-96750355D01*
X122196246Y-96806228D01*
X122341000Y-96825285D01*
X122349188Y-96824207D01*
X122477566Y-96807306D01*
X122485754Y-96806228D01*
X122620643Y-96750355D01*
X122627196Y-96745327D01*
X122729921Y-96666503D01*
X122729924Y-96666500D01*
X122736474Y-96661474D01*
X122825355Y-96545642D01*
X122835941Y-96520087D01*
X122873109Y-96430355D01*
X122881228Y-96410754D01*
X122883571Y-96392962D01*
X122899207Y-96274188D01*
X122900285Y-96266000D01*
X122881228Y-96121246D01*
X122825355Y-95986358D01*
X122736474Y-95870526D01*
X122729924Y-95865500D01*
X122729921Y-95865497D01*
X122627196Y-95786673D01*
X122627194Y-95786672D01*
X122620643Y-95781645D01*
X122485754Y-95725772D01*
X122341000Y-95706715D01*
X122332812Y-95707793D01*
X122204432Y-95724694D01*
X122204430Y-95724695D01*
X122196246Y-95725772D01*
X122148430Y-95745578D01*
X122068986Y-95778485D01*
X122068984Y-95778486D01*
X122061358Y-95781645D01*
X121945526Y-95870526D01*
X121856645Y-95986358D01*
X121800772Y-96121246D01*
X121781715Y-96266000D01*
X119710685Y-96266000D01*
X119691628Y-96121246D01*
X119635755Y-95986358D01*
X119546874Y-95870526D01*
X119540324Y-95865500D01*
X119540321Y-95865497D01*
X119437596Y-95786673D01*
X119437594Y-95786672D01*
X119431043Y-95781645D01*
X119296154Y-95725772D01*
X119151400Y-95706715D01*
X119143212Y-95707793D01*
X119014832Y-95724694D01*
X119014830Y-95724695D01*
X119006646Y-95725772D01*
X118958830Y-95745578D01*
X118879386Y-95778485D01*
X118879384Y-95778486D01*
X118871758Y-95781645D01*
X118755926Y-95870526D01*
X118667045Y-95986358D01*
X118611172Y-96121246D01*
X118592115Y-96266000D01*
X103084587Y-96266000D01*
X103115555Y-96225642D01*
X103120476Y-96213763D01*
X103168269Y-96098380D01*
X103171428Y-96090754D01*
X103172748Y-96080733D01*
X103189407Y-95954188D01*
X103190485Y-95946000D01*
X103180549Y-95870526D01*
X103172506Y-95809432D01*
X103172505Y-95809430D01*
X103171428Y-95801246D01*
X103132272Y-95706715D01*
X103118715Y-95673986D01*
X103118714Y-95673984D01*
X103115555Y-95666358D01*
X103053697Y-95585743D01*
X103031701Y-95557077D01*
X103031700Y-95557076D01*
X103026674Y-95550526D01*
X103020124Y-95545500D01*
X103020121Y-95545497D01*
X102917396Y-95466673D01*
X102917394Y-95466672D01*
X102910843Y-95461645D01*
X102775954Y-95405772D01*
X102631200Y-95386715D01*
X102623012Y-95387793D01*
X102494632Y-95404694D01*
X102494630Y-95404695D01*
X102486446Y-95405772D01*
X102464190Y-95414991D01*
X102359186Y-95458485D01*
X102359184Y-95458486D01*
X102351558Y-95461645D01*
X102235726Y-95550526D01*
X102146845Y-95666358D01*
X102143686Y-95673984D01*
X102143685Y-95673986D01*
X102130128Y-95706715D01*
X102090972Y-95801246D01*
X102089895Y-95809430D01*
X102089894Y-95809432D01*
X102081851Y-95870526D01*
X102071915Y-95946000D01*
X98708364Y-95946000D01*
X98703280Y-95932546D01*
X98657199Y-95865497D01*
X98617855Y-95808251D01*
X98617854Y-95808249D01*
X98613553Y-95801992D01*
X98604157Y-95793620D01*
X98577260Y-95769656D01*
X98495275Y-95696611D01*
X98487889Y-95692700D01*
X98361988Y-95626039D01*
X98361989Y-95626039D01*
X98355274Y-95622484D01*
X98201633Y-95583892D01*
X98194034Y-95583852D01*
X98194033Y-95583852D01*
X98128181Y-95583507D01*
X98043221Y-95583062D01*
X98035841Y-95584834D01*
X98035839Y-95584834D01*
X97896563Y-95618271D01*
X97896560Y-95618272D01*
X97889184Y-95620043D01*
X97748414Y-95692700D01*
X97629039Y-95796838D01*
X97537950Y-95926444D01*
X97480406Y-96074037D01*
X97479414Y-96081570D01*
X97479414Y-96081571D01*
X97462011Y-96213763D01*
X97459729Y-96231096D01*
X95422348Y-96231096D01*
X95436634Y-96220134D01*
X95506233Y-96129432D01*
X95528502Y-96100411D01*
X95528503Y-96100409D01*
X95533530Y-96093858D01*
X95536691Y-96086227D01*
X95591281Y-95954434D01*
X95591282Y-95954430D01*
X95594440Y-95946806D01*
X95615216Y-95789000D01*
X95594440Y-95631194D01*
X95591282Y-95623570D01*
X95591281Y-95623566D01*
X95536691Y-95491773D01*
X95536690Y-95491772D01*
X95533530Y-95484142D01*
X95520126Y-95466673D01*
X95441660Y-95364416D01*
X95436634Y-95357866D01*
X95430674Y-95353293D01*
X95396813Y-95291283D01*
X95401878Y-95220468D01*
X95444425Y-95163632D01*
X95510945Y-95138821D01*
X95519934Y-95138500D01*
X96104469Y-95138500D01*
X96234290Y-95123938D01*
X96248396Y-95119026D01*
X96307925Y-95098295D01*
X96399442Y-95066426D01*
X96407126Y-95061625D01*
X96541774Y-94977487D01*
X96547748Y-94973754D01*
X96559727Y-94961859D01*
X96627658Y-94894400D01*
X127018715Y-94894400D01*
X127019793Y-94902588D01*
X127031365Y-94990484D01*
X127037772Y-95039154D01*
X127093645Y-95174042D01*
X127182526Y-95289874D01*
X127189076Y-95294900D01*
X127189079Y-95294903D01*
X127264584Y-95352840D01*
X127298357Y-95378755D01*
X127433246Y-95434628D01*
X127578000Y-95453685D01*
X127586188Y-95452607D01*
X127714566Y-95435706D01*
X127722754Y-95434628D01*
X127797029Y-95403862D01*
X153399950Y-95403862D01*
X153399986Y-95404704D01*
X153405037Y-95412826D01*
X155537190Y-97544980D01*
X155551131Y-97552592D01*
X155552966Y-97552461D01*
X155559580Y-97548210D01*
X157692798Y-95414991D01*
X157700412Y-95401047D01*
X157700344Y-95400089D01*
X157695836Y-95393272D01*
X157694418Y-95392065D01*
X157414813Y-95179064D01*
X157409187Y-95175240D01*
X157108214Y-94993681D01*
X157102202Y-94990484D01*
X156783370Y-94842487D01*
X156777070Y-94839967D01*
X156444129Y-94727273D01*
X156437551Y-94725437D01*
X156094417Y-94649367D01*
X156087678Y-94648251D01*
X155738310Y-94609680D01*
X155731529Y-94609301D01*
X155380015Y-94608687D01*
X155373242Y-94609042D01*
X155023720Y-94646395D01*
X155017010Y-94647482D01*
X154673586Y-94722361D01*
X154667011Y-94724172D01*
X154333683Y-94835702D01*
X154327361Y-94838205D01*
X154008034Y-94985079D01*
X154001991Y-94988265D01*
X153700401Y-95168763D01*
X153694755Y-95172571D01*
X153414408Y-95384596D01*
X153409211Y-95388987D01*
X153407972Y-95390155D01*
X153399950Y-95403862D01*
X127797029Y-95403862D01*
X127857643Y-95378755D01*
X127891416Y-95352840D01*
X127966921Y-95294903D01*
X127966924Y-95294900D01*
X127973474Y-95289874D01*
X128062355Y-95174042D01*
X128118228Y-95039154D01*
X128124636Y-94990484D01*
X128136207Y-94902588D01*
X128137285Y-94894400D01*
X128134159Y-94870655D01*
X128119306Y-94757832D01*
X128119305Y-94757830D01*
X128118228Y-94749646D01*
X128076691Y-94649367D01*
X128065515Y-94622386D01*
X128065514Y-94622384D01*
X128062355Y-94614758D01*
X127998189Y-94531135D01*
X127978501Y-94505477D01*
X127978500Y-94505476D01*
X127973474Y-94498926D01*
X127966924Y-94493900D01*
X127966921Y-94493897D01*
X127864196Y-94415073D01*
X127864194Y-94415072D01*
X127857643Y-94410045D01*
X127722754Y-94354172D01*
X127578000Y-94335115D01*
X127569812Y-94336193D01*
X127441432Y-94353094D01*
X127441430Y-94353095D01*
X127433246Y-94354172D01*
X127408370Y-94364476D01*
X127305986Y-94406885D01*
X127305984Y-94406886D01*
X127298358Y-94410045D01*
X127182526Y-94498926D01*
X127093645Y-94614758D01*
X127090486Y-94622384D01*
X127090485Y-94622386D01*
X127079309Y-94649367D01*
X127037772Y-94749646D01*
X127036695Y-94757830D01*
X127036694Y-94757832D01*
X127021841Y-94870655D01*
X127018715Y-94894400D01*
X96627658Y-94894400D01*
X96666841Y-94855490D01*
X96671838Y-94850528D01*
X96679659Y-94838205D01*
X96740699Y-94742020D01*
X96765543Y-94702872D01*
X96785266Y-94647482D01*
X96821844Y-94544761D01*
X96821845Y-94544756D01*
X96824206Y-94538126D01*
X96828100Y-94505477D01*
X96844079Y-94371469D01*
X96844913Y-94364476D01*
X96826633Y-94190555D01*
X96770275Y-94025005D01*
X96678641Y-93876055D01*
X96556284Y-93751109D01*
X96409286Y-93656375D01*
X96402663Y-93653964D01*
X96402660Y-93653963D01*
X96251577Y-93598974D01*
X96251578Y-93598974D01*
X96244953Y-93596563D01*
X96109890Y-93579500D01*
X94966531Y-93579500D01*
X94836710Y-93594062D01*
X94830057Y-93596379D01*
X94830056Y-93596379D01*
X94763075Y-93619705D01*
X94671558Y-93651574D01*
X94665584Y-93655307D01*
X94665582Y-93655308D01*
X94529226Y-93740513D01*
X94523252Y-93744246D01*
X94518254Y-93749209D01*
X94518253Y-93749210D01*
X94463187Y-93803893D01*
X94399162Y-93867472D01*
X94305457Y-94015128D01*
X94303092Y-94021770D01*
X94249156Y-94173239D01*
X94249155Y-94173244D01*
X94246794Y-94179874D01*
X94226087Y-94353524D01*
X92663762Y-94353524D01*
X92646633Y-94190555D01*
X92590275Y-94025005D01*
X92498641Y-93876055D01*
X92376284Y-93751109D01*
X92229286Y-93656375D01*
X92222663Y-93653964D01*
X92222660Y-93653963D01*
X92071577Y-93598974D01*
X92071578Y-93598974D01*
X92064953Y-93596563D01*
X91929890Y-93579500D01*
X90786531Y-93579500D01*
X90656710Y-93594062D01*
X90650057Y-93596379D01*
X90650056Y-93596379D01*
X90583075Y-93619705D01*
X90491558Y-93651574D01*
X90485584Y-93655307D01*
X90485582Y-93655308D01*
X90349226Y-93740513D01*
X90343252Y-93744246D01*
X90338254Y-93749209D01*
X90338253Y-93749210D01*
X90283187Y-93803893D01*
X90219162Y-93867472D01*
X90125457Y-94015128D01*
X90123092Y-94021770D01*
X90069156Y-94173239D01*
X90069155Y-94173244D01*
X90066794Y-94179874D01*
X90046087Y-94353524D01*
X89662000Y-94353524D01*
X89662000Y-90607263D01*
X141859904Y-90607263D01*
X141867294Y-90617566D01*
X141902455Y-90646192D01*
X141909731Y-90651305D01*
X142127514Y-90782421D01*
X142135428Y-90786454D01*
X142369523Y-90885581D01*
X142377928Y-90888458D01*
X142623650Y-90953610D01*
X142632382Y-90955276D01*
X142884835Y-90985155D01*
X142893703Y-90985573D01*
X143147843Y-90979584D01*
X143156698Y-90978747D01*
X143407459Y-90937009D01*
X143416093Y-90934936D01*
X143658477Y-90858280D01*
X143666739Y-90855009D01*
X143895895Y-90744970D01*
X143903619Y-90740564D01*
X144086218Y-90618556D01*
X144094506Y-90608638D01*
X144087249Y-90594459D01*
X142989812Y-89497022D01*
X142975868Y-89489408D01*
X142974035Y-89489539D01*
X142967420Y-89493790D01*
X141867070Y-90594140D01*
X141859904Y-90607263D01*
X89662000Y-90607263D01*
X89662000Y-89765381D01*
X91744660Y-89765381D01*
X91744737Y-89766470D01*
X91747198Y-89770206D01*
X92021132Y-89980404D01*
X92026762Y-89984259D01*
X92327091Y-90166862D01*
X92333093Y-90170080D01*
X92651397Y-90319184D01*
X92657702Y-90321732D01*
X92990243Y-90435587D01*
X92996813Y-90437446D01*
X93339683Y-90514714D01*
X93346412Y-90515853D01*
X93695643Y-90555643D01*
X93702433Y-90556046D01*
X94053919Y-90557886D01*
X94060720Y-90557554D01*
X94410353Y-90521423D01*
X94417081Y-90520357D01*
X94760774Y-90446676D01*
X94767322Y-90444897D01*
X95101049Y-90334527D01*
X95107391Y-90332041D01*
X95427218Y-90186288D01*
X95433277Y-90183121D01*
X95735495Y-90003676D01*
X95741159Y-89999884D01*
X96022232Y-89788849D01*
X96027458Y-89784464D01*
X96037113Y-89775428D01*
X96045182Y-89761750D01*
X96045154Y-89761024D01*
X96040012Y-89752723D01*
X93908310Y-87621020D01*
X93894369Y-87613408D01*
X93892534Y-87613539D01*
X93885920Y-87617790D01*
X91752274Y-89751437D01*
X91744660Y-89765381D01*
X89662000Y-89765381D01*
X89662000Y-87240832D01*
X90582833Y-87240832D01*
X90600617Y-87591893D01*
X90601327Y-87598649D01*
X90656920Y-87945723D01*
X90658359Y-87952378D01*
X90751108Y-88291410D01*
X90753257Y-88297871D01*
X90882081Y-88624912D01*
X90884912Y-88631095D01*
X91048303Y-88942310D01*
X91051786Y-88948152D01*
X91247830Y-89239896D01*
X91251933Y-89245340D01*
X91371925Y-89387836D01*
X91384664Y-89396279D01*
X91395108Y-89390181D01*
X93523480Y-87261810D01*
X93529857Y-87250131D01*
X94259908Y-87250131D01*
X94260039Y-87251966D01*
X94264290Y-87258580D01*
X96394509Y-89388798D01*
X96408105Y-89396223D01*
X96417718Y-89389522D01*
X96518018Y-89272912D01*
X96522176Y-89267514D01*
X96657275Y-89070942D01*
X141115348Y-89070942D01*
X141125328Y-89324960D01*
X141126302Y-89333784D01*
X141171978Y-89583875D01*
X141174182Y-89592462D01*
X141254636Y-89833613D01*
X141258040Y-89841831D01*
X141371667Y-90069235D01*
X141376185Y-90076874D01*
X141484294Y-90233296D01*
X141494612Y-90241647D01*
X141508267Y-90234523D01*
X142604978Y-89137812D01*
X142611356Y-89126132D01*
X143341408Y-89126132D01*
X143341539Y-89127965D01*
X143345790Y-89134580D01*
X144447027Y-90235817D01*
X144460428Y-90243135D01*
X144470329Y-90236149D01*
X144481127Y-90223305D01*
X144486353Y-90216110D01*
X144620867Y-90000425D01*
X144625038Y-89992547D01*
X144727817Y-89760065D01*
X144730833Y-89751688D01*
X144799832Y-89507034D01*
X144801636Y-89498326D01*
X144835643Y-89245145D01*
X144836171Y-89238752D01*
X144839645Y-89128222D01*
X144839581Y-89125000D01*
X145558539Y-89125000D01*
X145578354Y-89376775D01*
X145579508Y-89381582D01*
X145579509Y-89381588D01*
X145605395Y-89489408D01*
X145637312Y-89622351D01*
X145639205Y-89626922D01*
X145639206Y-89626924D01*
X145728224Y-89841831D01*
X145733960Y-89855680D01*
X145865919Y-90071017D01*
X146029939Y-90263061D01*
X146221983Y-90427081D01*
X146437320Y-90559040D01*
X146441890Y-90560933D01*
X146441894Y-90560935D01*
X146660067Y-90651305D01*
X146670649Y-90655688D01*
X146756865Y-90676387D01*
X146911412Y-90713491D01*
X146911418Y-90713492D01*
X146916225Y-90714646D01*
X147168000Y-90734461D01*
X147419775Y-90714646D01*
X147424582Y-90713492D01*
X147424588Y-90713491D01*
X147579135Y-90676387D01*
X147665351Y-90655688D01*
X147675933Y-90651305D01*
X147894106Y-90560935D01*
X147894110Y-90560933D01*
X147898680Y-90559040D01*
X148114017Y-90427081D01*
X148306061Y-90263061D01*
X148470081Y-90071017D01*
X148602040Y-89855680D01*
X148607777Y-89841831D01*
X148696794Y-89626924D01*
X148696795Y-89626922D01*
X148698688Y-89622351D01*
X148730605Y-89489408D01*
X148756491Y-89381588D01*
X148756492Y-89381582D01*
X148757646Y-89376775D01*
X148777461Y-89125000D01*
X149749539Y-89125000D01*
X149769354Y-89376775D01*
X149770508Y-89381582D01*
X149770509Y-89381588D01*
X149796395Y-89489408D01*
X149828312Y-89622351D01*
X149830205Y-89626922D01*
X149830206Y-89626924D01*
X149919224Y-89841831D01*
X149924960Y-89855680D01*
X150056919Y-90071017D01*
X150220939Y-90263061D01*
X150412983Y-90427081D01*
X150628320Y-90559040D01*
X150632890Y-90560933D01*
X150632894Y-90560935D01*
X150851067Y-90651305D01*
X150861649Y-90655688D01*
X150947865Y-90676387D01*
X151102412Y-90713491D01*
X151102418Y-90713492D01*
X151107225Y-90714646D01*
X151359000Y-90734461D01*
X151610775Y-90714646D01*
X151615582Y-90713492D01*
X151615588Y-90713491D01*
X151770135Y-90676387D01*
X151856351Y-90655688D01*
X151866933Y-90651305D01*
X152085106Y-90560935D01*
X152085110Y-90560933D01*
X152089680Y-90559040D01*
X152305017Y-90427081D01*
X152497061Y-90263061D01*
X152661081Y-90071017D01*
X152793040Y-89855680D01*
X152798777Y-89841831D01*
X152887794Y-89626924D01*
X152887795Y-89626922D01*
X152889688Y-89622351D01*
X152921605Y-89489408D01*
X152947491Y-89381588D01*
X152947492Y-89381582D01*
X152948646Y-89376775D01*
X152968461Y-89125000D01*
X153940539Y-89125000D01*
X153960354Y-89376775D01*
X153961508Y-89381582D01*
X153961509Y-89381588D01*
X153987395Y-89489408D01*
X154019312Y-89622351D01*
X154021205Y-89626922D01*
X154021206Y-89626924D01*
X154110224Y-89841831D01*
X154115960Y-89855680D01*
X154247919Y-90071017D01*
X154411939Y-90263061D01*
X154603983Y-90427081D01*
X154819320Y-90559040D01*
X154823890Y-90560933D01*
X154823894Y-90560935D01*
X155042067Y-90651305D01*
X155052649Y-90655688D01*
X155138865Y-90676387D01*
X155293412Y-90713491D01*
X155293418Y-90713492D01*
X155298225Y-90714646D01*
X155550000Y-90734461D01*
X155801775Y-90714646D01*
X155806582Y-90713492D01*
X155806588Y-90713491D01*
X155961135Y-90676387D01*
X156047351Y-90655688D01*
X156057933Y-90651305D01*
X156276106Y-90560935D01*
X156276110Y-90560933D01*
X156280680Y-90559040D01*
X156496017Y-90427081D01*
X156688061Y-90263061D01*
X156852081Y-90071017D01*
X156984040Y-89855680D01*
X156989777Y-89841831D01*
X157078794Y-89626924D01*
X157078795Y-89626922D01*
X157080688Y-89622351D01*
X157112605Y-89489408D01*
X157138491Y-89381588D01*
X157138492Y-89381582D01*
X157139646Y-89376775D01*
X157159461Y-89125000D01*
X157139646Y-88873225D01*
X157138492Y-88868418D01*
X157138491Y-88868412D01*
X157081843Y-88632461D01*
X157080688Y-88627649D01*
X156984040Y-88394320D01*
X156852081Y-88178983D01*
X156688061Y-87986939D01*
X156496017Y-87822919D01*
X156348358Y-87732433D01*
X156300727Y-87679785D01*
X156289120Y-87609743D01*
X156317223Y-87544546D01*
X156348358Y-87517567D01*
X156491800Y-87429665D01*
X156496017Y-87427081D01*
X156688061Y-87263061D01*
X156852081Y-87071017D01*
X156984040Y-86855680D01*
X157080688Y-86622351D01*
X157104530Y-86523044D01*
X157138491Y-86381588D01*
X157138492Y-86381582D01*
X157139646Y-86376775D01*
X157159461Y-86125000D01*
X157139646Y-85873225D01*
X157138492Y-85868418D01*
X157138491Y-85868412D01*
X157081843Y-85632461D01*
X157080688Y-85627649D01*
X157042664Y-85535851D01*
X156985935Y-85398894D01*
X156985933Y-85398890D01*
X156984040Y-85394320D01*
X156852081Y-85178983D01*
X156688061Y-84986939D01*
X156496017Y-84822919D01*
X156280680Y-84690960D01*
X156276110Y-84689067D01*
X156276106Y-84689065D01*
X156051924Y-84596206D01*
X156051922Y-84596205D01*
X156047351Y-84594312D01*
X155961135Y-84573613D01*
X155806588Y-84536509D01*
X155806582Y-84536508D01*
X155801775Y-84535354D01*
X155550000Y-84515539D01*
X155298225Y-84535354D01*
X155293418Y-84536508D01*
X155293412Y-84536509D01*
X155138865Y-84573613D01*
X155052649Y-84594312D01*
X155048078Y-84596205D01*
X155048076Y-84596206D01*
X154823894Y-84689065D01*
X154823890Y-84689067D01*
X154819320Y-84690960D01*
X154603983Y-84822919D01*
X154411939Y-84986939D01*
X154247919Y-85178983D01*
X154115960Y-85394320D01*
X154114067Y-85398890D01*
X154114065Y-85398894D01*
X154057336Y-85535851D01*
X154019312Y-85627649D01*
X154018157Y-85632461D01*
X153961509Y-85868412D01*
X153961508Y-85868418D01*
X153960354Y-85873225D01*
X153940539Y-86125000D01*
X153960354Y-86376775D01*
X153961508Y-86381582D01*
X153961509Y-86381588D01*
X153995470Y-86523044D01*
X154019312Y-86622351D01*
X154115960Y-86855680D01*
X154247919Y-87071017D01*
X154411939Y-87263061D01*
X154603983Y-87427081D01*
X154608200Y-87429665D01*
X154751642Y-87517567D01*
X154799273Y-87570215D01*
X154810880Y-87640257D01*
X154782777Y-87705454D01*
X154751642Y-87732433D01*
X154603983Y-87822919D01*
X154411939Y-87986939D01*
X154247919Y-88178983D01*
X154115960Y-88394320D01*
X154019312Y-88627649D01*
X154018157Y-88632461D01*
X153961509Y-88868412D01*
X153961508Y-88868418D01*
X153960354Y-88873225D01*
X153940539Y-89125000D01*
X152968461Y-89125000D01*
X152948646Y-88873225D01*
X152947492Y-88868418D01*
X152947491Y-88868412D01*
X152890843Y-88632461D01*
X152889688Y-88627649D01*
X152793040Y-88394320D01*
X152661081Y-88178983D01*
X152497061Y-87986939D01*
X152305017Y-87822919D01*
X152157358Y-87732433D01*
X152109727Y-87679785D01*
X152098120Y-87609743D01*
X152126223Y-87544546D01*
X152157358Y-87517567D01*
X152300800Y-87429665D01*
X152305017Y-87427081D01*
X152497061Y-87263061D01*
X152661081Y-87071017D01*
X152793040Y-86855680D01*
X152889688Y-86622351D01*
X152913530Y-86523044D01*
X152947491Y-86381588D01*
X152947492Y-86381582D01*
X152948646Y-86376775D01*
X152968461Y-86125000D01*
X152948646Y-85873225D01*
X152947492Y-85868418D01*
X152947491Y-85868412D01*
X152890843Y-85632461D01*
X152889688Y-85627649D01*
X152851664Y-85535851D01*
X152794935Y-85398894D01*
X152794933Y-85398890D01*
X152793040Y-85394320D01*
X152661081Y-85178983D01*
X152497061Y-84986939D01*
X152305017Y-84822919D01*
X152089680Y-84690960D01*
X152085110Y-84689067D01*
X152085106Y-84689065D01*
X151860924Y-84596206D01*
X151860922Y-84596205D01*
X151856351Y-84594312D01*
X151770135Y-84573613D01*
X151615588Y-84536509D01*
X151615582Y-84536508D01*
X151610775Y-84535354D01*
X151359000Y-84515539D01*
X151107225Y-84535354D01*
X151102418Y-84536508D01*
X151102412Y-84536509D01*
X150947865Y-84573613D01*
X150861649Y-84594312D01*
X150857078Y-84596205D01*
X150857076Y-84596206D01*
X150632894Y-84689065D01*
X150632890Y-84689067D01*
X150628320Y-84690960D01*
X150412983Y-84822919D01*
X150220939Y-84986939D01*
X150056919Y-85178983D01*
X149924960Y-85394320D01*
X149923067Y-85398890D01*
X149923065Y-85398894D01*
X149866336Y-85535851D01*
X149828312Y-85627649D01*
X149827157Y-85632461D01*
X149770509Y-85868412D01*
X149770508Y-85868418D01*
X149769354Y-85873225D01*
X149749539Y-86125000D01*
X149769354Y-86376775D01*
X149770508Y-86381582D01*
X149770509Y-86381588D01*
X149804470Y-86523044D01*
X149828312Y-86622351D01*
X149924960Y-86855680D01*
X150056919Y-87071017D01*
X150220939Y-87263061D01*
X150412983Y-87427081D01*
X150417200Y-87429665D01*
X150560642Y-87517567D01*
X150608273Y-87570215D01*
X150619880Y-87640257D01*
X150591777Y-87705454D01*
X150560642Y-87732433D01*
X150412983Y-87822919D01*
X150220939Y-87986939D01*
X150056919Y-88178983D01*
X149924960Y-88394320D01*
X149828312Y-88627649D01*
X149827157Y-88632461D01*
X149770509Y-88868412D01*
X149770508Y-88868418D01*
X149769354Y-88873225D01*
X149749539Y-89125000D01*
X148777461Y-89125000D01*
X148757646Y-88873225D01*
X148756492Y-88868418D01*
X148756491Y-88868412D01*
X148699843Y-88632461D01*
X148698688Y-88627649D01*
X148602040Y-88394320D01*
X148470081Y-88178983D01*
X148306061Y-87986939D01*
X148114017Y-87822919D01*
X147966358Y-87732433D01*
X147918727Y-87679785D01*
X147907120Y-87609743D01*
X147935223Y-87544546D01*
X147966358Y-87517567D01*
X148109800Y-87429665D01*
X148114017Y-87427081D01*
X148306061Y-87263061D01*
X148470081Y-87071017D01*
X148602040Y-86855680D01*
X148698688Y-86622351D01*
X148722530Y-86523044D01*
X148756491Y-86381588D01*
X148756492Y-86381582D01*
X148757646Y-86376775D01*
X148777461Y-86125000D01*
X148757646Y-85873225D01*
X148756492Y-85868418D01*
X148756491Y-85868412D01*
X148699843Y-85632461D01*
X148698688Y-85627649D01*
X148660664Y-85535851D01*
X148603935Y-85398894D01*
X148603933Y-85398890D01*
X148602040Y-85394320D01*
X148470081Y-85178983D01*
X148306061Y-84986939D01*
X148114017Y-84822919D01*
X147898680Y-84690960D01*
X147894110Y-84689067D01*
X147894106Y-84689065D01*
X147669924Y-84596206D01*
X147669922Y-84596205D01*
X147665351Y-84594312D01*
X147579135Y-84573613D01*
X147424588Y-84536509D01*
X147424582Y-84536508D01*
X147419775Y-84535354D01*
X147168000Y-84515539D01*
X146916225Y-84535354D01*
X146911418Y-84536508D01*
X146911412Y-84536509D01*
X146756865Y-84573613D01*
X146670649Y-84594312D01*
X146666078Y-84596205D01*
X146666076Y-84596206D01*
X146441894Y-84689065D01*
X146441890Y-84689067D01*
X146437320Y-84690960D01*
X146221983Y-84822919D01*
X146029939Y-84986939D01*
X145865919Y-85178983D01*
X145733960Y-85394320D01*
X145732067Y-85398890D01*
X145732065Y-85398894D01*
X145675336Y-85535851D01*
X145637312Y-85627649D01*
X145636157Y-85632461D01*
X145579509Y-85868412D01*
X145579508Y-85868418D01*
X145578354Y-85873225D01*
X145558539Y-86125000D01*
X145578354Y-86376775D01*
X145579508Y-86381582D01*
X145579509Y-86381588D01*
X145613470Y-86523044D01*
X145637312Y-86622351D01*
X145733960Y-86855680D01*
X145865919Y-87071017D01*
X146029939Y-87263061D01*
X146221983Y-87427081D01*
X146226200Y-87429665D01*
X146369642Y-87517567D01*
X146417273Y-87570215D01*
X146428880Y-87640257D01*
X146400777Y-87705454D01*
X146369642Y-87732433D01*
X146221983Y-87822919D01*
X146029939Y-87986939D01*
X145865919Y-88178983D01*
X145733960Y-88394320D01*
X145637312Y-88627649D01*
X145636157Y-88632461D01*
X145579509Y-88868412D01*
X145579508Y-88868418D01*
X145578354Y-88873225D01*
X145558539Y-89125000D01*
X144839581Y-89125000D01*
X144839518Y-89121779D01*
X144821478Y-88866986D01*
X144820225Y-88858183D01*
X144766720Y-88609662D01*
X144764241Y-88601129D01*
X144676254Y-88362630D01*
X144672599Y-88354535D01*
X144551881Y-88130807D01*
X144547122Y-88123309D01*
X144469004Y-88017545D01*
X144457876Y-88009103D01*
X144445283Y-88015927D01*
X143349022Y-89112188D01*
X143341408Y-89126132D01*
X142611356Y-89126132D01*
X142612592Y-89123868D01*
X142612461Y-89122035D01*
X142608210Y-89115420D01*
X141508423Y-88015633D01*
X141495582Y-88008621D01*
X141484893Y-88016416D01*
X141439115Y-88074485D01*
X141434122Y-88081833D01*
X141306440Y-88301655D01*
X141302532Y-88309629D01*
X141207097Y-88545247D01*
X141204348Y-88553709D01*
X141143067Y-88800413D01*
X141141538Y-88809174D01*
X141115627Y-89062059D01*
X141115348Y-89070942D01*
X96657275Y-89070942D01*
X96721262Y-88977840D01*
X96724810Y-88972029D01*
X96891442Y-88662559D01*
X96894349Y-88656381D01*
X97026590Y-88330713D01*
X97028804Y-88324283D01*
X97125098Y-87986237D01*
X97126605Y-87979607D01*
X97184052Y-87643533D01*
X141860889Y-87643533D01*
X141867869Y-87656659D01*
X142964188Y-88752978D01*
X142978132Y-88760592D01*
X142979965Y-88760461D01*
X142986580Y-88756210D01*
X144086129Y-87656661D01*
X144092983Y-87644109D01*
X144084776Y-87633039D01*
X144003230Y-87570805D01*
X143995801Y-87565925D01*
X143774005Y-87441713D01*
X143765971Y-87437932D01*
X143528865Y-87346203D01*
X143520392Y-87343596D01*
X143272736Y-87286193D01*
X143263960Y-87284803D01*
X143010691Y-87262868D01*
X143001820Y-87262728D01*
X142747976Y-87276698D01*
X142739174Y-87277810D01*
X142489832Y-87327408D01*
X142481279Y-87329748D01*
X142241421Y-87413978D01*
X142233255Y-87417512D01*
X142007669Y-87534696D01*
X142000097Y-87539335D01*
X141869292Y-87632810D01*
X141860889Y-87643533D01*
X97184052Y-87643533D01*
X97185832Y-87633118D01*
X97186612Y-87626378D01*
X97208168Y-87273925D01*
X97208284Y-87270323D01*
X97208353Y-87250819D01*
X97208261Y-87247194D01*
X97189166Y-86894615D01*
X97188431Y-86887849D01*
X97131630Y-86540985D01*
X97130163Y-86534313D01*
X97036236Y-86195627D01*
X97034062Y-86189163D01*
X96904098Y-85862578D01*
X96901242Y-85856398D01*
X96736769Y-85545763D01*
X96733269Y-85539937D01*
X96536197Y-85248862D01*
X96532090Y-85243453D01*
X96419065Y-85110179D01*
X96406240Y-85101743D01*
X96395916Y-85107795D01*
X94267520Y-87236190D01*
X94259908Y-87250131D01*
X93529857Y-87250131D01*
X93531092Y-87247869D01*
X93530961Y-87246034D01*
X93526710Y-87239420D01*
X91396492Y-85109203D01*
X91382955Y-85101811D01*
X91373253Y-85108599D01*
X91265930Y-85234257D01*
X91261796Y-85239664D01*
X91063715Y-85530041D01*
X91060197Y-85535851D01*
X90894634Y-85845922D01*
X90891759Y-85852087D01*
X90760655Y-86178218D01*
X90758462Y-86184658D01*
X90663346Y-86523044D01*
X90661863Y-86529679D01*
X90603850Y-86876354D01*
X90603091Y-86883126D01*
X90582857Y-87234037D01*
X90582833Y-87240832D01*
X89662000Y-87240832D01*
X89662000Y-84735862D01*
X91745450Y-84735862D01*
X91745486Y-84736704D01*
X91750537Y-84744826D01*
X93882690Y-86876980D01*
X93896631Y-86884592D01*
X93898466Y-86884461D01*
X93905080Y-86880210D01*
X96038298Y-84746991D01*
X96045912Y-84733047D01*
X96045844Y-84732089D01*
X96041336Y-84725272D01*
X96039918Y-84724065D01*
X95760313Y-84511064D01*
X95754687Y-84507240D01*
X95453714Y-84325681D01*
X95447702Y-84322484D01*
X95128870Y-84174487D01*
X95122570Y-84171967D01*
X94789629Y-84059273D01*
X94783051Y-84057437D01*
X94439917Y-83981367D01*
X94433178Y-83980251D01*
X94083810Y-83941680D01*
X94077029Y-83941301D01*
X93725515Y-83940687D01*
X93718742Y-83941042D01*
X93369220Y-83978395D01*
X93362510Y-83979482D01*
X93019086Y-84054361D01*
X93012511Y-84056172D01*
X92679183Y-84167702D01*
X92672861Y-84170205D01*
X92353534Y-84317079D01*
X92347491Y-84320265D01*
X92045901Y-84500763D01*
X92040255Y-84504571D01*
X91759908Y-84716596D01*
X91754711Y-84720987D01*
X91753472Y-84722155D01*
X91745450Y-84735862D01*
X89662000Y-84735862D01*
X89662000Y-76893856D01*
X96110601Y-76893856D01*
X96117059Y-76903216D01*
X96133361Y-76917512D01*
X96139901Y-76922530D01*
X96379144Y-77082387D01*
X96386281Y-77086508D01*
X96644349Y-77213772D01*
X96651953Y-77216922D01*
X96924420Y-77309412D01*
X96932383Y-77311546D01*
X97214600Y-77367683D01*
X97222751Y-77368756D01*
X97509881Y-77387575D01*
X97518119Y-77387575D01*
X97805249Y-77368756D01*
X97813400Y-77367683D01*
X98095617Y-77311546D01*
X98103580Y-77309412D01*
X98376047Y-77216922D01*
X98383651Y-77213772D01*
X98641719Y-77086508D01*
X98648856Y-77082387D01*
X98888099Y-76922530D01*
X98894639Y-76917512D01*
X98909074Y-76904853D01*
X98917472Y-76891614D01*
X98911638Y-76881849D01*
X97526810Y-75497020D01*
X97512869Y-75489408D01*
X97511034Y-75489539D01*
X97504420Y-75493790D01*
X96118116Y-76880095D01*
X96110601Y-76893856D01*
X89662000Y-76893856D01*
X89662000Y-75129119D01*
X95251425Y-75129119D01*
X95270244Y-75416249D01*
X95271317Y-75424400D01*
X95327454Y-75706617D01*
X95329588Y-75714580D01*
X95422078Y-75987047D01*
X95425228Y-75994651D01*
X95552492Y-76252718D01*
X95556613Y-76259855D01*
X95716470Y-76499099D01*
X95721488Y-76505639D01*
X95734147Y-76520074D01*
X95747386Y-76528472D01*
X95757151Y-76522638D01*
X97141980Y-75137810D01*
X97148357Y-75126131D01*
X97878408Y-75126131D01*
X97878539Y-75127966D01*
X97882790Y-75134580D01*
X99269095Y-76520884D01*
X99282856Y-76528399D01*
X99292216Y-76521941D01*
X99306512Y-76505639D01*
X99311530Y-76499099D01*
X99471387Y-76259855D01*
X99475508Y-76252718D01*
X99542588Y-76116692D01*
X99590656Y-76064443D01*
X99659342Y-76046476D01*
X99726837Y-76068495D01*
X99768307Y-76116101D01*
X99784236Y-76147980D01*
X99945631Y-76381500D01*
X100138320Y-76589950D01*
X100141774Y-76592762D01*
X100355001Y-76766356D01*
X100355005Y-76766359D01*
X100358458Y-76769170D01*
X100601652Y-76915585D01*
X100605747Y-76917319D01*
X100605749Y-76917320D01*
X100799936Y-76999547D01*
X100863049Y-77026272D01*
X100867342Y-77027410D01*
X100867347Y-77027412D01*
X101010898Y-77065473D01*
X101137435Y-77099024D01*
X101419334Y-77132389D01*
X101703122Y-77125701D01*
X101707517Y-77124969D01*
X101707522Y-77124969D01*
X101978734Y-77079827D01*
X101978738Y-77079826D01*
X101983136Y-77079094D01*
X102160887Y-77022878D01*
X102249544Y-76994840D01*
X102249546Y-76994839D01*
X102253790Y-76993497D01*
X102257801Y-76991571D01*
X102257806Y-76991569D01*
X102505665Y-76872549D01*
X102505666Y-76872548D01*
X102509684Y-76870619D01*
X102665724Y-76766356D01*
X102742002Y-76715389D01*
X102742006Y-76715386D01*
X102745710Y-76712911D01*
X102749027Y-76709940D01*
X102749031Y-76709937D01*
X102953845Y-76526490D01*
X102957161Y-76523520D01*
X103139817Y-76306225D01*
X103200060Y-76209629D01*
X103287669Y-76069152D01*
X103287671Y-76069149D01*
X103290033Y-76065361D01*
X103400259Y-75816036D01*
X103446095Y-75761823D01*
X103513968Y-75740995D01*
X103582326Y-75760169D01*
X103629467Y-75813256D01*
X103635020Y-75827108D01*
X103657353Y-75894048D01*
X103703822Y-75987047D01*
X103742954Y-76065361D01*
X103784236Y-76147980D01*
X103945631Y-76381500D01*
X104138320Y-76589950D01*
X104141774Y-76592762D01*
X104355001Y-76766356D01*
X104355005Y-76766359D01*
X104358458Y-76769170D01*
X104601652Y-76915585D01*
X104605747Y-76917319D01*
X104605749Y-76917320D01*
X104799936Y-76999547D01*
X104863049Y-77026272D01*
X104867342Y-77027410D01*
X104867347Y-77027412D01*
X105010898Y-77065473D01*
X105137435Y-77099024D01*
X105419334Y-77132389D01*
X105703122Y-77125701D01*
X105707517Y-77124969D01*
X105707522Y-77124969D01*
X105978734Y-77079827D01*
X105978738Y-77079826D01*
X105983136Y-77079094D01*
X106160887Y-77022878D01*
X106249544Y-76994840D01*
X106249546Y-76994839D01*
X106253790Y-76993497D01*
X106257801Y-76991571D01*
X106257806Y-76991569D01*
X106505665Y-76872549D01*
X106505666Y-76872548D01*
X106509684Y-76870619D01*
X106665724Y-76766356D01*
X106742002Y-76715389D01*
X106742006Y-76715386D01*
X106745710Y-76712911D01*
X106749027Y-76709940D01*
X106749031Y-76709937D01*
X106953845Y-76526490D01*
X106957161Y-76523520D01*
X107139817Y-76306225D01*
X107200060Y-76209629D01*
X107287669Y-76069152D01*
X107287671Y-76069149D01*
X107290033Y-76065361D01*
X107296100Y-76051639D01*
X107344688Y-75941733D01*
X107404813Y-75805734D01*
X107414858Y-75770119D01*
X107439144Y-75684004D01*
X107481866Y-75532525D01*
X107494952Y-75435100D01*
X107519227Y-75254367D01*
X107519228Y-75254359D01*
X107519654Y-75251185D01*
X107522438Y-75162617D01*
X107523519Y-75128222D01*
X107523519Y-75128217D01*
X107523620Y-75125000D01*
X107519151Y-75061876D01*
X110005372Y-75061876D01*
X110007969Y-75127966D01*
X110014359Y-75290611D01*
X110016516Y-75345524D01*
X110067516Y-75624772D01*
X110157353Y-75894048D01*
X110203822Y-75987047D01*
X110242954Y-76065361D01*
X110284236Y-76147980D01*
X110445631Y-76381500D01*
X110638320Y-76589950D01*
X110641774Y-76592762D01*
X110855001Y-76766356D01*
X110855005Y-76766359D01*
X110858458Y-76769170D01*
X111101652Y-76915585D01*
X111105747Y-76917319D01*
X111105749Y-76917320D01*
X111299936Y-76999547D01*
X111363049Y-77026272D01*
X111367342Y-77027410D01*
X111367347Y-77027412D01*
X111510898Y-77065473D01*
X111637435Y-77099024D01*
X111919334Y-77132389D01*
X112203122Y-77125701D01*
X112207517Y-77124969D01*
X112207522Y-77124969D01*
X112478734Y-77079827D01*
X112478738Y-77079826D01*
X112483136Y-77079094D01*
X112660887Y-77022878D01*
X112749544Y-76994840D01*
X112749546Y-76994839D01*
X112753790Y-76993497D01*
X112757801Y-76991571D01*
X112757806Y-76991569D01*
X113005665Y-76872549D01*
X113005666Y-76872548D01*
X113009684Y-76870619D01*
X113165724Y-76766356D01*
X113242002Y-76715389D01*
X113242006Y-76715386D01*
X113245710Y-76712911D01*
X113249027Y-76709940D01*
X113249031Y-76709937D01*
X113453845Y-76526490D01*
X113457161Y-76523520D01*
X113639817Y-76306225D01*
X113700060Y-76209629D01*
X113787669Y-76069152D01*
X113787671Y-76069149D01*
X113790033Y-76065361D01*
X113796100Y-76051639D01*
X113844688Y-75941733D01*
X113904813Y-75805734D01*
X113911113Y-75783396D01*
X113948855Y-75723263D01*
X114013116Y-75693080D01*
X114083494Y-75702430D01*
X114137644Y-75748346D01*
X114151905Y-75777720D01*
X114153799Y-75783396D01*
X114157353Y-75794048D01*
X114173873Y-75827110D01*
X114242954Y-75965361D01*
X114284236Y-76047980D01*
X114445631Y-76281500D01*
X114638320Y-76489950D01*
X114641774Y-76492762D01*
X114855001Y-76666356D01*
X114855005Y-76666359D01*
X114858458Y-76669170D01*
X115101652Y-76815585D01*
X115105747Y-76817319D01*
X115105749Y-76817320D01*
X115337811Y-76915585D01*
X115363049Y-76926272D01*
X115367342Y-76927410D01*
X115367347Y-76927412D01*
X115505345Y-76964001D01*
X115637435Y-76999024D01*
X115919334Y-77032389D01*
X116203122Y-77025701D01*
X116207517Y-77024969D01*
X116207522Y-77024969D01*
X116478734Y-76979827D01*
X116478738Y-76979826D01*
X116483136Y-76979094D01*
X116723059Y-76903216D01*
X116749544Y-76894840D01*
X116749546Y-76894839D01*
X116753790Y-76893497D01*
X116757801Y-76891571D01*
X116757806Y-76891569D01*
X117005665Y-76772549D01*
X117005666Y-76772548D01*
X117009684Y-76770619D01*
X117165724Y-76666356D01*
X117242002Y-76615389D01*
X117242006Y-76615386D01*
X117245710Y-76612911D01*
X117249027Y-76609940D01*
X117249031Y-76609937D01*
X117453845Y-76426490D01*
X117457161Y-76423520D01*
X117639817Y-76206225D01*
X117695655Y-76116692D01*
X117787669Y-75969152D01*
X117787671Y-75969149D01*
X117790033Y-75965361D01*
X117881244Y-75759045D01*
X117927081Y-75704832D01*
X117994954Y-75684004D01*
X118063312Y-75703178D01*
X118110453Y-75756265D01*
X118116007Y-75770119D01*
X118149141Y-75869433D01*
X118157353Y-75894048D01*
X118203822Y-75987047D01*
X118242954Y-76065361D01*
X118284236Y-76147980D01*
X118445631Y-76381500D01*
X118638320Y-76589950D01*
X118641774Y-76592762D01*
X118855001Y-76766356D01*
X118855005Y-76766359D01*
X118858458Y-76769170D01*
X119101652Y-76915585D01*
X119105747Y-76917319D01*
X119105749Y-76917320D01*
X119299936Y-76999547D01*
X119363049Y-77026272D01*
X119367342Y-77027410D01*
X119367347Y-77027412D01*
X119510898Y-77065473D01*
X119637435Y-77099024D01*
X119919334Y-77132389D01*
X120203122Y-77125701D01*
X120207517Y-77124969D01*
X120207522Y-77124969D01*
X120478734Y-77079827D01*
X120478738Y-77079826D01*
X120483136Y-77079094D01*
X120660887Y-77022878D01*
X120749544Y-76994840D01*
X120749546Y-76994839D01*
X120753790Y-76993497D01*
X120757801Y-76991571D01*
X120757806Y-76991569D01*
X121005665Y-76872549D01*
X121005666Y-76872548D01*
X121009684Y-76870619D01*
X121165724Y-76766356D01*
X121242002Y-76715389D01*
X121242006Y-76715386D01*
X121245710Y-76712911D01*
X121249027Y-76709940D01*
X121249031Y-76709937D01*
X121453845Y-76526490D01*
X121457161Y-76523520D01*
X121639817Y-76306225D01*
X121700060Y-76209629D01*
X121787669Y-76069152D01*
X121787671Y-76069149D01*
X121790033Y-76065361D01*
X121900259Y-75816036D01*
X121946095Y-75761823D01*
X122013968Y-75740995D01*
X122082326Y-75760169D01*
X122129467Y-75813256D01*
X122135020Y-75827108D01*
X122157353Y-75894048D01*
X122203822Y-75987047D01*
X122242954Y-76065361D01*
X122284236Y-76147980D01*
X122445631Y-76381500D01*
X122638320Y-76589950D01*
X122641774Y-76592762D01*
X122855001Y-76766356D01*
X122855005Y-76766359D01*
X122858458Y-76769170D01*
X123101652Y-76915585D01*
X123105747Y-76917319D01*
X123105749Y-76917320D01*
X123299936Y-76999547D01*
X123363049Y-77026272D01*
X123367342Y-77027410D01*
X123367347Y-77027412D01*
X123510898Y-77065473D01*
X123637435Y-77099024D01*
X123919334Y-77132389D01*
X124203122Y-77125701D01*
X124207517Y-77124969D01*
X124207522Y-77124969D01*
X124478734Y-77079827D01*
X124478738Y-77079826D01*
X124483136Y-77079094D01*
X124660887Y-77022878D01*
X124749544Y-76994840D01*
X124749546Y-76994839D01*
X124753790Y-76993497D01*
X124757801Y-76991571D01*
X124757806Y-76991569D01*
X125005665Y-76872549D01*
X125005666Y-76872548D01*
X125009684Y-76870619D01*
X125165724Y-76766356D01*
X125242002Y-76715389D01*
X125242006Y-76715386D01*
X125245710Y-76712911D01*
X125249027Y-76709940D01*
X125249031Y-76709937D01*
X125453845Y-76526490D01*
X125457161Y-76523520D01*
X125639817Y-76306225D01*
X125700060Y-76209629D01*
X125787669Y-76069152D01*
X125787671Y-76069149D01*
X125790033Y-76065361D01*
X125796100Y-76051639D01*
X125844688Y-75941733D01*
X125904813Y-75805734D01*
X125914858Y-75770119D01*
X125939144Y-75684004D01*
X125981866Y-75532525D01*
X125994952Y-75435100D01*
X126019227Y-75254367D01*
X126019228Y-75254359D01*
X126019654Y-75251185D01*
X126022294Y-75167186D01*
X137116018Y-75167186D01*
X137141579Y-75435100D01*
X137142664Y-75439534D01*
X137142665Y-75439540D01*
X137166467Y-75536810D01*
X137205547Y-75696518D01*
X137306583Y-75945963D01*
X137442569Y-76178210D01*
X137610658Y-76388395D01*
X137807327Y-76572113D01*
X138028457Y-76725516D01*
X138269416Y-76845391D01*
X138273750Y-76846812D01*
X138273753Y-76846813D01*
X138520823Y-76927807D01*
X138520829Y-76927808D01*
X138525156Y-76929227D01*
X138529647Y-76930007D01*
X138529648Y-76930007D01*
X138786538Y-76974611D01*
X138786546Y-76974612D01*
X138790319Y-76975267D01*
X138794156Y-76975458D01*
X138873777Y-76979422D01*
X138873785Y-76979422D01*
X138875348Y-76979500D01*
X139043374Y-76979500D01*
X139045642Y-76979335D01*
X139045654Y-76979335D01*
X139176457Y-76969844D01*
X139243425Y-76964985D01*
X139247880Y-76964001D01*
X139247883Y-76964001D01*
X139501770Y-76907947D01*
X139501772Y-76907946D01*
X139506226Y-76906963D01*
X139757900Y-76811613D01*
X139828229Y-76772549D01*
X139989179Y-76683149D01*
X139989180Y-76683148D01*
X139993172Y-76680931D01*
X140082300Y-76612911D01*
X140203491Y-76520421D01*
X140203495Y-76520417D01*
X140207116Y-76517654D01*
X140218862Y-76505639D01*
X140392063Y-76328462D01*
X140395249Y-76325203D01*
X140479373Y-76209629D01*
X140550942Y-76111304D01*
X140550947Y-76111297D01*
X140553630Y-76107610D01*
X140678941Y-75869433D01*
X140768557Y-75615662D01*
X140793688Y-75488156D01*
X140819720Y-75356083D01*
X140819721Y-75356077D01*
X140820601Y-75351611D01*
X140820904Y-75345524D01*
X140829782Y-75167186D01*
X157616018Y-75167186D01*
X157641579Y-75435100D01*
X157642664Y-75439534D01*
X157642665Y-75439540D01*
X157666467Y-75536810D01*
X157705547Y-75696518D01*
X157806583Y-75945963D01*
X157942569Y-76178210D01*
X158110658Y-76388395D01*
X158307327Y-76572113D01*
X158528457Y-76725516D01*
X158769416Y-76845391D01*
X158773750Y-76846812D01*
X158773753Y-76846813D01*
X159020823Y-76927807D01*
X159020829Y-76927808D01*
X159025156Y-76929227D01*
X159029647Y-76930007D01*
X159029648Y-76930007D01*
X159286538Y-76974611D01*
X159286546Y-76974612D01*
X159290319Y-76975267D01*
X159294156Y-76975458D01*
X159373777Y-76979422D01*
X159373785Y-76979422D01*
X159375348Y-76979500D01*
X159543374Y-76979500D01*
X159545642Y-76979335D01*
X159545654Y-76979335D01*
X159676457Y-76969844D01*
X159743425Y-76964985D01*
X159747880Y-76964001D01*
X159747883Y-76964001D01*
X160001770Y-76907947D01*
X160001772Y-76907946D01*
X160006226Y-76906963D01*
X160257900Y-76811613D01*
X160328229Y-76772549D01*
X160489179Y-76683149D01*
X160489180Y-76683148D01*
X160493172Y-76680931D01*
X160582300Y-76612911D01*
X160703491Y-76520421D01*
X160703495Y-76520417D01*
X160707116Y-76517654D01*
X160718862Y-76505639D01*
X160892063Y-76328462D01*
X160895249Y-76325203D01*
X160979373Y-76209629D01*
X161050942Y-76111304D01*
X161050947Y-76111297D01*
X161053630Y-76107610D01*
X161178941Y-75869433D01*
X161268557Y-75615662D01*
X161293688Y-75488156D01*
X161319720Y-75356083D01*
X161319721Y-75356077D01*
X161320601Y-75351611D01*
X161320904Y-75345524D01*
X161333755Y-75087383D01*
X161333755Y-75087377D01*
X161333982Y-75082814D01*
X161308421Y-74814900D01*
X161293270Y-74752980D01*
X161245539Y-74557920D01*
X161244453Y-74553482D01*
X161143417Y-74304037D01*
X161007431Y-74071790D01*
X160866389Y-73895426D01*
X160842194Y-73865171D01*
X160842193Y-73865169D01*
X160839342Y-73861605D01*
X160642673Y-73677887D01*
X160421543Y-73524484D01*
X160180584Y-73404609D01*
X160176250Y-73403188D01*
X160176247Y-73403187D01*
X159929177Y-73322193D01*
X159929171Y-73322192D01*
X159924844Y-73320773D01*
X159886435Y-73314104D01*
X159663462Y-73275389D01*
X159663454Y-73275388D01*
X159659681Y-73274733D01*
X159649718Y-73274237D01*
X159576223Y-73270578D01*
X159576215Y-73270578D01*
X159574652Y-73270500D01*
X159406626Y-73270500D01*
X159404358Y-73270665D01*
X159404346Y-73270665D01*
X159273543Y-73280156D01*
X159206575Y-73285015D01*
X159202120Y-73285999D01*
X159202117Y-73285999D01*
X158948230Y-73342053D01*
X158948228Y-73342054D01*
X158943774Y-73343037D01*
X158692100Y-73438387D01*
X158456828Y-73569069D01*
X158453196Y-73571841D01*
X158246509Y-73729579D01*
X158246505Y-73729583D01*
X158242884Y-73732346D01*
X158239699Y-73735604D01*
X158239698Y-73735605D01*
X158224745Y-73750901D01*
X158054751Y-73924797D01*
X158052066Y-73928486D01*
X157899058Y-74138696D01*
X157899053Y-74138703D01*
X157896370Y-74142390D01*
X157771059Y-74380567D01*
X157681443Y-74634338D01*
X157680560Y-74638820D01*
X157643746Y-74825600D01*
X157629399Y-74898389D01*
X157629172Y-74902942D01*
X157629172Y-74902945D01*
X157617958Y-75128222D01*
X157616018Y-75167186D01*
X140829782Y-75167186D01*
X140833755Y-75087383D01*
X140833755Y-75087377D01*
X140833982Y-75082814D01*
X140808421Y-74814900D01*
X140793270Y-74752980D01*
X140745539Y-74557920D01*
X140744453Y-74553482D01*
X140643417Y-74304037D01*
X140507431Y-74071790D01*
X140366389Y-73895426D01*
X140342194Y-73865171D01*
X140342193Y-73865169D01*
X140339342Y-73861605D01*
X140142673Y-73677887D01*
X139921543Y-73524484D01*
X139680584Y-73404609D01*
X139676250Y-73403188D01*
X139676247Y-73403187D01*
X139429177Y-73322193D01*
X139429171Y-73322192D01*
X139424844Y-73320773D01*
X139386435Y-73314104D01*
X139163462Y-73275389D01*
X139163454Y-73275388D01*
X139159681Y-73274733D01*
X139149718Y-73274237D01*
X139076223Y-73270578D01*
X139076215Y-73270578D01*
X139074652Y-73270500D01*
X138906626Y-73270500D01*
X138904358Y-73270665D01*
X138904346Y-73270665D01*
X138773543Y-73280156D01*
X138706575Y-73285015D01*
X138702120Y-73285999D01*
X138702117Y-73285999D01*
X138448230Y-73342053D01*
X138448228Y-73342054D01*
X138443774Y-73343037D01*
X138192100Y-73438387D01*
X137956828Y-73569069D01*
X137953196Y-73571841D01*
X137746509Y-73729579D01*
X137746505Y-73729583D01*
X137742884Y-73732346D01*
X137739699Y-73735604D01*
X137739698Y-73735605D01*
X137724745Y-73750901D01*
X137554751Y-73924797D01*
X137552066Y-73928486D01*
X137399058Y-74138696D01*
X137399053Y-74138703D01*
X137396370Y-74142390D01*
X137271059Y-74380567D01*
X137181443Y-74634338D01*
X137180560Y-74638820D01*
X137143746Y-74825600D01*
X137129399Y-74898389D01*
X137129172Y-74902942D01*
X137129172Y-74902945D01*
X137117958Y-75128222D01*
X137116018Y-75167186D01*
X126022294Y-75167186D01*
X126022438Y-75162617D01*
X126023519Y-75128222D01*
X126023519Y-75128217D01*
X126023620Y-75125000D01*
X126003571Y-74841842D01*
X125986079Y-74760592D01*
X125944761Y-74568681D01*
X125944761Y-74568679D01*
X125943825Y-74564334D01*
X125845574Y-74298013D01*
X125710778Y-74048192D01*
X125542127Y-73819856D01*
X125342986Y-73617562D01*
X125218362Y-73522452D01*
X125120872Y-73448050D01*
X125120868Y-73448047D01*
X125117327Y-73445345D01*
X124869655Y-73306641D01*
X124865506Y-73305036D01*
X124865502Y-73305034D01*
X124616799Y-73208819D01*
X124604909Y-73204219D01*
X124600588Y-73203217D01*
X124600580Y-73203215D01*
X124418110Y-73160922D01*
X124328374Y-73140122D01*
X124045566Y-73115628D01*
X124041131Y-73115872D01*
X124041127Y-73115872D01*
X123934718Y-73121728D01*
X123762128Y-73131226D01*
X123757768Y-73132093D01*
X123757762Y-73132094D01*
X123621296Y-73159239D01*
X123483715Y-73186606D01*
X123479505Y-73188084D01*
X123479503Y-73188085D01*
X123431240Y-73205034D01*
X123215884Y-73280662D01*
X123211933Y-73282715D01*
X123211927Y-73282717D01*
X122973359Y-73406643D01*
X122963976Y-73411517D01*
X122960361Y-73414100D01*
X122960355Y-73414104D01*
X122815581Y-73517562D01*
X122733020Y-73576561D01*
X122527623Y-73772501D01*
X122524867Y-73775997D01*
X122524866Y-73775998D01*
X122386031Y-73952108D01*
X122351882Y-73995426D01*
X122349645Y-73999278D01*
X122211540Y-74237042D01*
X122211537Y-74237048D01*
X122209306Y-74240889D01*
X122207638Y-74245007D01*
X122130192Y-74436212D01*
X122086079Y-74491841D01*
X122018894Y-74514790D01*
X121949967Y-74497772D01*
X121901182Y-74446192D01*
X121895196Y-74432520D01*
X121875890Y-74380187D01*
X121845574Y-74298013D01*
X121710778Y-74048192D01*
X121542127Y-73819856D01*
X121342986Y-73617562D01*
X121218362Y-73522452D01*
X121120872Y-73448050D01*
X121120868Y-73448047D01*
X121117327Y-73445345D01*
X120869655Y-73306641D01*
X120865506Y-73305036D01*
X120865502Y-73305034D01*
X120616799Y-73208819D01*
X120604909Y-73204219D01*
X120600588Y-73203217D01*
X120600580Y-73203215D01*
X120418110Y-73160922D01*
X120328374Y-73140122D01*
X120045566Y-73115628D01*
X120041131Y-73115872D01*
X120041127Y-73115872D01*
X119934718Y-73121728D01*
X119762128Y-73131226D01*
X119757768Y-73132093D01*
X119757762Y-73132094D01*
X119621296Y-73159239D01*
X119483715Y-73186606D01*
X119479505Y-73188084D01*
X119479503Y-73188085D01*
X119431240Y-73205034D01*
X119215884Y-73280662D01*
X119211933Y-73282715D01*
X119211927Y-73282717D01*
X118973359Y-73406643D01*
X118963976Y-73411517D01*
X118960361Y-73414100D01*
X118960355Y-73414104D01*
X118815581Y-73517562D01*
X118733020Y-73576561D01*
X118527623Y-73772501D01*
X118524867Y-73775997D01*
X118524866Y-73775998D01*
X118386031Y-73952108D01*
X118351882Y-73995426D01*
X118349645Y-73999278D01*
X118211540Y-74237042D01*
X118211537Y-74237048D01*
X118209306Y-74240889D01*
X118207638Y-74245007D01*
X118207636Y-74245012D01*
X118149499Y-74388545D01*
X118105386Y-74444175D01*
X118038201Y-74467124D01*
X117969274Y-74450106D01*
X117920489Y-74398526D01*
X117914503Y-74384854D01*
X117912922Y-74380567D01*
X117845574Y-74198013D01*
X117816173Y-74143524D01*
X117712891Y-73952108D01*
X117710778Y-73948192D01*
X117542127Y-73719856D01*
X117342986Y-73517562D01*
X117207423Y-73414104D01*
X117120872Y-73348050D01*
X117120868Y-73348047D01*
X117117327Y-73345345D01*
X116869655Y-73206641D01*
X116865506Y-73205036D01*
X116865502Y-73205034D01*
X116635030Y-73115872D01*
X116604909Y-73104219D01*
X116600588Y-73103217D01*
X116600580Y-73103215D01*
X116418110Y-73060922D01*
X116328374Y-73040122D01*
X116045566Y-73015628D01*
X116041131Y-73015872D01*
X116041127Y-73015872D01*
X115934718Y-73021728D01*
X115762128Y-73031226D01*
X115757768Y-73032093D01*
X115757762Y-73032094D01*
X115621296Y-73059239D01*
X115483715Y-73086606D01*
X115479505Y-73088084D01*
X115479503Y-73088085D01*
X115428996Y-73105822D01*
X115215884Y-73180662D01*
X115211933Y-73182715D01*
X115211927Y-73182717D01*
X114969170Y-73308819D01*
X114963976Y-73311517D01*
X114960361Y-73314100D01*
X114960355Y-73314104D01*
X114882270Y-73369905D01*
X114733020Y-73476561D01*
X114527623Y-73672501D01*
X114524867Y-73675997D01*
X114524866Y-73675998D01*
X114470973Y-73744361D01*
X114351882Y-73895426D01*
X114292723Y-73997276D01*
X114211540Y-74137042D01*
X114211537Y-74137048D01*
X114209306Y-74140889D01*
X114110885Y-74383880D01*
X114066774Y-74439507D01*
X113999588Y-74462456D01*
X113930661Y-74445440D01*
X113881876Y-74393859D01*
X113875890Y-74380187D01*
X113847115Y-74302191D01*
X113847115Y-74302190D01*
X113845574Y-74298013D01*
X113710778Y-74048192D01*
X113542127Y-73819856D01*
X113342986Y-73617562D01*
X113218362Y-73522452D01*
X113120872Y-73448050D01*
X113120868Y-73448047D01*
X113117327Y-73445345D01*
X112869655Y-73306641D01*
X112865506Y-73305036D01*
X112865502Y-73305034D01*
X112616799Y-73208819D01*
X112604909Y-73204219D01*
X112600588Y-73203217D01*
X112600580Y-73203215D01*
X112418110Y-73160922D01*
X112328374Y-73140122D01*
X112045566Y-73115628D01*
X112041131Y-73115872D01*
X112041127Y-73115872D01*
X111934718Y-73121728D01*
X111762128Y-73131226D01*
X111757768Y-73132093D01*
X111757762Y-73132094D01*
X111621296Y-73159239D01*
X111483715Y-73186606D01*
X111479505Y-73188084D01*
X111479503Y-73188085D01*
X111431240Y-73205034D01*
X111215884Y-73280662D01*
X111211933Y-73282715D01*
X111211927Y-73282717D01*
X110973359Y-73406643D01*
X110963976Y-73411517D01*
X110960361Y-73414100D01*
X110960355Y-73414104D01*
X110815581Y-73517562D01*
X110733020Y-73576561D01*
X110527623Y-73772501D01*
X110524867Y-73775997D01*
X110524866Y-73775998D01*
X110386031Y-73952108D01*
X110351882Y-73995426D01*
X110349645Y-73999278D01*
X110211540Y-74237042D01*
X110211537Y-74237048D01*
X110209306Y-74240889D01*
X110207638Y-74245007D01*
X110207636Y-74245012D01*
X110104411Y-74499861D01*
X110104408Y-74499869D01*
X110102738Y-74503993D01*
X110034305Y-74779488D01*
X110005372Y-75061876D01*
X107519151Y-75061876D01*
X107503571Y-74841842D01*
X107486079Y-74760592D01*
X107444761Y-74568681D01*
X107444761Y-74568679D01*
X107443825Y-74564334D01*
X107345574Y-74298013D01*
X107210778Y-74048192D01*
X107042127Y-73819856D01*
X106842986Y-73617562D01*
X106718362Y-73522452D01*
X106620872Y-73448050D01*
X106620868Y-73448047D01*
X106617327Y-73445345D01*
X106369655Y-73306641D01*
X106365506Y-73305036D01*
X106365502Y-73305034D01*
X106116799Y-73208819D01*
X106104909Y-73204219D01*
X106100588Y-73203217D01*
X106100580Y-73203215D01*
X105918110Y-73160922D01*
X105828374Y-73140122D01*
X105545566Y-73115628D01*
X105541131Y-73115872D01*
X105541127Y-73115872D01*
X105434718Y-73121728D01*
X105262128Y-73131226D01*
X105257768Y-73132093D01*
X105257762Y-73132094D01*
X105121296Y-73159239D01*
X104983715Y-73186606D01*
X104979505Y-73188084D01*
X104979503Y-73188085D01*
X104931240Y-73205034D01*
X104715884Y-73280662D01*
X104711933Y-73282715D01*
X104711927Y-73282717D01*
X104473359Y-73406643D01*
X104463976Y-73411517D01*
X104460361Y-73414100D01*
X104460355Y-73414104D01*
X104315581Y-73517562D01*
X104233020Y-73576561D01*
X104027623Y-73772501D01*
X104024867Y-73775997D01*
X104024866Y-73775998D01*
X103886031Y-73952108D01*
X103851882Y-73995426D01*
X103849645Y-73999278D01*
X103711540Y-74237042D01*
X103711537Y-74237048D01*
X103709306Y-74240889D01*
X103707638Y-74245007D01*
X103630192Y-74436212D01*
X103586079Y-74491841D01*
X103518894Y-74514790D01*
X103449967Y-74497772D01*
X103401182Y-74446192D01*
X103395196Y-74432520D01*
X103375890Y-74380187D01*
X103345574Y-74298013D01*
X103210778Y-74048192D01*
X103042127Y-73819856D01*
X102842986Y-73617562D01*
X102718362Y-73522452D01*
X102620872Y-73448050D01*
X102620868Y-73448047D01*
X102617327Y-73445345D01*
X102369655Y-73306641D01*
X102365506Y-73305036D01*
X102365502Y-73305034D01*
X102116799Y-73208819D01*
X102104909Y-73204219D01*
X102100588Y-73203217D01*
X102100580Y-73203215D01*
X101918110Y-73160922D01*
X101828374Y-73140122D01*
X101545566Y-73115628D01*
X101541131Y-73115872D01*
X101541127Y-73115872D01*
X101434718Y-73121728D01*
X101262128Y-73131226D01*
X101257768Y-73132093D01*
X101257762Y-73132094D01*
X101121296Y-73159239D01*
X100983715Y-73186606D01*
X100979505Y-73188084D01*
X100979503Y-73188085D01*
X100931240Y-73205034D01*
X100715884Y-73280662D01*
X100711933Y-73282715D01*
X100711927Y-73282717D01*
X100473359Y-73406643D01*
X100463976Y-73411517D01*
X100460361Y-73414100D01*
X100460355Y-73414104D01*
X100315581Y-73517562D01*
X100233020Y-73576561D01*
X100027623Y-73772501D01*
X100024867Y-73775997D01*
X100024866Y-73775998D01*
X99886031Y-73952108D01*
X99851882Y-73995426D01*
X99805235Y-74075735D01*
X99765860Y-74143524D01*
X99714349Y-74192383D01*
X99644601Y-74205637D01*
X99578759Y-74179078D01*
X99543900Y-74135968D01*
X99475504Y-73997276D01*
X99471387Y-73990145D01*
X99311530Y-73750901D01*
X99306512Y-73744361D01*
X99293853Y-73729926D01*
X99280614Y-73721528D01*
X99270849Y-73727362D01*
X97886020Y-75112190D01*
X97878408Y-75126131D01*
X97148357Y-75126131D01*
X97149592Y-75123869D01*
X97149461Y-75122034D01*
X97145210Y-75115420D01*
X95758905Y-73729116D01*
X95745144Y-73721601D01*
X95735784Y-73728059D01*
X95721488Y-73744361D01*
X95716470Y-73750901D01*
X95556613Y-73990145D01*
X95552492Y-73997282D01*
X95425228Y-74255349D01*
X95422078Y-74262953D01*
X95329588Y-74535420D01*
X95327454Y-74543383D01*
X95271317Y-74825600D01*
X95270244Y-74833751D01*
X95251425Y-75120881D01*
X95251425Y-75129119D01*
X89662000Y-75129119D01*
X89662000Y-73358386D01*
X96110528Y-73358386D01*
X96116362Y-73368151D01*
X97501190Y-74752980D01*
X97515131Y-74760592D01*
X97516966Y-74760461D01*
X97523580Y-74756210D01*
X98909884Y-73369905D01*
X98917399Y-73356144D01*
X98910941Y-73346784D01*
X98894639Y-73332488D01*
X98888099Y-73327470D01*
X98648856Y-73167613D01*
X98641719Y-73163492D01*
X98383651Y-73036228D01*
X98376047Y-73033078D01*
X98103580Y-72940588D01*
X98095617Y-72938454D01*
X97813400Y-72882317D01*
X97805249Y-72881244D01*
X97518119Y-72862425D01*
X97509881Y-72862425D01*
X97222751Y-72881244D01*
X97214600Y-72882317D01*
X96932383Y-72938454D01*
X96924420Y-72940588D01*
X96651953Y-73033078D01*
X96644349Y-73036228D01*
X96386282Y-73163492D01*
X96379145Y-73167613D01*
X96139901Y-73327470D01*
X96133361Y-73332488D01*
X96118926Y-73345147D01*
X96110528Y-73358386D01*
X89662000Y-73358386D01*
X89662000Y-71172190D01*
X89682002Y-71104069D01*
X89698905Y-71083095D01*
X92165095Y-68616905D01*
X92227407Y-68582879D01*
X92254190Y-68580000D01*
X163958000Y-68580000D01*
X164026121Y-68600002D01*
G37*
%TD.AperFunction*%
%TD*%
M02*
