%TF.GenerationSoftware,KiCad,Pcbnew,(6.0.10)*%
%TF.CreationDate,2023-01-18T21:36:02-05:00*%
%TF.ProjectId,32U4_NES_SNES_adapter,33325534-5f4e-4455-935f-534e45535f61,rev?*%
%TF.SameCoordinates,Original*%
%TF.FileFunction,Legend,Top*%
%TF.FilePolarity,Positive*%
%FSLAX46Y46*%
G04 Gerber Fmt 4.6, Leading zero omitted, Abs format (unit mm)*
G04 Created by KiCad (PCBNEW (6.0.10)) date 2023-01-18 21:36:02*
%MOMM*%
%LPD*%
G01*
G04 APERTURE LIST*
G04 Aperture macros list*
%AMRoundRect*
0 Rectangle with rounded corners*
0 $1 Rounding radius*
0 $2 $3 $4 $5 $6 $7 $8 $9 X,Y pos of 4 corners*
0 Add a 4 corners polygon primitive as box body*
4,1,4,$2,$3,$4,$5,$6,$7,$8,$9,$2,$3,0*
0 Add four circle primitives for the rounded corners*
1,1,$1+$1,$2,$3*
1,1,$1+$1,$4,$5*
1,1,$1+$1,$6,$7*
1,1,$1+$1,$8,$9*
0 Add four rect primitives between the rounded corners*
20,1,$1+$1,$2,$3,$4,$5,0*
20,1,$1+$1,$4,$5,$6,$7,0*
20,1,$1+$1,$6,$7,$8,$9,0*
20,1,$1+$1,$8,$9,$2,$3,0*%
G04 Aperture macros list end*
%ADD10C,0.150000*%
%ADD11C,0.127000*%
%ADD12C,0.200000*%
%ADD13C,0.120000*%
%ADD14C,0.254000*%
%ADD15R,1.000000X0.750000*%
%ADD16RoundRect,0.140000X0.140000X0.170000X-0.140000X0.170000X-0.140000X-0.170000X0.140000X-0.170000X0*%
%ADD17C,3.500000*%
%ADD18RoundRect,0.135000X-0.135000X-0.185000X0.135000X-0.185000X0.135000X0.185000X-0.135000X0.185000X0*%
%ADD19RoundRect,0.135000X0.185000X-0.135000X0.185000X0.135000X-0.185000X0.135000X-0.185000X-0.135000X0*%
%ADD20C,3.200000*%
%ADD21C,2.700000*%
%ADD22C,5.600000*%
%ADD23RoundRect,0.135000X0.135000X0.185000X-0.135000X0.185000X-0.135000X-0.185000X0.135000X-0.185000X0*%
%ADD24RoundRect,0.218750X0.218750X0.256250X-0.218750X0.256250X-0.218750X-0.256250X0.218750X-0.256250X0*%
%ADD25RoundRect,0.062500X-0.475000X-0.062500X0.475000X-0.062500X0.475000X0.062500X-0.475000X0.062500X0*%
%ADD26RoundRect,0.062500X-0.062500X-0.475000X0.062500X-0.475000X0.062500X0.475000X-0.062500X0.475000X0*%
%ADD27R,5.200000X5.200000*%
%ADD28RoundRect,0.140000X-0.170000X0.140000X-0.170000X-0.140000X0.170000X-0.140000X0.170000X0.140000X0*%
%ADD29R,1.400000X1.200000*%
%ADD30RoundRect,0.250000X0.475000X-0.250000X0.475000X0.250000X-0.475000X0.250000X-0.475000X-0.250000X0*%
%ADD31RoundRect,0.140000X-0.140000X-0.170000X0.140000X-0.170000X0.140000X0.170000X-0.140000X0.170000X0*%
%ADD32C,0.700000*%
%ADD33R,1.450000X0.600000*%
%ADD34R,1.450000X0.300000*%
%ADD35O,2.100000X1.050000*%
%ADD36RoundRect,0.140000X0.170000X-0.140000X0.170000X0.140000X-0.170000X0.140000X-0.170000X-0.140000X0*%
G04 APERTURE END LIST*
D10*
X107449038Y-107052561D02*
X107118371Y-106580180D01*
X106882180Y-107052561D02*
X106882180Y-106060561D01*
X107260085Y-106060561D01*
X107354561Y-106107800D01*
X107401800Y-106155038D01*
X107449038Y-106249514D01*
X107449038Y-106391228D01*
X107401800Y-106485704D01*
X107354561Y-106532942D01*
X107260085Y-106580180D01*
X106882180Y-106580180D01*
X107874180Y-106532942D02*
X108204847Y-106532942D01*
X108346561Y-107052561D02*
X107874180Y-107052561D01*
X107874180Y-106060561D01*
X108346561Y-106060561D01*
X108724466Y-107005323D02*
X108866180Y-107052561D01*
X109102371Y-107052561D01*
X109196847Y-107005323D01*
X109244085Y-106958085D01*
X109291323Y-106863609D01*
X109291323Y-106769133D01*
X109244085Y-106674657D01*
X109196847Y-106627419D01*
X109102371Y-106580180D01*
X108913419Y-106532942D01*
X108818942Y-106485704D01*
X108771704Y-106438466D01*
X108724466Y-106343990D01*
X108724466Y-106249514D01*
X108771704Y-106155038D01*
X108818942Y-106107800D01*
X108913419Y-106060561D01*
X109149609Y-106060561D01*
X109291323Y-106107800D01*
X109716466Y-106532942D02*
X110047133Y-106532942D01*
X110188847Y-107052561D02*
X109716466Y-107052561D01*
X109716466Y-106060561D01*
X110188847Y-106060561D01*
X110472276Y-106060561D02*
X111039133Y-106060561D01*
X110755704Y-107052561D02*
X110755704Y-106060561D01*
X98721942Y-108605580D02*
X98245752Y-108605580D01*
X98245752Y-107605580D01*
X99055276Y-108081771D02*
X99388609Y-108081771D01*
X99531466Y-108605580D02*
X99055276Y-108605580D01*
X99055276Y-107605580D01*
X99531466Y-107605580D01*
X99960038Y-108605580D02*
X99960038Y-107605580D01*
X100198133Y-107605580D01*
X100340990Y-107653200D01*
X100436228Y-107748438D01*
X100483847Y-107843676D01*
X100531466Y-108034152D01*
X100531466Y-108177009D01*
X100483847Y-108367485D01*
X100436228Y-108462723D01*
X100340990Y-108557961D01*
X100198133Y-108605580D01*
X99960038Y-108605580D01*
X107347619Y-87052380D02*
X107347619Y-86052380D01*
X107585714Y-86052380D01*
X107728571Y-86100000D01*
X107823809Y-86195238D01*
X107871428Y-86290476D01*
X107919047Y-86480952D01*
X107919047Y-86623809D01*
X107871428Y-86814285D01*
X107823809Y-86909523D01*
X107728571Y-87004761D01*
X107585714Y-87052380D01*
X107347619Y-87052380D01*
X108728571Y-87004761D02*
X108633333Y-87052380D01*
X108442857Y-87052380D01*
X108347619Y-87004761D01*
X108300000Y-86909523D01*
X108300000Y-86528571D01*
X108347619Y-86433333D01*
X108442857Y-86385714D01*
X108633333Y-86385714D01*
X108728571Y-86433333D01*
X108776190Y-86528571D01*
X108776190Y-86623809D01*
X108300000Y-86719047D01*
X109157142Y-87004761D02*
X109252380Y-87052380D01*
X109442857Y-87052380D01*
X109538095Y-87004761D01*
X109585714Y-86909523D01*
X109585714Y-86861904D01*
X109538095Y-86766666D01*
X109442857Y-86719047D01*
X109300000Y-86719047D01*
X109204761Y-86671428D01*
X109157142Y-86576190D01*
X109157142Y-86528571D01*
X109204761Y-86433333D01*
X109300000Y-86385714D01*
X109442857Y-86385714D01*
X109538095Y-86433333D01*
X110014285Y-87052380D02*
X110014285Y-86385714D01*
X110014285Y-86052380D02*
X109966666Y-86100000D01*
X110014285Y-86147619D01*
X110061904Y-86100000D01*
X110014285Y-86052380D01*
X110014285Y-86147619D01*
X110919047Y-86385714D02*
X110919047Y-87195238D01*
X110871428Y-87290476D01*
X110823809Y-87338095D01*
X110728571Y-87385714D01*
X110585714Y-87385714D01*
X110490476Y-87338095D01*
X110919047Y-87004761D02*
X110823809Y-87052380D01*
X110633333Y-87052380D01*
X110538095Y-87004761D01*
X110490476Y-86957142D01*
X110442857Y-86861904D01*
X110442857Y-86576190D01*
X110490476Y-86480952D01*
X110538095Y-86433333D01*
X110633333Y-86385714D01*
X110823809Y-86385714D01*
X110919047Y-86433333D01*
X111395238Y-86385714D02*
X111395238Y-87052380D01*
X111395238Y-86480952D02*
X111442857Y-86433333D01*
X111538095Y-86385714D01*
X111680952Y-86385714D01*
X111776190Y-86433333D01*
X111823809Y-86528571D01*
X111823809Y-87052380D01*
X112680952Y-87004761D02*
X112585714Y-87052380D01*
X112395238Y-87052380D01*
X112300000Y-87004761D01*
X112252380Y-86909523D01*
X112252380Y-86528571D01*
X112300000Y-86433333D01*
X112395238Y-86385714D01*
X112585714Y-86385714D01*
X112680952Y-86433333D01*
X112728571Y-86528571D01*
X112728571Y-86623809D01*
X112252380Y-86719047D01*
X113585714Y-87052380D02*
X113585714Y-86052380D01*
X113585714Y-87004761D02*
X113490476Y-87052380D01*
X113300000Y-87052380D01*
X113204761Y-87004761D01*
X113157142Y-86957142D01*
X113109523Y-86861904D01*
X113109523Y-86576190D01*
X113157142Y-86480952D01*
X113204761Y-86433333D01*
X113300000Y-86385714D01*
X113490476Y-86385714D01*
X113585714Y-86433333D01*
X114823809Y-87052380D02*
X114823809Y-86052380D01*
X114823809Y-86433333D02*
X114919047Y-86385714D01*
X115109523Y-86385714D01*
X115204761Y-86433333D01*
X115252380Y-86480952D01*
X115300000Y-86576190D01*
X115300000Y-86861904D01*
X115252380Y-86957142D01*
X115204761Y-87004761D01*
X115109523Y-87052380D01*
X114919047Y-87052380D01*
X114823809Y-87004761D01*
X115633333Y-86385714D02*
X115871428Y-87052380D01*
X116109523Y-86385714D02*
X115871428Y-87052380D01*
X115776190Y-87290476D01*
X115728571Y-87338095D01*
X115633333Y-87385714D01*
X117728571Y-87052380D02*
X117252380Y-87052380D01*
X117252380Y-86052380D01*
X118490476Y-86385714D02*
X118490476Y-87052380D01*
X118061904Y-86385714D02*
X118061904Y-86909523D01*
X118109523Y-87004761D01*
X118204761Y-87052380D01*
X118347619Y-87052380D01*
X118442857Y-87004761D01*
X118490476Y-86957142D01*
X118966666Y-87052380D02*
X118966666Y-86052380D01*
X119061904Y-86671428D02*
X119347619Y-87052380D01*
X119347619Y-86385714D02*
X118966666Y-86766666D01*
X120204761Y-87052380D02*
X120204761Y-86528571D01*
X120157142Y-86433333D01*
X120061904Y-86385714D01*
X119871428Y-86385714D01*
X119776190Y-86433333D01*
X120204761Y-87004761D02*
X120109523Y-87052380D01*
X119871428Y-87052380D01*
X119776190Y-87004761D01*
X119728571Y-86909523D01*
X119728571Y-86814285D01*
X119776190Y-86719047D01*
X119871428Y-86671428D01*
X120109523Y-86671428D01*
X120204761Y-86623809D01*
X120633333Y-87004761D02*
X120728571Y-87052380D01*
X120919047Y-87052380D01*
X121014285Y-87004761D01*
X121061904Y-86909523D01*
X121061904Y-86861904D01*
X121014285Y-86766666D01*
X120919047Y-86719047D01*
X120776190Y-86719047D01*
X120680952Y-86671428D01*
X120633333Y-86576190D01*
X120633333Y-86528571D01*
X120680952Y-86433333D01*
X120776190Y-86385714D01*
X120919047Y-86385714D01*
X121014285Y-86433333D01*
X122252380Y-87052380D02*
X122252380Y-86052380D01*
X122252380Y-86528571D02*
X122823809Y-86528571D01*
X122823809Y-87052380D02*
X122823809Y-86052380D01*
X123728571Y-87052380D02*
X123728571Y-86528571D01*
X123680952Y-86433333D01*
X123585714Y-86385714D01*
X123395238Y-86385714D01*
X123300000Y-86433333D01*
X123728571Y-87004761D02*
X123633333Y-87052380D01*
X123395238Y-87052380D01*
X123300000Y-87004761D01*
X123252380Y-86909523D01*
X123252380Y-86814285D01*
X123300000Y-86719047D01*
X123395238Y-86671428D01*
X123633333Y-86671428D01*
X123728571Y-86623809D01*
X124109523Y-86385714D02*
X124633333Y-86385714D01*
X124109523Y-87052380D01*
X124633333Y-87052380D01*
X125395238Y-87004761D02*
X125300000Y-87052380D01*
X125109523Y-87052380D01*
X125014285Y-87004761D01*
X124966666Y-86909523D01*
X124966666Y-86528571D01*
X125014285Y-86433333D01*
X125109523Y-86385714D01*
X125300000Y-86385714D01*
X125395238Y-86433333D01*
X125442857Y-86528571D01*
X125442857Y-86623809D01*
X124966666Y-86719047D01*
X125871428Y-86385714D02*
X125871428Y-87052380D01*
X125871428Y-86480952D02*
X125919047Y-86433333D01*
X126014285Y-86385714D01*
X126157142Y-86385714D01*
X126252380Y-86433333D01*
X126300000Y-86528571D01*
X126300000Y-87052380D01*
X126776190Y-86671428D02*
X127538095Y-86671428D01*
X128347619Y-86528571D02*
X128490476Y-86576190D01*
X128538095Y-86623809D01*
X128585714Y-86719047D01*
X128585714Y-86861904D01*
X128538095Y-86957142D01*
X128490476Y-87004761D01*
X128395238Y-87052380D01*
X128014285Y-87052380D01*
X128014285Y-86052380D01*
X128347619Y-86052380D01*
X128442857Y-86100000D01*
X128490476Y-86147619D01*
X128538095Y-86242857D01*
X128538095Y-86338095D01*
X128490476Y-86433333D01*
X128442857Y-86480952D01*
X128347619Y-86528571D01*
X128014285Y-86528571D01*
X129442857Y-86385714D02*
X129442857Y-87052380D01*
X129014285Y-86385714D02*
X129014285Y-86909523D01*
X129061904Y-87004761D01*
X129157142Y-87052380D01*
X129300000Y-87052380D01*
X129395238Y-87004761D01*
X129442857Y-86957142D01*
X129871428Y-87004761D02*
X129966666Y-87052380D01*
X130157142Y-87052380D01*
X130252380Y-87004761D01*
X130300000Y-86909523D01*
X130300000Y-86861904D01*
X130252380Y-86766666D01*
X130157142Y-86719047D01*
X130014285Y-86719047D01*
X129919047Y-86671428D01*
X129871428Y-86576190D01*
X129871428Y-86528571D01*
X129919047Y-86433333D01*
X130014285Y-86385714D01*
X130157142Y-86385714D01*
X130252380Y-86433333D01*
X130728571Y-87052380D02*
X130728571Y-86052380D01*
X131157142Y-87052380D02*
X131157142Y-86528571D01*
X131109523Y-86433333D01*
X131014285Y-86385714D01*
X130871428Y-86385714D01*
X130776190Y-86433333D01*
X130728571Y-86480952D01*
X131633333Y-87052380D02*
X131633333Y-86052380D01*
X131633333Y-86433333D02*
X131728571Y-86385714D01*
X131919047Y-86385714D01*
X132014285Y-86433333D01*
X132061904Y-86480952D01*
X132109523Y-86576190D01*
X132109523Y-86861904D01*
X132061904Y-86957142D01*
X132014285Y-87004761D01*
X131919047Y-87052380D01*
X131728571Y-87052380D01*
X131633333Y-87004761D01*
X132966666Y-87052380D02*
X132966666Y-86528571D01*
X132919047Y-86433333D01*
X132823809Y-86385714D01*
X132633333Y-86385714D01*
X132538095Y-86433333D01*
X132966666Y-87004761D02*
X132871428Y-87052380D01*
X132633333Y-87052380D01*
X132538095Y-87004761D01*
X132490476Y-86909523D01*
X132490476Y-86814285D01*
X132538095Y-86719047D01*
X132633333Y-86671428D01*
X132871428Y-86671428D01*
X132966666Y-86623809D01*
X133442857Y-87052380D02*
X133442857Y-86052380D01*
X133538095Y-86671428D02*
X133823809Y-87052380D01*
X133823809Y-86385714D02*
X133442857Y-86766666D01*
X134633333Y-87004761D02*
X134538095Y-87052380D01*
X134347619Y-87052380D01*
X134252380Y-87004761D01*
X134204761Y-86909523D01*
X134204761Y-86528571D01*
X134252380Y-86433333D01*
X134347619Y-86385714D01*
X134538095Y-86385714D01*
X134633333Y-86433333D01*
X134680952Y-86528571D01*
X134680952Y-86623809D01*
X134204761Y-86719047D01*
X135109523Y-87052380D02*
X135109523Y-86385714D01*
X135109523Y-86576190D02*
X135157142Y-86480952D01*
X135204761Y-86433333D01*
X135300000Y-86385714D01*
X135395238Y-86385714D01*
X98376190Y-84552380D02*
X98376190Y-83552380D01*
X98947619Y-84552380D01*
X98947619Y-83552380D01*
X99423809Y-84028571D02*
X99757142Y-84028571D01*
X99900000Y-84552380D02*
X99423809Y-84552380D01*
X99423809Y-83552380D01*
X99900000Y-83552380D01*
X100280952Y-84504761D02*
X100423809Y-84552380D01*
X100661904Y-84552380D01*
X100757142Y-84504761D01*
X100804761Y-84457142D01*
X100852380Y-84361904D01*
X100852380Y-84266666D01*
X100804761Y-84171428D01*
X100757142Y-84123809D01*
X100661904Y-84076190D01*
X100471428Y-84028571D01*
X100376190Y-83980952D01*
X100328571Y-83933333D01*
X100280952Y-83838095D01*
X100280952Y-83742857D01*
X100328571Y-83647619D01*
X100376190Y-83600000D01*
X100471428Y-83552380D01*
X100709523Y-83552380D01*
X100852380Y-83600000D01*
X102042857Y-84171428D02*
X102804761Y-84171428D01*
X102423809Y-84552380D02*
X102423809Y-83790476D01*
X103995238Y-84504761D02*
X104138095Y-84552380D01*
X104376190Y-84552380D01*
X104471428Y-84504761D01*
X104519047Y-84457142D01*
X104566666Y-84361904D01*
X104566666Y-84266666D01*
X104519047Y-84171428D01*
X104471428Y-84123809D01*
X104376190Y-84076190D01*
X104185714Y-84028571D01*
X104090476Y-83980952D01*
X104042857Y-83933333D01*
X103995238Y-83838095D01*
X103995238Y-83742857D01*
X104042857Y-83647619D01*
X104090476Y-83600000D01*
X104185714Y-83552380D01*
X104423809Y-83552380D01*
X104566666Y-83600000D01*
X104995238Y-84552380D02*
X104995238Y-83552380D01*
X105566666Y-84552380D01*
X105566666Y-83552380D01*
X106042857Y-84028571D02*
X106376190Y-84028571D01*
X106519047Y-84552380D02*
X106042857Y-84552380D01*
X106042857Y-83552380D01*
X106519047Y-83552380D01*
X106900000Y-84504761D02*
X107042857Y-84552380D01*
X107280952Y-84552380D01*
X107376190Y-84504761D01*
X107423809Y-84457142D01*
X107471428Y-84361904D01*
X107471428Y-84266666D01*
X107423809Y-84171428D01*
X107376190Y-84123809D01*
X107280952Y-84076190D01*
X107090476Y-84028571D01*
X106995238Y-83980952D01*
X106947619Y-83933333D01*
X106900000Y-83838095D01*
X106900000Y-83742857D01*
X106947619Y-83647619D01*
X106995238Y-83600000D01*
X107090476Y-83552380D01*
X107328571Y-83552380D01*
X107471428Y-83600000D01*
X108519047Y-83885714D02*
X108900000Y-83885714D01*
X108661904Y-83552380D02*
X108661904Y-84409523D01*
X108709523Y-84504761D01*
X108804761Y-84552380D01*
X108900000Y-84552380D01*
X109376190Y-84552380D02*
X109280952Y-84504761D01*
X109233333Y-84457142D01*
X109185714Y-84361904D01*
X109185714Y-84076190D01*
X109233333Y-83980952D01*
X109280952Y-83933333D01*
X109376190Y-83885714D01*
X109519047Y-83885714D01*
X109614285Y-83933333D01*
X109661904Y-83980952D01*
X109709523Y-84076190D01*
X109709523Y-84361904D01*
X109661904Y-84457142D01*
X109614285Y-84504761D01*
X109519047Y-84552380D01*
X109376190Y-84552380D01*
X110900000Y-83552380D02*
X110900000Y-84361904D01*
X110947619Y-84457142D01*
X110995238Y-84504761D01*
X111090476Y-84552380D01*
X111280952Y-84552380D01*
X111376190Y-84504761D01*
X111423809Y-84457142D01*
X111471428Y-84361904D01*
X111471428Y-83552380D01*
X111900000Y-84504761D02*
X112042857Y-84552380D01*
X112280952Y-84552380D01*
X112376190Y-84504761D01*
X112423809Y-84457142D01*
X112471428Y-84361904D01*
X112471428Y-84266666D01*
X112423809Y-84171428D01*
X112376190Y-84123809D01*
X112280952Y-84076190D01*
X112090476Y-84028571D01*
X111995238Y-83980952D01*
X111947619Y-83933333D01*
X111900000Y-83838095D01*
X111900000Y-83742857D01*
X111947619Y-83647619D01*
X111995238Y-83600000D01*
X112090476Y-83552380D01*
X112328571Y-83552380D01*
X112471428Y-83600000D01*
X113233333Y-84028571D02*
X113376190Y-84076190D01*
X113423809Y-84123809D01*
X113471428Y-84219047D01*
X113471428Y-84361904D01*
X113423809Y-84457142D01*
X113376190Y-84504761D01*
X113280952Y-84552380D01*
X112900000Y-84552380D01*
X112900000Y-83552380D01*
X113233333Y-83552380D01*
X113328571Y-83600000D01*
X113376190Y-83647619D01*
X113423809Y-83742857D01*
X113423809Y-83838095D01*
X113376190Y-83933333D01*
X113328571Y-83980952D01*
X113233333Y-84028571D01*
X112900000Y-84028571D01*
X113900000Y-84171428D02*
X114661904Y-84171428D01*
X115709523Y-84457142D02*
X115661904Y-84504761D01*
X115519047Y-84552380D01*
X115423809Y-84552380D01*
X115280952Y-84504761D01*
X115185714Y-84409523D01*
X115138095Y-84314285D01*
X115090476Y-84123809D01*
X115090476Y-83980952D01*
X115138095Y-83790476D01*
X115185714Y-83695238D01*
X115280952Y-83600000D01*
X115423809Y-83552380D01*
X115519047Y-83552380D01*
X115661904Y-83600000D01*
X115709523Y-83647619D01*
X116900000Y-84552380D02*
X116900000Y-83552380D01*
X116900000Y-84028571D02*
X117471428Y-84028571D01*
X117471428Y-84552380D02*
X117471428Y-83552380D01*
X117947619Y-84552380D02*
X117947619Y-83552380D01*
X118423809Y-84552380D02*
X118423809Y-83552380D01*
X118661904Y-83552380D01*
X118804761Y-83600000D01*
X118900000Y-83695238D01*
X118947619Y-83790476D01*
X118995238Y-83980952D01*
X118995238Y-84123809D01*
X118947619Y-84314285D01*
X118900000Y-84409523D01*
X118804761Y-84504761D01*
X118661904Y-84552380D01*
X118423809Y-84552380D01*
X119471428Y-84504761D02*
X119471428Y-84552380D01*
X119423809Y-84647619D01*
X119376190Y-84695238D01*
X120519047Y-83552380D02*
X120852380Y-84552380D01*
X121185714Y-83552380D01*
X122042857Y-84552380D02*
X121471428Y-84552380D01*
X121757142Y-84552380D02*
X121757142Y-83552380D01*
X121661904Y-83695238D01*
X121566666Y-83790476D01*
X121471428Y-83838095D01*
X122471428Y-84457142D02*
X122519047Y-84504761D01*
X122471428Y-84552380D01*
X122423809Y-84504761D01*
X122471428Y-84457142D01*
X122471428Y-84552380D01*
X123138095Y-83552380D02*
X123233333Y-83552380D01*
X123328571Y-83600000D01*
X123376190Y-83647619D01*
X123423809Y-83742857D01*
X123471428Y-83933333D01*
X123471428Y-84171428D01*
X123423809Y-84361904D01*
X123376190Y-84457142D01*
X123328571Y-84504761D01*
X123233333Y-84552380D01*
X123138095Y-84552380D01*
X123042857Y-84504761D01*
X122995238Y-84457142D01*
X122947619Y-84361904D01*
X122900000Y-84171428D01*
X122900000Y-83933333D01*
X122947619Y-83742857D01*
X122995238Y-83647619D01*
X123042857Y-83600000D01*
X123138095Y-83552380D01*
X144680952Y-120152380D02*
X144680952Y-120866666D01*
X144633333Y-121009523D01*
X144538095Y-121104761D01*
X144395238Y-121152380D01*
X144300000Y-121152380D01*
X145633333Y-121152380D02*
X145157142Y-121152380D01*
X145157142Y-120152380D01*
X146538095Y-121057142D02*
X146490476Y-121104761D01*
X146347619Y-121152380D01*
X146252380Y-121152380D01*
X146109523Y-121104761D01*
X146014285Y-121009523D01*
X145966666Y-120914285D01*
X145919047Y-120723809D01*
X145919047Y-120580952D01*
X145966666Y-120390476D01*
X146014285Y-120295238D01*
X146109523Y-120200000D01*
X146252380Y-120152380D01*
X146347619Y-120152380D01*
X146490476Y-120200000D01*
X146538095Y-120247619D01*
X147252380Y-120152380D02*
X147252380Y-120866666D01*
X147204761Y-121009523D01*
X147109523Y-121104761D01*
X146966666Y-121152380D01*
X146871428Y-121152380D01*
X148204761Y-121152380D02*
X147728571Y-121152380D01*
X147728571Y-120152380D01*
X149109523Y-121057142D02*
X149061904Y-121104761D01*
X148919047Y-121152380D01*
X148823809Y-121152380D01*
X148680952Y-121104761D01*
X148585714Y-121009523D01*
X148538095Y-120914285D01*
X148490476Y-120723809D01*
X148490476Y-120580952D01*
X148538095Y-120390476D01*
X148585714Y-120295238D01*
X148680952Y-120200000D01*
X148823809Y-120152380D01*
X148919047Y-120152380D01*
X149061904Y-120200000D01*
X149109523Y-120247619D01*
X149823809Y-120152380D02*
X149823809Y-120866666D01*
X149776190Y-121009523D01*
X149680952Y-121104761D01*
X149538095Y-121152380D01*
X149442857Y-121152380D01*
X150776190Y-121152380D02*
X150300000Y-121152380D01*
X150300000Y-120152380D01*
X151680952Y-121057142D02*
X151633333Y-121104761D01*
X151490476Y-121152380D01*
X151395238Y-121152380D01*
X151252380Y-121104761D01*
X151157142Y-121009523D01*
X151109523Y-120914285D01*
X151061904Y-120723809D01*
X151061904Y-120580952D01*
X151109523Y-120390476D01*
X151157142Y-120295238D01*
X151252380Y-120200000D01*
X151395238Y-120152380D01*
X151490476Y-120152380D01*
X151633333Y-120200000D01*
X151680952Y-120247619D01*
X152395238Y-120152380D02*
X152395238Y-120866666D01*
X152347619Y-121009523D01*
X152252380Y-121104761D01*
X152109523Y-121152380D01*
X152014285Y-121152380D01*
X153347619Y-121152380D02*
X152871428Y-121152380D01*
X152871428Y-120152380D01*
X154252380Y-121057142D02*
X154204761Y-121104761D01*
X154061904Y-121152380D01*
X153966666Y-121152380D01*
X153823809Y-121104761D01*
X153728571Y-121009523D01*
X153680952Y-120914285D01*
X153633333Y-120723809D01*
X153633333Y-120580952D01*
X153680952Y-120390476D01*
X153728571Y-120295238D01*
X153823809Y-120200000D01*
X153966666Y-120152380D01*
X154061904Y-120152380D01*
X154204761Y-120200000D01*
X154252380Y-120247619D01*
%TO.C,C9*%
X119134542Y-98982666D02*
X119182161Y-99030285D01*
X119229780Y-99173142D01*
X119229780Y-99268380D01*
X119182161Y-99411238D01*
X119086923Y-99506476D01*
X118991685Y-99554095D01*
X118801209Y-99601714D01*
X118658352Y-99601714D01*
X118467876Y-99554095D01*
X118372638Y-99506476D01*
X118277400Y-99411238D01*
X118229780Y-99268380D01*
X118229780Y-99173142D01*
X118277400Y-99030285D01*
X118325019Y-98982666D01*
X119229780Y-98506476D02*
X119229780Y-98316000D01*
X119182161Y-98220761D01*
X119134542Y-98173142D01*
X118991685Y-98077904D01*
X118801209Y-98030285D01*
X118420257Y-98030285D01*
X118325019Y-98077904D01*
X118277400Y-98125523D01*
X118229780Y-98220761D01*
X118229780Y-98411238D01*
X118277400Y-98506476D01*
X118325019Y-98554095D01*
X118420257Y-98601714D01*
X118658352Y-98601714D01*
X118753590Y-98554095D01*
X118801209Y-98506476D01*
X118848828Y-98411238D01*
X118848828Y-98220761D01*
X118801209Y-98125523D01*
X118753590Y-98077904D01*
X118658352Y-98030285D01*
%TO.C,C7*%
X119375766Y-105839985D02*
X119345528Y-105870223D01*
X119254814Y-105900461D01*
X119194338Y-105900461D01*
X119103623Y-105870223D01*
X119043147Y-105809747D01*
X119012909Y-105749271D01*
X118982671Y-105628319D01*
X118982671Y-105537604D01*
X119012909Y-105416652D01*
X119043147Y-105356176D01*
X119103623Y-105295700D01*
X119194338Y-105265461D01*
X119254814Y-105265461D01*
X119345528Y-105295700D01*
X119375766Y-105325938D01*
X119587433Y-105265461D02*
X120010766Y-105265461D01*
X119738623Y-105900461D01*
%TO.C,C8*%
X116560333Y-102257142D02*
X116512714Y-102304761D01*
X116369857Y-102352380D01*
X116274619Y-102352380D01*
X116131761Y-102304761D01*
X116036523Y-102209523D01*
X115988904Y-102114285D01*
X115941285Y-101923809D01*
X115941285Y-101780952D01*
X115988904Y-101590476D01*
X116036523Y-101495238D01*
X116131761Y-101400000D01*
X116274619Y-101352380D01*
X116369857Y-101352380D01*
X116512714Y-101400000D01*
X116560333Y-101447619D01*
X117131761Y-101780952D02*
X117036523Y-101733333D01*
X116988904Y-101685714D01*
X116941285Y-101590476D01*
X116941285Y-101542857D01*
X116988904Y-101447619D01*
X117036523Y-101400000D01*
X117131761Y-101352380D01*
X117322238Y-101352380D01*
X117417476Y-101400000D01*
X117465095Y-101447619D01*
X117512714Y-101542857D01*
X117512714Y-101590476D01*
X117465095Y-101685714D01*
X117417476Y-101733333D01*
X117322238Y-101780952D01*
X117131761Y-101780952D01*
X117036523Y-101828571D01*
X116988904Y-101876190D01*
X116941285Y-101971428D01*
X116941285Y-102161904D01*
X116988904Y-102257142D01*
X117036523Y-102304761D01*
X117131761Y-102352380D01*
X117322238Y-102352380D01*
X117417476Y-102304761D01*
X117465095Y-102257142D01*
X117512714Y-102161904D01*
X117512714Y-101971428D01*
X117465095Y-101876190D01*
X117417476Y-101828571D01*
X117322238Y-101780952D01*
%TO.C,R6*%
X116433333Y-98452380D02*
X116100000Y-97976190D01*
X115861904Y-98452380D02*
X115861904Y-97452380D01*
X116242857Y-97452380D01*
X116338095Y-97500000D01*
X116385714Y-97547619D01*
X116433333Y-97642857D01*
X116433333Y-97785714D01*
X116385714Y-97880952D01*
X116338095Y-97928571D01*
X116242857Y-97976190D01*
X115861904Y-97976190D01*
X117290476Y-97452380D02*
X117100000Y-97452380D01*
X117004761Y-97500000D01*
X116957142Y-97547619D01*
X116861904Y-97690476D01*
X116814285Y-97880952D01*
X116814285Y-98261904D01*
X116861904Y-98357142D01*
X116909523Y-98404761D01*
X117004761Y-98452380D01*
X117195238Y-98452380D01*
X117290476Y-98404761D01*
X117338095Y-98357142D01*
X117385714Y-98261904D01*
X117385714Y-98023809D01*
X117338095Y-97928571D01*
X117290476Y-97880952D01*
X117195238Y-97833333D01*
X117004761Y-97833333D01*
X116909523Y-97880952D01*
X116861904Y-97928571D01*
X116814285Y-98023809D01*
%TO.C,R3*%
X117028533Y-107593780D02*
X116695200Y-107117590D01*
X116457104Y-107593780D02*
X116457104Y-106593780D01*
X116838057Y-106593780D01*
X116933295Y-106641400D01*
X116980914Y-106689019D01*
X117028533Y-106784257D01*
X117028533Y-106927114D01*
X116980914Y-107022352D01*
X116933295Y-107069971D01*
X116838057Y-107117590D01*
X116457104Y-107117590D01*
X117361866Y-106593780D02*
X117980914Y-106593780D01*
X117647580Y-106974733D01*
X117790438Y-106974733D01*
X117885676Y-107022352D01*
X117933295Y-107069971D01*
X117980914Y-107165209D01*
X117980914Y-107403304D01*
X117933295Y-107498542D01*
X117885676Y-107546161D01*
X117790438Y-107593780D01*
X117504723Y-107593780D01*
X117409485Y-107546161D01*
X117361866Y-107498542D01*
%TO.C,R4*%
X99528333Y-110180380D02*
X99195000Y-109704190D01*
X98956904Y-110180380D02*
X98956904Y-109180380D01*
X99337857Y-109180380D01*
X99433095Y-109228000D01*
X99480714Y-109275619D01*
X99528333Y-109370857D01*
X99528333Y-109513714D01*
X99480714Y-109608952D01*
X99433095Y-109656571D01*
X99337857Y-109704190D01*
X98956904Y-109704190D01*
X100385476Y-109513714D02*
X100385476Y-110180380D01*
X100147380Y-109132761D02*
X99909285Y-109847047D01*
X100528333Y-109847047D01*
%TO.C,C10*%
X115181142Y-100957142D02*
X115133523Y-101004761D01*
X114990666Y-101052380D01*
X114895428Y-101052380D01*
X114752571Y-101004761D01*
X114657333Y-100909523D01*
X114609714Y-100814285D01*
X114562095Y-100623809D01*
X114562095Y-100480952D01*
X114609714Y-100290476D01*
X114657333Y-100195238D01*
X114752571Y-100100000D01*
X114895428Y-100052380D01*
X114990666Y-100052380D01*
X115133523Y-100100000D01*
X115181142Y-100147619D01*
X116133523Y-101052380D02*
X115562095Y-101052380D01*
X115847809Y-101052380D02*
X115847809Y-100052380D01*
X115752571Y-100195238D01*
X115657333Y-100290476D01*
X115562095Y-100338095D01*
X116752571Y-100052380D02*
X116847809Y-100052380D01*
X116943047Y-100100000D01*
X116990666Y-100147619D01*
X117038285Y-100242857D01*
X117085904Y-100433333D01*
X117085904Y-100671428D01*
X117038285Y-100861904D01*
X116990666Y-100957142D01*
X116943047Y-101004761D01*
X116847809Y-101052380D01*
X116752571Y-101052380D01*
X116657333Y-101004761D01*
X116609714Y-100957142D01*
X116562095Y-100861904D01*
X116514476Y-100671428D01*
X116514476Y-100433333D01*
X116562095Y-100242857D01*
X116609714Y-100147619D01*
X116657333Y-100100000D01*
X116752571Y-100052380D01*
%TO.C,R5*%
X116433333Y-99752380D02*
X116100000Y-99276190D01*
X115861904Y-99752380D02*
X115861904Y-98752380D01*
X116242857Y-98752380D01*
X116338095Y-98800000D01*
X116385714Y-98847619D01*
X116433333Y-98942857D01*
X116433333Y-99085714D01*
X116385714Y-99180952D01*
X116338095Y-99228571D01*
X116242857Y-99276190D01*
X115861904Y-99276190D01*
X117338095Y-98752380D02*
X116861904Y-98752380D01*
X116814285Y-99228571D01*
X116861904Y-99180952D01*
X116957142Y-99133333D01*
X117195238Y-99133333D01*
X117290476Y-99180952D01*
X117338095Y-99228571D01*
X117385714Y-99323809D01*
X117385714Y-99561904D01*
X117338095Y-99657142D01*
X117290476Y-99704761D01*
X117195238Y-99752380D01*
X116957142Y-99752380D01*
X116861904Y-99704761D01*
X116814285Y-99657142D01*
%TO.C,R2*%
X102433333Y-97852380D02*
X102100000Y-97376190D01*
X101861904Y-97852380D02*
X101861904Y-96852380D01*
X102242857Y-96852380D01*
X102338095Y-96900000D01*
X102385714Y-96947619D01*
X102433333Y-97042857D01*
X102433333Y-97185714D01*
X102385714Y-97280952D01*
X102338095Y-97328571D01*
X102242857Y-97376190D01*
X101861904Y-97376190D01*
X102814285Y-96947619D02*
X102861904Y-96900000D01*
X102957142Y-96852380D01*
X103195238Y-96852380D01*
X103290476Y-96900000D01*
X103338095Y-96947619D01*
X103385714Y-97042857D01*
X103385714Y-97138095D01*
X103338095Y-97280952D01*
X102766666Y-97852380D01*
X103385714Y-97852380D01*
%TO.C,U1*%
X124079095Y-95216380D02*
X124079095Y-96025904D01*
X124126714Y-96121142D01*
X124174333Y-96168761D01*
X124269571Y-96216380D01*
X124460047Y-96216380D01*
X124555285Y-96168761D01*
X124602904Y-96121142D01*
X124650523Y-96025904D01*
X124650523Y-95216380D01*
X125650523Y-96216380D02*
X125079095Y-96216380D01*
X125364809Y-96216380D02*
X125364809Y-95216380D01*
X125269571Y-95359238D01*
X125174333Y-95454476D01*
X125079095Y-95502095D01*
%TO.C,R1*%
X100633333Y-101352380D02*
X100300000Y-100876190D01*
X100061904Y-101352380D02*
X100061904Y-100352380D01*
X100442857Y-100352380D01*
X100538095Y-100400000D01*
X100585714Y-100447619D01*
X100633333Y-100542857D01*
X100633333Y-100685714D01*
X100585714Y-100780952D01*
X100538095Y-100828571D01*
X100442857Y-100876190D01*
X100061904Y-100876190D01*
X101585714Y-101352380D02*
X101014285Y-101352380D01*
X101300000Y-101352380D02*
X101300000Y-100352380D01*
X101204761Y-100495238D01*
X101109523Y-100590476D01*
X101014285Y-100638095D01*
%TO.C,C6*%
X131733333Y-103457142D02*
X131685714Y-103504761D01*
X131542857Y-103552380D01*
X131447619Y-103552380D01*
X131304761Y-103504761D01*
X131209523Y-103409523D01*
X131161904Y-103314285D01*
X131114285Y-103123809D01*
X131114285Y-102980952D01*
X131161904Y-102790476D01*
X131209523Y-102695238D01*
X131304761Y-102600000D01*
X131447619Y-102552380D01*
X131542857Y-102552380D01*
X131685714Y-102600000D01*
X131733333Y-102647619D01*
X132590476Y-102552380D02*
X132400000Y-102552380D01*
X132304761Y-102600000D01*
X132257142Y-102647619D01*
X132161904Y-102790476D01*
X132114285Y-102980952D01*
X132114285Y-103361904D01*
X132161904Y-103457142D01*
X132209523Y-103504761D01*
X132304761Y-103552380D01*
X132495238Y-103552380D01*
X132590476Y-103504761D01*
X132638095Y-103457142D01*
X132685714Y-103361904D01*
X132685714Y-103123809D01*
X132638095Y-103028571D01*
X132590476Y-102980952D01*
X132495238Y-102933333D01*
X132304761Y-102933333D01*
X132209523Y-102980952D01*
X132161904Y-103028571D01*
X132114285Y-103123809D01*
%TO.C,Y1*%
X124223809Y-111956190D02*
X124223809Y-112432380D01*
X123890476Y-111432380D02*
X124223809Y-111956190D01*
X124557142Y-111432380D01*
X125414285Y-112432380D02*
X124842857Y-112432380D01*
X125128571Y-112432380D02*
X125128571Y-111432380D01*
X125033333Y-111575238D01*
X124938095Y-111670476D01*
X124842857Y-111718095D01*
%TO.C,C1*%
X126055966Y-105484385D02*
X126025728Y-105514623D01*
X125935014Y-105544861D01*
X125874538Y-105544861D01*
X125783823Y-105514623D01*
X125723347Y-105454147D01*
X125693109Y-105393671D01*
X125662871Y-105272719D01*
X125662871Y-105182004D01*
X125693109Y-105061052D01*
X125723347Y-105000576D01*
X125783823Y-104940100D01*
X125874538Y-104909861D01*
X125935014Y-104909861D01*
X126025728Y-104940100D01*
X126055966Y-104970338D01*
X126660728Y-105544861D02*
X126297871Y-105544861D01*
X126479300Y-105544861D02*
X126479300Y-104909861D01*
X126418823Y-105000576D01*
X126358347Y-105061052D01*
X126297871Y-105091290D01*
%TO.C,C4*%
X103592333Y-95353142D02*
X103544714Y-95400761D01*
X103401857Y-95448380D01*
X103306619Y-95448380D01*
X103163761Y-95400761D01*
X103068523Y-95305523D01*
X103020904Y-95210285D01*
X102973285Y-95019809D01*
X102973285Y-94876952D01*
X103020904Y-94686476D01*
X103068523Y-94591238D01*
X103163761Y-94496000D01*
X103306619Y-94448380D01*
X103401857Y-94448380D01*
X103544714Y-94496000D01*
X103592333Y-94543619D01*
X104449476Y-94781714D02*
X104449476Y-95448380D01*
X104211380Y-94400761D02*
X103973285Y-95115047D01*
X104592333Y-95115047D01*
%TO.C,C2*%
X122703166Y-105509785D02*
X122672928Y-105540023D01*
X122582214Y-105570261D01*
X122521738Y-105570261D01*
X122431023Y-105540023D01*
X122370547Y-105479547D01*
X122340309Y-105419071D01*
X122310071Y-105298119D01*
X122310071Y-105207404D01*
X122340309Y-105086452D01*
X122370547Y-105025976D01*
X122431023Y-104965500D01*
X122521738Y-104935261D01*
X122582214Y-104935261D01*
X122672928Y-104965500D01*
X122703166Y-104995738D01*
X122945071Y-104995738D02*
X122975309Y-104965500D01*
X123035785Y-104935261D01*
X123186976Y-104935261D01*
X123247452Y-104965500D01*
X123277690Y-104995738D01*
X123307928Y-105056214D01*
X123307928Y-105116690D01*
X123277690Y-105207404D01*
X122914833Y-105570261D01*
X123307928Y-105570261D01*
%TO.C,C5*%
X129033333Y-95988142D02*
X128985714Y-96035761D01*
X128842857Y-96083380D01*
X128747619Y-96083380D01*
X128604761Y-96035761D01*
X128509523Y-95940523D01*
X128461904Y-95845285D01*
X128414285Y-95654809D01*
X128414285Y-95511952D01*
X128461904Y-95321476D01*
X128509523Y-95226238D01*
X128604761Y-95131000D01*
X128747619Y-95083380D01*
X128842857Y-95083380D01*
X128985714Y-95131000D01*
X129033333Y-95178619D01*
X129938095Y-95083380D02*
X129461904Y-95083380D01*
X129414285Y-95559571D01*
X129461904Y-95511952D01*
X129557142Y-95464333D01*
X129795238Y-95464333D01*
X129890476Y-95511952D01*
X129938095Y-95559571D01*
X129985714Y-95654809D01*
X129985714Y-95892904D01*
X129938095Y-95988142D01*
X129890476Y-96035761D01*
X129795238Y-96083380D01*
X129557142Y-96083380D01*
X129461904Y-96035761D01*
X129414285Y-95988142D01*
%TO.C,J1*%
X91052380Y-99033333D02*
X91766666Y-99033333D01*
X91909523Y-99080952D01*
X92004761Y-99176190D01*
X92052380Y-99319047D01*
X92052380Y-99414285D01*
X92052380Y-98033333D02*
X92052380Y-98604761D01*
X92052380Y-98319047D02*
X91052380Y-98319047D01*
X91195238Y-98414285D01*
X91290476Y-98509523D01*
X91338095Y-98604761D01*
%TO.C,C3*%
X99020333Y-94591142D02*
X98972714Y-94638761D01*
X98829857Y-94686380D01*
X98734619Y-94686380D01*
X98591761Y-94638761D01*
X98496523Y-94543523D01*
X98448904Y-94448285D01*
X98401285Y-94257809D01*
X98401285Y-94114952D01*
X98448904Y-93924476D01*
X98496523Y-93829238D01*
X98591761Y-93734000D01*
X98734619Y-93686380D01*
X98829857Y-93686380D01*
X98972714Y-93734000D01*
X99020333Y-93781619D01*
X99353666Y-93686380D02*
X99972714Y-93686380D01*
X99639380Y-94067333D01*
X99782238Y-94067333D01*
X99877476Y-94114952D01*
X99925095Y-94162571D01*
X99972714Y-94257809D01*
X99972714Y-94495904D01*
X99925095Y-94591142D01*
X99877476Y-94638761D01*
X99782238Y-94686380D01*
X99496523Y-94686380D01*
X99401285Y-94638761D01*
X99353666Y-94591142D01*
D11*
%TO.C,S1*%
X111472500Y-104075400D02*
X111472500Y-101715400D01*
X106372500Y-101715400D02*
X106372500Y-104075400D01*
D12*
X104772500Y-101020400D02*
G75*
G03*
X104772500Y-101020400I-100000J0D01*
G01*
D11*
X111172500Y-100345400D02*
X106672500Y-100345400D01*
X111172500Y-105445400D02*
X106672500Y-105445400D01*
D13*
%TO.C,C9*%
X118878236Y-96668000D02*
X118662564Y-96668000D01*
X118878236Y-97388000D02*
X118662564Y-97388000D01*
%TO.C,C7*%
X121215036Y-105947800D02*
X120999364Y-105947800D01*
X121215036Y-105227800D02*
X120999364Y-105227800D01*
%TO.C,C8*%
X118852836Y-101367000D02*
X118637164Y-101367000D01*
X118852836Y-102087000D02*
X118637164Y-102087000D01*
D10*
%TO.C,J2*%
X91264000Y-126909000D02*
X91264000Y-114509000D01*
X91264000Y-126909000D02*
X123664000Y-126909000D01*
X91264000Y-114509000D02*
X123564000Y-114509000D01*
X129814000Y-120709000D02*
G75*
G03*
X123614000Y-114509000I-6200000J0D01*
G01*
X123614000Y-126909000D02*
G75*
G03*
X129814000Y-120709000I0J6200000D01*
G01*
D13*
%TO.C,R6*%
X118591359Y-97791000D02*
X118898641Y-97791000D01*
X118591359Y-98551000D02*
X118898641Y-98551000D01*
%TO.C,R3*%
X119836200Y-107240041D02*
X119836200Y-106932759D01*
X119076200Y-107240041D02*
X119076200Y-106932759D01*
D14*
%TO.C,J5*%
X157225000Y-82125000D02*
X157225000Y-88625000D01*
X153016150Y-88625000D02*
X153892850Y-88625000D01*
X141225000Y-82125000D02*
X141225000Y-88625000D01*
X148825150Y-88625000D02*
X149701850Y-88625000D01*
X144634150Y-88625000D02*
X145510850Y-88625000D01*
X136825000Y-68125000D02*
X161625000Y-68125000D01*
X161625000Y-68125000D02*
X161625000Y-82125000D01*
X161625000Y-82125000D02*
X136825000Y-82125000D01*
X136825000Y-82125000D02*
X136825000Y-68125000D01*
X134268500Y-71425000D02*
X136681500Y-71425000D01*
X136681500Y-71425000D02*
X136681500Y-73525000D01*
X136681500Y-73525000D02*
X134268500Y-73525000D01*
X134268500Y-73525000D02*
X134268500Y-71425000D01*
X161725000Y-71425000D02*
X164138000Y-71425000D01*
X164138000Y-71425000D02*
X164138000Y-73525000D01*
X164138000Y-73525000D02*
X161725000Y-73525000D01*
X161725000Y-73525000D02*
X161725000Y-71425000D01*
%TO.C,J4*%
X157225000Y-113709000D02*
X157225000Y-107209000D01*
X145433850Y-107209000D02*
X144557150Y-107209000D01*
X141225000Y-113709000D02*
X141225000Y-107209000D01*
X153815850Y-107209000D02*
X152939150Y-107209000D01*
X149624850Y-107209000D02*
X148748150Y-107209000D01*
X164181500Y-124409000D02*
X161768500Y-124409000D01*
X161768500Y-124409000D02*
X161768500Y-122309000D01*
X161768500Y-122309000D02*
X164181500Y-122309000D01*
X164181500Y-122309000D02*
X164181500Y-124409000D01*
X161625000Y-127709000D02*
X136825000Y-127709000D01*
X136825000Y-127709000D02*
X136825000Y-113709000D01*
X136825000Y-113709000D02*
X161625000Y-113709000D01*
X161625000Y-113709000D02*
X161625000Y-127709000D01*
X136725000Y-124409000D02*
X134312000Y-124409000D01*
X134312000Y-124409000D02*
X134312000Y-122309000D01*
X134312000Y-122309000D02*
X136725000Y-122309000D01*
X136725000Y-122309000D02*
X136725000Y-124409000D01*
D13*
%TO.C,R4*%
X102464841Y-109348000D02*
X102157559Y-109348000D01*
X102464841Y-110108000D02*
X102157559Y-110108000D01*
%TO.C,C10*%
X118852836Y-100224000D02*
X118637164Y-100224000D01*
X118852836Y-100944000D02*
X118637164Y-100944000D01*
%TO.C,D1*%
X103796200Y-108939000D02*
X103796200Y-107469000D01*
X103796200Y-107469000D02*
X101511200Y-107469000D01*
X101511200Y-108939000D02*
X103796200Y-108939000D01*
%TO.C,R5*%
X118591359Y-99694000D02*
X118898641Y-99694000D01*
X118591359Y-98934000D02*
X118898641Y-98934000D01*
%TO.C,G\u002A\u002A\u002A*%
G36*
X108292921Y-93947126D02*
G01*
X108289727Y-93931378D01*
X108288596Y-93924343D01*
X108288636Y-93924075D01*
X108293904Y-93922525D01*
X108308153Y-93918934D01*
X108330397Y-93913534D01*
X108359651Y-93906559D01*
X108394931Y-93898241D01*
X108435251Y-93888816D01*
X108479627Y-93878516D01*
X108525087Y-93868031D01*
X108572500Y-93857076D01*
X108616857Y-93846724D01*
X108657165Y-93837215D01*
X108692429Y-93828789D01*
X108721655Y-93821685D01*
X108743849Y-93816141D01*
X108758017Y-93812398D01*
X108763139Y-93810726D01*
X108762927Y-93805162D01*
X108760805Y-93790620D01*
X108756964Y-93768127D01*
X108751594Y-93738709D01*
X108744886Y-93703390D01*
X108737030Y-93663198D01*
X108728216Y-93619158D01*
X108721307Y-93585269D01*
X108711874Y-93539142D01*
X108703173Y-93496185D01*
X108695402Y-93457413D01*
X108688761Y-93423843D01*
X108683450Y-93396489D01*
X108679669Y-93376368D01*
X108677618Y-93364496D01*
X108677328Y-93361619D01*
X108682797Y-93359986D01*
X108697162Y-93356559D01*
X108719349Y-93351561D01*
X108748282Y-93345218D01*
X108782886Y-93337751D01*
X108822087Y-93329385D01*
X108864810Y-93320343D01*
X108909979Y-93310849D01*
X108956520Y-93301125D01*
X109003358Y-93291397D01*
X109049418Y-93281887D01*
X109093624Y-93272819D01*
X109134903Y-93264416D01*
X109172179Y-93256902D01*
X109204377Y-93250501D01*
X109230422Y-93245435D01*
X109249239Y-93241929D01*
X109259753Y-93240207D01*
X109261622Y-93240110D01*
X109263465Y-93245527D01*
X109267568Y-93259873D01*
X109273671Y-93282170D01*
X109281515Y-93311441D01*
X109290838Y-93346710D01*
X109301382Y-93386998D01*
X109312885Y-93431328D01*
X109325090Y-93478725D01*
X109325200Y-93479155D01*
X109337357Y-93526484D01*
X109348745Y-93570690D01*
X109359113Y-93610807D01*
X109368209Y-93645868D01*
X109375782Y-93674907D01*
X109381581Y-93696959D01*
X109385355Y-93711057D01*
X109386851Y-93716236D01*
X109386856Y-93716241D01*
X109391922Y-93715431D01*
X109405982Y-93712680D01*
X109428035Y-93708197D01*
X109457083Y-93702189D01*
X109492124Y-93694865D01*
X109532161Y-93686432D01*
X109576192Y-93677097D01*
X109614665Y-93668897D01*
X109661427Y-93658983D01*
X109705189Y-93649851D01*
X109744924Y-93641704D01*
X109779605Y-93634747D01*
X109808205Y-93629184D01*
X109829697Y-93625218D01*
X109843054Y-93623052D01*
X109847200Y-93622756D01*
X109849027Y-93627978D01*
X109852444Y-93642152D01*
X109857241Y-93664166D01*
X109863209Y-93692911D01*
X109870139Y-93727275D01*
X109877820Y-93766149D01*
X109886045Y-93808422D01*
X109894602Y-93852983D01*
X109903282Y-93898723D01*
X109911877Y-93944530D01*
X109920177Y-93989294D01*
X109927972Y-94031904D01*
X109935053Y-94071251D01*
X109941210Y-94106224D01*
X109946234Y-94135711D01*
X109949915Y-94158604D01*
X109952044Y-94173791D01*
X109952412Y-94180161D01*
X109952356Y-94180260D01*
X109947132Y-94182127D01*
X109933076Y-94186565D01*
X109911167Y-94193281D01*
X109882385Y-94201980D01*
X109847707Y-94212367D01*
X109808115Y-94224149D01*
X109764585Y-94237029D01*
X109723294Y-94249188D01*
X109677119Y-94262778D01*
X109634034Y-94275503D01*
X109595014Y-94287071D01*
X109561033Y-94297192D01*
X109533067Y-94305576D01*
X109512091Y-94311930D01*
X109499077Y-94315963D01*
X109494981Y-94317367D01*
X109495646Y-94322534D01*
X109498169Y-94336709D01*
X109502352Y-94358886D01*
X109507999Y-94388059D01*
X109514916Y-94423223D01*
X109522905Y-94463372D01*
X109531770Y-94507501D01*
X109539457Y-94545460D01*
X109548886Y-94592071D01*
X109557594Y-94635515D01*
X109565384Y-94674787D01*
X109572062Y-94708880D01*
X109577431Y-94736791D01*
X109581296Y-94757514D01*
X109583461Y-94770043D01*
X109583835Y-94773496D01*
X109578809Y-94775088D01*
X109564978Y-94779165D01*
X109543370Y-94785434D01*
X109515018Y-94793601D01*
X109480951Y-94803375D01*
X109442200Y-94814461D01*
X109399795Y-94826567D01*
X109354768Y-94839401D01*
X109308148Y-94852669D01*
X109260966Y-94866078D01*
X109214253Y-94879336D01*
X109169040Y-94892150D01*
X109126356Y-94904226D01*
X109087232Y-94915273D01*
X109052699Y-94924996D01*
X109023788Y-94933104D01*
X109001529Y-94939303D01*
X108986952Y-94943301D01*
X108981089Y-94944804D01*
X108981038Y-94944808D01*
X108979568Y-94939963D01*
X108976227Y-94926060D01*
X108971223Y-94904050D01*
X108964764Y-94874883D01*
X108957059Y-94839509D01*
X108948316Y-94798878D01*
X108938742Y-94753941D01*
X108928547Y-94705648D01*
X108926539Y-94696087D01*
X108916265Y-94647216D01*
X108906610Y-94601479D01*
X108897781Y-94559831D01*
X108889980Y-94523229D01*
X108883413Y-94492628D01*
X108878285Y-94468985D01*
X108874799Y-94453256D01*
X108873160Y-94446395D01*
X108873075Y-94446174D01*
X108867998Y-94447060D01*
X108853988Y-94450075D01*
X108832057Y-94454987D01*
X108803219Y-94461564D01*
X108768485Y-94469574D01*
X108728867Y-94478785D01*
X108685379Y-94488966D01*
X108653384Y-94496496D01*
X108607724Y-94507177D01*
X108565156Y-94516963D01*
X108526702Y-94525632D01*
X108493386Y-94532962D01*
X108466232Y-94538728D01*
X108446264Y-94542709D01*
X108434504Y-94544681D01*
X108431712Y-94544755D01*
X108429948Y-94539279D01*
X108426191Y-94524917D01*
X108420679Y-94502705D01*
X108413652Y-94473677D01*
X108405347Y-94438869D01*
X108396003Y-94399316D01*
X108385859Y-94356053D01*
X108375154Y-94310115D01*
X108364127Y-94262538D01*
X108353015Y-94214357D01*
X108342058Y-94166606D01*
X108331493Y-94120322D01*
X108321561Y-94076539D01*
X108312499Y-94036293D01*
X108304546Y-94000619D01*
X108300334Y-93981448D01*
X108368728Y-93981448D01*
X108369909Y-93988365D01*
X108373193Y-94004214D01*
X108378349Y-94027975D01*
X108385151Y-94058628D01*
X108393370Y-94095153D01*
X108402779Y-94136529D01*
X108413148Y-94181738D01*
X108424148Y-94229315D01*
X108436978Y-94284457D01*
X108447771Y-94330441D01*
X108456748Y-94368077D01*
X108464131Y-94398176D01*
X108470143Y-94421549D01*
X108475005Y-94439006D01*
X108478940Y-94451358D01*
X108482169Y-94459415D01*
X108484915Y-94463988D01*
X108487400Y-94465886D01*
X108489012Y-94466067D01*
X108495931Y-94464731D01*
X108511709Y-94461280D01*
X108535258Y-94455965D01*
X108565494Y-94449034D01*
X108601330Y-94440738D01*
X108641679Y-94431326D01*
X108685457Y-94421049D01*
X108709521Y-94415373D01*
X108754339Y-94404864D01*
X108796034Y-94395240D01*
X108833568Y-94386730D01*
X108865899Y-94379563D01*
X108891989Y-94373967D01*
X108910797Y-94370171D01*
X108921285Y-94368403D01*
X108923133Y-94368382D01*
X108924593Y-94373648D01*
X108927891Y-94387744D01*
X108932775Y-94409496D01*
X108938995Y-94437727D01*
X108946303Y-94471263D01*
X108954446Y-94508929D01*
X108963175Y-94549548D01*
X108972241Y-94591946D01*
X108981392Y-94634948D01*
X108990378Y-94677377D01*
X108998950Y-94718059D01*
X109006857Y-94755818D01*
X109013849Y-94789479D01*
X109019676Y-94817867D01*
X109024088Y-94839806D01*
X109026834Y-94854122D01*
X109027674Y-94859519D01*
X109031644Y-94861823D01*
X109036618Y-94861051D01*
X109043239Y-94859141D01*
X109058674Y-94854727D01*
X109081902Y-94848099D01*
X109111906Y-94839547D01*
X109147665Y-94829363D01*
X109188160Y-94817835D01*
X109232374Y-94805255D01*
X109272986Y-94793704D01*
X109319387Y-94780460D01*
X109362765Y-94767984D01*
X109402131Y-94756567D01*
X109436495Y-94746502D01*
X109464867Y-94738078D01*
X109486258Y-94731588D01*
X109499678Y-94727324D01*
X109504113Y-94725638D01*
X109503895Y-94720083D01*
X109501792Y-94705539D01*
X109497992Y-94683026D01*
X109492682Y-94653564D01*
X109486049Y-94618175D01*
X109478280Y-94577877D01*
X109469562Y-94533691D01*
X109462302Y-94497574D01*
X109452946Y-94451139D01*
X109444324Y-94407859D01*
X109436631Y-94368745D01*
X109430060Y-94334809D01*
X109424807Y-94307065D01*
X109421066Y-94286524D01*
X109419031Y-94274198D01*
X109418751Y-94270941D01*
X109423906Y-94269143D01*
X109437887Y-94264771D01*
X109459711Y-94258121D01*
X109488393Y-94249489D01*
X109522949Y-94239168D01*
X109562396Y-94227454D01*
X109605749Y-94214643D01*
X109644345Y-94203284D01*
X109690371Y-94189753D01*
X109733450Y-94177067D01*
X109772578Y-94165523D01*
X109806749Y-94155419D01*
X109834957Y-94147054D01*
X109856196Y-94140724D01*
X109869461Y-94136728D01*
X109873688Y-94135399D01*
X109874442Y-94130363D01*
X109873270Y-94116441D01*
X109870139Y-94093441D01*
X109865021Y-94061172D01*
X109857885Y-94019444D01*
X109848701Y-93968064D01*
X109839358Y-93917177D01*
X109830878Y-93871592D01*
X109822932Y-93829203D01*
X109815718Y-93791048D01*
X109809437Y-93758162D01*
X109804286Y-93731584D01*
X109800465Y-93712350D01*
X109798173Y-93701499D01*
X109797610Y-93699439D01*
X109792421Y-93700120D01*
X109778241Y-93702746D01*
X109756075Y-93707114D01*
X109726923Y-93713019D01*
X109691788Y-93720255D01*
X109651674Y-93728619D01*
X109607583Y-93737905D01*
X109568980Y-93746103D01*
X109522305Y-93755961D01*
X109478720Y-93764987D01*
X109439238Y-93772986D01*
X109404869Y-93779760D01*
X109376626Y-93785114D01*
X109355519Y-93788851D01*
X109342561Y-93790773D01*
X109338724Y-93790859D01*
X109336827Y-93785321D01*
X109332685Y-93770857D01*
X109326559Y-93748448D01*
X109318711Y-93719079D01*
X109309400Y-93683731D01*
X109298887Y-93643388D01*
X109287434Y-93599033D01*
X109275428Y-93552152D01*
X109263358Y-93504897D01*
X109252054Y-93460759D01*
X109241765Y-93420707D01*
X109232742Y-93385712D01*
X109225236Y-93356743D01*
X109219497Y-93334771D01*
X109215777Y-93320765D01*
X109214325Y-93315696D01*
X109209267Y-93316410D01*
X109195438Y-93319018D01*
X109174057Y-93323260D01*
X109146347Y-93328882D01*
X109113527Y-93335625D01*
X109076818Y-93343232D01*
X109037442Y-93351448D01*
X108996619Y-93360014D01*
X108955569Y-93368673D01*
X108915515Y-93377170D01*
X108877677Y-93385247D01*
X108843275Y-93392646D01*
X108813530Y-93399112D01*
X108789664Y-93404386D01*
X108772897Y-93408213D01*
X108764450Y-93410335D01*
X108764051Y-93410464D01*
X108761551Y-93411585D01*
X108759711Y-93413606D01*
X108758668Y-93417412D01*
X108758560Y-93423891D01*
X108759524Y-93433931D01*
X108761697Y-93448416D01*
X108765217Y-93468236D01*
X108770222Y-93494277D01*
X108776848Y-93527425D01*
X108785233Y-93568568D01*
X108795515Y-93618593D01*
X108798648Y-93633809D01*
X108808059Y-93679834D01*
X108816715Y-93722821D01*
X108824415Y-93761726D01*
X108830960Y-93795505D01*
X108836149Y-93823118D01*
X108839781Y-93843519D01*
X108841657Y-93855666D01*
X108841827Y-93858678D01*
X108836577Y-93860831D01*
X108822333Y-93864968D01*
X108800079Y-93870845D01*
X108770798Y-93878218D01*
X108735474Y-93886843D01*
X108695087Y-93896479D01*
X108650623Y-93906880D01*
X108604113Y-93917565D01*
X108549310Y-93930073D01*
X108503659Y-93940580D01*
X108466337Y-93949308D01*
X108436520Y-93956482D01*
X108413384Y-93962324D01*
X108396107Y-93967058D01*
X108383863Y-93970907D01*
X108375830Y-93974096D01*
X108371184Y-93976848D01*
X108369101Y-93979385D01*
X108368728Y-93981448D01*
X108300334Y-93981448D01*
X108297940Y-93970551D01*
X108292921Y-93947126D01*
G37*
G36*
X107797316Y-94074468D02*
G01*
X107768205Y-93946188D01*
X107740001Y-93821758D01*
X107712780Y-93701512D01*
X107686616Y-93585786D01*
X107661585Y-93474915D01*
X107637760Y-93369234D01*
X107615219Y-93269078D01*
X107594034Y-93174781D01*
X107574282Y-93086680D01*
X107556037Y-93005109D01*
X107539375Y-92930403D01*
X107524370Y-92862897D01*
X107511097Y-92802927D01*
X107499632Y-92750827D01*
X107490049Y-92706932D01*
X107482424Y-92671578D01*
X107481663Y-92667975D01*
X107546866Y-92667975D01*
X107547882Y-92672966D01*
X107551082Y-92687540D01*
X107556377Y-92711317D01*
X107563682Y-92743913D01*
X107572910Y-92784947D01*
X107583975Y-92834037D01*
X107596789Y-92890800D01*
X107611266Y-92954855D01*
X107627321Y-93025819D01*
X107644865Y-93103310D01*
X107663813Y-93186946D01*
X107684078Y-93276346D01*
X107705574Y-93371126D01*
X107728214Y-93470905D01*
X107751911Y-93575300D01*
X107776579Y-93683930D01*
X107802131Y-93796412D01*
X107828481Y-93912365D01*
X107855543Y-94031405D01*
X107883229Y-94153152D01*
X107891639Y-94190127D01*
X107919499Y-94312602D01*
X107946770Y-94432479D01*
X107973364Y-94549376D01*
X107999195Y-94662913D01*
X108024176Y-94772706D01*
X108048219Y-94878375D01*
X108071239Y-94979537D01*
X108093148Y-95075811D01*
X108113859Y-95166815D01*
X108133286Y-95252166D01*
X108151341Y-95331484D01*
X108167937Y-95404386D01*
X108182988Y-95470491D01*
X108196407Y-95529416D01*
X108208106Y-95580780D01*
X108218000Y-95624202D01*
X108226000Y-95659299D01*
X108232020Y-95685689D01*
X108235974Y-95702991D01*
X108237773Y-95710822D01*
X108237880Y-95711268D01*
X108242831Y-95710131D01*
X108257498Y-95706773D01*
X108281630Y-95701251D01*
X108314979Y-95693622D01*
X108357296Y-95683943D01*
X108408331Y-95672271D01*
X108467837Y-95658663D01*
X108535562Y-95643175D01*
X108611260Y-95625865D01*
X108694679Y-95606790D01*
X108785571Y-95586007D01*
X108883688Y-95563572D01*
X108988779Y-95539543D01*
X109100596Y-95513976D01*
X109218890Y-95486928D01*
X109343412Y-95458457D01*
X109473912Y-95428620D01*
X109610141Y-95397473D01*
X109751850Y-95365073D01*
X109898791Y-95331477D01*
X110050714Y-95296743D01*
X110207369Y-95260927D01*
X110368509Y-95224086D01*
X110533882Y-95186277D01*
X110703242Y-95147557D01*
X110876338Y-95107983D01*
X111052921Y-95067612D01*
X111232743Y-95026501D01*
X111415553Y-94984707D01*
X111601104Y-94942287D01*
X111789146Y-94899297D01*
X111810431Y-94894431D01*
X112041251Y-94841659D01*
X112262304Y-94791114D01*
X112473787Y-94742749D01*
X112675898Y-94696520D01*
X112868836Y-94652381D01*
X113052797Y-94610286D01*
X113227980Y-94570188D01*
X113394583Y-94532044D01*
X113552804Y-94495806D01*
X113702841Y-94461429D01*
X113844891Y-94428867D01*
X113979152Y-94398075D01*
X114105823Y-94369008D01*
X114225101Y-94341618D01*
X114337184Y-94315861D01*
X114442270Y-94291691D01*
X114540557Y-94269062D01*
X114632243Y-94247928D01*
X114717526Y-94228244D01*
X114796603Y-94209964D01*
X114869673Y-94193042D01*
X114936933Y-94177433D01*
X114998582Y-94163091D01*
X115054817Y-94149970D01*
X115105836Y-94138024D01*
X115151838Y-94127208D01*
X115193019Y-94117476D01*
X115229578Y-94108782D01*
X115261713Y-94101081D01*
X115289621Y-94094327D01*
X115313502Y-94088474D01*
X115333551Y-94083476D01*
X115349968Y-94079289D01*
X115362951Y-94075865D01*
X115372696Y-94073160D01*
X115379403Y-94071127D01*
X115383269Y-94069721D01*
X115384489Y-94068930D01*
X115383455Y-94063303D01*
X115380135Y-94048121D01*
X115374620Y-94023772D01*
X115367002Y-93990642D01*
X115357371Y-93949117D01*
X115345819Y-93899586D01*
X115332438Y-93842433D01*
X115317318Y-93778047D01*
X115300551Y-93706813D01*
X115282228Y-93629119D01*
X115262441Y-93545350D01*
X115241280Y-93455895D01*
X115218838Y-93361139D01*
X115195204Y-93261470D01*
X115170472Y-93157273D01*
X115144731Y-93048936D01*
X115118073Y-92936845D01*
X115090590Y-92821388D01*
X115062372Y-92702950D01*
X115033512Y-92581919D01*
X115029483Y-92565034D01*
X114677712Y-91090641D01*
X114747784Y-91090641D01*
X114748834Y-91095847D01*
X114752153Y-91110523D01*
X114757630Y-91134199D01*
X114765151Y-91166406D01*
X114774606Y-91206673D01*
X114785881Y-91254530D01*
X114798865Y-91309508D01*
X114813445Y-91371137D01*
X114829510Y-91438947D01*
X114846947Y-91512468D01*
X114865644Y-91591229D01*
X114885489Y-91674762D01*
X114906370Y-91762596D01*
X114928174Y-91854262D01*
X114950790Y-91949289D01*
X114974106Y-92047207D01*
X114998009Y-92147547D01*
X115022386Y-92249839D01*
X115047127Y-92353613D01*
X115072119Y-92458399D01*
X115097249Y-92563727D01*
X115122406Y-92669127D01*
X115147477Y-92774129D01*
X115172351Y-92878263D01*
X115196914Y-92981061D01*
X115221056Y-93082050D01*
X115244664Y-93180763D01*
X115267625Y-93276728D01*
X115289827Y-93369476D01*
X115311160Y-93458537D01*
X115331509Y-93543441D01*
X115350764Y-93623718D01*
X115368811Y-93698899D01*
X115385540Y-93768513D01*
X115400837Y-93832091D01*
X115414590Y-93889162D01*
X115426689Y-93939257D01*
X115437019Y-93981905D01*
X115445470Y-94016638D01*
X115451928Y-94042984D01*
X115456283Y-94060475D01*
X115458421Y-94068640D01*
X115458617Y-94069205D01*
X115463893Y-94071293D01*
X115477657Y-94076060D01*
X115498654Y-94083102D01*
X115525626Y-94092015D01*
X115557318Y-94102393D01*
X115592473Y-94113833D01*
X115629834Y-94125929D01*
X115668145Y-94138277D01*
X115706150Y-94150473D01*
X115742593Y-94162111D01*
X115776216Y-94172788D01*
X115805765Y-94182098D01*
X115829981Y-94189637D01*
X115847609Y-94195000D01*
X115857393Y-94197783D01*
X115858801Y-94198081D01*
X115861083Y-94194495D01*
X115860294Y-94182575D01*
X115856379Y-94161695D01*
X115855239Y-94156488D01*
X115853345Y-94148011D01*
X115849311Y-94129971D01*
X115843229Y-94102779D01*
X115835190Y-94066846D01*
X115825287Y-94022583D01*
X115813613Y-93970402D01*
X115800258Y-93910715D01*
X115785315Y-93843931D01*
X115768875Y-93770463D01*
X115751032Y-93690721D01*
X115731877Y-93605118D01*
X115711501Y-93514064D01*
X115689998Y-93417971D01*
X115667459Y-93317249D01*
X115643976Y-93212310D01*
X115619641Y-93103566D01*
X115594546Y-92991428D01*
X115568783Y-92876306D01*
X115542444Y-92758612D01*
X115527686Y-92692666D01*
X115209530Y-91271007D01*
X114979296Y-91179181D01*
X114933531Y-91161004D01*
X114890740Y-91144155D01*
X114851841Y-91128984D01*
X114817753Y-91115844D01*
X114789392Y-91105083D01*
X114767675Y-91097055D01*
X114753522Y-91092109D01*
X114747848Y-91090596D01*
X114747784Y-91090641D01*
X114677712Y-91090641D01*
X114672773Y-91069942D01*
X114654748Y-91072867D01*
X114648998Y-91074107D01*
X114633602Y-91077513D01*
X114608865Y-91083017D01*
X114575091Y-91090551D01*
X114532586Y-91100045D01*
X114481655Y-91111432D01*
X114422604Y-91124643D01*
X114355738Y-91139609D01*
X114281361Y-91156263D01*
X114199780Y-91174534D01*
X114111298Y-91194356D01*
X114016223Y-91215659D01*
X113914857Y-91238375D01*
X113807508Y-91262436D01*
X113694480Y-91287773D01*
X113576077Y-91314317D01*
X113452607Y-91342000D01*
X113324373Y-91370754D01*
X113191681Y-91400510D01*
X113054835Y-91431199D01*
X112914143Y-91462753D01*
X112769907Y-91495104D01*
X112622434Y-91528183D01*
X112472029Y-91561922D01*
X112318997Y-91596252D01*
X112163644Y-91631104D01*
X112006273Y-91666410D01*
X111847192Y-91702103D01*
X111686704Y-91738112D01*
X111525115Y-91774370D01*
X111362731Y-91810808D01*
X111199856Y-91847357D01*
X111036795Y-91883950D01*
X110873855Y-91920518D01*
X110711339Y-91956991D01*
X110549554Y-91993303D01*
X110388804Y-92029383D01*
X110229395Y-92065165D01*
X110071631Y-92100578D01*
X109915819Y-92135555D01*
X109762263Y-92170028D01*
X109611268Y-92203927D01*
X109463140Y-92237185D01*
X109318184Y-92269732D01*
X109176704Y-92301500D01*
X109039007Y-92332422D01*
X108905398Y-92362427D01*
X108776181Y-92391449D01*
X108651662Y-92419417D01*
X108532146Y-92446265D01*
X108417938Y-92471923D01*
X108309344Y-92496322D01*
X108206668Y-92519395D01*
X108110216Y-92541073D01*
X108020293Y-92561288D01*
X107937204Y-92579970D01*
X107861255Y-92597051D01*
X107792751Y-92612464D01*
X107731996Y-92626139D01*
X107679296Y-92638007D01*
X107634957Y-92648001D01*
X107599283Y-92656052D01*
X107572579Y-92662092D01*
X107555152Y-92666051D01*
X107547305Y-92667862D01*
X107546866Y-92667975D01*
X107481663Y-92667975D01*
X107476832Y-92645099D01*
X107473346Y-92627831D01*
X107472044Y-92620109D01*
X107472068Y-92619709D01*
X107477453Y-92618167D01*
X107492309Y-92614511D01*
X107516133Y-92608854D01*
X107548420Y-92601311D01*
X107588668Y-92591998D01*
X107636372Y-92581030D01*
X107691028Y-92568520D01*
X107752133Y-92554584D01*
X107819182Y-92539337D01*
X107891673Y-92522893D01*
X107969101Y-92505367D01*
X108050963Y-92486874D01*
X108136754Y-92467529D01*
X108225972Y-92447447D01*
X108318111Y-92426743D01*
X108364762Y-92416273D01*
X108458123Y-92395319D01*
X108548790Y-92374950D01*
X108636261Y-92355281D01*
X108720033Y-92336424D01*
X108799605Y-92318494D01*
X108874475Y-92301603D01*
X108944140Y-92285866D01*
X109008099Y-92271397D01*
X109065850Y-92258308D01*
X109116890Y-92246714D01*
X109160717Y-92236727D01*
X109196830Y-92228463D01*
X109224726Y-92222034D01*
X109243904Y-92217554D01*
X109253861Y-92215136D01*
X109255225Y-92214736D01*
X109256922Y-92209094D01*
X109259863Y-92195408D01*
X109260826Y-92190383D01*
X109329755Y-92190383D01*
X109330876Y-92196697D01*
X109333787Y-92198934D01*
X109338147Y-92198354D01*
X109343920Y-92196992D01*
X109359209Y-92193497D01*
X109383556Y-92187973D01*
X109416503Y-92180523D01*
X109457592Y-92171249D01*
X109506366Y-92160256D01*
X109562365Y-92147645D01*
X109625133Y-92133520D01*
X109694210Y-92117983D01*
X109769140Y-92101138D01*
X109849465Y-92083088D01*
X109934725Y-92063936D01*
X110024464Y-92043785D01*
X110118223Y-92022737D01*
X110215545Y-92000896D01*
X110315971Y-91978364D01*
X110419044Y-91955246D01*
X110430551Y-91952665D01*
X110533899Y-91929480D01*
X110634655Y-91906860D01*
X110732362Y-91884909D01*
X110826560Y-91863729D01*
X110916792Y-91843424D01*
X111002599Y-91824098D01*
X111083523Y-91805855D01*
X111159106Y-91788798D01*
X111228889Y-91773031D01*
X111292414Y-91758656D01*
X111349223Y-91745779D01*
X111398857Y-91734502D01*
X111440858Y-91724929D01*
X111474768Y-91717163D01*
X111500129Y-91711308D01*
X111516481Y-91707468D01*
X111523367Y-91705746D01*
X111523526Y-91705691D01*
X111525668Y-91703304D01*
X111523824Y-91698864D01*
X111517162Y-91691581D01*
X111504852Y-91680665D01*
X111486063Y-91665326D01*
X111459965Y-91644774D01*
X111457088Y-91642532D01*
X111327748Y-91545213D01*
X111201885Y-91457456D01*
X111079441Y-91379229D01*
X110960357Y-91310505D01*
X110844575Y-91251254D01*
X110732036Y-91201445D01*
X110622681Y-91161050D01*
X110516452Y-91130040D01*
X110413290Y-91108384D01*
X110384555Y-91103937D01*
X110338573Y-91099178D01*
X110287124Y-91096851D01*
X110233746Y-91096922D01*
X110181976Y-91099359D01*
X110135350Y-91104127D01*
X110120432Y-91106421D01*
X110036610Y-91125832D01*
X109956499Y-91154760D01*
X109880148Y-91193178D01*
X109807605Y-91241058D01*
X109738920Y-91298376D01*
X109704575Y-91332076D01*
X109658239Y-91382754D01*
X109616989Y-91434067D01*
X109579288Y-91488262D01*
X109543600Y-91547585D01*
X109508388Y-91614280D01*
X109500369Y-91630543D01*
X109459954Y-91718864D01*
X109425076Y-91807210D01*
X109394920Y-91898046D01*
X109368668Y-91993839D01*
X109345506Y-92097054D01*
X109344763Y-92100724D01*
X109337927Y-92135162D01*
X109333200Y-92160797D01*
X109330503Y-92178810D01*
X109329755Y-92190383D01*
X109260826Y-92190383D01*
X109263638Y-92175720D01*
X109267834Y-92152072D01*
X109267916Y-92151595D01*
X109293985Y-92020534D01*
X109326308Y-91896518D01*
X109365309Y-91778194D01*
X109411412Y-91664211D01*
X109441417Y-91599879D01*
X109493862Y-91501873D01*
X109550710Y-91413066D01*
X109611885Y-91333472D01*
X109677310Y-91263104D01*
X109746907Y-91201973D01*
X109820599Y-91150092D01*
X109898309Y-91107476D01*
X109979960Y-91074135D01*
X110065476Y-91050083D01*
X110154778Y-91035333D01*
X110247789Y-91029898D01*
X110344433Y-91033789D01*
X110444633Y-91047021D01*
X110548311Y-91069606D01*
X110655390Y-91101556D01*
X110765794Y-91142884D01*
X110879444Y-91193603D01*
X110996264Y-91253727D01*
X111115380Y-91322780D01*
X111223612Y-91391786D01*
X111335550Y-91468711D01*
X111449836Y-91552593D01*
X111548793Y-91629427D01*
X111619348Y-91685595D01*
X112330724Y-91526266D01*
X112414322Y-91507529D01*
X112495275Y-91489357D01*
X112573012Y-91471880D01*
X112646963Y-91455227D01*
X112716558Y-91439529D01*
X112781227Y-91424913D01*
X112840398Y-91411510D01*
X112893502Y-91399448D01*
X112939969Y-91388857D01*
X112979228Y-91379867D01*
X113010709Y-91372606D01*
X113033841Y-91367205D01*
X113048054Y-91363791D01*
X113052701Y-91362548D01*
X113060018Y-91356107D01*
X113067098Y-91342215D01*
X113074333Y-91320589D01*
X113098964Y-91222008D01*
X113117222Y-91116127D01*
X113129058Y-91003674D01*
X113134419Y-90885382D01*
X113133256Y-90761980D01*
X113125518Y-90634198D01*
X113123440Y-90610965D01*
X113103829Y-90451002D01*
X113074735Y-90287694D01*
X113036254Y-90121265D01*
X112988480Y-89951943D01*
X112931507Y-89779952D01*
X112865430Y-89605519D01*
X112790344Y-89428869D01*
X112706343Y-89250228D01*
X112613522Y-89069822D01*
X112511976Y-88887878D01*
X112401798Y-88704620D01*
X112283085Y-88520274D01*
X112190789Y-88384716D01*
X112174238Y-88360704D01*
X112159949Y-88339503D01*
X112148873Y-88322561D01*
X112141961Y-88311330D01*
X112140069Y-88307400D01*
X112143909Y-88302412D01*
X112153482Y-88294140D01*
X112165870Y-88284742D01*
X112178153Y-88276374D01*
X112187412Y-88271194D01*
X112190047Y-88270475D01*
X112191605Y-88271017D01*
X112193932Y-88273032D01*
X112197589Y-88277316D01*
X112203137Y-88284665D01*
X112211135Y-88295874D01*
X112222145Y-88311741D01*
X112236727Y-88333062D01*
X112255441Y-88360632D01*
X112278849Y-88395247D01*
X112301440Y-88428712D01*
X112429145Y-88623946D01*
X112547007Y-88816610D01*
X112655058Y-89006776D01*
X112753329Y-89194513D01*
X112841852Y-89379894D01*
X112920658Y-89562989D01*
X112989779Y-89743870D01*
X113049246Y-89922609D01*
X113099090Y-90099276D01*
X113139344Y-90273944D01*
X113157224Y-90368140D01*
X113177774Y-90504368D01*
X113191615Y-90639645D01*
X113198720Y-90772714D01*
X113199061Y-90902319D01*
X113192613Y-91027202D01*
X113179349Y-91146109D01*
X113174395Y-91178249D01*
X113170256Y-91201543D01*
X113164957Y-91228562D01*
X113159015Y-91256967D01*
X113152944Y-91284420D01*
X113147260Y-91308584D01*
X113142478Y-91327121D01*
X113139396Y-91336996D01*
X113141109Y-91337750D01*
X113147534Y-91337331D01*
X113159075Y-91335653D01*
X113176134Y-91332632D01*
X113199113Y-91328181D01*
X113228414Y-91322216D01*
X113264440Y-91314650D01*
X113307593Y-91305399D01*
X113358276Y-91294376D01*
X113416889Y-91281497D01*
X113483837Y-91266675D01*
X113559521Y-91249826D01*
X113644343Y-91230863D01*
X113738706Y-91209702D01*
X113743361Y-91208657D01*
X113824364Y-91190469D01*
X113905230Y-91172315D01*
X113985098Y-91154389D01*
X114063105Y-91136884D01*
X114138387Y-91119994D01*
X114210081Y-91103912D01*
X114277326Y-91088832D01*
X114339257Y-91074947D01*
X114395011Y-91062451D01*
X114443727Y-91051537D01*
X114484540Y-91042400D01*
X114516588Y-91035231D01*
X114526749Y-91032961D01*
X114568017Y-91023731D01*
X114606336Y-91015133D01*
X114640507Y-91007438D01*
X114669334Y-91000917D01*
X114691619Y-90995840D01*
X114706167Y-90992477D01*
X114711598Y-90991158D01*
X114720170Y-90993064D01*
X114723078Y-90997884D01*
X114726933Y-91001280D01*
X114737284Y-91006977D01*
X114754537Y-91015150D01*
X114779095Y-91025969D01*
X114811365Y-91039607D01*
X114851750Y-91056236D01*
X114900656Y-91076030D01*
X114958487Y-91099159D01*
X114996089Y-91114095D01*
X115266150Y-91221149D01*
X115607400Y-92745959D01*
X115634848Y-92868648D01*
X115661701Y-92988753D01*
X115687872Y-93105890D01*
X115713278Y-93219678D01*
X115737833Y-93329733D01*
X115761451Y-93435673D01*
X115784050Y-93537116D01*
X115805542Y-93633678D01*
X115825844Y-93724978D01*
X115844871Y-93810632D01*
X115862537Y-93890258D01*
X115878758Y-93963474D01*
X115893449Y-94029897D01*
X115906525Y-94089144D01*
X115917900Y-94140833D01*
X115927491Y-94184581D01*
X115935212Y-94220005D01*
X115940978Y-94246724D01*
X115944704Y-94264354D01*
X115946306Y-94272513D01*
X115946357Y-94273060D01*
X115941290Y-94274306D01*
X115926513Y-94277753D01*
X115902282Y-94283342D01*
X115868856Y-94291015D01*
X115826493Y-94300713D01*
X115775450Y-94312378D01*
X115715985Y-94325951D01*
X115648356Y-94341374D01*
X115572821Y-94358588D01*
X115489636Y-94377534D01*
X115399061Y-94398153D01*
X115301352Y-94420388D01*
X115196767Y-94444179D01*
X115085565Y-94469469D01*
X114968003Y-94496198D01*
X114844338Y-94524307D01*
X114714829Y-94553739D01*
X114579733Y-94584434D01*
X114439308Y-94616334D01*
X114293811Y-94649381D01*
X114143501Y-94683515D01*
X113988635Y-94718679D01*
X113829470Y-94754814D01*
X113666265Y-94791860D01*
X113499278Y-94829760D01*
X113328766Y-94868455D01*
X113154986Y-94907886D01*
X112978197Y-94947995D01*
X112798656Y-94988723D01*
X112616621Y-95030011D01*
X112597027Y-95034455D01*
X112413318Y-95076120D01*
X112231556Y-95117343D01*
X112052017Y-95158063D01*
X111874980Y-95198215D01*
X111700720Y-95237737D01*
X111529516Y-95276566D01*
X111361646Y-95314639D01*
X111197386Y-95351894D01*
X111037013Y-95388267D01*
X110880807Y-95423695D01*
X110729042Y-95458115D01*
X110581998Y-95491466D01*
X110439952Y-95523682D01*
X110303180Y-95554703D01*
X110171961Y-95584464D01*
X110046571Y-95612903D01*
X109927289Y-95639958D01*
X109814391Y-95665564D01*
X109708155Y-95689659D01*
X109608859Y-95712181D01*
X109516779Y-95733065D01*
X109432194Y-95752251D01*
X109355380Y-95769673D01*
X109286615Y-95785271D01*
X109226176Y-95798979D01*
X109174341Y-95810737D01*
X109131387Y-95820480D01*
X109097592Y-95828146D01*
X109073233Y-95833673D01*
X109059411Y-95836809D01*
X109016637Y-95846467D01*
X108976893Y-95855347D01*
X108941304Y-95863204D01*
X108910995Y-95869793D01*
X108887093Y-95874872D01*
X108870722Y-95878194D01*
X108863007Y-95879516D01*
X108862651Y-95879526D01*
X108855027Y-95878502D01*
X108840076Y-95876239D01*
X108820554Y-95873156D01*
X108813026Y-95871941D01*
X108772265Y-95865432D01*
X108727109Y-95858408D01*
X108678575Y-95851014D01*
X108627683Y-95843392D01*
X108575451Y-95835686D01*
X108522897Y-95828041D01*
X108471040Y-95820600D01*
X108420898Y-95813507D01*
X108373489Y-95806906D01*
X108329833Y-95800940D01*
X108290947Y-95795754D01*
X108257850Y-95791491D01*
X108231560Y-95788295D01*
X108213096Y-95786310D01*
X108203477Y-95785680D01*
X108202600Y-95785746D01*
X108186970Y-95788630D01*
X108176431Y-95742268D01*
X108409284Y-95742268D01*
X108414156Y-95743633D01*
X108428025Y-95746276D01*
X108449773Y-95750014D01*
X108478280Y-95754665D01*
X108512428Y-95760046D01*
X108551097Y-95765976D01*
X108593169Y-95772270D01*
X108594545Y-95772474D01*
X108638723Y-95779025D01*
X108681289Y-95785382D01*
X108720796Y-95791327D01*
X108755794Y-95796639D01*
X108784835Y-95801098D01*
X108806472Y-95804485D01*
X108818137Y-95806388D01*
X108838665Y-95809355D01*
X108856833Y-95811040D01*
X108868966Y-95811111D01*
X108869619Y-95811030D01*
X108875272Y-95809806D01*
X108890637Y-95806379D01*
X108915460Y-95800808D01*
X108949486Y-95793148D01*
X108992458Y-95783460D01*
X109044122Y-95771799D01*
X109104222Y-95758225D01*
X109172503Y-95742794D01*
X109248710Y-95725565D01*
X109332587Y-95706596D01*
X109423879Y-95685944D01*
X109522330Y-95663667D01*
X109627686Y-95639822D01*
X109739691Y-95614469D01*
X109858089Y-95587664D01*
X109982626Y-95559466D01*
X110113046Y-95529931D01*
X110249094Y-95499119D01*
X110390514Y-95467086D01*
X110537051Y-95433891D01*
X110688450Y-95399592D01*
X110844455Y-95364245D01*
X111004812Y-95327910D01*
X111169264Y-95290643D01*
X111337556Y-95252503D01*
X111509434Y-95213548D01*
X111684642Y-95173835D01*
X111862924Y-95133421D01*
X112044026Y-95092366D01*
X112227691Y-95050726D01*
X112321872Y-95029373D01*
X112506715Y-94987461D01*
X112689111Y-94946098D01*
X112868808Y-94905343D01*
X113045549Y-94865253D01*
X113219080Y-94825887D01*
X113389146Y-94787302D01*
X113555491Y-94749556D01*
X113717862Y-94712707D01*
X113876003Y-94676814D01*
X114029659Y-94641933D01*
X114178575Y-94608123D01*
X114322497Y-94575442D01*
X114461169Y-94543948D01*
X114594336Y-94513699D01*
X114721744Y-94484752D01*
X114843138Y-94457166D01*
X114958262Y-94430998D01*
X115066862Y-94406306D01*
X115168683Y-94383149D01*
X115263470Y-94361584D01*
X115350968Y-94341670D01*
X115430922Y-94323463D01*
X115503077Y-94307023D01*
X115567179Y-94292406D01*
X115622972Y-94279671D01*
X115670201Y-94268876D01*
X115708612Y-94260079D01*
X115737949Y-94253338D01*
X115757958Y-94248710D01*
X115768384Y-94246254D01*
X115769929Y-94245855D01*
X115768048Y-94243268D01*
X115756487Y-94237976D01*
X115735216Y-94229967D01*
X115704203Y-94219231D01*
X115663415Y-94205755D01*
X115612821Y-94189529D01*
X115607245Y-94187763D01*
X115435605Y-94133433D01*
X111922444Y-94936433D01*
X111735712Y-94979118D01*
X111551445Y-95021248D01*
X111369895Y-95062764D01*
X111191313Y-95103609D01*
X111015950Y-95143726D01*
X110844057Y-95183056D01*
X110675887Y-95221543D01*
X110511688Y-95259128D01*
X110351714Y-95295754D01*
X110196215Y-95331364D01*
X110045443Y-95365899D01*
X109899648Y-95399302D01*
X109759082Y-95431516D01*
X109623996Y-95462482D01*
X109494641Y-95492144D01*
X109371269Y-95520444D01*
X109254130Y-95547323D01*
X109143476Y-95572725D01*
X109039558Y-95596591D01*
X108942628Y-95618865D01*
X108852935Y-95639488D01*
X108770733Y-95658403D01*
X108696271Y-95675552D01*
X108629801Y-95690878D01*
X108571575Y-95704323D01*
X108521843Y-95715830D01*
X108480857Y-95725340D01*
X108448867Y-95732796D01*
X108426126Y-95738141D01*
X108412883Y-95741317D01*
X108409284Y-95742268D01*
X108176431Y-95742268D01*
X107827259Y-94206263D01*
X107797316Y-94074468D01*
G37*
G36*
X113554040Y-93280167D02*
G01*
X113572398Y-93230708D01*
X113598612Y-93184239D01*
X113632551Y-93141758D01*
X113674082Y-93104267D01*
X113723074Y-93072764D01*
X113729954Y-93069175D01*
X113785318Y-93046618D01*
X113843084Y-93033552D01*
X113901966Y-93029937D01*
X113960677Y-93035731D01*
X114017932Y-93050894D01*
X114072442Y-93075385D01*
X114081104Y-93080332D01*
X114109199Y-93100080D01*
X114138689Y-93126186D01*
X114166711Y-93155713D01*
X114190399Y-93185726D01*
X114202458Y-93204712D01*
X114225350Y-93255526D01*
X114239992Y-93310239D01*
X114246064Y-93366611D01*
X114243246Y-93422403D01*
X114237818Y-93451911D01*
X114222431Y-93497480D01*
X114198616Y-93542635D01*
X114168008Y-93585324D01*
X114132239Y-93623495D01*
X114092944Y-93655094D01*
X114061382Y-93673621D01*
X114005022Y-93695865D01*
X113945591Y-93709153D01*
X113884998Y-93713243D01*
X113825152Y-93707895D01*
X113811256Y-93705211D01*
X113779714Y-93695795D01*
X113744505Y-93680977D01*
X113709192Y-93662579D01*
X113677337Y-93642423D01*
X113656566Y-93626103D01*
X113616244Y-93583712D01*
X113584699Y-93537312D01*
X113561801Y-93487902D01*
X113547418Y-93436483D01*
X113541418Y-93384055D01*
X113542200Y-93365836D01*
X113606848Y-93365836D01*
X113610841Y-93416423D01*
X113624847Y-93467344D01*
X113635963Y-93493380D01*
X113648873Y-93514325D01*
X113668123Y-93538263D01*
X113691353Y-93562817D01*
X113716205Y-93585612D01*
X113740321Y-93604270D01*
X113755038Y-93613352D01*
X113776854Y-93623605D01*
X113801380Y-93633154D01*
X113813811Y-93637160D01*
X113843359Y-93642980D01*
X113878511Y-93645842D01*
X113915074Y-93645699D01*
X113948855Y-93642502D01*
X113966864Y-93638888D01*
X114016640Y-93621017D01*
X114061277Y-93595201D01*
X114099984Y-93562442D01*
X114131969Y-93523741D01*
X114156443Y-93480100D01*
X114172613Y-93432519D01*
X114179690Y-93382001D01*
X114179946Y-93369171D01*
X114174991Y-93317904D01*
X114160496Y-93270131D01*
X114136388Y-93225698D01*
X114102598Y-93184450D01*
X114089105Y-93171322D01*
X114047323Y-93139366D01*
X114001541Y-93116136D01*
X113953025Y-93101603D01*
X113903046Y-93095734D01*
X113852870Y-93098499D01*
X113803766Y-93109867D01*
X113757002Y-93129807D01*
X113713846Y-93158288D01*
X113688600Y-93181091D01*
X113653743Y-93223212D01*
X113628419Y-93268518D01*
X113612747Y-93316297D01*
X113606848Y-93365836D01*
X113542200Y-93365836D01*
X113543669Y-93331616D01*
X113554040Y-93280167D01*
G37*
G36*
X110377985Y-94150089D02*
G01*
X110375186Y-94133405D01*
X110373983Y-94124301D01*
X110374041Y-94123136D01*
X110379597Y-94121326D01*
X110394191Y-94117509D01*
X110416936Y-94111888D01*
X110446940Y-94104665D01*
X110483315Y-94096044D01*
X110525172Y-94086225D01*
X110571622Y-94075413D01*
X110621774Y-94063808D01*
X110674740Y-94051615D01*
X110729631Y-94039034D01*
X110785556Y-94026269D01*
X110841628Y-94013522D01*
X110896955Y-94000995D01*
X110950651Y-93988891D01*
X111001823Y-93977412D01*
X111049585Y-93966761D01*
X111093046Y-93957139D01*
X111131316Y-93948751D01*
X111163508Y-93941797D01*
X111188730Y-93936481D01*
X111206095Y-93933005D01*
X111214713Y-93931571D01*
X111215501Y-93931593D01*
X111217567Y-93937398D01*
X111221345Y-93951373D01*
X111226460Y-93971857D01*
X111232535Y-93997187D01*
X111239195Y-94025703D01*
X111246062Y-94055743D01*
X111252760Y-94085646D01*
X111258914Y-94113750D01*
X111264146Y-94138395D01*
X111268080Y-94157918D01*
X111270340Y-94170659D01*
X111270632Y-94174954D01*
X111265468Y-94176271D01*
X111251064Y-94179658D01*
X111228157Y-94184947D01*
X111197482Y-94191971D01*
X111159773Y-94200563D01*
X111115766Y-94210556D01*
X111066195Y-94221783D01*
X111011796Y-94234078D01*
X110953304Y-94247272D01*
X110891453Y-94261200D01*
X110852181Y-94270031D01*
X110788510Y-94284353D01*
X110727656Y-94298062D01*
X110670364Y-94310990D01*
X110617380Y-94322967D01*
X110569450Y-94333823D01*
X110527317Y-94343391D01*
X110491729Y-94351501D01*
X110463430Y-94357983D01*
X110443167Y-94362668D01*
X110431683Y-94365388D01*
X110429317Y-94366006D01*
X110422262Y-94364278D01*
X110420488Y-94361445D01*
X110418193Y-94352872D01*
X110414520Y-94336613D01*
X110409800Y-94314366D01*
X110404362Y-94287826D01*
X110398538Y-94258689D01*
X110392657Y-94228651D01*
X110387051Y-94199407D01*
X110383188Y-94178741D01*
X110452037Y-94178741D01*
X110453401Y-94192135D01*
X110456321Y-94210264D01*
X110460285Y-94230660D01*
X110464777Y-94250856D01*
X110469283Y-94268385D01*
X110473288Y-94280781D01*
X110476278Y-94285576D01*
X110476313Y-94285578D01*
X110482064Y-94284489D01*
X110496979Y-94281326D01*
X110520251Y-94276268D01*
X110551072Y-94269494D01*
X110588638Y-94261182D01*
X110632140Y-94251512D01*
X110680773Y-94240662D01*
X110733729Y-94228810D01*
X110790203Y-94216137D01*
X110836849Y-94205645D01*
X110895395Y-94192457D01*
X110950952Y-94179931D01*
X111002727Y-94168248D01*
X111049926Y-94157588D01*
X111091757Y-94148128D01*
X111127426Y-94140049D01*
X111156140Y-94133531D01*
X111177106Y-94128752D01*
X111189531Y-94125892D01*
X111192789Y-94125106D01*
X111192050Y-94120214D01*
X111189486Y-94107303D01*
X111185500Y-94088330D01*
X111180493Y-94065251D01*
X111180434Y-94064985D01*
X111174425Y-94039813D01*
X111168955Y-94020958D01*
X111164454Y-94009752D01*
X111161798Y-94007203D01*
X111156013Y-94008614D01*
X111141076Y-94012118D01*
X111117801Y-94017527D01*
X111087000Y-94024654D01*
X111049484Y-94033312D01*
X111006068Y-94043313D01*
X110957562Y-94054470D01*
X110904781Y-94066596D01*
X110848536Y-94079503D01*
X110806185Y-94089213D01*
X110748005Y-94102579D01*
X110692754Y-94115335D01*
X110641239Y-94127291D01*
X110594267Y-94138256D01*
X110552642Y-94148041D01*
X110517173Y-94156455D01*
X110488663Y-94163309D01*
X110467921Y-94168413D01*
X110455751Y-94171575D01*
X110452745Y-94172548D01*
X110452037Y-94178741D01*
X110383188Y-94178741D01*
X110382050Y-94172654D01*
X110377985Y-94150089D01*
G37*
G36*
X112609522Y-93497527D02*
G01*
X112630491Y-93444954D01*
X112634052Y-93437715D01*
X112664054Y-93388780D01*
X112700846Y-93346691D01*
X112743394Y-93311715D01*
X112790664Y-93284119D01*
X112841624Y-93264170D01*
X112895240Y-93252137D01*
X112950478Y-93248286D01*
X113006305Y-93252885D01*
X113061687Y-93266200D01*
X113115591Y-93288501D01*
X113145404Y-93305426D01*
X113186378Y-93336703D01*
X113223400Y-93375672D01*
X113254833Y-93420084D01*
X113279039Y-93467693D01*
X113292183Y-93506894D01*
X113297054Y-93535021D01*
X113299531Y-93569277D01*
X113299611Y-93605853D01*
X113297290Y-93640938D01*
X113292565Y-93670725D01*
X113292345Y-93671670D01*
X113275223Y-93722591D01*
X113249121Y-93770395D01*
X113215070Y-93814026D01*
X113174099Y-93852431D01*
X113127240Y-93884552D01*
X113075524Y-93909336D01*
X113052322Y-93917390D01*
X113017217Y-93925362D01*
X112976683Y-93929985D01*
X112934794Y-93931090D01*
X112895625Y-93928508D01*
X112873716Y-93924808D01*
X112815866Y-93906998D01*
X112763193Y-93881049D01*
X112716414Y-93847671D01*
X112676243Y-93807575D01*
X112643396Y-93761472D01*
X112618589Y-93710073D01*
X112602891Y-93655859D01*
X112595959Y-93601322D01*
X112596875Y-93578873D01*
X112661674Y-93578873D01*
X112664025Y-93626871D01*
X112675709Y-93674107D01*
X112696731Y-93719600D01*
X112727098Y-93762374D01*
X112743127Y-93779784D01*
X112781355Y-93812133D01*
X112824759Y-93838194D01*
X112870329Y-93856223D01*
X112879300Y-93858676D01*
X112910070Y-93863566D01*
X112946363Y-93864883D01*
X112984198Y-93862813D01*
X113019593Y-93857543D01*
X113043930Y-93850988D01*
X113075256Y-93837202D01*
X113107890Y-93818083D01*
X113138566Y-93795863D01*
X113164018Y-93772778D01*
X113172821Y-93762798D01*
X113203275Y-93717599D01*
X113223918Y-93670285D01*
X113234676Y-93621473D01*
X113235474Y-93571774D01*
X113226240Y-93521803D01*
X113207571Y-93473536D01*
X113180321Y-93428680D01*
X113146690Y-93390943D01*
X113107803Y-93360506D01*
X113064787Y-93337552D01*
X113018768Y-93322263D01*
X112970871Y-93314821D01*
X112922223Y-93315407D01*
X112873949Y-93324205D01*
X112827176Y-93341396D01*
X112783029Y-93367162D01*
X112745479Y-93398818D01*
X112710559Y-93440084D01*
X112684947Y-93484501D01*
X112668651Y-93531090D01*
X112661674Y-93578873D01*
X112596875Y-93578873D01*
X112598090Y-93549097D01*
X112609522Y-93497527D01*
G37*
G36*
X111331143Y-93921439D02*
G01*
X111328584Y-93909119D01*
X111328089Y-93905247D01*
X111333243Y-93903868D01*
X111347485Y-93900426D01*
X111369935Y-93895123D01*
X111399715Y-93888159D01*
X111435945Y-93879737D01*
X111477746Y-93870057D01*
X111524238Y-93859321D01*
X111574543Y-93847730D01*
X111627780Y-93835486D01*
X111683070Y-93822790D01*
X111739535Y-93809844D01*
X111796294Y-93796848D01*
X111852469Y-93784005D01*
X111907180Y-93771515D01*
X111959548Y-93759580D01*
X112008693Y-93748402D01*
X112053737Y-93738181D01*
X112093799Y-93729120D01*
X112128001Y-93721419D01*
X112155463Y-93715280D01*
X112175306Y-93710905D01*
X112186651Y-93708494D01*
X112189026Y-93708074D01*
X112191409Y-93712809D01*
X112195595Y-93725912D01*
X112201195Y-93745765D01*
X112207816Y-93770754D01*
X112215068Y-93799262D01*
X112222561Y-93829672D01*
X112229903Y-93860370D01*
X112236703Y-93889739D01*
X112242572Y-93916164D01*
X112247117Y-93938028D01*
X112249948Y-93953715D01*
X112250674Y-93961609D01*
X112250484Y-93962172D01*
X112245124Y-93963718D01*
X112230560Y-93967246D01*
X112207577Y-93972581D01*
X112176962Y-93979546D01*
X112139502Y-93987966D01*
X112095982Y-93997665D01*
X112047189Y-94008467D01*
X111993909Y-94020196D01*
X111936929Y-94032675D01*
X111878194Y-94045478D01*
X111797449Y-94063037D01*
X111726108Y-94078549D01*
X111663587Y-94092134D01*
X111609300Y-94103917D01*
X111562665Y-94114018D01*
X111523097Y-94122561D01*
X111490010Y-94129667D01*
X111462822Y-94135459D01*
X111440947Y-94140060D01*
X111423801Y-94143590D01*
X111410800Y-94146173D01*
X111401360Y-94147931D01*
X111394896Y-94148986D01*
X111390823Y-94149461D01*
X111388559Y-94149477D01*
X111387517Y-94149157D01*
X111387114Y-94148624D01*
X111386946Y-94148271D01*
X111384889Y-94141866D01*
X111380984Y-94127442D01*
X111375629Y-94106651D01*
X111369224Y-94081141D01*
X111362170Y-94052564D01*
X111354866Y-94022571D01*
X111347711Y-93992811D01*
X111341106Y-93964935D01*
X111340220Y-93961120D01*
X111410595Y-93961120D01*
X111412616Y-93974322D01*
X111416438Y-93992295D01*
X111421449Y-94012722D01*
X111427040Y-94033289D01*
X111432598Y-94051677D01*
X111437515Y-94065572D01*
X111441178Y-94072657D01*
X111442112Y-94073082D01*
X111447894Y-94071714D01*
X111462856Y-94068361D01*
X111486190Y-94063201D01*
X111517086Y-94056412D01*
X111554734Y-94048169D01*
X111598326Y-94038650D01*
X111647052Y-94028032D01*
X111700102Y-94016492D01*
X111756667Y-94004207D01*
X111802765Y-93994209D01*
X111861599Y-93981447D01*
X111917615Y-93969276D01*
X111969997Y-93957877D01*
X112017925Y-93947427D01*
X112060583Y-93938106D01*
X112097153Y-93930093D01*
X112126818Y-93923566D01*
X112148758Y-93918704D01*
X112162158Y-93915686D01*
X112166145Y-93914731D01*
X112169323Y-93912709D01*
X112170674Y-93908001D01*
X112170023Y-93898974D01*
X112167196Y-93883993D01*
X112162019Y-93861422D01*
X112159213Y-93849743D01*
X112153438Y-93826038D01*
X112148560Y-93806323D01*
X112145057Y-93792509D01*
X112143407Y-93786506D01*
X112143358Y-93786403D01*
X112138319Y-93787275D01*
X112124276Y-93790248D01*
X112102179Y-93795105D01*
X112072980Y-93801625D01*
X112037629Y-93809591D01*
X111997076Y-93818783D01*
X111952273Y-93828983D01*
X111904168Y-93839972D01*
X111853714Y-93851530D01*
X111801861Y-93863439D01*
X111749559Y-93875481D01*
X111697759Y-93887436D01*
X111647411Y-93899086D01*
X111599466Y-93910211D01*
X111554874Y-93920594D01*
X111514587Y-93930014D01*
X111479555Y-93938254D01*
X111450727Y-93945094D01*
X111429056Y-93950316D01*
X111415490Y-93953700D01*
X111410984Y-93955006D01*
X111410595Y-93961120D01*
X111340220Y-93961120D01*
X111335450Y-93940594D01*
X111331143Y-93921439D01*
G37*
%TO.C,R2*%
X99975641Y-97049000D02*
X99668359Y-97049000D01*
X99975641Y-97809000D02*
X99668359Y-97809000D01*
%TO.C,U1*%
X121956000Y-96974000D02*
X121231000Y-96974000D01*
X127726000Y-96974000D02*
X128451000Y-96974000D01*
X128451000Y-104194000D02*
X128451000Y-103469000D01*
X121956000Y-104194000D02*
X121231000Y-104194000D01*
X121231000Y-104194000D02*
X121231000Y-103469000D01*
X127726000Y-104194000D02*
X128451000Y-104194000D01*
X128451000Y-96974000D02*
X128451000Y-97699000D01*
%TO.C,R1*%
X99567000Y-101092641D02*
X99567000Y-100785359D01*
X98807000Y-101092641D02*
X98807000Y-100785359D01*
%TO.C,C6*%
X129434000Y-102956164D02*
X129434000Y-103171836D01*
X130154000Y-102956164D02*
X130154000Y-103171836D01*
%TO.C,Y1*%
X126587000Y-110512000D02*
X126587000Y-107212000D01*
X126587000Y-107212000D02*
X122587000Y-107212000D01*
%TO.C,C1*%
X126274836Y-106532000D02*
X126059164Y-106532000D01*
X126274836Y-105812000D02*
X126059164Y-105812000D01*
%TO.C,C4*%
X102258800Y-95257252D02*
X102258800Y-94734748D01*
X100788800Y-95257252D02*
X100788800Y-94734748D01*
%TO.C,C2*%
X123844164Y-106532000D02*
X124059836Y-106532000D01*
X123844164Y-105812000D02*
X124059836Y-105812000D01*
D10*
%TO.C,J3*%
X129814000Y-68925000D02*
X97414000Y-68925000D01*
X129814000Y-81325000D02*
X97514000Y-81325000D01*
X129814000Y-68925000D02*
X129814000Y-81325000D01*
X97464000Y-68925000D02*
G75*
G03*
X91264000Y-75125000I0J-6200000D01*
G01*
X91264000Y-75125000D02*
G75*
G03*
X97464000Y-81325000I6200000J0D01*
G01*
D13*
%TO.C,C5*%
X127205836Y-95271000D02*
X126990164Y-95271000D01*
X127205836Y-95991000D02*
X126990164Y-95991000D01*
D11*
%TO.C,J1*%
X88755500Y-94209000D02*
X89985500Y-94209000D01*
X88755500Y-103149000D02*
X88755500Y-94209000D01*
X94165500Y-103149000D02*
X92725500Y-103149000D01*
X89985500Y-103149000D02*
X88755500Y-103149000D01*
X94165500Y-94209000D02*
X92725500Y-94209000D01*
D12*
X97855500Y-95279000D02*
G75*
G03*
X97855500Y-95279000I-100000J0D01*
G01*
D13*
%TO.C,C3*%
X99547000Y-95865836D02*
X99547000Y-95650164D01*
X98827000Y-95865836D02*
X98827000Y-95650164D01*
%TD*%
%LPC*%
D15*
%TO.C,S1*%
X111922500Y-104770400D03*
X105922500Y-104770400D03*
X111922500Y-101020400D03*
X105922500Y-101020400D03*
%TD*%
D16*
%TO.C,C9*%
X119250400Y-97028000D03*
X118290400Y-97028000D03*
%TD*%
%TO.C,C7*%
X120627200Y-105587800D03*
X121587200Y-105587800D03*
%TD*%
%TO.C,C8*%
X119225000Y-101727000D03*
X118265000Y-101727000D03*
%TD*%
D17*
%TO.C,J2*%
X97064000Y-120709000D03*
X101064000Y-120709000D03*
X105064000Y-120809000D03*
X109064000Y-120709000D03*
X115564000Y-120709000D03*
X119564000Y-120709000D03*
X123564000Y-120709000D03*
%TD*%
D18*
%TO.C,R6*%
X118235000Y-98171000D03*
X119255000Y-98171000D03*
%TD*%
D19*
%TO.C,R3*%
X119456200Y-107596400D03*
X119456200Y-106576400D03*
%TD*%
D20*
%TO.C,J5*%
X138975000Y-75125000D03*
X159475000Y-75125000D03*
D21*
X147168000Y-86125000D03*
X151359000Y-86125000D03*
X155550000Y-86125000D03*
X155550000Y-89125000D03*
X151359000Y-89125000D03*
X147168000Y-89125000D03*
X142977000Y-89125000D03*
%TD*%
D22*
%TO.C,H3*%
X155550000Y-97917000D03*
%TD*%
D20*
%TO.C,J4*%
X138975000Y-120709000D03*
X159475000Y-120709000D03*
D21*
X151282000Y-109709000D03*
X147091000Y-109709000D03*
X142900000Y-109709000D03*
X142900000Y-106709000D03*
X147091000Y-106709000D03*
X151282000Y-106709000D03*
X155473000Y-106709000D03*
%TD*%
D23*
%TO.C,R4*%
X102821200Y-109728000D03*
X101801200Y-109728000D03*
%TD*%
D16*
%TO.C,C10*%
X119225000Y-100584000D03*
X118265000Y-100584000D03*
%TD*%
D22*
%TO.C,H1*%
X93895500Y-87249000D03*
%TD*%
D24*
%TO.C,D1*%
X103098700Y-108204000D03*
X101523700Y-108204000D03*
%TD*%
D18*
%TO.C,R5*%
X118235000Y-99314000D03*
X119255000Y-99314000D03*
%TD*%
D22*
%TO.C,H2*%
X93895500Y-110109000D03*
%TD*%
D23*
%TO.C,R2*%
X100332000Y-97429000D03*
X99312000Y-97429000D03*
%TD*%
D25*
%TO.C,U1*%
X121503500Y-98084000D03*
X121503500Y-98584000D03*
X121503500Y-99084000D03*
X121503500Y-99584000D03*
X121503500Y-100084000D03*
X121503500Y-100584000D03*
X121503500Y-101084000D03*
X121503500Y-101584000D03*
X121503500Y-102084000D03*
X121503500Y-102584000D03*
X121503500Y-103084000D03*
D26*
X122341000Y-103921500D03*
X122841000Y-103921500D03*
X123341000Y-103921500D03*
X123841000Y-103921500D03*
X124341000Y-103921500D03*
X124841000Y-103921500D03*
X125341000Y-103921500D03*
X125841000Y-103921500D03*
X126341000Y-103921500D03*
X126841000Y-103921500D03*
X127341000Y-103921500D03*
D25*
X128178500Y-103084000D03*
X128178500Y-102584000D03*
X128178500Y-102084000D03*
X128178500Y-101584000D03*
X128178500Y-101084000D03*
X128178500Y-100584000D03*
X128178500Y-100084000D03*
X128178500Y-99584000D03*
X128178500Y-99084000D03*
X128178500Y-98584000D03*
X128178500Y-98084000D03*
D26*
X127341000Y-97246500D03*
X126841000Y-97246500D03*
X126341000Y-97246500D03*
X125841000Y-97246500D03*
X125341000Y-97246500D03*
X124841000Y-97246500D03*
X124341000Y-97246500D03*
X123841000Y-97246500D03*
X123341000Y-97246500D03*
X122841000Y-97246500D03*
X122341000Y-97246500D03*
D27*
X124841000Y-100584000D03*
%TD*%
D19*
%TO.C,R1*%
X99187000Y-101449000D03*
X99187000Y-100429000D03*
%TD*%
D28*
%TO.C,C6*%
X129794000Y-102584000D03*
X129794000Y-103544000D03*
%TD*%
D29*
%TO.C,Y1*%
X125687000Y-108012000D03*
X123487000Y-108012000D03*
X123487000Y-109712000D03*
X125687000Y-109712000D03*
%TD*%
D16*
%TO.C,C1*%
X126647000Y-106172000D03*
X125687000Y-106172000D03*
%TD*%
D30*
%TO.C,C4*%
X101523800Y-95946000D03*
X101523800Y-94046000D03*
%TD*%
D31*
%TO.C,C2*%
X123472000Y-106172000D03*
X124432000Y-106172000D03*
%TD*%
D17*
%TO.C,J3*%
X124014000Y-75125000D03*
X120014000Y-75125000D03*
X116014000Y-75025000D03*
X112014000Y-75125000D03*
X105514000Y-75125000D03*
X101514000Y-75125000D03*
X97514000Y-75125000D03*
%TD*%
D16*
%TO.C,C5*%
X127578000Y-95631000D03*
X126618000Y-95631000D03*
%TD*%
D32*
%TO.C,J1*%
X95005500Y-101569000D03*
X95005500Y-95789000D03*
D33*
X96450500Y-95429000D03*
X96450500Y-96229000D03*
D34*
X96450500Y-97429000D03*
X96450500Y-98429000D03*
X96450500Y-98929000D03*
X96450500Y-99929000D03*
D33*
X96450500Y-101929000D03*
X96450500Y-101129000D03*
D34*
X96450500Y-100429000D03*
X96450500Y-99429000D03*
X96450500Y-97929000D03*
X96450500Y-96929000D03*
D35*
X95535500Y-94359000D03*
X95535500Y-102999000D03*
X91355500Y-94359000D03*
X91355500Y-102999000D03*
%TD*%
D36*
%TO.C,C3*%
X99187000Y-96238000D03*
X99187000Y-95278000D03*
%TD*%
M02*
